<svg width="1425" height="958" viewBox="0 0 1425 958" fill="none" xmlns="http://www.w3.org/2000/svg">
<g id="plant">
<rect width="1425" height="958" fill="white"/>
<g id="Grid">
<rect id="Rectangle 14" x="91.5" y="65.5" width="207" height="207" fill="#FFF4E9" stroke="black" stroke-width="3"/>
<rect id="Rectangle 20" x="91.5" y="272.5" width="207" height="207" fill="#FFF4E9" stroke="black" stroke-width="3"/>
<rect id="Rectangle 26" x="91.5" y="479.5" width="207" height="207" fill="#FFF4E9" stroke="black" stroke-width="3"/>
<rect id="Rectangle 32" x="91.5" y="686.5" width="207" height="207" fill="#FFF4E9" stroke="black" stroke-width="3"/>
<rect id="Rectangle 15" x="298.5" y="65.5" width="207" height="207" fill="#FFF4E9" stroke="black" stroke-width="3"/>
<rect id="Rectangle 21" x="298.5" y="272.5" width="207" height="207" fill="#FFF4E9" stroke="black" stroke-width="3"/>
<rect id="Rectangle 27" x="298.5" y="479.5" width="207" height="207" fill="#FFF4E9" stroke="black" stroke-width="3"/>
<rect id="Rectangle 33" x="298.5" y="686.5" width="207" height="207" fill="#FFF4E9" stroke="black" stroke-width="3"/>
<rect id="Rectangle 16" x="505.5" y="65.5" width="207" height="207" fill="#FFF4E9" stroke="black" stroke-width="3"/>
<rect id="Rectangle 22" x="505.5" y="272.5" width="207" height="207" fill="#FFF4E9" stroke="black" stroke-width="3"/>
<rect id="Rectangle 28" x="505.5" y="479.5" width="207" height="207" fill="#FFF4E9" stroke="black" stroke-width="3"/>
<g id="O-Rover">
<g id="OR-Frame">
<path id="OR-Body" d="M571 646.5H639C640.933 646.5 642.5 648.067 642.5 650V663C642.5 664.933 640.933 666.5 639 666.5H571C569.067 666.5 567.5 664.933 567.5 663V650C567.5 648.127 568.971 646.598 570.82 646.505L571 646.5Z" fill="#E8871E" stroke="black" stroke-width="3"/>
<path id="OR-Head" d="M640 626.5H648C649.933 626.5 651.5 628.067 651.5 630V648C651.5 652.142 648.142 655.5 644 655.5H640C638.067 655.5 636.5 653.933 636.5 652V630C636.5 628.067 638.067 626.5 640 626.5Z" fill="#E8871E" stroke="black" stroke-width="3"/>
</g>
<g id="OR-Wheels">
<rect id="OR-Wheel" x="576.5" y="663.5" width="15" height="15" rx="7.5" fill="#39393A" stroke="black" stroke-width="3"/>
<rect id="OR-Wheel_2" x="617.5" y="663.5" width="15" height="15" rx="7.5" fill="#39393A" stroke="black" stroke-width="3"/>
</g>
<g id="Repair-Kit">
<path id="Vector" d="M589.006 605.089C590.812 604.42 592.859 604.849 594.245 606.234C596.184 608.172 596.184 611.316 594.245 613.254C592.306 615.193 589.162 615.193 587.222 613.254C585.831 611.863 585.405 609.805 586.085 607.995C586.256 607.539 586.025 607.029 585.568 606.858C585.111 606.686 584.602 606.918 584.43 607.374C583.509 609.827 584.087 612.618 585.973 614.503C588.602 617.132 592.865 617.132 595.495 614.503C598.124 611.875 598.124 607.613 595.495 604.985C593.616 603.108 590.84 602.526 588.393 603.432C587.935 603.601 587.701 604.109 587.871 604.567C588.04 605.024 588.549 605.258 589.006 605.089Z" fill="black"/>
<path id="Vector_2" d="M587.872 605.001L590.153 607.282C590.34 607.468 590.34 607.772 590.153 607.959L588.949 609.164C588.761 609.351 588.458 609.351 588.271 609.164L586.002 606.896C585.657 606.551 585.097 606.551 584.752 606.896C584.407 607.241 584.407 607.8 584.752 608.145L587.021 610.413C587.899 611.29 589.321 611.29 590.198 610.413L591.403 609.208C592.28 608.332 592.28 606.91 591.403 606.033L589.122 603.752C588.776 603.407 588.217 603.407 587.872 603.752C587.527 604.097 587.527 604.656 587.872 605.001ZM616.994 638.924C615.188 639.592 613.141 639.164 611.755 637.779C609.816 635.84 609.816 632.697 611.755 630.759C613.694 628.82 616.838 628.82 618.778 630.759C620.169 632.15 620.595 634.208 619.915 636.017C619.744 636.474 619.975 636.983 620.432 637.155C620.889 637.326 621.398 637.095 621.57 636.639C622.491 634.186 621.913 631.395 620.027 629.509C617.398 626.881 613.135 626.881 610.505 629.509C607.876 632.138 607.876 636.4 610.505 639.028C612.384 640.905 615.16 641.486 617.607 640.581C618.065 640.411 618.299 639.903 618.129 639.446C617.96 638.988 617.451 638.755 616.994 638.924H616.994Z" fill="black"/>
<path id="Vector_3" d="M618.128 639.011L615.847 636.731C615.66 636.544 615.66 636.241 615.847 636.054L617.051 634.849C617.239 634.662 617.542 634.662 617.729 634.849L619.998 637.117C620.343 637.462 620.903 637.462 621.248 637.117C621.593 636.772 621.593 636.213 621.248 635.868L618.979 633.6C618.101 632.723 616.679 632.723 615.802 633.6L614.597 634.805C613.72 635.681 613.72 637.103 614.597 637.98L616.878 640.261C617.223 640.606 617.783 640.606 618.128 640.261C618.473 639.916 618.473 639.356 618.128 639.011L618.128 639.011ZM610.007 631.745L593.127 614.871C592.782 614.526 592.222 614.526 591.877 614.871C591.532 615.216 591.532 615.775 591.877 616.12L608.757 632.995C609.102 633.34 609.662 633.34 610.007 632.995C610.352 632.65 610.352 632.09 610.007 631.745ZM595.739 611.953L613.013 629.22C613.358 629.565 613.917 629.565 614.262 629.22C614.607 628.875 614.607 628.316 614.262 627.971L596.989 610.704C596.644 610.359 596.084 610.359 595.739 610.704C595.394 611.048 595.394 611.608 595.739 611.953ZM606.78 616.805L614.405 609.183C614.75 608.838 614.75 608.279 614.405 607.934C614.06 607.589 613.5 607.589 613.155 607.934L605.531 615.556C605.186 615.901 605.186 616.46 605.531 616.805C605.876 617.15 606.435 617.15 606.78 616.805ZM616.03 610.34L608.154 618.137C607.807 618.48 607.805 619.039 608.148 619.386C608.491 619.732 609.051 619.735 609.398 619.392L617.273 611.595C617.62 611.252 617.623 610.693 617.279 610.346C616.936 609.999 616.376 609.997 616.03 610.34Z" fill="black"/>
<path id="Vector_4" d="M621.709 605.559C621.826 605.676 621.908 605.824 621.946 605.985C621.983 606.147 621.974 606.315 621.919 606.472L620.703 609.988C620.659 610.115 620.587 610.23 620.493 610.324C620.398 610.419 620.283 610.491 620.157 610.534L616.639 611.751C616.482 611.805 616.313 611.814 616.152 611.777C615.99 611.74 615.842 611.658 615.725 611.541L613.425 609.241C613.308 609.124 613.226 608.976 613.189 608.814C613.151 608.653 613.16 608.484 613.215 608.328L614.431 604.811C614.475 604.685 614.547 604.57 614.641 604.475C614.736 604.381 614.851 604.309 614.977 604.265L618.495 603.049C618.651 602.994 618.82 602.985 618.982 603.022C619.143 603.06 619.291 603.142 619.408 603.259L621.709 605.559L621.709 605.559ZM618.55 604.899L615.961 605.794L615.065 608.383L616.584 609.901L619.173 609.005L620.069 606.417L618.55 604.899H618.55ZM600.38 628.385L589.915 638.847C589.592 639.17 589.203 639.212 589.064 639.072L585.848 635.858C585.709 635.719 585.751 635.33 586.074 635.007L596.519 624.566C596.864 624.221 596.864 623.662 596.519 623.317C596.174 622.972 595.614 622.972 595.269 623.317L584.825 633.758C583.863 634.719 583.703 636.211 584.598 637.106L587.814 640.322C588.711 641.217 590.204 641.057 591.165 640.096L601.63 629.634C601.975 629.289 601.975 628.73 601.63 628.385C601.284 628.04 600.725 628.04 600.38 628.385L600.38 628.385Z" fill="black"/>
</g>
</g>
<rect id="Rectangle 34" x="505.5" y="686.5" width="207" height="207" fill="#FFF4E9" stroke="black" stroke-width="3"/>
<rect id="Rectangle 17" x="712.5" y="65.5" width="207" height="207" fill="#FFF4E9" stroke="black" stroke-width="3"/>
<rect id="Rectangle 23" x="712.5" y="272.5" width="207" height="207" fill="#FFF4E9" stroke="black" stroke-width="3"/>
<rect id="Rectangle 29" x="712.5" y="479.5" width="207" height="207" fill="#FFF4E9" stroke="black" stroke-width="3"/>
<rect id="Rectangle 35" x="712.5" y="686.5" width="207" height="207" fill="#FFF4E9" stroke="black" stroke-width="3"/>
<rect id="Rectangle 18" x="919.5" y="65.5" width="207" height="207" fill="#FFF4E9" stroke="black" stroke-width="3"/>
<rect id="Rectangle 24" x="919.5" y="272.5" width="207" height="207" fill="#FFF4E9" stroke="black" stroke-width="3"/>
<rect id="Rectangle 30" x="919.5" y="479.5" width="207" height="207" fill="#FFF4E9" stroke="black" stroke-width="3"/>
<rect id="Rectangle 36" x="919.5" y="686.5" width="207" height="207" fill="#FFF4E9" stroke="black" stroke-width="3"/>
<rect id="Rectangle 19" x="1126.5" y="65.5" width="207" height="207" fill="#FFF4E9" stroke="black" stroke-width="3"/>
<rect id="Rectangle 25" x="1126.5" y="272.5" width="207" height="207" fill="#FFF4E9" stroke="black" stroke-width="3"/>
<rect id="Rectangle 31" x="1126.5" y="479.5" width="207" height="207" fill="#FFF4E9" stroke="black" stroke-width="3"/>
<rect id="Rectangle 37" x="1126.5" y="686.5" width="207" height="207" fill="#FFF4E9" stroke="black" stroke-width="3"/>
<g id="Charging-Station">
<path id="CS-Base" d="M796.5 699.5H835.5C837.433 699.5 839 701.067 839 703V777.5H793V703C793 701.067 794.567 699.5 796.5 699.5Z" fill="#747474" stroke="black" stroke-width="3"/>
<g id="CS-Body">
<path id="Rect" d="M783 763.5H848C849.933 763.5 851.5 765.067 851.5 767V777.5H779.5V767C779.5 765.067 781.067 763.5 783 763.5Z" fill="#39393A" stroke="black" stroke-width="3"/>
<path id="Vector_5" d="M815.523 714.005C815.583 714.026 815.812 714.204 815.812 714.637V727.091H824.688C824.694 727.091 824.719 727.092 824.76 727.122C824.803 727.154 824.865 727.218 824.917 727.331C825.028 727.572 825.027 727.889 824.915 728.128L815.728 747.765C815.661 747.907 815.583 747.967 815.543 747.987C815.51 748.004 815.494 748.001 815.477 747.995C815.417 747.975 815.188 747.797 815.188 747.363V734.909H806.312C806.306 734.909 806.282 734.908 806.24 734.878C806.197 734.846 806.134 734.782 806.082 734.669C805.971 734.428 805.972 734.111 806.084 733.872L815.271 714.236C815.338 714.094 815.417 714.033 815.457 714.013C815.49 713.996 815.506 713.999 815.523 714.005Z" fill="#07BEB8" stroke="black" stroke-width="2"/>
</g>
</g>
<g id="Charging-Station_2">
<path id="CS-Base_2" d="M589.5 82.5H628.5C630.433 82.5 632 84.067 632 86V160.5H586V86C586 84.067 587.567 82.5 589.5 82.5Z" fill="#747474" stroke="black" stroke-width="3"/>
<g id="CS-Body_2">
<path id="Rect_2" d="M576 146.5H641C642.933 146.5 644.5 148.067 644.5 150V160.5H572.5V150C572.5 148.067 574.067 146.5 576 146.5Z" fill="#39393A" stroke="black" stroke-width="3"/>
<path id="Vector_6" d="M608.523 97.0049C608.583 97.0256 608.812 97.2035 608.812 97.6367V110.091H617.688C617.694 110.091 617.719 110.092 617.76 110.122C617.803 110.154 617.865 110.218 617.917 110.331C618.028 110.572 618.027 110.889 617.915 111.128L608.728 130.765C608.661 130.907 608.583 130.967 608.543 130.987C608.51 131.004 608.494 131.001 608.477 130.995C608.417 130.975 608.188 130.797 608.188 130.363V117.909H599.312C599.306 117.909 599.282 117.908 599.24 117.878C599.197 117.846 599.134 117.782 599.082 117.669C598.971 117.428 598.972 117.111 599.084 116.872L608.271 97.2363C608.338 97.0937 608.417 97.033 608.457 97.0127C608.49 96.996 608.506 96.9989 608.523 97.0049Z" fill="#07BEB8" stroke="black" stroke-width="2"/>
</g>
</g>
<g id="Group 18">
<g id="M2">
<path id="M2-Frame" d="M935 489.5H997C998.933 489.5 1000.5 491.067 1000.5 493V556.5H931.5V493C931.5 491.067 933.067 489.5 935 489.5Z" fill="#07BEB8" stroke="black" stroke-width="3"/>
<g id="M2-Support">
<g id="Rectangle 2">
<mask id="path-40-inside-1_9_572" fill="white">
<rect x="930" y="555" width="13.948" height="14" rx="2"/>
</mask>
<rect x="930" y="555" width="13.948" height="14" rx="2" fill="#39393A" stroke="black" stroke-width="6" mask="url(#path-40-inside-1_9_572)"/>
</g>
<g id="Rectangle 3">
<mask id="path-41-inside-2_9_572" fill="white">
<rect x="988.052" y="555" width="13.948" height="14" rx="2"/>
</mask>
<rect x="988.052" y="555" width="13.948" height="14" rx="2" fill="#39393A" stroke="black" stroke-width="6" mask="url(#path-41-inside-2_9_572)"/>
</g>
</g>
<text id="M2_2" fill="black" style="white-space: pre" xml:space="preserve" font-family="Arial" font-size="12" font-weight="900" letter-spacing="0.04em"><tspan x="937" y="503.246">M2</tspan></text>
<g id="M2-Item">
<path id="path453757" fill-rule="evenodd" clip-rule="evenodd" d="M960.786 539.857C960.426 539.857 960.081 540 959.826 540.255C959.572 540.509 959.429 540.854 959.429 541.214C959.429 541.574 959.572 541.919 959.826 542.174C960.081 542.428 960.426 542.571 960.786 542.571H968.929C969.289 542.571 969.634 542.428 969.888 542.174C970.143 541.919 970.286 541.574 970.286 541.214C970.286 540.854 970.143 540.509 969.888 540.255C969.634 540 969.289 539.857 968.929 539.857H960.786Z" fill="black"/>
<path id="path453703" fill-rule="evenodd" clip-rule="evenodd" d="M959.429 510C959.176 510 958.929 510.071 958.715 510.204C958.5 510.337 958.327 510.527 958.215 510.753L954.143 518.943C954.057 519.122 954.011 519.317 954.008 519.516C954.005 519.526 954.003 519.537 954 519.548V546.643C954 547.003 954.143 547.348 954.398 547.602C954.652 547.857 954.997 548 955.357 548H990.643C991.003 548 991.348 547.857 991.602 547.602C991.857 547.348 992 547.003 992 546.643V519.548V519.545C991.999 519.336 991.95 519.13 991.857 518.943L987.785 510.753C987.673 510.527 987.5 510.337 987.286 510.204C987.071 510.071 986.824 510 986.572 510H959.429ZM960.266 512.714H968.693L967.805 518.191H957.547L960.266 512.714ZM971.439 512.714H977.278L978.193 518.191H970.554L971.439 512.714ZM980.03 512.714H985.731L988.454 518.191H980.944L980.03 512.714ZM956.714 520.905H967.572V534.429C967.572 534.697 967.651 534.959 967.801 535.182C967.95 535.405 968.162 535.579 968.409 535.682C968.657 535.785 968.93 535.812 969.193 535.759C969.457 535.707 969.698 535.578 969.888 535.388L974.357 530.919L978.826 535.388C979.016 535.578 979.258 535.707 979.521 535.759C979.784 535.812 980.057 535.785 980.305 535.682C980.553 535.579 980.765 535.405 980.914 535.182C981.063 534.959 981.143 534.697 981.143 534.429V520.905H989.286V545.286H956.714V520.905ZM970.286 520.905H978.429V531.152L975.317 528.04C975.062 527.786 974.717 527.643 974.357 527.643C973.997 527.643 973.652 527.786 973.398 528.04L970.286 531.152V520.905Z" fill="black"/>
<text id="1" fill="black" style="white-space: pre" xml:space="preserve" font-family="Arial" font-size="12" font-weight="900" letter-spacing="0.04em"><tspan x="981" y="543.246">1</tspan></text>
</g>
</g>
<g id="D2">
<path id="D2-Frame" d="M1064.01 490.324C1064.95 489.899 1066.02 489.907 1066.95 490.346L1113.49 512.32C1114.72 512.898 1115.5 514.131 1115.5 515.485V564C1115.5 565.933 1113.93 567.5 1112 567.5H1017C1015.07 567.5 1013.5 565.933 1013.5 564V515.536C1013.5 514.164 1014.3 512.918 1015.55 512.35L1064.01 490.324Z" fill="#D9D7DD" stroke="black" stroke-width="3"/>
<g id="D2-Item-2">
<path id="path453757_2" fill-rule="evenodd" clip-rule="evenodd" d="M1077.79 552.857C1077.43 552.857 1077.08 553 1076.83 553.255C1076.57 553.509 1076.43 553.854 1076.43 554.214C1076.43 554.574 1076.57 554.919 1076.83 555.174C1077.08 555.428 1077.43 555.571 1077.79 555.571H1085.93C1086.29 555.571 1086.63 555.428 1086.89 555.174C1087.14 554.919 1087.29 554.574 1087.29 554.214C1087.29 553.854 1087.14 553.509 1086.89 553.255C1086.63 553 1086.29 552.857 1085.93 552.857H1077.79Z" fill="black"/>
<path id="path453703_2" fill-rule="evenodd" clip-rule="evenodd" d="M1076.43 523C1076.18 523 1075.93 523.071 1075.71 523.204C1075.5 523.337 1075.33 523.527 1075.21 523.753L1071.14 531.943C1071.06 532.122 1071.01 532.317 1071.01 532.516C1071.01 532.526 1071 532.537 1071 532.548V559.643C1071 560.003 1071.14 560.348 1071.4 560.602C1071.65 560.857 1072 561 1072.36 561H1107.64C1108 561 1108.35 560.857 1108.6 560.602C1108.86 560.348 1109 560.003 1109 559.643V532.548V532.545C1109 532.336 1108.95 532.13 1108.86 531.943L1104.79 523.753C1104.67 523.527 1104.5 523.337 1104.29 523.204C1104.07 523.071 1103.82 523 1103.57 523H1076.43ZM1077.27 525.714H1085.69L1084.8 531.191H1074.55L1077.27 525.714ZM1088.44 525.714H1094.28L1095.19 531.191H1087.55L1088.44 525.714ZM1097.03 525.714H1102.73L1105.45 531.191H1097.94L1097.03 525.714ZM1073.71 533.905H1084.57V547.429C1084.57 547.697 1084.65 547.959 1084.8 548.182C1084.95 548.405 1085.16 548.579 1085.41 548.682C1085.66 548.785 1085.93 548.812 1086.19 548.759C1086.46 548.707 1086.7 548.578 1086.89 548.388L1091.36 543.919L1095.83 548.388C1096.02 548.578 1096.26 548.707 1096.52 548.759C1096.78 548.812 1097.06 548.785 1097.31 548.682C1097.55 548.579 1097.76 548.405 1097.91 548.182C1098.06 547.959 1098.14 547.697 1098.14 547.429V533.905H1106.29V558.286H1073.71V533.905ZM1087.29 533.905H1095.43V544.152L1092.32 541.04C1092.06 540.786 1091.72 540.643 1091.36 540.643C1091 540.643 1090.65 540.786 1090.4 541.04L1087.29 544.152V533.905Z" fill="black"/>
<text id="2" fill="black" style="white-space: pre" xml:space="preserve" font-family="Arial" font-size="12" font-weight="900" letter-spacing="0.04em"><tspan x="1098" y="556.246">2</tspan></text>
</g>
<g id="D2-Item-1">
<path id="path453757_3" fill-rule="evenodd" clip-rule="evenodd" d="M1027.79 553.857C1027.43 553.857 1027.08 554 1026.83 554.255C1026.57 554.509 1026.43 554.854 1026.43 555.214C1026.43 555.574 1026.57 555.919 1026.83 556.174C1027.08 556.428 1027.43 556.571 1027.79 556.571H1035.93C1036.29 556.571 1036.63 556.428 1036.89 556.174C1037.14 555.919 1037.29 555.574 1037.29 555.214C1037.29 554.854 1037.14 554.509 1036.89 554.255C1036.63 554 1036.29 553.857 1035.93 553.857H1027.79Z" fill="black"/>
<path id="path453703_3" fill-rule="evenodd" clip-rule="evenodd" d="M1026.43 524C1026.18 524 1025.93 524.071 1025.71 524.204C1025.5 524.337 1025.33 524.527 1025.21 524.753L1021.14 532.943C1021.06 533.122 1021.01 533.317 1021.01 533.516C1021.01 533.526 1021 533.537 1021 533.548V560.643C1021 561.003 1021.14 561.348 1021.4 561.602C1021.65 561.857 1022 562 1022.36 562H1057.64C1058 562 1058.35 561.857 1058.6 561.602C1058.86 561.348 1059 561.003 1059 560.643V533.548V533.545C1059 533.336 1058.95 533.13 1058.86 532.943L1054.79 524.753C1054.67 524.527 1054.5 524.337 1054.29 524.204C1054.07 524.071 1053.82 524 1053.57 524H1026.43ZM1027.27 526.714H1035.69L1034.8 532.191H1024.55L1027.27 526.714ZM1038.44 526.714H1044.28L1045.19 532.191H1037.55L1038.44 526.714ZM1047.03 526.714H1052.73L1055.45 532.191H1047.94L1047.03 526.714ZM1023.71 534.905H1034.57V548.429C1034.57 548.697 1034.65 548.959 1034.8 549.182C1034.95 549.405 1035.16 549.579 1035.41 549.682C1035.66 549.785 1035.93 549.812 1036.19 549.759C1036.46 549.707 1036.7 549.578 1036.89 549.388L1041.36 544.919L1045.83 549.388C1046.02 549.578 1046.26 549.707 1046.52 549.759C1046.78 549.812 1047.06 549.785 1047.31 549.682C1047.55 549.579 1047.76 549.405 1047.91 549.182C1048.06 548.959 1048.14 548.697 1048.14 548.429V534.905H1056.29V559.286H1023.71V534.905ZM1037.29 534.905H1045.43V545.152L1042.32 542.04C1042.06 541.786 1041.72 541.643 1041.36 541.643C1041 541.643 1040.65 541.786 1040.4 542.04L1037.29 545.152V534.905Z" fill="black"/>
<text id="2_2" fill="black" style="white-space: pre" xml:space="preserve" font-family="Arial" font-size="12" font-weight="900" letter-spacing="0.04em"><tspan x="1048" y="557.246">2</tspan></text>
</g>
<text id="D2_2" transform="translate(1056 499)" fill="black" style="white-space: pre" xml:space="preserve" font-family="Arial" font-size="12" font-weight="900" letter-spacing="0.04em"><tspan x="0" y="13.2461">D2</tspan></text>
</g>
</g>
<g id="Group 17">
<g id="M3">
<path id="M3-Frame" d="M107 699.5H169C170.933 699.5 172.5 701.067 172.5 703V766.5H103.5V703C103.5 701.067 105.067 699.5 107 699.5Z" fill="#07BEB8" stroke="black" stroke-width="3"/>
<g id="M3-Support">
<g id="Rectangle 2_2">
<mask id="path-55-inside-3_9_572" fill="white">
<rect x="102" y="765" width="13.948" height="14" rx="2"/>
</mask>
<rect x="102" y="765" width="13.948" height="14" rx="2" fill="#39393A" stroke="black" stroke-width="6" mask="url(#path-55-inside-3_9_572)"/>
</g>
<g id="Rectangle 3_2">
<mask id="path-56-inside-4_9_572" fill="white">
<rect x="160.052" y="765" width="13.948" height="14" rx="2"/>
</mask>
<rect x="160.052" y="765" width="13.948" height="14" rx="2" fill="#39393A" stroke="black" stroke-width="6" mask="url(#path-56-inside-4_9_572)"/>
</g>
</g>
<text id="M3_2" fill="black" style="white-space: pre" xml:space="preserve" font-family="Arial" font-size="12" font-weight="900" letter-spacing="0.04em"><tspan x="109" y="713.246">M3</tspan></text>
<g id="M3-Item">
<path id="path453757_4" fill-rule="evenodd" clip-rule="evenodd" d="M132.786 749.857C132.426 749.857 132.081 750 131.826 750.255C131.572 750.509 131.429 750.854 131.429 751.214C131.429 751.574 131.572 751.919 131.826 752.174C132.081 752.428 132.426 752.571 132.786 752.571H140.929C141.289 752.571 141.634 752.428 141.888 752.174C142.143 751.919 142.286 751.574 142.286 751.214C142.286 750.854 142.143 750.509 141.888 750.255C141.634 750 141.289 749.857 140.929 749.857H132.786Z" fill="black"/>
<path id="path453703_4" fill-rule="evenodd" clip-rule="evenodd" d="M131.429 720C131.176 720 130.929 720.071 130.715 720.204C130.5 720.337 130.327 720.527 130.215 720.753L126.143 728.943C126.057 729.122 126.011 729.317 126.008 729.516C126.005 729.526 126.003 729.537 126 729.548V756.643C126 757.003 126.143 757.348 126.398 757.602C126.652 757.857 126.997 758 127.357 758H162.643C163.003 758 163.348 757.857 163.602 757.602C163.857 757.348 164 757.003 164 756.643V729.548V729.545C163.999 729.336 163.95 729.13 163.857 728.943L159.785 720.753C159.673 720.527 159.5 720.337 159.286 720.204C159.071 720.071 158.824 720 158.572 720H131.429ZM132.266 722.714H140.693L139.805 728.191H129.547L132.266 722.714ZM143.439 722.714H149.278L150.193 728.191H142.554L143.439 722.714ZM152.03 722.714H157.731L160.454 728.191H152.944L152.03 722.714ZM128.714 730.905H139.572V744.429C139.572 744.697 139.651 744.959 139.801 745.182C139.95 745.405 140.162 745.579 140.409 745.682C140.657 745.785 140.93 745.812 141.193 745.759C141.457 745.707 141.698 745.578 141.888 745.388L146.357 740.919L150.826 745.388C151.016 745.578 151.258 745.707 151.521 745.759C151.784 745.812 152.057 745.785 152.305 745.682C152.553 745.579 152.765 745.405 152.914 745.182C153.063 744.959 153.143 744.697 153.143 744.429V730.905H161.286V755.286H128.714V730.905ZM142.286 730.905H150.429V741.152L147.317 738.04C147.062 737.786 146.717 737.643 146.357 737.643C145.997 737.643 145.652 737.786 145.398 738.04L142.286 741.152V730.905Z" fill="black"/>
<text id="2_3" fill="black" style="white-space: pre" xml:space="preserve" font-family="Arial" font-size="12" font-weight="900" letter-spacing="0.04em"><tspan x="153" y="753.246">2</tspan></text>
</g>
</g>
<g id="D3">
<path id="D3-Frame" d="M236.012 700.324C236.948 699.899 238.024 699.907 238.954 700.346L285.494 722.32C286.719 722.898 287.5 724.131 287.5 725.485V774C287.5 775.933 285.933 777.5 284 777.5H189C187.067 777.5 185.5 775.933 185.5 774V725.536C185.5 724.164 186.302 722.918 187.552 722.35L236.012 700.324Z" fill="#D9D7DD" stroke="black" stroke-width="3"/>
<g id="D3-Item-2">
<path id="path453757_5" fill-rule="evenodd" clip-rule="evenodd" d="M249.786 762.857C249.426 762.857 249.081 763 248.826 763.255C248.572 763.509 248.429 763.854 248.429 764.214C248.429 764.574 248.572 764.919 248.826 765.174C249.081 765.428 249.426 765.571 249.786 765.571H257.929C258.289 765.571 258.634 765.428 258.888 765.174C259.143 764.919 259.286 764.574 259.286 764.214C259.286 763.854 259.143 763.509 258.888 763.255C258.634 763 258.289 762.857 257.929 762.857H249.786Z" fill="black"/>
<path id="path453703_5" fill-rule="evenodd" clip-rule="evenodd" d="M248.429 733C248.176 733 247.929 733.071 247.715 733.204C247.5 733.337 247.327 733.527 247.215 733.753L243.143 741.943C243.057 742.122 243.011 742.317 243.008 742.516C243.005 742.526 243.003 742.537 243 742.548V769.643C243 770.003 243.143 770.348 243.398 770.602C243.652 770.857 243.997 771 244.357 771H279.643C280.003 771 280.348 770.857 280.602 770.602C280.857 770.348 281 770.003 281 769.643V742.548V742.545C280.999 742.336 280.95 742.13 280.857 741.943L276.785 733.753C276.673 733.527 276.5 733.337 276.286 733.204C276.071 733.071 275.824 733 275.572 733H248.429ZM249.266 735.714H257.693L256.805 741.191H246.547L249.266 735.714ZM260.439 735.714H266.278L267.193 741.191H259.554L260.439 735.714ZM269.03 735.714H274.731L277.454 741.191H269.944L269.03 735.714ZM245.714 743.905H256.572V757.429C256.572 757.697 256.651 757.959 256.801 758.182C256.95 758.405 257.162 758.579 257.409 758.682C257.657 758.785 257.93 758.812 258.193 758.759C258.457 758.707 258.698 758.578 258.888 758.388L263.357 753.919L267.826 758.388C268.016 758.578 268.258 758.707 268.521 758.759C268.784 758.812 269.057 758.785 269.305 758.682C269.553 758.579 269.765 758.405 269.914 758.182C270.063 757.959 270.143 757.697 270.143 757.429V743.905H278.286V768.286H245.714V743.905ZM259.286 743.905H267.429V754.152L264.317 751.04C264.062 750.786 263.717 750.643 263.357 750.643C262.997 750.643 262.652 750.786 262.398 751.04L259.286 754.152V743.905Z" fill="black"/>
<text id="3" fill="black" style="white-space: pre" xml:space="preserve" font-family="Arial" font-size="12" font-weight="900" letter-spacing="0.04em"><tspan x="270" y="766.246">3</tspan></text>
</g>
<g id="D3-Item-1">
<path id="path453757_6" fill-rule="evenodd" clip-rule="evenodd" d="M199.786 762.857C199.426 762.857 199.081 763 198.826 763.255C198.572 763.509 198.429 763.854 198.429 764.214C198.429 764.574 198.572 764.919 198.826 765.174C199.081 765.428 199.426 765.571 199.786 765.571H207.929C208.289 765.571 208.634 765.428 208.888 765.174C209.143 764.919 209.286 764.574 209.286 764.214C209.286 763.854 209.143 763.509 208.888 763.255C208.634 763 208.289 762.857 207.929 762.857H199.786Z" fill="black"/>
<path id="path453703_6" fill-rule="evenodd" clip-rule="evenodd" d="M198.429 733C198.176 733 197.929 733.071 197.715 733.204C197.5 733.337 197.327 733.527 197.215 733.753L193.143 741.943C193.057 742.122 193.011 742.317 193.008 742.516C193.005 742.526 193.003 742.537 193 742.548V769.643C193 770.003 193.143 770.348 193.398 770.602C193.652 770.857 193.997 771 194.357 771H229.643C230.003 771 230.348 770.857 230.602 770.602C230.857 770.348 231 770.003 231 769.643V742.548V742.545C230.999 742.336 230.95 742.13 230.857 741.943L226.785 733.753C226.673 733.527 226.5 733.337 226.286 733.204C226.071 733.071 225.824 733 225.572 733H198.429ZM199.266 735.714H207.693L206.805 741.191H196.547L199.266 735.714ZM210.439 735.714H216.278L217.193 741.191H209.554L210.439 735.714ZM219.03 735.714H224.731L227.454 741.191H219.944L219.03 735.714ZM195.714 743.905H206.572V757.429C206.572 757.697 206.651 757.959 206.801 758.182C206.95 758.405 207.162 758.579 207.409 758.682C207.657 758.785 207.93 758.812 208.193 758.759C208.457 758.707 208.698 758.578 208.888 758.388L213.357 753.919L217.826 758.388C218.016 758.578 218.258 758.707 218.521 758.759C218.784 758.812 219.057 758.785 219.305 758.682C219.553 758.579 219.765 758.405 219.914 758.182C220.063 757.959 220.143 757.697 220.143 757.429V743.905H228.286V768.286H195.714V743.905ZM209.286 743.905H217.429V754.152L214.317 751.04C214.062 750.786 213.717 750.643 213.357 750.643C212.997 750.643 212.652 750.786 212.398 751.04L209.286 754.152V743.905Z" fill="black"/>
<text id="3_2" fill="black" style="white-space: pre" xml:space="preserve" font-family="Arial" font-size="12" font-weight="900" letter-spacing="0.04em"><tspan x="220" y="766.246">3</tspan></text>
</g>
<text id="D3_2" transform="translate(228 709)" fill="black" style="white-space: pre" xml:space="preserve" font-family="Arial" font-size="12" font-weight="900" letter-spacing="0.04em"><tspan x="0" y="13.2461">D3</tspan></text>
</g>
</g>
<text id="Target" fill="black" style="white-space: pre" xml:space="preserve" font-family="Arial" font-size="40" font-weight="900" letter-spacing="0.04em"><tspan x="1141" y="741.82">Target</tspan></text>
<g id="B-Rover">
<g id="00-Item">
<path id="path453757_7" fill-rule="evenodd" clip-rule="evenodd" d="M957.707 635.71C957.457 635.71 957.218 635.809 957.041 635.986C956.865 636.162 956.766 636.402 956.766 636.652C956.766 636.901 956.865 637.141 957.041 637.317C957.218 637.494 957.457 637.593 957.707 637.593H963.355C963.605 637.593 963.844 637.494 964.021 637.317C964.197 637.141 964.297 636.901 964.297 636.652C964.297 636.402 964.197 636.162 964.021 635.986C963.844 635.809 963.605 635.71 963.355 635.71H957.707Z" fill="black"/>
<path id="path453703_7" fill-rule="evenodd" clip-rule="evenodd" d="M956.766 615C956.591 615 956.419 615.049 956.27 615.141C956.122 615.234 956.001 615.365 955.924 615.522L953.099 621.203C953.039 621.327 953.007 621.463 953.006 621.601C953.004 621.608 953.002 621.615 953 621.623V640.417C953 640.667 953.099 640.906 953.276 641.083C953.452 641.259 953.692 641.358 953.941 641.358H978.417C978.667 641.358 978.906 641.259 979.083 641.083C979.259 640.906 979.358 640.667 979.358 640.417V621.623V621.621C979.358 621.476 979.324 621.333 979.259 621.203L976.435 615.522C976.357 615.365 976.237 615.234 976.088 615.141C975.94 615.049 975.768 615 975.593 615H956.766ZM957.347 616.883H963.192L962.576 620.681H955.46L957.347 616.883ZM965.096 616.883H969.147L969.781 620.681H964.482L965.096 616.883ZM971.055 616.883H975.01L976.898 620.681H971.69L971.055 616.883ZM954.883 622.564H962.414V631.945C962.414 632.131 962.469 632.313 962.573 632.468C962.676 632.622 962.823 632.743 962.995 632.814C963.167 632.885 963.356 632.904 963.539 632.868C963.721 632.831 963.889 632.742 964.021 632.61L967.121 629.51L970.221 632.61C970.352 632.742 970.52 632.831 970.703 632.868C970.885 632.904 971.074 632.885 971.246 632.814C971.418 632.743 971.565 632.622 971.669 632.468C971.772 632.313 971.827 632.131 971.828 631.945V622.564H977.476V639.476H954.883V622.564ZM964.297 622.564H969.945V629.672L967.786 627.514C967.61 627.337 967.37 627.238 967.121 627.238C966.871 627.238 966.632 627.337 966.455 627.514L964.297 629.672V622.564Z" fill="black"/>
<text id="0" fill="black" style="white-space: pre" xml:space="preserve" font-family="Arial" font-size="7" font-weight="900" letter-spacing="0.04em"><tspan x="971.959" y="638.279">0</tspan></text>
</g>
<g id="01-Item">
<path id="path453757_8" fill-rule="evenodd" clip-rule="evenodd" d="M957.707 605.71C957.457 605.71 957.218 605.809 957.041 605.986C956.865 606.162 956.766 606.402 956.766 606.652C956.766 606.901 956.865 607.141 957.041 607.317C957.218 607.494 957.457 607.593 957.707 607.593H963.355C963.605 607.593 963.844 607.494 964.021 607.317C964.197 607.141 964.297 606.901 964.297 606.652C964.297 606.402 964.197 606.162 964.021 605.986C963.844 605.809 963.605 605.71 963.355 605.71H957.707Z" fill="black"/>
<path id="path453703_8" fill-rule="evenodd" clip-rule="evenodd" d="M956.766 585C956.591 585 956.419 585.049 956.27 585.141C956.122 585.234 956.001 585.365 955.924 585.522L953.099 591.203C953.039 591.327 953.007 591.463 953.006 591.601C953.004 591.608 953.002 591.615 953 591.623V610.417C953 610.667 953.099 610.906 953.276 611.083C953.452 611.259 953.692 611.358 953.941 611.358H978.417C978.667 611.358 978.906 611.259 979.083 611.083C979.259 610.906 979.358 610.667 979.358 610.417V591.623V591.621C979.358 591.476 979.324 591.333 979.259 591.203L976.435 585.522C976.357 585.365 976.237 585.234 976.088 585.141C975.94 585.049 975.768 585 975.593 585H956.766ZM957.347 586.883H963.192L962.576 590.681H955.46L957.347 586.883ZM965.096 586.883H969.147L969.781 590.681H964.482L965.096 586.883ZM971.055 586.883H975.01L976.898 590.681H971.69L971.055 586.883ZM954.883 592.564H962.414V601.945C962.414 602.131 962.469 602.313 962.573 602.468C962.676 602.622 962.823 602.743 962.995 602.814C963.167 602.885 963.356 602.904 963.539 602.868C963.721 602.831 963.889 602.742 964.021 602.61L967.121 599.51L970.221 602.61C970.352 602.742 970.52 602.831 970.703 602.868C970.885 602.904 971.074 602.885 971.246 602.814C971.418 602.743 971.565 602.622 971.669 602.468C971.772 602.313 971.827 602.131 971.828 601.945V592.564H977.476V609.476H954.883V592.564ZM964.297 592.564H969.945V599.672L967.786 597.514C967.61 597.337 967.37 597.238 967.121 597.238C966.871 597.238 966.632 597.337 966.455 597.514L964.297 599.672V592.564Z" fill="black"/>
<text id="0_2" fill="black" style="white-space: pre" xml:space="preserve" font-family="Arial" font-size="7" font-weight="900" letter-spacing="0.04em"><tspan x="971.959" y="608.279">0</tspan></text>
</g>
<g id="10-Item">
<path id="path453757_9" fill-rule="evenodd" clip-rule="evenodd" d="M988.921 635.71C988.671 635.71 988.432 635.809 988.255 635.986C988.079 636.162 987.979 636.402 987.979 636.652C987.979 636.901 988.079 637.141 988.255 637.317C988.432 637.494 988.671 637.593 988.921 637.593H994.569C994.819 637.593 995.058 637.494 995.235 637.317C995.411 637.141 995.51 636.901 995.51 636.652C995.51 636.402 995.411 636.162 995.235 635.986C995.058 635.809 994.819 635.71 994.569 635.71H988.921Z" fill="black"/>
<path id="path453703_9" fill-rule="evenodd" clip-rule="evenodd" d="M987.979 615C987.804 615 987.633 615.049 987.484 615.141C987.335 615.234 987.215 615.365 987.137 615.522L984.313 621.203C984.253 621.327 984.221 621.463 984.219 621.601C984.218 621.608 984.216 621.615 984.214 621.623V640.417C984.214 640.667 984.313 640.906 984.49 641.083C984.666 641.259 984.906 641.358 985.155 641.358H1009.63C1009.88 641.358 1010.12 641.259 1010.3 641.083C1010.47 640.906 1010.57 640.667 1010.57 640.417V621.623V621.621C1010.57 621.476 1010.54 621.333 1010.47 621.203L1007.65 615.522C1007.57 615.365 1007.45 615.234 1007.3 615.141C1007.15 615.049 1006.98 615 1006.81 615H987.979ZM988.56 616.883H994.405L993.789 620.681H986.674L988.56 616.883ZM996.31 616.883H1000.36L1001 620.681H995.696L996.31 616.883ZM1002.27 616.883H1006.22L1008.11 620.681H1002.9L1002.27 616.883ZM986.097 622.564H993.628V631.945C993.628 632.131 993.683 632.313 993.786 632.468C993.89 632.622 994.037 632.743 994.209 632.814C994.381 632.885 994.57 632.904 994.753 632.868C994.935 632.831 995.103 632.742 995.235 632.61L998.335 629.51L1001.43 632.61C1001.57 632.742 1001.73 632.831 1001.92 632.868C1002.1 632.904 1002.29 632.885 1002.46 632.814C1002.63 632.743 1002.78 632.622 1002.88 632.468C1002.99 632.313 1003.04 632.131 1003.04 631.945V622.564H1008.69V639.476H986.097V622.564ZM995.51 622.564H1001.16V629.672L999 627.514C998.824 627.337 998.584 627.238 998.335 627.238C998.085 627.238 997.846 627.337 997.669 627.514L995.51 629.672V622.564Z" fill="black"/>
<text id="1_2" fill="black" style="white-space: pre" xml:space="preserve" font-family="Arial" font-size="7" font-weight="900" letter-spacing="0.04em"><tspan x="1002.94" y="638.274">1</tspan></text>
</g>
<g id="11-Item">
<path id="path453757_10" fill-rule="evenodd" clip-rule="evenodd" d="M988.921 605.71C988.671 605.71 988.432 605.809 988.255 605.986C988.079 606.162 987.979 606.402 987.979 606.652C987.979 606.901 988.079 607.141 988.255 607.317C988.432 607.494 988.671 607.593 988.921 607.593H994.569C994.819 607.593 995.058 607.494 995.235 607.317C995.411 607.141 995.51 606.901 995.51 606.652C995.51 606.402 995.411 606.162 995.235 605.986C995.058 605.809 994.819 605.71 994.569 605.71H988.921Z" fill="black"/>
<path id="path453703_10" fill-rule="evenodd" clip-rule="evenodd" d="M987.979 585C987.804 585 987.633 585.049 987.484 585.141C987.335 585.234 987.215 585.365 987.137 585.522L984.313 591.203C984.253 591.327 984.221 591.463 984.219 591.601C984.218 591.608 984.216 591.615 984.214 591.623V610.417C984.214 610.667 984.313 610.906 984.49 611.083C984.666 611.259 984.906 611.358 985.155 611.358H1009.63C1009.88 611.358 1010.12 611.259 1010.3 611.083C1010.47 610.906 1010.57 610.667 1010.57 610.417V591.623V591.621C1010.57 591.476 1010.54 591.333 1010.47 591.203L1007.65 585.522C1007.57 585.365 1007.45 585.234 1007.3 585.141C1007.15 585.049 1006.98 585 1006.81 585H987.979ZM988.56 586.883H994.405L993.789 590.681H986.674L988.56 586.883ZM996.31 586.883H1000.36L1001 590.681H995.696L996.31 586.883ZM1002.27 586.883H1006.22L1008.11 590.681H1002.9L1002.27 586.883ZM986.097 592.564H993.628V601.945C993.628 602.131 993.683 602.313 993.786 602.468C993.89 602.622 994.037 602.743 994.209 602.814C994.381 602.885 994.57 602.904 994.753 602.868C994.935 602.831 995.103 602.742 995.235 602.61L998.335 599.51L1001.43 602.61C1001.57 602.742 1001.73 602.831 1001.92 602.868C1002.1 602.904 1002.29 602.885 1002.46 602.814C1002.63 602.743 1002.78 602.622 1002.88 602.468C1002.99 602.313 1003.04 602.131 1003.04 601.945V592.564H1008.69V609.476H986.097V592.564ZM995.51 592.564H1001.16V599.672L999 597.514C998.824 597.337 998.584 597.238 998.335 597.238C998.085 597.238 997.846 597.337 997.669 597.514L995.51 599.672V592.564Z" fill="black"/>
<text id="1_3" fill="black" style="white-space: pre" xml:space="preserve" font-family="Arial" font-size="7" font-weight="900" letter-spacing="0.04em"><tspan x="1002.94" y="608.274">1</tspan></text>
</g>
<g id="20-Item">
<path id="path453757_11" fill-rule="evenodd" clip-rule="evenodd" d="M1020.13 635.71C1019.89 635.71 1019.65 635.809 1019.47 635.986C1019.29 636.162 1019.19 636.402 1019.19 636.652C1019.19 636.901 1019.29 637.141 1019.47 637.317C1019.65 637.494 1019.89 637.593 1020.13 637.593H1025.78C1026.03 637.593 1026.27 637.494 1026.45 637.317C1026.63 637.141 1026.72 636.901 1026.72 636.652C1026.72 636.402 1026.63 636.162 1026.45 635.986C1026.27 635.809 1026.03 635.71 1025.78 635.71H1020.13Z" fill="black"/>
<path id="path453703_11" fill-rule="evenodd" clip-rule="evenodd" d="M1019.19 615C1019.02 615 1018.85 615.049 1018.7 615.141C1018.55 615.234 1018.43 615.365 1018.35 615.522L1015.53 621.203C1015.47 621.327 1015.44 621.463 1015.43 621.601C1015.43 621.608 1015.43 621.615 1015.43 621.623V640.417C1015.43 640.667 1015.53 640.906 1015.7 641.083C1015.88 641.259 1016.12 641.358 1016.37 641.358H1040.84C1041.09 641.358 1041.33 641.259 1041.51 641.083C1041.69 640.906 1041.79 640.667 1041.79 640.417V621.623V621.621C1041.79 621.476 1041.75 621.333 1041.69 621.203L1038.86 615.522C1038.78 615.365 1038.66 615.234 1038.52 615.141C1038.37 615.049 1038.2 615 1038.02 615H1019.19ZM1019.77 616.883H1025.62L1025 620.681H1017.89L1019.77 616.883ZM1027.52 616.883H1031.57L1032.21 620.681H1026.91L1027.52 616.883ZM1033.48 616.883H1037.44L1039.33 620.681H1034.12L1033.48 616.883ZM1017.31 622.564H1024.84V631.945C1024.84 632.131 1024.9 632.313 1025 632.468C1025.1 632.622 1025.25 632.743 1025.42 632.814C1025.59 632.885 1025.78 632.904 1025.97 632.868C1026.15 632.831 1026.32 632.742 1026.45 632.61L1029.55 629.51L1032.65 632.61C1032.78 632.742 1032.95 632.831 1033.13 632.868C1033.31 632.904 1033.5 632.885 1033.67 632.814C1033.85 632.743 1033.99 632.622 1034.1 632.468C1034.2 632.313 1034.26 632.131 1034.26 631.945V622.564H1039.9V639.476H1017.31V622.564ZM1026.72 622.564H1032.37V629.672L1030.21 627.514C1030.04 627.337 1029.8 627.238 1029.55 627.238C1029.3 627.238 1029.06 627.337 1028.88 627.514L1026.72 629.672V622.564Z" fill="black"/>
<text id="2_4" fill="black" style="white-space: pre" xml:space="preserve" font-family="Arial" font-size="7" font-weight="900" letter-spacing="0.04em"><tspan x="1034.16" y="638.274">2</tspan></text>
</g>
<g id="21-Item">
<path id="path453757_12" fill-rule="evenodd" clip-rule="evenodd" d="M1020.13 605.71C1019.89 605.71 1019.65 605.809 1019.47 605.986C1019.29 606.162 1019.19 606.402 1019.19 606.652C1019.19 606.901 1019.29 607.141 1019.47 607.317C1019.65 607.494 1019.89 607.593 1020.13 607.593H1025.78C1026.03 607.593 1026.27 607.494 1026.45 607.317C1026.63 607.141 1026.72 606.901 1026.72 606.652C1026.72 606.402 1026.63 606.162 1026.45 605.986C1026.27 605.809 1026.03 605.71 1025.78 605.71H1020.13Z" fill="black"/>
<path id="path453703_12" fill-rule="evenodd" clip-rule="evenodd" d="M1019.19 585C1019.02 585 1018.85 585.049 1018.7 585.141C1018.55 585.234 1018.43 585.365 1018.35 585.522L1015.53 591.203C1015.47 591.327 1015.44 591.463 1015.43 591.601C1015.43 591.608 1015.43 591.615 1015.43 591.623V610.417C1015.43 610.667 1015.53 610.906 1015.7 611.083C1015.88 611.259 1016.12 611.358 1016.37 611.358H1040.84C1041.09 611.358 1041.33 611.259 1041.51 611.083C1041.69 610.906 1041.79 610.667 1041.79 610.417V591.623V591.621C1041.79 591.476 1041.75 591.333 1041.69 591.203L1038.86 585.522C1038.78 585.365 1038.66 585.234 1038.52 585.141C1038.37 585.049 1038.2 585 1038.02 585H1019.19ZM1019.77 586.883H1025.62L1025 590.681H1017.89L1019.77 586.883ZM1027.52 586.883H1031.57L1032.21 590.681H1026.91L1027.52 586.883ZM1033.48 586.883H1037.44L1039.33 590.681H1034.12L1033.48 586.883ZM1017.31 592.564H1024.84V601.945C1024.84 602.131 1024.9 602.313 1025 602.468C1025.1 602.622 1025.25 602.743 1025.42 602.814C1025.59 602.885 1025.78 602.904 1025.97 602.868C1026.15 602.831 1026.32 602.742 1026.45 602.61L1029.55 599.51L1032.65 602.61C1032.78 602.742 1032.95 602.831 1033.13 602.868C1033.31 602.904 1033.5 602.885 1033.67 602.814C1033.85 602.743 1033.99 602.622 1034.1 602.468C1034.2 602.313 1034.26 602.131 1034.26 601.945V592.564H1039.9V609.476H1017.31V592.564ZM1026.72 592.564H1032.37V599.672L1030.21 597.514C1030.04 597.337 1029.8 597.238 1029.55 597.238C1029.3 597.238 1029.06 597.337 1028.88 597.514L1026.72 599.672V592.564Z" fill="black"/>
<text id="2_5" fill="black" style="white-space: pre" xml:space="preserve" font-family="Arial" font-size="7" font-weight="900" letter-spacing="0.04em"><tspan x="1034.16" y="608.274">2</tspan></text>
</g>
<g id="30-Item">
<path id="path453757_13" fill-rule="evenodd" clip-rule="evenodd" d="M1051.35 635.71C1051.1 635.71 1050.86 635.809 1050.68 635.986C1050.51 636.162 1050.41 636.402 1050.41 636.652C1050.41 636.901 1050.51 637.141 1050.68 637.317C1050.86 637.494 1051.1 637.593 1051.35 637.593H1057C1057.25 637.593 1057.49 637.494 1057.66 637.317C1057.84 637.141 1057.94 636.901 1057.94 636.652C1057.94 636.402 1057.84 636.162 1057.66 635.986C1057.49 635.809 1057.25 635.71 1057 635.71H1051.35Z" fill="black"/>
<path id="path453703_13" fill-rule="evenodd" clip-rule="evenodd" d="M1050.41 615C1050.23 615 1050.06 615.049 1049.91 615.141C1049.76 615.234 1049.64 615.365 1049.57 615.522L1046.74 621.203C1046.68 621.327 1046.65 621.463 1046.65 621.601C1046.65 621.608 1046.64 621.615 1046.64 621.623V640.417C1046.64 640.667 1046.74 640.906 1046.92 641.083C1047.09 641.259 1047.33 641.358 1047.58 641.358H1072.06C1072.31 641.358 1072.55 641.259 1072.72 641.083C1072.9 640.906 1073 640.667 1073 640.417V621.623V621.621C1073 621.476 1072.97 621.333 1072.9 621.203L1070.08 615.522C1070 615.365 1069.88 615.234 1069.73 615.141C1069.58 615.049 1069.41 615 1069.23 615H1050.41ZM1050.99 616.883H1056.83L1056.22 620.681H1049.1L1050.99 616.883ZM1058.74 616.883H1062.79L1063.42 620.681H1058.12L1058.74 616.883ZM1064.7 616.883H1068.65L1070.54 620.681H1065.33L1064.7 616.883ZM1048.52 622.564H1056.06V631.945C1056.06 632.131 1056.11 632.313 1056.21 632.468C1056.32 632.622 1056.46 632.743 1056.64 632.814C1056.81 632.885 1057 632.904 1057.18 632.868C1057.36 632.831 1057.53 632.742 1057.66 632.61L1060.76 629.51L1063.86 632.61C1063.99 632.742 1064.16 632.831 1064.34 632.868C1064.53 632.904 1064.72 632.885 1064.89 632.814C1065.06 632.743 1065.21 632.622 1065.31 632.468C1065.41 632.313 1065.47 632.131 1065.47 631.945V622.564H1071.12V639.476H1048.52V622.564ZM1057.94 622.564H1063.59V629.672L1061.43 627.514C1061.25 627.337 1061.01 627.238 1060.76 627.238C1060.51 627.238 1060.27 627.337 1060.1 627.514L1057.94 629.672V622.564Z" fill="black"/>
<text id="3_3" fill="black" style="white-space: pre" xml:space="preserve" font-family="Arial" font-size="7" font-weight="900" letter-spacing="0.04em"><tspan x="1065.37" y="638.274">3</tspan></text>
</g>
<g id="31-Item">
<path id="path453757_14" fill-rule="evenodd" clip-rule="evenodd" d="M1051.35 605.71C1051.1 605.71 1050.86 605.809 1050.68 605.986C1050.51 606.162 1050.41 606.402 1050.41 606.652C1050.41 606.901 1050.51 607.141 1050.68 607.317C1050.86 607.494 1051.1 607.593 1051.35 607.593H1057C1057.25 607.593 1057.49 607.494 1057.66 607.317C1057.84 607.141 1057.94 606.901 1057.94 606.652C1057.94 606.402 1057.84 606.162 1057.66 605.986C1057.49 605.809 1057.25 605.71 1057 605.71H1051.35Z" fill="black"/>
<path id="path453703_14" fill-rule="evenodd" clip-rule="evenodd" d="M1050.41 585C1050.23 585 1050.06 585.049 1049.91 585.141C1049.76 585.234 1049.64 585.365 1049.57 585.522L1046.74 591.203C1046.68 591.327 1046.65 591.463 1046.65 591.601C1046.65 591.608 1046.64 591.615 1046.64 591.623V610.417C1046.64 610.667 1046.74 610.906 1046.92 611.083C1047.09 611.259 1047.33 611.358 1047.58 611.358H1072.06C1072.31 611.358 1072.55 611.259 1072.72 611.083C1072.9 610.906 1073 610.667 1073 610.417V591.623V591.621C1073 591.476 1072.97 591.333 1072.9 591.203L1070.08 585.522C1070 585.365 1069.88 585.234 1069.73 585.141C1069.58 585.049 1069.41 585 1069.23 585H1050.41ZM1050.99 586.883H1056.83L1056.22 590.681H1049.1L1050.99 586.883ZM1058.74 586.883H1062.79L1063.42 590.681H1058.12L1058.74 586.883ZM1064.7 586.883H1068.65L1070.54 590.681H1065.33L1064.7 586.883ZM1048.52 592.564H1056.06V601.945C1056.06 602.131 1056.11 602.313 1056.21 602.468C1056.32 602.622 1056.46 602.743 1056.64 602.814C1056.81 602.885 1057 602.904 1057.18 602.868C1057.36 602.831 1057.53 602.742 1057.66 602.61L1060.76 599.51L1063.86 602.61C1063.99 602.742 1064.16 602.831 1064.34 602.868C1064.53 602.904 1064.72 602.885 1064.89 602.814C1065.06 602.743 1065.21 602.622 1065.31 602.468C1065.41 602.313 1065.47 602.131 1065.47 601.945V592.564H1071.12V609.476H1048.52V592.564ZM1057.94 592.564H1063.59V599.672L1061.43 597.514C1061.25 597.337 1061.01 597.238 1060.76 597.238C1060.51 597.238 1060.27 597.337 1060.1 597.514L1057.94 599.672V592.564Z" fill="black"/>
<text id="3_4" fill="black" style="white-space: pre" xml:space="preserve" font-family="Arial" font-size="7" font-weight="900" letter-spacing="0.04em"><tspan x="1065.37" y="608.274">3</tspan></text>
</g>
<g id="BR-Frame">
<path id="BR-Body" d="M945 646.5H1092C1093.93 646.5 1095.5 648.067 1095.5 650V663C1095.5 664.933 1093.93 666.5 1092 666.5H945C943.067 666.5 941.5 664.933 941.5 663V650C941.5 648.067 943.067 646.5 945 646.5Z" fill="#07BEB8" stroke="black" stroke-width="3"/>
<path id="BR-Head" d="M1093 625.5H1101C1102.93 625.5 1104.5 627.067 1104.5 629V647C1104.5 651.142 1101.14 654.5 1097 654.5H1093C1091.07 654.5 1089.5 652.933 1089.5 651V629C1089.5 627.067 1091.07 625.5 1093 625.5Z" fill="#07BEB8" stroke="black" stroke-width="3"/>
</g>
<g id="BR-Wheels">
<rect id="BR-Wheel" x="948.5" y="663.5" width="15" height="15" rx="7.5" fill="#39393A" stroke="black" stroke-width="3"/>
<rect id="BR-Wheel_2" x="1043.5" y="663.5" width="15" height="15" rx="7.5" fill="#39393A" stroke="black" stroke-width="3"/>
<rect id="BR-Wheel_3" x="976.5" y="663.5" width="15" height="15" rx="7.5" fill="#39393A" stroke="black" stroke-width="3"/>
<rect id="BR-Wheel_4" x="1071.5" y="663.5" width="15" height="15" rx="7.5" fill="#39393A" stroke="black" stroke-width="3"/>
</g>
</g>
</g>
<g id="M1">
<path id="M1-Frame" d="M521 284.5H583C584.933 284.5 586.5 286.067 586.5 288V351.5H517.5V288C517.5 286.067 519.067 284.5 521 284.5Z" fill="#07BEB8" stroke="black" stroke-width="3"/>
<g id="M1-Support">
<g id="Rectangle 2_3">
<mask id="path-101-inside-5_9_572" fill="white">
<rect x="516" y="350" width="13.948" height="14" rx="2"/>
</mask>
<rect x="516" y="350" width="13.948" height="14" rx="2" fill="#39393A" stroke="black" stroke-width="6" mask="url(#path-101-inside-5_9_572)"/>
</g>
<g id="Rectangle 3_3">
<mask id="path-102-inside-6_9_572" fill="white">
<rect x="574.052" y="350" width="13.948" height="14" rx="2"/>
</mask>
<rect x="574.052" y="350" width="13.948" height="14" rx="2" fill="#39393A" stroke="black" stroke-width="6" mask="url(#path-102-inside-6_9_572)"/>
</g>
</g>
<text id="M1_2" fill="black" style="white-space: pre" xml:space="preserve" font-family="Arial" font-size="12" font-weight="900" letter-spacing="0.04em"><tspan x="523" y="298.246">M1</tspan></text>
<g id="M1-Item">
<path id="path453757_15" fill-rule="evenodd" clip-rule="evenodd" d="M546.786 334.857C546.426 334.857 546.081 335 545.826 335.255C545.572 335.509 545.429 335.854 545.429 336.214C545.429 336.574 545.572 336.919 545.826 337.174C546.081 337.428 546.426 337.571 546.786 337.571H554.929C555.289 337.571 555.634 337.428 555.888 337.174C556.143 336.919 556.286 336.574 556.286 336.214C556.286 335.854 556.143 335.509 555.888 335.255C555.634 335 555.289 334.857 554.929 334.857H546.786Z" fill="black"/>
<path id="path453703_15" fill-rule="evenodd" clip-rule="evenodd" d="M545.429 305C545.176 305 544.929 305.071 544.715 305.204C544.5 305.337 544.327 305.527 544.215 305.753L540.143 313.943C540.057 314.122 540.011 314.317 540.008 314.516C540.005 314.526 540.003 314.537 540 314.548V341.643C540 342.003 540.143 342.348 540.398 342.602C540.652 342.857 540.997 343 541.357 343H576.643C577.003 343 577.348 342.857 577.602 342.602C577.857 342.348 578 342.003 578 341.643V314.548V314.545C577.999 314.336 577.95 314.13 577.857 313.943L573.785 305.753C573.673 305.527 573.5 305.337 573.286 305.204C573.071 305.071 572.824 305 572.572 305H545.429ZM546.266 307.714H554.693L553.805 313.191H543.547L546.266 307.714ZM557.439 307.714H563.278L564.193 313.191H556.554L557.439 307.714ZM566.03 307.714H571.731L574.454 313.191H566.944L566.03 307.714ZM542.714 315.905H553.572V329.429C553.572 329.697 553.651 329.959 553.801 330.182C553.95 330.405 554.162 330.579 554.409 330.682C554.657 330.785 554.93 330.812 555.193 330.759C555.457 330.707 555.698 330.578 555.888 330.388L560.357 325.919L564.826 330.388C565.016 330.578 565.258 330.707 565.521 330.759C565.784 330.812 566.057 330.785 566.305 330.682C566.553 330.579 566.765 330.405 566.914 330.182C567.063 329.959 567.143 329.697 567.143 329.429V315.905H575.286V340.286H542.714V315.905ZM556.286 315.905H564.429V326.152L561.317 323.04C561.062 322.786 560.717 322.643 560.357 322.643C559.997 322.643 559.652 322.786 559.398 323.04L556.286 326.152V315.905Z" fill="black"/>
<text id="0_3" fill="black" style="white-space: pre" xml:space="preserve" font-family="Arial" font-size="12" font-weight="900" letter-spacing="0.04em"><tspan x="567" y="338.246">0</tspan></text>
</g>
</g>
<g id="D1">
<path id="D1-Frame" d="M650.012 285.324C650.948 284.899 652.024 284.907 652.954 285.346L699.494 307.32C700.719 307.898 701.5 309.131 701.5 310.485V359C701.5 360.933 699.933 362.5 698 362.5H603C601.067 362.5 599.5 360.933 599.5 359V310.536C599.5 309.164 600.302 307.918 601.552 307.35L650.012 285.324Z" fill="#D9D7DD" stroke="black" stroke-width="3"/>
<g id="D1-Item-2">
<path id="path453757_16" fill-rule="evenodd" clip-rule="evenodd" d="M663.786 347.857C663.426 347.857 663.081 348 662.826 348.255C662.572 348.509 662.429 348.854 662.429 349.214C662.429 349.574 662.572 349.919 662.826 350.174C663.081 350.428 663.426 350.571 663.786 350.571H671.929C672.289 350.571 672.634 350.428 672.888 350.174C673.143 349.919 673.286 349.574 673.286 349.214C673.286 348.854 673.143 348.509 672.888 348.255C672.634 348 672.289 347.857 671.929 347.857H663.786Z" fill="black"/>
<path id="path453703_16" fill-rule="evenodd" clip-rule="evenodd" d="M662.429 318C662.176 318 661.929 318.071 661.715 318.204C661.5 318.337 661.327 318.527 661.215 318.753L657.143 326.943C657.057 327.122 657.011 327.317 657.008 327.516C657.005 327.526 657.003 327.537 657 327.548V354.643C657 355.003 657.143 355.348 657.398 355.602C657.652 355.857 657.997 356 658.357 356H693.643C694.003 356 694.348 355.857 694.602 355.602C694.857 355.348 695 355.003 695 354.643V327.548V327.545C694.999 327.336 694.95 327.13 694.857 326.943L690.785 318.753C690.673 318.527 690.5 318.337 690.286 318.204C690.071 318.071 689.824 318 689.572 318H662.429ZM663.266 320.714H671.693L670.805 326.191H660.547L663.266 320.714ZM674.439 320.714H680.278L681.193 326.191H673.554L674.439 320.714ZM683.03 320.714H688.731L691.454 326.191H683.944L683.03 320.714ZM659.714 328.905H670.572V342.429C670.572 342.697 670.651 342.959 670.801 343.182C670.95 343.405 671.162 343.579 671.409 343.682C671.657 343.785 671.93 343.812 672.193 343.759C672.457 343.707 672.698 343.578 672.888 343.388L677.357 338.919L681.826 343.388C682.016 343.578 682.258 343.707 682.521 343.759C682.784 343.812 683.057 343.785 683.305 343.682C683.553 343.579 683.765 343.405 683.914 343.182C684.063 342.959 684.143 342.697 684.143 342.429V328.905H692.286V353.286H659.714V328.905ZM673.286 328.905H681.429V339.152L678.317 336.04C678.062 335.786 677.717 335.643 677.357 335.643C676.997 335.643 676.652 335.786 676.398 336.04L673.286 339.152V328.905Z" fill="black"/>
<text id="1_4" fill="black" style="white-space: pre" xml:space="preserve" font-family="Arial" font-size="12" font-weight="900" letter-spacing="0.04em"><tspan x="684" y="351.246">1</tspan></text>
</g>
<g id="D1-Item-1">
<path id="path453757_17" fill-rule="evenodd" clip-rule="evenodd" d="M613.786 347.857C613.426 347.857 613.081 348 612.826 348.255C612.572 348.509 612.429 348.854 612.429 349.214C612.429 349.574 612.572 349.919 612.826 350.174C613.081 350.428 613.426 350.571 613.786 350.571H621.929C622.289 350.571 622.634 350.428 622.888 350.174C623.143 349.919 623.286 349.574 623.286 349.214C623.286 348.854 623.143 348.509 622.888 348.255C622.634 348 622.289 347.857 621.929 347.857H613.786Z" fill="black"/>
<path id="path453703_17" fill-rule="evenodd" clip-rule="evenodd" d="M612.429 318C612.176 318 611.929 318.071 611.715 318.204C611.5 318.337 611.327 318.527 611.215 318.753L607.143 326.943C607.057 327.122 607.011 327.317 607.008 327.516C607.005 327.526 607.003 327.537 607 327.548V354.643C607 355.003 607.143 355.348 607.398 355.602C607.652 355.857 607.997 356 608.357 356H643.643C644.003 356 644.348 355.857 644.602 355.602C644.857 355.348 645 355.003 645 354.643V327.548V327.545C644.999 327.336 644.95 327.13 644.857 326.943L640.785 318.753C640.673 318.527 640.5 318.337 640.286 318.204C640.071 318.071 639.824 318 639.572 318H612.429ZM613.266 320.714H621.693L620.805 326.191H610.547L613.266 320.714ZM624.439 320.714H630.278L631.193 326.191H623.554L624.439 320.714ZM633.03 320.714H638.731L641.454 326.191H633.944L633.03 320.714ZM609.714 328.905H620.572V342.429C620.572 342.697 620.651 342.959 620.801 343.182C620.95 343.405 621.162 343.579 621.409 343.682C621.657 343.785 621.93 343.812 622.193 343.759C622.457 343.707 622.698 343.578 622.888 343.388L627.357 338.919L631.826 343.388C632.016 343.578 632.258 343.707 632.521 343.759C632.784 343.812 633.057 343.785 633.305 343.682C633.553 343.579 633.765 343.405 633.914 343.182C634.063 342.959 634.143 342.697 634.143 342.429V328.905H642.286V353.286H609.714V328.905ZM623.286 328.905H631.429V339.152L628.317 336.04C628.062 335.786 627.717 335.643 627.357 335.643C626.997 335.643 626.652 335.786 626.398 336.04L623.286 339.152V328.905Z" fill="black"/>
<text id="1_5" fill="black" style="white-space: pre" xml:space="preserve" font-family="Arial" font-size="12" font-weight="900" letter-spacing="0.04em"><tspan x="634" y="351.246">1</tspan></text>
</g>
<text id="D1_2" transform="translate(642 294)" fill="black" style="white-space: pre" xml:space="preserve" font-family="Arial" font-size="12" font-weight="900" letter-spacing="0.04em"><tspan x="0" y="13.2461">D1</tspan></text>
</g>
<text id="Source" fill="black" style="white-space: pre" xml:space="preserve" font-family="Arial" font-size="40" font-weight="900" letter-spacing="0.04em"><tspan x="106" y="116.82">Source</tspan></text>
</g>
</svg>
