<svg width="342" height="95" viewBox="0 0 342 95" fill="none" xmlns="http://www.w3.org/2000/svg">
<path d="M5 61.5H152C153.933 61.5 155.5 63.067 155.5 65V78C155.5 79.933 153.933 81.5 152 81.5H5C3.067 81.5 1.5 79.933 1.5 78V65C1.5 63.067 3.067 61.5 5 61.5Z" fill="#07BEB8" stroke="black" stroke-width="3"/>
<path d="M153 40.5H161C162.933 40.5 164.5 42.067 164.5 44V62C164.5 66.1421 161.142 69.5 157 69.5H153C151.067 69.5 149.5 67.933 149.5 66V44C149.5 42.067 151.067 40.5 153 40.5Z" fill="#07BEB8" stroke="black" stroke-width="3"/>
<rect x="8.5" y="78.5" width="15" height="15" rx="7.5" fill="#39393A" stroke="black" stroke-width="3"/>
<rect x="103.5" y="78.5" width="15" height="15" rx="7.5" fill="#39393A" stroke="black" stroke-width="3"/>
<rect x="36.5" y="78.5" width="15" height="15" rx="7.5" fill="#39393A" stroke="black" stroke-width="3"/>
<rect x="131.5" y="78.5" width="15" height="15" rx="7.5" fill="#39393A" stroke="black" stroke-width="3"/>
<path fill-rule="evenodd" clip-rule="evenodd" d="M193.707 50.7102C193.457 50.7102 193.218 50.8094 193.041 50.9859C192.865 51.1625 192.766 51.4019 192.766 51.6516C192.766 51.9012 192.865 52.1407 193.041 52.3172C193.218 52.4938 193.457 52.5929 193.707 52.5929H199.355C199.605 52.5929 199.844 52.4938 200.021 52.3172C200.197 52.1407 200.297 51.9012 200.297 51.6516C200.297 51.4019 200.197 51.1625 200.021 50.9859C199.844 50.8094 199.605 50.7102 199.355 50.7102H193.707Z" fill="black"/>
<path fill-rule="evenodd" clip-rule="evenodd" d="M192.766 30C192.591 30.0002 192.419 30.0491 192.27 30.1413C192.122 30.2336 192.001 30.3655 191.924 30.5222L189.099 36.2035C189.039 36.3274 189.007 36.463 189.006 36.6006C189.004 36.6079 189.002 36.6153 189 36.6227V55.417C189 55.6666 189.099 55.9061 189.276 56.0826C189.452 56.2591 189.692 56.3583 189.941 56.3583H214.417C214.667 56.3583 214.906 56.2591 215.083 56.0826C215.259 55.9061 215.358 55.6666 215.358 55.417V36.6227V36.6208C215.358 36.4759 215.324 36.333 215.259 36.2034L212.435 30.5221C212.357 30.3654 212.237 30.2336 212.088 30.1413C211.94 30.0491 211.768 30.0002 211.593 30H192.766ZM193.347 31.8827H199.192L198.576 35.6813H191.46L193.347 31.8827ZM201.096 31.8827H205.147L205.781 35.6813H200.482L201.096 31.8827ZM207.055 31.8827H211.01L212.898 35.6813H207.69L207.055 31.8827ZM190.883 37.5641H198.414V46.9447C198.414 47.1308 198.469 47.3128 198.573 47.4675C198.676 47.6223 198.823 47.7429 198.995 47.8141C199.167 47.8853 199.356 47.904 199.539 47.8677C199.721 47.8314 199.889 47.7418 200.021 47.6103L203.121 44.5104L206.221 47.6103C206.352 47.7418 206.52 47.8314 206.703 47.8677C206.885 47.904 207.074 47.8853 207.246 47.8141C207.418 47.7429 207.565 47.6223 207.669 47.4675C207.772 47.3128 207.827 47.1308 207.828 46.9447V37.5641H213.476V54.4756H190.883V37.5641ZM200.297 37.5641H205.945V44.6722L203.786 42.5136C203.61 42.3371 203.37 42.238 203.121 42.238C202.871 42.238 202.632 42.3371 202.455 42.5136L200.297 44.6722V37.5641Z" fill="black"/>
<path d="M207.246 50.9844C207.246 50.0319 207.417 49.3654 207.759 48.9849C208.103 48.6043 208.626 48.4141 209.328 48.4141C209.665 48.4141 209.942 48.4562 210.158 48.5405C210.375 48.6226 210.552 48.7308 210.688 48.8652C210.825 48.9974 210.932 49.1375 211.01 49.2856C211.089 49.4315 211.153 49.6024 211.201 49.7983C211.294 50.172 211.341 50.5617 211.341 50.9673C211.341 51.8765 211.187 52.5418 210.88 52.9634C210.572 53.3849 210.042 53.5957 209.29 53.5957C208.869 53.5957 208.528 53.5285 208.268 53.394C208.009 53.2596 207.795 53.0625 207.629 52.8027C207.508 52.6182 207.414 52.3664 207.345 52.0474C207.279 51.7261 207.246 51.3717 207.246 50.9844ZM208.627 50.9878C208.627 51.6258 208.683 52.0622 208.795 52.2969C208.909 52.5293 209.073 52.6455 209.287 52.6455C209.428 52.6455 209.55 52.5965 209.653 52.4985C209.757 52.3983 209.834 52.241 209.882 52.0269C209.932 51.8127 209.957 51.4788 209.957 51.0254C209.957 50.36 209.9 49.9134 209.786 49.6855C209.674 49.4554 209.506 49.3403 209.28 49.3403C209.05 49.3403 208.884 49.4577 208.781 49.6924C208.678 49.9248 208.627 50.3566 208.627 50.9878Z" fill="black"/>
<path fill-rule="evenodd" clip-rule="evenodd" d="M193.707 20.7102C193.457 20.7102 193.218 20.8094 193.041 20.9859C192.865 21.1625 192.766 21.4019 192.766 21.6516C192.766 21.9012 192.865 22.1407 193.041 22.3172C193.218 22.4938 193.457 22.5929 193.707 22.5929H199.355C199.605 22.5929 199.844 22.4938 200.021 22.3172C200.197 22.1407 200.297 21.9012 200.297 21.6516C200.297 21.4019 200.197 21.1625 200.021 20.9859C199.844 20.8094 199.605 20.7102 199.355 20.7102H193.707Z" fill="black"/>
<path fill-rule="evenodd" clip-rule="evenodd" d="M192.766 0C192.591 0.000159015 192.419 0.0491054 192.27 0.141344C192.122 0.233582 192.001 0.365457 191.924 0.522167L189.099 6.20349C189.039 6.32742 189.007 6.46299 189.006 6.60063C189.004 6.60795 189.002 6.6153 189 6.62266V25.417C189 25.6666 189.099 25.9061 189.276 26.0826C189.452 26.2591 189.692 26.3583 189.941 26.3583H214.417C214.667 26.3583 214.906 26.2591 215.083 26.0826C215.259 25.9061 215.358 25.6666 215.358 25.417V6.62266V6.62077C215.358 6.47586 215.324 6.33303 215.259 6.2034L212.435 0.522081C212.357 0.365405 212.237 0.233565 212.088 0.141344C211.94 0.0491222 211.768 0.000173908 211.593 0H192.766ZM193.347 1.88274H199.192L198.576 5.68132H191.46L193.347 1.88274ZM201.096 1.88274H205.147L205.781 5.68132H200.482L201.096 1.88274ZM207.055 1.88274H211.01L212.898 5.68132H207.69L207.055 1.88274ZM190.883 7.56406H198.414V16.9447C198.414 17.1308 198.469 17.3128 198.573 17.4675C198.676 17.6223 198.823 17.7429 198.995 17.8141C199.167 17.8853 199.356 17.904 199.539 17.8677C199.721 17.8314 199.889 17.7418 200.021 17.6103L203.121 14.5104L206.221 17.6103C206.352 17.7418 206.52 17.8314 206.703 17.8677C206.885 17.904 207.074 17.8853 207.246 17.8141C207.418 17.7429 207.565 17.6223 207.669 17.4675C207.772 17.3128 207.827 17.1308 207.828 16.9447V7.56406H213.476V24.4756H190.883V7.56406ZM200.297 7.56406H205.945V14.6722L203.786 12.5136C203.61 12.3371 203.37 12.238 203.121 12.238C202.871 12.238 202.632 12.3371 202.455 12.5136L200.297 14.6722V7.56406Z" fill="black"/>
<path d="M207.246 20.9844C207.246 20.0319 207.417 19.3654 207.759 18.9849C208.103 18.6043 208.626 18.4141 209.328 18.4141C209.665 18.4141 209.942 18.4562 210.158 18.5405C210.375 18.6226 210.552 18.7308 210.688 18.8652C210.825 18.9974 210.932 19.1375 211.01 19.2856C211.089 19.4315 211.153 19.6024 211.201 19.7983C211.294 20.172 211.341 20.5617 211.341 20.9673C211.341 21.8765 211.187 22.5418 210.88 22.9634C210.572 23.3849 210.042 23.5957 209.29 23.5957C208.869 23.5957 208.528 23.5285 208.268 23.394C208.009 23.2596 207.795 23.0625 207.629 22.8027C207.508 22.6182 207.414 22.3664 207.345 22.0474C207.279 21.7261 207.246 21.3717 207.246 20.9844ZM208.627 20.9878C208.627 21.6258 208.683 22.0622 208.795 22.2969C208.909 22.5293 209.073 22.6455 209.287 22.6455C209.428 22.6455 209.55 22.5965 209.653 22.4985C209.757 22.3983 209.834 22.241 209.882 22.0269C209.932 21.8127 209.957 21.4788 209.957 21.0254C209.957 20.36 209.9 19.9134 209.786 19.6855C209.674 19.4554 209.506 19.3403 209.28 19.3403C209.05 19.3403 208.884 19.4577 208.781 19.6924C208.678 19.9248 208.627 20.3566 208.627 20.9878Z" fill="black"/>
<path fill-rule="evenodd" clip-rule="evenodd" d="M224.921 50.7102C224.671 50.7102 224.432 50.8094 224.255 50.9859C224.079 51.1625 223.979 51.4019 223.979 51.6516C223.979 51.9012 224.079 52.1407 224.255 52.3172C224.432 52.4938 224.671 52.5929 224.921 52.5929H230.569C230.819 52.5929 231.058 52.4938 231.235 52.3172C231.411 52.1407 231.51 51.9012 231.51 51.6516C231.51 51.4019 231.411 51.1625 231.235 50.9859C231.058 50.8094 230.819 50.7102 230.569 50.7102H224.921Z" fill="black"/>
<path fill-rule="evenodd" clip-rule="evenodd" d="M223.979 30C223.804 30.0002 223.633 30.0491 223.484 30.1413C223.335 30.2336 223.215 30.3655 223.137 30.5222L220.313 36.2035C220.253 36.3274 220.221 36.463 220.219 36.6006C220.218 36.6079 220.216 36.6153 220.214 36.6227V55.417C220.214 55.6666 220.313 55.9061 220.49 56.0826C220.666 56.2591 220.906 56.3583 221.155 56.3583H245.631C245.881 56.3583 246.12 56.2591 246.296 56.0826C246.473 55.9061 246.572 55.6666 246.572 55.417V36.6227V36.6208C246.572 36.4759 246.538 36.333 246.473 36.2034L243.649 30.5221C243.571 30.3654 243.451 30.2336 243.302 30.1413C243.153 30.0491 242.982 30.0002 242.807 30H223.979ZM224.56 31.8827H230.405L229.789 35.6813H222.674L224.56 31.8827ZM232.31 31.8827H236.361L236.995 35.6813H231.696L232.31 31.8827ZM238.269 31.8827H242.224L244.112 35.6813H238.904L238.269 31.8827ZM222.097 37.5641H229.628V46.9447C229.628 47.1308 229.683 47.3128 229.786 47.4675C229.89 47.6223 230.037 47.7429 230.209 47.8141C230.381 47.8853 230.57 47.904 230.753 47.8677C230.935 47.8314 231.103 47.7418 231.235 47.6103L234.335 44.5104L237.434 47.6103C237.566 47.7418 237.734 47.8314 237.916 47.8677C238.099 47.904 238.288 47.8853 238.46 47.8141C238.632 47.7429 238.779 47.6223 238.883 47.4675C238.986 47.3128 239.041 47.1308 239.041 46.9447V37.5641H244.69V54.4756H222.097V37.5641ZM231.51 37.5641H237.159V44.6722L235 42.5136C234.824 42.3371 234.584 42.238 234.335 42.238C234.085 42.238 233.846 42.3371 233.669 42.5136L231.51 44.6722V37.5641Z" fill="black"/>
<path d="M242.384 48.4093V53.5055H240.976V50.1661C240.748 50.3393 240.527 50.4795 240.313 50.5865C240.101 50.6936 239.834 50.7962 239.513 50.8942V49.7526C239.987 49.5999 240.355 49.4165 240.617 49.2023C240.879 48.9881 241.084 48.7238 241.232 48.4093H242.384Z" fill="black"/>
<path fill-rule="evenodd" clip-rule="evenodd" d="M224.921 20.7102C224.671 20.7102 224.432 20.8094 224.255 20.9859C224.079 21.1625 223.979 21.4019 223.979 21.6516C223.979 21.9012 224.079 22.1407 224.255 22.3172C224.432 22.4938 224.671 22.5929 224.921 22.5929H230.569C230.819 22.5929 231.058 22.4938 231.235 22.3172C231.411 22.1407 231.51 21.9012 231.51 21.6516C231.51 21.4019 231.411 21.1625 231.235 20.9859C231.058 20.8094 230.819 20.7102 230.569 20.7102H224.921Z" fill="black"/>
<path fill-rule="evenodd" clip-rule="evenodd" d="M223.979 0C223.804 0.000159015 223.633 0.0491054 223.484 0.141344C223.335 0.233582 223.215 0.365457 223.137 0.522167L220.313 6.20349C220.253 6.32742 220.221 6.46299 220.219 6.60063C220.218 6.60795 220.216 6.6153 220.214 6.62266V25.417C220.214 25.6666 220.313 25.9061 220.49 26.0826C220.666 26.2591 220.906 26.3583 221.155 26.3583H245.631C245.881 26.3583 246.12 26.2591 246.296 26.0826C246.473 25.9061 246.572 25.6666 246.572 25.417V6.62266V6.62077C246.572 6.47586 246.538 6.33303 246.473 6.2034L243.649 0.522081C243.571 0.365405 243.451 0.233565 243.302 0.141344C243.153 0.0491222 242.982 0.000173908 242.807 0H223.979ZM224.56 1.88274H230.405L229.789 5.68132H222.674L224.56 1.88274ZM232.31 1.88274H236.361L236.995 5.68132H231.696L232.31 1.88274ZM238.269 1.88274H242.224L244.112 5.68132H238.904L238.269 1.88274ZM222.097 7.56406H229.628V16.9447C229.628 17.1308 229.683 17.3128 229.786 17.4675C229.89 17.6223 230.037 17.7429 230.209 17.8141C230.381 17.8853 230.57 17.904 230.753 17.8677C230.935 17.8314 231.103 17.7418 231.235 17.6103L234.335 14.5104L237.434 17.6103C237.566 17.7418 237.734 17.8314 237.916 17.8677C238.099 17.904 238.288 17.8853 238.46 17.8141C238.632 17.7429 238.779 17.6223 238.883 17.4675C238.986 17.3128 239.041 17.1308 239.041 16.9447V7.56406H244.69V24.4756H222.097V7.56406ZM231.51 7.56406H237.159V14.6722L235 12.5136C234.824 12.3371 234.584 12.238 234.335 12.238C234.085 12.238 233.846 12.3371 233.669 12.5136L231.51 14.6722V7.56406Z" fill="black"/>
<path d="M242.384 18.4093V23.5055H240.976V20.1661C240.748 20.3393 240.527 20.4795 240.313 20.5865C240.101 20.6936 239.834 20.7962 239.513 20.8942V19.7526C239.987 19.5999 240.355 19.4165 240.617 19.2023C240.879 18.9881 241.084 18.7238 241.232 18.4093H242.384Z" fill="black"/>
<path fill-rule="evenodd" clip-rule="evenodd" d="M256.135 50.7102C255.885 50.7102 255.646 50.8094 255.469 50.9859C255.293 51.1625 255.193 51.4019 255.193 51.6516C255.193 51.9012 255.293 52.1407 255.469 52.3172C255.646 52.4938 255.885 52.5929 256.135 52.5929H261.783C262.033 52.5929 262.272 52.4938 262.449 52.3172C262.625 52.1407 262.724 51.9012 262.724 51.6516C262.724 51.4019 262.625 51.1625 262.449 50.9859C262.272 50.8094 262.033 50.7102 261.783 50.7102H256.135Z" fill="black"/>
<path fill-rule="evenodd" clip-rule="evenodd" d="M255.193 30C255.018 30.0002 254.847 30.0491 254.698 30.1413C254.549 30.2336 254.429 30.3655 254.351 30.5222L251.527 36.2035C251.467 36.3274 251.435 36.463 251.433 36.6006C251.431 36.6079 251.43 36.6153 251.428 36.6227V55.417C251.428 55.6666 251.527 55.9061 251.703 56.0826C251.88 56.2591 252.119 56.3583 252.369 56.3583H276.845C277.094 56.3583 277.334 56.2591 277.51 56.0826C277.687 55.9061 277.786 55.6666 277.786 55.417V36.6227V36.6208C277.786 36.4759 277.752 36.333 277.687 36.2034L274.863 30.5221C274.785 30.3654 274.665 30.2336 274.516 30.1413C274.367 30.0491 274.196 30.0002 274.021 30H255.193ZM255.774 31.8827H261.619L261.003 35.6813H253.888L255.774 31.8827ZM263.524 31.8827H267.575L268.209 35.6813H262.91L263.524 31.8827ZM269.483 31.8827H273.438L275.326 35.6813H270.117L269.483 31.8827ZM253.311 37.5641H260.842V46.9447C260.842 47.1308 260.897 47.3128 261 47.4675C261.104 47.6223 261.251 47.7429 261.423 47.8141C261.595 47.8853 261.784 47.904 261.967 47.8677C262.149 47.8314 262.317 47.7418 262.449 47.6103L265.548 44.5104L268.648 47.6103C268.78 47.7418 268.948 47.8314 269.13 47.8677C269.313 47.904 269.502 47.8853 269.674 47.8141C269.846 47.7429 269.993 47.6223 270.096 47.4675C270.2 47.3128 270.255 47.1308 270.255 46.9447V37.5641H275.903V54.4756H253.311V37.5641ZM262.724 37.5641H268.373V44.6722L266.214 42.5136C266.037 42.3371 265.798 42.238 265.548 42.238C265.299 42.238 265.059 42.3371 264.883 42.5136L262.724 44.6722V37.5641Z" fill="black"/>
<path d="M274.518 53.5055H270.341C270.389 53.0931 270.533 52.7057 270.775 52.3434C271.019 51.9788 271.474 51.5493 272.142 51.0548C272.55 50.7517 272.811 50.5216 272.925 50.3644C273.039 50.2072 273.096 50.0579 273.096 49.9166C273.096 49.764 273.039 49.6341 272.925 49.527C272.813 49.4176 272.672 49.3629 272.501 49.3629C272.323 49.3629 272.177 49.4187 272.063 49.5304C271.952 49.642 271.877 49.8392 271.838 50.1217L270.443 50.0089C270.498 49.617 270.598 49.3116 270.744 49.0929C270.89 48.8719 271.095 48.7032 271.359 48.587C271.626 48.4685 271.994 48.4093 272.463 48.4093C272.953 48.4093 273.334 48.4651 273.605 48.5768C273.878 48.6884 274.093 48.8605 274.248 49.0929C274.405 49.323 274.483 49.5817 274.483 49.8688C274.483 50.1741 274.393 50.4658 274.213 50.7438C274.036 51.0218 273.711 51.3271 273.239 51.6598C272.959 51.8535 272.771 51.9891 272.675 52.0665C272.582 52.144 272.471 52.2454 272.344 52.3707H274.518V53.5055Z" fill="black"/>
<path fill-rule="evenodd" clip-rule="evenodd" d="M256.135 20.7102C255.885 20.7102 255.646 20.8094 255.469 20.9859C255.293 21.1625 255.193 21.4019 255.193 21.6516C255.193 21.9012 255.293 22.1407 255.469 22.3172C255.646 22.4938 255.885 22.5929 256.135 22.5929H261.783C262.033 22.5929 262.272 22.4938 262.449 22.3172C262.625 22.1407 262.724 21.9012 262.724 21.6516C262.724 21.4019 262.625 21.1625 262.449 20.9859C262.272 20.8094 262.033 20.7102 261.783 20.7102H256.135Z" fill="black"/>
<path fill-rule="evenodd" clip-rule="evenodd" d="M255.193 0C255.018 0.000159015 254.847 0.0491054 254.698 0.141344C254.549 0.233582 254.429 0.365457 254.351 0.522167L251.527 6.20349C251.467 6.32742 251.435 6.46299 251.433 6.60063C251.431 6.60795 251.43 6.6153 251.428 6.62266V25.417C251.428 25.6666 251.527 25.9061 251.703 26.0826C251.88 26.2591 252.119 26.3583 252.369 26.3583H276.845C277.094 26.3583 277.334 26.2591 277.51 26.0826C277.687 25.9061 277.786 25.6666 277.786 25.417V6.62266V6.62077C277.786 6.47586 277.752 6.33303 277.687 6.2034L274.863 0.522081C274.785 0.365405 274.665 0.233565 274.516 0.141344C274.367 0.0491222 274.196 0.000173908 274.021 0H255.193ZM255.774 1.88274H261.619L261.003 5.68132H253.888L255.774 1.88274ZM263.524 1.88274H267.575L268.209 5.68132H262.91L263.524 1.88274ZM269.483 1.88274H273.438L275.326 5.68132H270.117L269.483 1.88274ZM253.311 7.56406H260.842V16.9447C260.842 17.1308 260.897 17.3128 261 17.4675C261.104 17.6223 261.251 17.7429 261.423 17.8141C261.595 17.8853 261.784 17.904 261.967 17.8677C262.149 17.8314 262.317 17.7418 262.449 17.6103L265.548 14.5104L268.648 17.6103C268.78 17.7418 268.948 17.8314 269.13 17.8677C269.313 17.904 269.502 17.8853 269.674 17.8141C269.846 17.7429 269.993 17.6223 270.096 17.4675C270.2 17.3128 270.255 17.1308 270.255 16.9447V7.56406H275.903V24.4756H253.311V7.56406ZM262.724 7.56406H268.373V14.6722L266.214 12.5136C266.037 12.3371 265.798 12.238 265.548 12.238C265.299 12.238 265.059 12.3371 264.883 12.5136L262.724 14.6722V7.56406Z" fill="black"/>
<path d="M274.518 23.5055H270.341C270.389 23.0931 270.533 22.7057 270.775 22.3434C271.019 21.9788 271.474 21.5493 272.142 21.0548C272.55 20.7517 272.811 20.5216 272.925 20.3644C273.039 20.2072 273.096 20.0579 273.096 19.9166C273.096 19.764 273.039 19.6341 272.925 19.527C272.813 19.4176 272.672 19.3629 272.501 19.3629C272.323 19.3629 272.177 19.4187 272.063 19.5304C271.952 19.642 271.877 19.8392 271.838 20.1217L270.443 20.0089C270.498 19.617 270.598 19.3116 270.744 19.0929C270.89 18.8719 271.095 18.7032 271.359 18.587C271.626 18.4685 271.994 18.4093 272.463 18.4093C272.953 18.4093 273.334 18.4651 273.605 18.5768C273.878 18.6884 274.093 18.8605 274.248 19.0929C274.405 19.323 274.483 19.5817 274.483 19.8688C274.483 20.1741 274.393 20.4658 274.213 20.7438C274.036 21.0218 273.711 21.3271 273.239 21.6598C272.959 21.8535 272.771 21.9891 272.675 22.0665C272.582 22.144 272.471 22.2454 272.344 22.3707H274.518V23.5055Z" fill="black"/>
<path fill-rule="evenodd" clip-rule="evenodd" d="M287.349 50.7102C287.099 50.7102 286.86 50.8094 286.683 50.9859C286.506 51.1625 286.407 51.4019 286.407 51.6516C286.407 51.9012 286.506 52.1407 286.683 52.3172C286.86 52.4938 287.099 52.5929 287.349 52.5929H292.997C293.246 52.5929 293.486 52.4938 293.662 52.3172C293.839 52.1407 293.938 51.9012 293.938 51.6516C293.938 51.4019 293.839 51.1625 293.662 50.9859C293.486 50.8094 293.246 50.7102 292.997 50.7102H287.349Z" fill="black"/>
<path fill-rule="evenodd" clip-rule="evenodd" d="M286.407 30C286.232 30.0002 286.061 30.0491 285.912 30.1413C285.763 30.2336 285.643 30.3655 285.565 30.5222L282.741 36.2035C282.681 36.3274 282.649 36.463 282.647 36.6006C282.645 36.6079 282.643 36.6153 282.642 36.6227V55.417C282.642 55.6666 282.741 55.9061 282.917 56.0826C283.094 56.2591 283.333 56.3583 283.583 56.3583H308.059C308.308 56.3583 308.548 56.2591 308.724 56.0826C308.901 55.9061 309 55.6666 309 55.417V36.6227V36.6208C308.999 36.4759 308.965 36.333 308.901 36.2034L306.077 30.5221C305.999 30.3654 305.879 30.2336 305.73 30.1413C305.581 30.0491 305.41 30.0002 305.235 30H286.407ZM286.988 31.8827H292.833L292.217 35.6813H285.102L286.988 31.8827ZM294.738 31.8827H298.788L299.423 35.6813H294.124L294.738 31.8827ZM300.697 31.8827H304.652L306.54 35.6813H301.331L300.697 31.8827ZM284.524 37.5641H292.055V46.9447C292.056 47.1308 292.111 47.3128 292.214 47.4675C292.318 47.6223 292.465 47.7429 292.637 47.8141C292.809 47.8853 292.998 47.904 293.18 47.8677C293.363 47.8314 293.531 47.7418 293.662 47.6103L296.762 44.5104L299.862 47.6103C299.994 47.7418 300.162 47.8314 300.344 47.8677C300.527 47.904 300.716 47.8853 300.888 47.8141C301.06 47.7429 301.207 47.6223 301.31 47.4675C301.414 47.3128 301.469 47.1308 301.469 46.9447V37.5641H307.117V54.4756H284.524V37.5641ZM293.938 37.5641H299.586V44.6722L297.428 42.5136C297.251 42.3371 297.012 42.238 296.762 42.238C296.513 42.238 296.273 42.3371 296.097 42.5136L293.938 44.6722V37.5641Z" fill="black"/>
<path d="M303.007 49.944L301.691 49.7081C301.801 49.2889 302.01 48.9676 302.32 48.7443C302.632 48.521 303.073 48.4093 303.643 48.4093C304.297 48.4093 304.77 48.5312 305.061 48.775C305.353 49.0188 305.499 49.3253 305.499 49.6945C305.499 49.9109 305.44 50.1069 305.321 50.2823C305.203 50.4578 305.024 50.6116 304.784 50.7438C304.978 50.7916 305.126 50.8475 305.229 50.9113C305.395 51.0138 305.524 51.1494 305.615 51.318C305.708 51.4843 305.755 51.6837 305.755 51.9161C305.755 52.2078 305.679 52.4881 305.526 52.757C305.373 53.0236 305.154 53.2298 304.866 53.3756C304.579 53.5192 304.202 53.5909 303.735 53.5909C303.279 53.5909 302.919 53.5374 302.655 53.4303C302.393 53.3232 302.177 53.1671 302.006 52.962C301.837 52.7547 301.707 52.4949 301.616 52.1827L303.007 51.9982C303.062 52.2784 303.146 52.4733 303.26 52.5826C303.376 52.6897 303.523 52.7433 303.701 52.7433C303.888 52.7433 304.043 52.6749 304.166 52.5382C304.291 52.4015 304.354 52.2192 304.354 51.9913C304.354 51.7589 304.293 51.5789 304.173 51.4513C304.054 51.3237 303.892 51.2599 303.687 51.2599C303.578 51.2599 303.427 51.2872 303.236 51.3419L303.308 50.3473C303.385 50.3587 303.446 50.3644 303.489 50.3644C303.671 50.3644 303.823 50.3063 303.944 50.1901C304.067 50.0739 304.128 49.936 304.128 49.7765C304.128 49.6238 304.083 49.5019 303.991 49.4108C303.9 49.3196 303.775 49.274 303.615 49.274C303.451 49.274 303.318 49.3242 303.216 49.4244C303.113 49.5224 303.044 49.6956 303.007 49.944Z" fill="black"/>
<path fill-rule="evenodd" clip-rule="evenodd" d="M287.349 20.7102C287.099 20.7102 286.86 20.8094 286.683 20.9859C286.506 21.1625 286.407 21.4019 286.407 21.6516C286.407 21.9012 286.506 22.1407 286.683 22.3172C286.86 22.4938 287.099 22.5929 287.349 22.5929H292.997C293.246 22.5929 293.486 22.4938 293.662 22.3172C293.839 22.1407 293.938 21.9012 293.938 21.6516C293.938 21.4019 293.839 21.1625 293.662 20.9859C293.486 20.8094 293.246 20.7102 292.997 20.7102H287.349Z" fill="black"/>
<path fill-rule="evenodd" clip-rule="evenodd" d="M286.407 0C286.232 0.000159015 286.061 0.0491054 285.912 0.141344C285.763 0.233582 285.643 0.365457 285.565 0.522167L282.741 6.20349C282.681 6.32742 282.649 6.46299 282.647 6.60063C282.645 6.60795 282.643 6.6153 282.642 6.62266V25.417C282.642 25.6666 282.741 25.9061 282.917 26.0826C283.094 26.2591 283.333 26.3583 283.583 26.3583H308.059C308.308 26.3583 308.548 26.2591 308.724 26.0826C308.901 25.9061 309 25.6666 309 25.417V6.62266V6.62077C308.999 6.47586 308.965 6.33303 308.901 6.2034L306.077 0.522081C305.999 0.365405 305.879 0.233565 305.73 0.141344C305.581 0.0491222 305.41 0.000173908 305.235 0H286.407ZM286.988 1.88274H292.833L292.217 5.68132H285.102L286.988 1.88274ZM294.738 1.88274H298.788L299.423 5.68132H294.124L294.738 1.88274ZM300.697 1.88274H304.652L306.54 5.68132H301.331L300.697 1.88274ZM284.524 7.56406H292.055V16.9447C292.056 17.1308 292.111 17.3128 292.214 17.4675C292.318 17.6223 292.465 17.7429 292.637 17.8141C292.809 17.8853 292.998 17.904 293.18 17.8677C293.363 17.8314 293.531 17.7418 293.662 17.6103L296.762 14.5104L299.862 17.6103C299.994 17.7418 300.162 17.8314 300.344 17.8677C300.527 17.904 300.716 17.8853 300.888 17.8141C301.06 17.7429 301.207 17.6223 301.31 17.4675C301.414 17.3128 301.469 17.1308 301.469 16.9447V7.56406H307.117V24.4756H284.524V7.56406ZM293.938 7.56406H299.586V14.6722L297.428 12.5136C297.251 12.3371 297.012 12.238 296.762 12.238C296.513 12.238 296.273 12.3371 296.097 12.5136L293.938 14.6722V7.56406Z" fill="black"/>
<path d="M303.007 19.944L301.691 19.7081C301.801 19.2889 302.01 18.9676 302.32 18.7443C302.632 18.521 303.073 18.4093 303.643 18.4093C304.297 18.4093 304.77 18.5312 305.061 18.775C305.353 19.0188 305.499 19.3253 305.499 19.6945C305.499 19.9109 305.44 20.1069 305.321 20.2823C305.203 20.4578 305.024 20.6116 304.784 20.7438C304.978 20.7916 305.126 20.8475 305.229 20.9113C305.395 21.0138 305.524 21.1494 305.615 21.318C305.708 21.4843 305.755 21.6837 305.755 21.9161C305.755 22.2078 305.679 22.4881 305.526 22.757C305.373 23.0236 305.154 23.2298 304.866 23.3756C304.579 23.5192 304.202 23.5909 303.735 23.5909C303.279 23.5909 302.919 23.5374 302.655 23.4303C302.393 23.3232 302.177 23.1671 302.006 22.962C301.837 22.7547 301.707 22.4949 301.616 22.1827L303.007 21.9982C303.062 22.2784 303.146 22.4733 303.26 22.5826C303.376 22.6897 303.523 22.7433 303.701 22.7433C303.888 22.7433 304.043 22.6749 304.166 22.5382C304.291 22.4015 304.354 22.2192 304.354 21.9913C304.354 21.7589 304.293 21.5789 304.173 21.4513C304.054 21.3237 303.892 21.2599 303.687 21.2599C303.578 21.2599 303.427 21.2872 303.236 21.3419L303.308 20.3473C303.385 20.3587 303.446 20.3644 303.489 20.3644C303.671 20.3644 303.823 20.3063 303.944 20.1901C304.067 20.0739 304.128 19.936 304.128 19.7765C304.128 19.6238 304.083 19.5019 303.991 19.4108C303.9 19.3196 303.775 19.274 303.615 19.274C303.451 19.274 303.318 19.3242 303.216 19.4244C303.113 19.5224 303.044 19.6956 303.007 19.944Z" fill="black"/>
<path d="M181 61.5H328C329.933 61.5 331.5 63.067 331.5 65V78C331.5 79.933 329.933 81.5 328 81.5H181C179.067 81.5 177.5 79.933 177.5 78V65C177.5 63.067 179.067 61.5 181 61.5Z" fill="#07BEB8" stroke="black" stroke-width="3"/>
<path d="M329 40.5H337C338.933 40.5 340.5 42.067 340.5 44V62C340.5 66.1421 337.142 69.5 333 69.5H329C327.067 69.5 325.5 67.933 325.5 66V44C325.5 42.067 327.067 40.5 329 40.5Z" fill="#07BEB8" stroke="black" stroke-width="3"/>
<rect x="184.5" y="78.5" width="15" height="15" rx="7.5" fill="#39393A" stroke="black" stroke-width="3"/>
<rect x="279.5" y="78.5" width="15" height="15" rx="7.5" fill="#39393A" stroke="black" stroke-width="3"/>
<rect x="212.5" y="78.5" width="15" height="15" rx="7.5" fill="#39393A" stroke="black" stroke-width="3"/>
<rect x="307.5" y="78.5" width="15" height="15" rx="7.5" fill="#39393A" stroke="black" stroke-width="3"/>
</svg>
