<svg width="75" height="81" viewBox="0 0 75 81" fill="none" xmlns="http://www.w3.org/2000/svg">
<path d="M18.5 1.5H57.5C59.433 1.5 61 3.067 61 5V79.5H15V5C15 3.067 16.567 1.5 18.5 1.5Z" fill="#747474" stroke="black" stroke-width="3"/>
<path d="M5 65.5H70C71.933 65.5 73.5 67.067 73.5 69V79.5H1.5V69C1.5 67.067 3.067 65.5 5 65.5Z" fill="#39393A" stroke="black" stroke-width="3"/>
<path d="M37.5234 16.0049C37.5834 16.0256 37.8125 16.2035 37.8125 16.6367V29.0908H46.6875C46.6945 29.0908 46.7186 29.0923 46.7598 29.1221C46.8033 29.1535 46.8649 29.218 46.917 29.3311C47.028 29.572 47.0269 29.8888 46.915 30.1279L37.7275 49.7646C37.6609 49.9067 37.5825 49.967 37.543 49.9873C37.5104 50.004 37.4944 50.0011 37.4766 49.9951C37.417 49.9747 37.1875 49.7969 37.1875 49.3633V36.9092H28.3125C28.3058 36.9092 28.2817 36.9079 28.2402 36.8779C28.1966 36.8465 28.1342 36.7821 28.082 36.6689C27.9712 36.428 27.9723 36.111 28.084 35.8721L37.2715 16.2363C37.3382 16.0937 37.4174 16.033 37.457 16.0127C37.4896 15.996 37.5056 15.9989 37.5234 16.0049Z" fill="#07BEB8" stroke="black" stroke-width="2"/>
</svg>
