<svg width="335" height="81" viewBox="0 0 335 81" fill="none" xmlns="http://www.w3.org/2000/svg">
<path d="M52.0117 2.32422C52.948 1.89864 54.024 1.9066 54.9541 2.3457L101.494 24.3203C102.719 24.8985 103.5 26.1312 103.5 27.4854V76C103.5 77.933 101.933 79.5 100 79.5H5C3.067 79.5 1.5 77.933 1.5 76L1.5 27.5361C1.50008 26.1637 2.3023 24.9175 3.55176 24.3496L52.0117 2.32422Z" fill="#D9D7DD" stroke="black" stroke-width="3"/>
<path d="M44.9141 15.4102H48.8574C49.6348 15.4102 50.2617 15.5156 50.7383 15.7266C51.2188 15.9375 51.6152 16.2402 51.9277 16.6348C52.2402 17.0293 52.4668 17.4883 52.6074 18.0117C52.748 18.5352 52.8184 19.0898 52.8184 19.6758C52.8184 20.5938 52.7129 21.3066 52.502 21.8145C52.2949 22.3184 52.0059 22.7422 51.6348 23.0859C51.2637 23.4258 50.8652 23.6523 50.4395 23.7656C49.8574 23.9219 49.3301 24 48.8574 24H44.9141V15.4102ZM47.5684 17.3555V22.0488H48.2188C48.7734 22.0488 49.168 21.9883 49.4023 21.8672C49.6367 21.7422 49.8203 21.5273 49.9531 21.2227C50.0859 20.9141 50.1523 20.416 50.1523 19.7285C50.1523 18.8184 50.0039 18.1953 49.707 17.8594C49.4102 17.5234 48.918 17.3555 48.2305 17.3555H47.5684ZM54.107 15.4102H57.0308L58.5542 18.0527L60.0308 15.4102H62.9253L60.2534 19.5703L63.1773 24H60.1948L58.5015 21.2402L56.8023 24H53.8374L56.8023 19.5234L54.107 15.4102Z" fill="black"/>
<path d="M167.012 2.32422C167.948 1.89864 169.024 1.9066 169.954 2.3457L216.494 24.3203C217.719 24.8985 218.5 26.1312 218.5 27.4854V76C218.5 77.933 216.933 79.5 215 79.5H120C118.067 79.5 116.5 77.933 116.5 76V27.5361C116.5 26.1637 117.302 24.9175 118.552 24.3496L167.012 2.32422Z" fill="#D9D7DD" stroke="black" stroke-width="3"/>
<path fill-rule="evenodd" clip-rule="evenodd" d="M130.786 64.8572C130.426 64.8572 130.081 65.0001 129.826 65.2547C129.572 65.5092 129.429 65.8544 129.429 66.2143C129.429 66.5743 129.572 66.9194 129.826 67.1739C130.081 67.4285 130.426 67.5715 130.786 67.5715H138.929C139.289 67.5715 139.634 67.4285 139.888 67.1739C140.143 66.9194 140.286 66.5743 140.286 66.2143C140.286 65.8544 140.143 65.5092 139.888 65.2547C139.634 65.0001 139.289 64.8572 138.929 64.8572H130.786Z" fill="black"/>
<path fill-rule="evenodd" clip-rule="evenodd" d="M129.429 35C129.176 35.0002 128.929 35.0708 128.715 35.2038C128.5 35.3367 128.327 35.5269 128.215 35.7528L124.143 43.9434C124.057 44.122 124.011 44.3175 124.008 44.5159C124.005 44.5265 124.003 44.5371 124 44.5477V71.6428C124 72.0027 124.143 72.3479 124.398 72.6024C124.652 72.8569 124.997 72.9999 125.357 72.9999H160.643C161.003 72.9999 161.348 72.8569 161.602 72.6024C161.857 72.3479 162 72.0027 162 71.6428V44.5477V44.5449C161.999 44.336 161.95 44.1301 161.857 43.9432L157.785 35.7527C157.673 35.5268 157.5 35.3367 157.286 35.2038C157.071 35.0708 156.824 35.0003 156.572 35H129.429ZM130.266 37.7143H138.693L137.805 43.1906H127.547L130.266 37.7143ZM141.439 37.7143H147.278L148.193 43.1906H140.554L141.439 37.7143ZM150.03 37.7143H155.731L158.454 43.1906H150.944L150.03 37.7143ZM126.714 45.9049H137.572V59.4286C137.572 59.6969 137.651 59.9592 137.801 60.1823C137.95 60.4054 138.162 60.5793 138.409 60.682C138.657 60.7847 138.93 60.8116 139.193 60.7593C139.457 60.707 139.698 60.5778 139.888 60.3881L144.357 55.9191L148.826 60.3881C149.016 60.5778 149.258 60.707 149.521 60.7593C149.784 60.8116 150.057 60.7847 150.305 60.682C150.553 60.5793 150.765 60.4054 150.914 60.1823C151.063 59.9592 151.143 59.6969 151.143 59.4286V45.9049H159.286V70.2857H126.714V45.9049ZM140.286 45.9049H148.429V56.1523L145.317 53.0405C145.062 52.786 144.717 52.6431 144.357 52.6431C143.997 52.6431 143.652 52.786 143.398 53.0405L140.286 56.1523V45.9049Z" fill="black"/>
<path d="M151.182 61.7773H154.012L155.002 63.5117L156.15 61.7773H158.781L156.66 64.7422L158.934 68H156.15L155.002 65.9961L153.648 68H151.064L153.326 64.7422L151.182 61.7773Z" fill="black"/>
<path d="M159.914 15.4102H163.857C164.635 15.4102 165.262 15.5156 165.738 15.7266C166.219 15.9375 166.615 16.2402 166.928 16.6348C167.24 17.0293 167.467 17.4883 167.607 18.0117C167.748 18.5352 167.818 19.0898 167.818 19.6758C167.818 20.5938 167.713 21.3066 167.502 21.8145C167.295 22.3184 167.006 22.7422 166.635 23.0859C166.264 23.4258 165.865 23.6523 165.439 23.7656C164.857 23.9219 164.33 24 163.857 24H159.914V15.4102ZM162.568 17.3555V22.0488H163.219C163.773 22.0488 164.168 21.9883 164.402 21.8672C164.637 21.7422 164.82 21.5273 164.953 21.2227C165.086 20.9141 165.152 20.416 165.152 19.7285C165.152 18.8184 165.004 18.1953 164.707 17.8594C164.41 17.5234 163.918 17.3555 163.23 17.3555H162.568ZM169.107 15.4102H172.031L173.554 18.0527L175.031 15.4102H177.925L175.253 19.5703L178.177 24H175.195L173.501 21.2402L171.802 24H168.837L171.802 19.5234L169.107 15.4102Z" fill="black"/>
<path d="M282.012 2.32422C282.948 1.89864 284.024 1.9066 284.954 2.3457L331.494 24.3203C332.719 24.8985 333.5 26.1312 333.5 27.4854V76C333.5 77.933 331.933 79.5 330 79.5H235C233.067 79.5 231.5 77.933 231.5 76V27.5361C231.5 26.1637 232.302 24.9175 233.552 24.3496L282.012 2.32422Z" fill="#D9D7DD" stroke="black" stroke-width="3"/>
<path fill-rule="evenodd" clip-rule="evenodd" d="M295.786 64.8572C295.426 64.8572 295.081 65.0001 294.826 65.2547C294.572 65.5092 294.429 65.8544 294.429 66.2143C294.429 66.5743 294.572 66.9194 294.826 67.1739C295.081 67.4285 295.426 67.5715 295.786 67.5715H303.929C304.289 67.5715 304.634 67.4285 304.888 67.1739C305.143 66.9194 305.286 66.5743 305.286 66.2143C305.286 65.8544 305.143 65.5092 304.888 65.2547C304.634 65.0001 304.289 64.8572 303.929 64.8572H295.786Z" fill="black"/>
<path fill-rule="evenodd" clip-rule="evenodd" d="M294.429 35C294.176 35.0002 293.929 35.0708 293.715 35.2038C293.5 35.3367 293.327 35.5269 293.215 35.7528L289.143 43.9434C289.057 44.122 289.011 44.3175 289.008 44.5159C289.005 44.5265 289.003 44.5371 289 44.5477V71.6428C289 72.0027 289.143 72.3479 289.398 72.6024C289.652 72.8569 289.997 72.9999 290.357 72.9999H325.643C326.003 72.9999 326.348 72.8569 326.602 72.6024C326.857 72.3479 327 72.0027 327 71.6428V44.5477V44.5449C326.999 44.336 326.95 44.1301 326.857 43.9432L322.785 35.7527C322.673 35.5268 322.5 35.3367 322.286 35.2038C322.071 35.0708 321.824 35.0003 321.572 35H294.429ZM295.266 37.7143H303.693L302.805 43.1906H292.547L295.266 37.7143ZM306.439 37.7143H312.278L313.193 43.1906H305.554L306.439 37.7143ZM315.03 37.7143H320.731L323.454 43.1906H315.944L315.03 37.7143ZM291.714 45.9049H302.572V59.4286C302.572 59.6969 302.651 59.9592 302.801 60.1823C302.95 60.4054 303.162 60.5793 303.409 60.682C303.657 60.7847 303.93 60.8116 304.193 60.7593C304.457 60.707 304.698 60.5778 304.888 60.3881L309.357 55.9191L313.826 60.3881C314.016 60.5778 314.258 60.707 314.521 60.7593C314.784 60.8116 315.057 60.7847 315.305 60.682C315.553 60.5793 315.765 60.4054 315.914 60.1823C316.063 59.9592 316.143 59.6969 316.143 59.4286V45.9049H324.286V70.2857H291.714V45.9049ZM305.286 45.9049H313.429V56.1523L310.317 53.0405C310.062 52.786 309.717 52.6431 309.357 52.6431C308.997 52.6431 308.652 52.786 308.398 53.0405L305.286 56.1523V45.9049Z" fill="black"/>
<path d="M316.182 61.7773H319.012L320.002 63.5117L321.15 61.7773H323.781L321.66 64.7422L323.934 68H321.15L320.002 65.9961L318.648 68H316.064L318.326 64.7422L316.182 61.7773Z" fill="black"/>
<path fill-rule="evenodd" clip-rule="evenodd" d="M245.786 64.8572C245.426 64.8572 245.081 65.0001 244.826 65.2547C244.572 65.5092 244.429 65.8544 244.429 66.2143C244.429 66.5743 244.572 66.9194 244.826 67.1739C245.081 67.4285 245.426 67.5715 245.786 67.5715H253.929C254.289 67.5715 254.634 67.4285 254.888 67.1739C255.143 66.9194 255.286 66.5743 255.286 66.2143C255.286 65.8544 255.143 65.5092 254.888 65.2547C254.634 65.0001 254.289 64.8572 253.929 64.8572H245.786Z" fill="black"/>
<path fill-rule="evenodd" clip-rule="evenodd" d="M244.429 35C244.176 35.0002 243.929 35.0708 243.715 35.2038C243.5 35.3367 243.327 35.5269 243.215 35.7528L239.143 43.9434C239.057 44.122 239.011 44.3175 239.008 44.5159C239.005 44.5265 239.003 44.5371 239 44.5477V71.6428C239 72.0027 239.143 72.3479 239.398 72.6024C239.652 72.8569 239.997 72.9999 240.357 72.9999H275.643C276.003 72.9999 276.348 72.8569 276.602 72.6024C276.857 72.3479 277 72.0027 277 71.6428V44.5477V44.5449C276.999 44.336 276.95 44.1301 276.857 43.9432L272.785 35.7527C272.673 35.5268 272.5 35.3367 272.286 35.2038C272.071 35.0708 271.824 35.0003 271.572 35H244.429ZM245.266 37.7143H253.693L252.805 43.1906H242.547L245.266 37.7143ZM256.439 37.7143H262.278L263.193 43.1906H255.554L256.439 37.7143ZM265.03 37.7143H270.731L273.454 43.1906H265.944L265.03 37.7143ZM241.714 45.9049H252.572V59.4286C252.572 59.6969 252.651 59.9592 252.801 60.1823C252.95 60.4054 253.162 60.5793 253.409 60.682C253.657 60.7847 253.93 60.8116 254.193 60.7593C254.457 60.707 254.698 60.5778 254.888 60.3881L259.357 55.9191L263.826 60.3881C264.016 60.5778 264.258 60.707 264.521 60.7593C264.784 60.8116 265.057 60.7847 265.305 60.682C265.553 60.5793 265.765 60.4054 265.914 60.1823C266.063 59.9592 266.143 59.6969 266.143 59.4286V45.9049H274.286V70.2857H241.714V45.9049ZM255.286 45.9049H263.429V56.1523L260.317 53.0405C260.062 52.786 259.717 52.6431 259.357 52.6431C258.997 52.6431 258.652 52.786 258.398 53.0405L255.286 56.1523V45.9049Z" fill="black"/>
<path d="M266.182 61.7773H269.012L270.002 63.5117L271.15 61.7773H273.781L271.66 64.7422L273.934 68H271.15L270.002 65.9961L268.648 68H266.064L268.326 64.7422L266.182 61.7773Z" fill="black"/>
<path d="M274.914 15.4102H278.857C279.635 15.4102 280.262 15.5156 280.738 15.7266C281.219 15.9375 281.615 16.2402 281.928 16.6348C282.24 17.0293 282.467 17.4883 282.607 18.0117C282.748 18.5352 282.818 19.0898 282.818 19.6758C282.818 20.5938 282.713 21.3066 282.502 21.8145C282.295 22.3184 282.006 22.7422 281.635 23.0859C281.264 23.4258 280.865 23.6523 280.439 23.7656C279.857 23.9219 279.33 24 278.857 24H274.914V15.4102ZM277.568 17.3555V22.0488H278.219C278.773 22.0488 279.168 21.9883 279.402 21.8672C279.637 21.7422 279.82 21.5273 279.953 21.2227C280.086 20.9141 280.152 20.416 280.152 19.7285C280.152 18.8184 280.004 18.1953 279.707 17.8594C279.41 17.5234 278.918 17.3555 278.23 17.3555H277.568ZM284.107 15.4102H287.031L288.554 18.0527L290.031 15.4102H292.925L290.253 19.5703L293.177 24H290.195L288.501 21.2402L286.802 24H283.837L286.802 19.5234L284.107 15.4102Z" fill="black"/>
</svg>
