<svg width="236" height="81" viewBox="0 0 236 81" fill="none" xmlns="http://www.w3.org/2000/svg">
<path d="M5 1.5H67C68.933 1.5 70.5 3.067 70.5 5V68.5H1.5V5C1.5 3.067 3.067 1.5 5 1.5Z" fill="#07BEB8" stroke="black" stroke-width="3"/>
<mask id="path-2-inside-1_57_271" fill="white">
<rect y="67" width="13.948" height="14" rx="2"/>
</mask>
<rect y="67" width="13.948" height="14" rx="2" fill="#39393A" stroke="black" stroke-width="6" mask="url(#path-2-inside-1_57_271)"/>
<mask id="path-3-inside-2_57_271" fill="white">
<rect x="58.052" y="67" width="13.948" height="14" rx="2"/>
</mask>
<rect x="58.052" y="67" width="13.948" height="14" rx="2" fill="#39393A" stroke="black" stroke-width="6" mask="url(#path-3-inside-2_57_271)"/>
<path d="M7.84961 6.41016H11.3418L12.6895 11.6367L14.0312 6.41016H17.5117V15H15.3438V8.44922L13.6621 15H11.6992L10.0234 8.44922V15H7.84961V6.41016ZM19.0991 6.41016H22.023L23.5464 9.05273L25.023 6.41016H27.9175L25.2456 10.5703L28.1695 15H25.187L23.4937 12.2402L21.7945 15H18.8296L21.7945 10.5234L19.0991 6.41016Z" fill="black"/>
<path d="M87 1.5H149C150.933 1.5 152.5 3.067 152.5 5V68.5H83.5V5C83.5 3.067 85.067 1.5 87 1.5Z" fill="#E8871E" stroke="black" stroke-width="3"/>
<mask id="path-6-inside-3_57_271" fill="white">
<rect x="82" y="67" width="13.948" height="14" rx="2"/>
</mask>
<rect x="82" y="67" width="13.948" height="14" rx="2" fill="#39393A" stroke="black" stroke-width="6" mask="url(#path-6-inside-3_57_271)"/>
<mask id="path-7-inside-4_57_271" fill="white">
<rect x="140.052" y="67" width="13.948" height="14" rx="2"/>
</mask>
<rect x="140.052" y="67" width="13.948" height="14" rx="2" fill="#39393A" stroke="black" stroke-width="6" mask="url(#path-7-inside-4_57_271)"/>
<path d="M89.8496 6.41016H93.3418L94.6895 11.6367L96.0312 6.41016H99.5117V15H97.3438V8.44922L95.6621 15H93.6992L92.0234 8.44922V15H89.8496V6.41016ZM101.099 6.41016H104.023L105.546 9.05273L107.023 6.41016H109.917L107.246 10.5703L110.169 15H107.187L105.494 12.2402L103.794 15H100.83L103.794 10.5234L101.099 6.41016Z" fill="black"/>
<path fill-rule="evenodd" clip-rule="evenodd" d="M112.786 51.8572C112.426 51.8572 112.081 52.0001 111.826 52.2547C111.572 52.5092 111.429 52.8544 111.429 53.2143C111.429 53.5743 111.572 53.9194 111.826 54.1739C112.081 54.4285 112.426 54.5715 112.786 54.5715H120.929C121.289 54.5715 121.634 54.4285 121.888 54.1739C122.143 53.9194 122.286 53.5743 122.286 53.2143C122.286 52.8544 122.143 52.5092 121.888 52.2547C121.634 52.0001 121.289 51.8572 120.929 51.8572H112.786Z" fill="black"/>
<path fill-rule="evenodd" clip-rule="evenodd" d="M111.429 22C111.176 22.0002 110.929 22.0708 110.715 22.2038C110.5 22.3367 110.327 22.5269 110.215 22.7528L106.143 30.9434C106.057 31.122 106.011 31.3175 106.008 31.5159C106.005 31.5265 106.003 31.5371 106 31.5477V58.6428C106 59.0027 106.143 59.3479 106.398 59.6024C106.652 59.8569 106.997 59.9999 107.357 59.9999H142.643C143.003 59.9999 143.348 59.8569 143.602 59.6024C143.857 59.3479 144 59.0027 144 58.6428V31.5477V31.5449C143.999 31.336 143.95 31.1301 143.857 30.9432L139.785 22.7527C139.673 22.5268 139.5 22.3367 139.286 22.2038C139.071 22.0708 138.824 22.0003 138.572 22H111.429ZM112.266 24.7143H120.693L119.805 30.1906H109.547L112.266 24.7143ZM123.439 24.7143H129.278L130.193 30.1906H122.554L123.439 24.7143ZM132.03 24.7143H137.731L140.454 30.1906H132.944L132.03 24.7143ZM108.714 32.9049H119.572V46.4286C119.572 46.6969 119.651 46.9592 119.801 47.1823C119.95 47.4054 120.162 47.5793 120.409 47.682C120.657 47.7847 120.93 47.8116 121.193 47.7593C121.457 47.707 121.698 47.5778 121.888 47.3881L126.357 42.9191L130.826 47.3881C131.016 47.5778 131.258 47.707 131.521 47.7593C131.784 47.8116 132.057 47.7847 132.305 47.682C132.553 47.5793 132.765 47.4054 132.914 47.1823C133.063 46.9592 133.143 46.6969 133.143 46.4286V32.9049H141.286V57.2857H108.714V32.9049ZM122.286 32.9049H130.429V43.1523L127.317 40.0405C127.062 39.786 126.717 39.6431 126.357 39.6431C125.997 39.6431 125.652 39.786 125.398 40.0405L122.286 43.1523V32.9049Z" fill="black"/>
<path d="M133.009 48.5576H135.219L136.52 50.7329L137.821 48.5576H140.018L137.513 52.3018V55H135.518V52.3018L133.009 48.5576Z" fill="black"/>
<path d="M169 1.5H231C232.933 1.5 234.5 3.067 234.5 5V68.5H165.5V5C165.5 3.067 167.067 1.5 169 1.5Z" fill="#D92020" stroke="black" stroke-width="3"/>
<mask id="path-13-inside-5_57_271" fill="white">
<rect x="164" y="67" width="13.948" height="14" rx="2"/>
</mask>
<rect x="164" y="67" width="13.948" height="14" rx="2" fill="#39393A" stroke="black" stroke-width="6" mask="url(#path-13-inside-5_57_271)"/>
<mask id="path-14-inside-6_57_271" fill="white">
<rect x="222.052" y="67" width="13.948" height="14" rx="2"/>
</mask>
<rect x="222.052" y="67" width="13.948" height="14" rx="2" fill="#39393A" stroke="black" stroke-width="6" mask="url(#path-14-inside-6_57_271)"/>
<path d="M171.85 6.41016H175.342L176.689 11.6367L178.031 6.41016H181.512V15H179.344V8.44922L177.662 15H175.699L174.023 8.44922V15H171.85V6.41016ZM183.099 6.41016H186.023L187.546 9.05273L189.023 6.41016H191.917L189.246 10.5703L192.169 15H189.187L187.494 12.2402L185.794 15H182.83L185.794 10.5234L183.099 6.41016Z" fill="black"/>
</svg>
