<svg width="87" height="77" viewBox="0 0 87 77" fill="none" xmlns="http://www.w3.org/2000/svg">
<path d="M5 43.5H73C74.933 43.5 76.5 45.067 76.5 47V60C76.5 61.933 74.933 63.5 73 63.5H5C3.067 63.5 1.5 61.933 1.5 60V47C1.5 45.067 3.067 43.5 5 43.5Z" fill="#E8871E" stroke="black" stroke-width="3"/>
<path d="M74 23.5H82C83.933 23.5 85.5 25.067 85.5 27V45C85.5 49.1421 82.1421 52.5 78 52.5H74C72.067 52.5 70.5 50.933 70.5 49V27C70.5 25.067 72.067 23.5 74 23.5Z" fill="#E8871E" stroke="black" stroke-width="3"/>
<rect x="10.5" y="60.5" width="15" height="15" rx="7.5" fill="#39393A" stroke="black" stroke-width="3"/>
<rect x="51.5" y="60.5" width="15" height="15" rx="7.5" fill="#39393A" stroke="black" stroke-width="3"/>
<path d="M23.0063 2.08857C24.8116 1.42043 26.8593 1.84904 28.2451 3.23411C30.184 5.17234 30.184 8.31575 28.2451 10.2541C26.3057 12.1928 23.1617 12.1928 21.2223 10.2541C19.8309 8.86318 19.4049 6.80488 20.0848 4.99525C20.2563 4.53857 20.0251 4.02935 19.5683 3.85783C19.1114 3.68631 18.602 3.91748 18.4305 4.37416C17.5091 6.82683 18.0867 9.61775 19.9728 11.5032C22.6022 14.1318 26.8651 14.1318 29.4946 11.5032C32.1237 8.875 32.1237 4.61309 29.4946 1.98489C27.6161 0.107516 24.8396 -0.473639 22.3927 0.431928C21.9351 0.601293 21.7015 1.10943 21.8709 1.56689C22.0403 2.02436 22.5487 2.25794 23.0063 2.08857Z" fill="black"/>
<path d="M21.8721 2.00143L24.1534 4.28158C24.3402 4.4685 24.3402 4.77243 24.1534 4.95926L22.9486 6.16357C22.7614 6.35079 22.458 6.35079 22.2707 6.16357L20.0017 3.89571C19.6566 3.55081 19.0971 3.55086 18.7521 3.89584C18.4071 4.24083 18.4072 4.80007 18.7523 5.14497L21.0213 7.41274C21.8986 8.2898 23.3208 8.2898 24.1982 7.4127L25.4029 6.20838C26.2798 5.33176 26.2798 3.90977 25.4032 3.03267L23.1215 0.752171C22.7764 0.407273 22.217 0.407317 21.872 0.752301C21.527 1.09728 21.527 1.65653 21.8721 2.00143ZM50.9937 35.9242C49.1884 36.5923 47.1407 36.1637 45.7549 34.7786C43.816 32.8404 43.816 29.697 45.7549 27.7587C47.6943 25.8199 50.8383 25.8199 52.7777 27.7587C54.1691 29.1496 54.5951 31.2079 53.9153 33.0175C53.7437 33.4742 53.9749 33.9834 54.4318 34.1549C54.8886 34.3264 55.398 34.0953 55.5695 33.6386C56.4909 31.1859 55.9133 28.395 54.0272 26.5096C51.3978 23.8809 47.1349 23.8809 44.5054 26.5096C41.8764 29.1378 41.8764 33.3997 44.5054 36.0279C46.3839 37.9052 49.1604 38.4864 51.6073 37.5808C52.0649 37.4115 52.2985 36.9033 52.1291 36.4459C51.9597 35.9884 51.4514 35.7548 50.9938 35.9242H50.9937Z" fill="black"/>
<path d="M52.1279 36.0114L49.847 33.7312C49.6598 33.5441 49.6598 33.2406 49.8467 33.0538L51.0514 31.8491C51.2386 31.6619 51.5419 31.6619 51.7292 31.8492L53.9983 34.1171C54.3434 34.462 54.9028 34.4619 55.2478 34.1169C55.5928 33.7719 55.5928 33.2127 55.2477 32.8678L52.9787 30.6C52.1013 29.723 50.6791 29.723 49.8017 30.6001L48.5973 31.8045C47.72 32.6808 47.72 34.1032 48.5974 34.9804L50.8783 37.2606C51.2234 37.6055 51.7828 37.6055 52.1279 37.2606C52.4729 36.9156 52.4729 36.3564 52.1279 36.0114L52.1279 36.0114ZM44.0066 28.7454L27.1267 11.871C26.7817 11.5261 26.2223 11.5261 25.8772 11.871C25.5321 12.216 25.5321 12.7752 25.8772 13.1201L42.7571 29.9946C43.1022 30.3395 43.6616 30.3395 44.0066 29.9946C44.3517 29.6496 44.3517 29.0904 44.0066 28.7454ZM29.7394 8.95261L47.0125 26.2201C47.3576 26.565 47.917 26.565 48.262 26.2201C48.6071 25.8751 48.6071 25.3159 48.262 24.971L30.9889 7.70348C30.6439 7.35854 30.0844 7.35854 29.7394 7.70348C29.3943 8.04842 29.3943 8.60767 29.7394 8.95261ZM40.7803 13.8054L48.4049 6.18325C48.75 5.83831 48.75 5.27906 48.4049 4.93412C48.0599 4.58918 47.5004 4.58918 47.1554 4.93412L39.5307 12.5563C39.1857 12.9012 39.1857 13.4605 39.5307 13.8054C39.8758 14.1504 40.4352 14.1504 40.7803 13.8054ZM50.0297 7.33986L42.1542 15.1365C41.8074 15.4797 41.8047 16.039 42.1481 16.3856C42.4914 16.7322 43.0509 16.7349 43.3976 16.3917L51.2732 8.59507C51.6199 8.25181 51.6226 7.69257 51.2793 7.34595C50.9359 6.99932 50.3765 6.99661 50.0297 7.33986Z" fill="black"/>
<path d="M55.7093 2.55872C55.8265 2.6759 55.9084 2.82369 55.9455 2.98519C55.9827 3.14669 55.9737 3.31539 55.9195 3.472L54.7028 6.9883C54.6591 7.11471 54.5872 7.22954 54.4926 7.32412C54.398 7.4187 54.2831 7.49057 54.1567 7.53431L50.6388 8.751C50.4821 8.8052 50.3133 8.81422 50.1518 8.77705C49.9902 8.73988 49.8423 8.65801 49.7251 8.5408L47.4247 6.24076C47.3075 6.12357 47.2257 5.97579 47.1885 5.8143C47.1513 5.65281 47.1604 5.48412 47.2146 5.32752L48.4312 1.81122C48.475 1.68482 48.5468 1.57 48.6414 1.47542C48.736 1.38085 48.8509 1.30898 48.9773 1.26526L52.4948 0.0485609C52.6514 -0.00563995 52.8202 -0.0146744 52.9818 0.0224908C53.1434 0.0596559 53.2912 0.141521 53.4084 0.258725L55.7092 2.55876L55.7093 2.55872ZM52.55 1.89877L49.961 2.79433L49.0654 5.38263L50.5838 6.9008L53.1732 6.00519L54.0688 3.41697L52.5501 1.89877H52.55ZM34.3799 25.3852L23.9151 35.8466C23.5917 36.17 23.2032 36.2117 23.0637 36.0725L19.8478 32.8576C19.7088 32.7185 19.7506 32.3304 20.0743 32.0066L30.5186 21.5661C30.8636 21.2212 30.8636 20.6619 30.5186 20.317C30.1736 19.9721 29.6141 19.9721 29.2691 20.317L18.8245 30.7576C17.8633 31.7192 17.7027 33.2107 18.5981 34.1065L21.8145 37.3218C22.7109 38.2172 24.2035 38.0566 25.1647 37.0957L35.6295 26.6343C35.9746 26.2893 35.9746 25.7301 35.6295 25.3851C35.2845 25.0402 34.725 25.0402 34.38 25.3851L34.3799 25.3852Z" fill="black"/>
</svg>
