<svg width="1635" height="891" viewBox="0 0 1635 891" fill="none" xmlns="http://www.w3.org/2000/svg">
<g id="plant">
<rect width="1635" height="891" fill="white"/>
<g id="Group 19">
<g id="Grid">
<rect id="Rectangle 14" x="31.5" y="31.5" width="207" height="207" fill="#FFF4E9" stroke="black" stroke-width="3"/>
<rect id="Rectangle 20" x="31.5" y="238.5" width="207" height="207" fill="#FFF4E9" stroke="black" stroke-width="3"/>
<rect id="Rectangle 26" x="31.5" y="445.5" width="207" height="207" fill="#FFF4E9" stroke="black" stroke-width="3"/>
<rect id="Rectangle 32" x="31.5" y="652.5" width="207" height="207" fill="#FFF4E9" stroke="black" stroke-width="3"/>
<rect id="Rectangle 15" x="238.5" y="31.5" width="207" height="207" fill="#FFF4E9" stroke="black" stroke-width="3"/>
<rect id="Rectangle 21" x="238.5" y="238.5" width="207" height="207" fill="#FFF4E9" stroke="black" stroke-width="3"/>
<rect id="Rectangle 27" x="238.5" y="445.5" width="207" height="207" fill="#FFF4E9" stroke="black" stroke-width="3"/>
<rect id="Rectangle 33" x="238.5" y="652.5" width="207" height="207" fill="#FFF4E9" stroke="black" stroke-width="3"/>
<rect id="Rectangle 16" x="445.5" y="31.5" width="207" height="207" fill="#FFF4E9" stroke="black" stroke-width="3"/>
<rect id="Rectangle 22" x="445.5" y="238.5" width="207" height="207" fill="#FFF4E9" stroke="black" stroke-width="3"/>
<rect id="Rectangle 28" x="445.5" y="445.5" width="207" height="207" fill="#FFF4E9" stroke="black" stroke-width="3"/>
<g id="O-Rover">
<g id="OR-Frame">
<path id="OR-Body" d="M89 812.5H157C158.933 812.5 160.5 814.067 160.5 816V829C160.5 830.933 158.933 832.5 157 832.5H89C87.067 832.5 85.5 830.933 85.5 829V816C85.5 814.067 87.067 812.5 89 812.5Z" fill="#E8871E" stroke="black" stroke-width="3"/>
<path id="OR-Head" d="M158 792.5H166C167.933 792.5 169.5 794.067 169.5 796V814C169.5 818.142 166.142 821.5 162 821.5H158C156.067 821.5 154.5 819.933 154.5 818V796C154.5 794.067 156.067 792.5 158 792.5Z" fill="#E8871E" stroke="black" stroke-width="3"/>
</g>
<g id="OR-Wheels">
<rect id="OR-Wheel" x="94.5" y="829.5" width="15" height="15" rx="7.5" fill="#39393A" stroke="black" stroke-width="3"/>
<rect id="OR-Wheel_2" x="135.5" y="829.5" width="15" height="15" rx="7.5" fill="#39393A" stroke="black" stroke-width="3"/>
</g>
<g id="Repair-Kit">
<path id="Vector" d="M107.006 771.089C108.812 770.42 110.859 770.849 112.245 772.234C114.184 774.172 114.184 777.316 112.245 779.254C110.306 781.193 107.162 781.193 105.222 779.254C103.831 777.863 103.405 775.805 104.085 773.995C104.256 773.539 104.025 773.029 103.568 772.858C103.111 772.686 102.602 772.918 102.43 773.374C101.509 775.827 102.087 778.618 103.973 780.503C106.602 783.132 110.865 783.132 113.495 780.503C116.124 777.875 116.124 773.613 113.495 770.985C111.616 769.108 108.84 768.526 106.393 769.432C105.935 769.601 105.701 770.109 105.871 770.567C106.04 771.024 106.549 771.258 107.006 771.089Z" fill="black"/>
<path id="Vector_2" d="M105.872 771.001L108.153 773.282C108.34 773.468 108.34 773.772 108.153 773.959L106.949 775.164C106.761 775.351 106.458 775.351 106.271 775.164L104.002 772.896C103.657 772.551 103.097 772.551 102.752 772.896C102.407 773.241 102.407 773.8 102.752 774.145L105.021 776.413C105.899 777.29 107.321 777.29 108.198 776.413L109.403 775.208C110.28 774.332 110.28 772.91 109.403 772.033L107.122 769.752C106.776 769.407 106.217 769.407 105.872 769.752C105.527 770.097 105.527 770.656 105.872 771.001ZM134.994 804.924C133.188 805.592 131.141 805.164 129.755 803.779C127.816 801.84 127.816 798.697 129.755 796.759C131.694 794.82 134.838 794.82 136.778 796.759C138.169 798.15 138.595 800.208 137.915 802.017C137.744 802.474 137.975 802.983 138.432 803.155C138.889 803.326 139.398 803.095 139.57 802.639C140.491 800.186 139.913 797.395 138.027 795.509C135.398 792.881 131.135 792.881 128.505 795.509C125.876 798.138 125.876 802.4 128.505 805.028C130.384 806.905 133.16 807.486 135.607 806.581C136.065 806.411 136.299 805.903 136.129 805.446C135.96 804.988 135.451 804.755 134.994 804.924H134.994Z" fill="black"/>
<path id="Vector_3" d="M136.128 805.011L133.847 802.731C133.66 802.544 133.66 802.241 133.847 802.054L135.051 800.849C135.239 800.662 135.542 800.662 135.729 800.849L137.998 803.117C138.343 803.462 138.903 803.462 139.248 803.117C139.593 802.772 139.593 802.213 139.248 801.868L136.979 799.6C136.101 798.723 134.679 798.723 133.802 799.6L132.597 800.805C131.72 801.681 131.72 803.103 132.597 803.98L134.878 806.261C135.223 806.606 135.783 806.606 136.128 806.261C136.473 805.916 136.473 805.356 136.128 805.011L136.128 805.011ZM128.007 797.745L111.127 780.871C110.782 780.526 110.222 780.526 109.877 780.871C109.532 781.216 109.532 781.775 109.877 782.12L126.757 798.995C127.102 799.34 127.662 799.34 128.007 798.995C128.352 798.65 128.352 798.09 128.007 797.745ZM113.739 777.953L131.013 795.22C131.358 795.565 131.917 795.565 132.262 795.22C132.607 794.875 132.607 794.316 132.262 793.971L114.989 776.703C114.644 776.359 114.084 776.359 113.739 776.703C113.394 777.048 113.394 777.608 113.739 777.953ZM124.78 782.805L132.405 775.183C132.75 774.838 132.75 774.279 132.405 773.934C132.06 773.589 131.5 773.589 131.155 773.934L123.531 781.556C123.186 781.901 123.186 782.46 123.531 782.805C123.876 783.15 124.435 783.15 124.78 782.805ZM134.03 776.34L126.154 784.136C125.807 784.48 125.805 785.039 126.148 785.386C126.491 785.732 127.051 785.735 127.398 785.392L135.273 777.595C135.62 777.252 135.623 776.693 135.279 776.346C134.936 775.999 134.376 775.997 134.03 776.34Z" fill="black"/>
<path id="Vector_4" d="M139.709 771.559C139.826 771.676 139.908 771.824 139.946 771.985C139.983 772.147 139.974 772.315 139.919 772.472L138.703 775.988C138.659 776.115 138.587 776.23 138.493 776.324C138.398 776.419 138.283 776.491 138.157 776.534L134.639 777.751C134.482 777.805 134.313 777.814 134.152 777.777C133.99 777.74 133.842 777.658 133.725 777.541L131.425 775.241C131.308 775.124 131.226 774.976 131.189 774.814C131.151 774.653 131.16 774.484 131.215 774.328L132.431 770.811C132.475 770.685 132.547 770.57 132.641 770.475C132.736 770.381 132.851 770.309 132.977 770.265L136.495 769.049C136.651 768.994 136.82 768.985 136.982 769.022C137.143 769.06 137.291 769.142 137.408 769.259L139.709 771.559L139.709 771.559ZM136.55 770.899L133.961 771.794L133.065 774.383L134.584 775.901L137.173 775.005L138.069 772.417L136.55 770.899H136.55ZM118.38 794.385L107.915 804.847C107.592 805.17 107.203 805.212 107.064 805.072L103.848 801.858C103.709 801.719 103.751 801.33 104.074 801.007L114.519 790.566C114.864 790.221 114.864 789.662 114.519 789.317C114.174 788.972 113.614 788.972 113.269 789.317L102.825 799.758C101.863 800.719 101.703 802.211 102.598 803.106L105.814 806.322C106.711 807.217 108.204 807.057 109.165 806.096L119.63 795.634C119.975 795.289 119.975 794.73 119.63 794.385C119.284 794.04 118.725 794.04 118.38 794.385L118.38 794.385Z" fill="black"/>
</g>
</g>
<rect id="Rectangle 34" x="445.5" y="652.5" width="207" height="207" fill="#FFF4E9" stroke="black" stroke-width="3"/>
<rect id="Rectangle 17" x="652.5" y="31.5" width="207" height="207" fill="#FFF4E9" stroke="black" stroke-width="3"/>
<rect id="Rectangle 23" x="652.5" y="238.5" width="207" height="207" fill="#FFF4E9" stroke="black" stroke-width="3"/>
<rect id="Rectangle 29" x="652.5" y="445.5" width="207" height="207" fill="#FFF4E9" stroke="black" stroke-width="3"/>
<rect id="Rectangle 35" x="652.5" y="652.5" width="207" height="207" fill="#FFF4E9" stroke="black" stroke-width="3"/>
<rect id="Rectangle 18" x="859.5" y="31.5" width="207" height="207" fill="#FFF4E9" stroke="black" stroke-width="3"/>
<rect id="Rectangle 24" x="859.5" y="238.5" width="207" height="207" fill="#FFF4E9" stroke="black" stroke-width="3"/>
<rect id="Rectangle 30" x="859.5" y="445.5" width="207" height="207" fill="#FFF4E9" stroke="black" stroke-width="3"/>
<rect id="Rectangle 36" x="859.5" y="652.5" width="207" height="207" fill="#FFF4E9" stroke="black" stroke-width="3"/>
<rect id="Rectangle 19" x="1066.5" y="31.5" width="207" height="207" fill="#FFF4E9" stroke="black" stroke-width="3"/>
<rect id="Rectangle 25" x="1066.5" y="238.5" width="207" height="207" fill="#FFF4E9" stroke="black" stroke-width="3"/>
<rect id="Rectangle 31" x="1066.5" y="445.5" width="207" height="207" fill="#FFF4E9" stroke="black" stroke-width="3"/>
<rect id="Rectangle 37" x="1066.5" y="652.5" width="207" height="207" fill="#FFF4E9" stroke="black" stroke-width="3"/>
<g id="Charging-Station">
<path id="CS-Base" d="M736.5 665.5H775.5C777.433 665.5 779 667.067 779 669V743.5H733V669C733 667.127 734.471 665.598 736.32 665.505L736.5 665.5Z" fill="#747474" stroke="black" stroke-width="3"/>
<g id="CS-Body">
<path id="Rect" d="M723 729.5H788C789.933 729.5 791.5 731.067 791.5 733V743.5H719.5V733C719.5 731.067 721.067 729.5 723 729.5Z" fill="#39393A" stroke="black" stroke-width="3"/>
<path id="Vector_5" d="M755.523 680.005C755.583 680.026 755.812 680.204 755.812 680.637V693.091H764.688C764.694 693.091 764.719 693.092 764.76 693.122C764.803 693.154 764.865 693.218 764.917 693.331C765.028 693.572 765.027 693.889 764.915 694.128L755.728 713.765C755.661 713.907 755.583 713.967 755.543 713.987C755.51 714.004 755.494 714.001 755.477 713.995C755.417 713.975 755.188 713.797 755.188 713.363V700.909H746.312C746.306 700.909 746.282 700.908 746.24 700.878C746.197 700.846 746.134 700.782 746.082 700.669C745.971 700.428 745.972 700.111 746.084 699.872L755.271 680.236C755.338 680.094 755.417 680.033 755.457 680.013C755.49 679.996 755.506 679.999 755.523 680.005Z" fill="#07BEB8" stroke="black" stroke-width="2"/>
</g>
</g>
<g id="Charging-Station_2">
<path id="CS-Base_2" d="M529.5 48.5H568.5C570.433 48.5 572 50.067 572 52V126.5H526V52C526 50.1273 527.471 48.5984 529.32 48.5049L529.5 48.5Z" fill="#747474" stroke="black" stroke-width="3"/>
<g id="CS-Body_2">
<path id="Rect_2" d="M516 112.5H581C582.933 112.5 584.5 114.067 584.5 116V126.5H512.5V116C512.5 114.067 514.067 112.5 516 112.5Z" fill="#39393A" stroke="black" stroke-width="3"/>
<path id="Vector_6" d="M548.523 63.0049C548.583 63.0256 548.812 63.2035 548.812 63.6367V76.0908H557.688C557.694 76.0908 557.719 76.0923 557.76 76.1221C557.803 76.1535 557.865 76.218 557.917 76.3311C558.028 76.572 558.027 76.8888 557.915 77.1279L548.728 96.7646C548.661 96.9067 548.583 96.967 548.543 96.9873C548.51 97.004 548.494 97.0011 548.477 96.9951C548.417 96.9747 548.188 96.7969 548.188 96.3633V83.9092H539.312C539.306 83.9092 539.282 83.9079 539.24 83.8779C539.197 83.8465 539.134 83.7821 539.082 83.6689C538.971 83.428 538.972 83.111 539.084 82.8721L548.271 63.2363C548.338 63.0937 548.417 63.033 548.457 63.0127C548.49 62.996 548.506 62.9989 548.523 63.0049Z" fill="#07BEB8" stroke="black" stroke-width="2"/>
</g>
</g>
<g id="Group 18">
<g id="M2">
<path id="M2-Frame" d="M875 455.5H937C938.933 455.5 940.5 457.067 940.5 459V522.5H871.5V459C871.5 457.067 873.067 455.5 875 455.5Z" fill="#07BEB8" stroke="black" stroke-width="3"/>
<g id="M2-Support">
<g id="Rectangle 2">
<mask id="path-40-inside-1_57_2" fill="white">
<rect x="870" y="521" width="13.948" height="14" rx="2"/>
</mask>
<rect x="870" y="521" width="13.948" height="14" rx="2" fill="#39393A" stroke="black" stroke-width="6" mask="url(#path-40-inside-1_57_2)"/>
</g>
<g id="Rectangle 3">
<mask id="path-41-inside-2_57_2" fill="white">
<rect x="928.052" y="521" width="13.948" height="14" rx="2"/>
</mask>
<rect x="928.052" y="521" width="13.948" height="14" rx="2" fill="#39393A" stroke="black" stroke-width="6" mask="url(#path-41-inside-2_57_2)"/>
</g>
</g>
<text id="M2_2" fill="black" style="white-space: pre" xml:space="preserve" font-family="Arial" font-size="12" font-weight="900" letter-spacing="0.04em"><tspan x="877" y="469.246">M2</tspan></text>
</g>
<g id="D2">
<path id="D2-Frame" d="M1004.01 456.324C1004.95 455.899 1006.02 455.907 1006.95 456.346L1053.49 478.32C1054.72 478.898 1055.5 480.131 1055.5 481.485V530C1055.5 531.933 1053.93 533.5 1052 533.5H957C955.067 533.5 953.5 531.933 953.5 530V481.536C953.5 480.164 954.302 478.918 955.552 478.35L1004.01 456.324Z" fill="#D9D7DD" stroke="black" stroke-width="3"/>
<g id="D2-Item-2">
<path id="path453757" fill-rule="evenodd" clip-rule="evenodd" d="M1017.79 518.857C1017.43 518.857 1017.08 519 1016.83 519.255C1016.57 519.509 1016.43 519.854 1016.43 520.214C1016.43 520.574 1016.57 520.919 1016.83 521.174C1017.08 521.428 1017.43 521.571 1017.79 521.571H1025.93C1026.29 521.571 1026.63 521.428 1026.89 521.174C1027.14 520.919 1027.29 520.574 1027.29 520.214C1027.29 519.854 1027.14 519.509 1026.89 519.255C1026.63 519 1026.29 518.857 1025.93 518.857H1017.79Z" fill="black"/>
<path id="path453703" fill-rule="evenodd" clip-rule="evenodd" d="M1016.43 489C1016.18 489 1015.93 489.071 1015.71 489.204C1015.5 489.337 1015.33 489.527 1015.21 489.753L1011.14 497.943C1011.06 498.122 1011.01 498.317 1011.01 498.516C1011.01 498.526 1011 498.537 1011 498.548V525.643C1011 526.003 1011.14 526.348 1011.4 526.602C1011.65 526.857 1012 527 1012.36 527H1047.64C1048 527 1048.35 526.857 1048.6 526.602C1048.86 526.348 1049 526.003 1049 525.643V498.548V498.545C1049 498.336 1048.95 498.13 1048.86 497.943L1044.79 489.753C1044.67 489.527 1044.5 489.337 1044.29 489.204C1044.07 489.071 1043.82 489 1043.57 489H1016.43ZM1017.27 491.714H1025.69L1024.8 497.191H1014.55L1017.27 491.714ZM1028.44 491.714H1034.28L1035.19 497.191H1027.55L1028.44 491.714ZM1037.03 491.714H1042.73L1045.45 497.191H1037.94L1037.03 491.714ZM1013.71 499.905H1024.57V513.429C1024.57 513.697 1024.65 513.959 1024.8 514.182C1024.95 514.405 1025.16 514.579 1025.41 514.682C1025.66 514.785 1025.93 514.812 1026.19 514.759C1026.46 514.707 1026.7 514.578 1026.89 514.388L1031.36 509.919L1035.83 514.388C1036.02 514.578 1036.26 514.707 1036.52 514.759C1036.78 514.812 1037.06 514.785 1037.31 514.682C1037.55 514.579 1037.76 514.405 1037.91 514.182C1038.06 513.959 1038.14 513.697 1038.14 513.429V499.905H1046.29V524.286H1013.71V499.905ZM1027.29 499.905H1035.43V510.152L1032.32 507.04C1032.06 506.786 1031.72 506.643 1031.36 506.643C1031 506.643 1030.65 506.786 1030.4 507.04L1027.29 510.152V499.905Z" fill="black"/>
<text id="2" fill="black" style="white-space: pre" xml:space="preserve" font-family="Arial" font-size="12" font-weight="900" letter-spacing="0.04em"><tspan x="1038" y="522.246">2</tspan></text>
</g>
<g id="D2-Item-1">
<path id="path453757_2" fill-rule="evenodd" clip-rule="evenodd" d="M967.786 519.857C967.426 519.857 967.081 520 966.826 520.255C966.572 520.509 966.429 520.854 966.429 521.214C966.429 521.574 966.572 521.919 966.826 522.174C967.081 522.428 967.426 522.571 967.786 522.571H975.929C976.289 522.571 976.634 522.428 976.888 522.174C977.143 521.919 977.286 521.574 977.286 521.214C977.286 520.854 977.143 520.509 976.888 520.255C976.634 520 976.289 519.857 975.929 519.857H967.786Z" fill="black"/>
<path id="path453703_2" fill-rule="evenodd" clip-rule="evenodd" d="M966.429 490C966.176 490 965.929 490.071 965.715 490.204C965.5 490.337 965.327 490.527 965.215 490.753L961.143 498.943C961.057 499.122 961.011 499.317 961.008 499.516C961.005 499.526 961.003 499.537 961 499.548V526.643C961 527.003 961.143 527.348 961.398 527.602C961.652 527.857 961.997 528 962.357 528H997.643C998.003 528 998.348 527.857 998.602 527.602C998.857 527.348 999 527.003 999 526.643V499.548V499.545C998.999 499.336 998.95 499.13 998.857 498.943L994.785 490.753C994.673 490.527 994.5 490.337 994.286 490.204C994.071 490.071 993.824 490 993.572 490H966.429ZM967.266 492.714H975.693L974.805 498.191H964.547L967.266 492.714ZM978.439 492.714H984.278L985.193 498.191H977.554L978.439 492.714ZM987.03 492.714H992.731L995.454 498.191H987.944L987.03 492.714ZM963.714 500.905H974.572V514.429C974.572 514.697 974.651 514.959 974.801 515.182C974.95 515.405 975.162 515.579 975.409 515.682C975.657 515.785 975.93 515.812 976.193 515.759C976.457 515.707 976.698 515.578 976.888 515.388L981.357 510.919L985.826 515.388C986.016 515.578 986.258 515.707 986.521 515.759C986.784 515.812 987.057 515.785 987.305 515.682C987.553 515.579 987.765 515.405 987.914 515.182C988.063 514.959 988.143 514.697 988.143 514.429V500.905H996.286V525.286H963.714V500.905ZM977.286 500.905H985.429V511.152L982.317 508.04C982.062 507.786 981.717 507.643 981.357 507.643C980.997 507.643 980.652 507.786 980.398 508.04L977.286 511.152V500.905Z" fill="black"/>
<text id="2_2" fill="black" style="white-space: pre" xml:space="preserve" font-family="Arial" font-size="12" font-weight="900" letter-spacing="0.04em"><tspan x="988" y="523.246">2</tspan></text>
</g>
<text id="D2_2" transform="translate(996 465)" fill="black" style="white-space: pre" xml:space="preserve" font-family="Arial" font-size="12" font-weight="900" letter-spacing="0.04em"><tspan x="0" y="13.2461">D2</tspan></text>
</g>
</g>
<g id="Group 17">
<g id="M3">
<path id="M3-Frame" d="M47 665.5H109C110.933 665.5 112.5 667.067 112.5 669V732.5H43.5V669C43.5 667.067 45.067 665.5 47 665.5Z" fill="#D92020" stroke="black" stroke-width="3"/>
<g id="M3-Support">
<g id="Rectangle 2_2">
<mask id="path-52-inside-3_57_2" fill="white">
<rect x="42" y="731" width="13.948" height="14" rx="2"/>
</mask>
<rect x="42" y="731" width="13.948" height="14" rx="2" fill="#39393A" stroke="black" stroke-width="6" mask="url(#path-52-inside-3_57_2)"/>
</g>
<g id="Rectangle 3_2">
<mask id="path-53-inside-4_57_2" fill="white">
<rect x="100.052" y="731" width="13.948" height="14" rx="2"/>
</mask>
<rect x="100.052" y="731" width="13.948" height="14" rx="2" fill="#39393A" stroke="black" stroke-width="6" mask="url(#path-53-inside-4_57_2)"/>
</g>
</g>
<text id="M3_2" fill="black" style="white-space: pre" xml:space="preserve" font-family="Arial" font-size="12" font-weight="900" letter-spacing="0.04em"><tspan x="49" y="679.246">M3</tspan></text>
</g>
<g id="D3">
<path id="D3-Frame" d="M176.012 666.324C176.948 665.899 178.024 665.907 178.954 666.346L225.494 688.32C226.719 688.898 227.5 690.131 227.5 691.485V740C227.5 741.933 225.933 743.5 224 743.5H129C127.067 743.5 125.5 741.933 125.5 740V691.536C125.5 690.164 126.302 688.918 127.552 688.35L176.012 666.324Z" fill="#D9D7DD" stroke="black" stroke-width="3"/>
<g id="D3-Item-1">
<path id="path453757_3" fill-rule="evenodd" clip-rule="evenodd" d="M139.786 728.857C139.426 728.857 139.081 729 138.826 729.255C138.572 729.509 138.429 729.854 138.429 730.214C138.429 730.574 138.572 730.919 138.826 731.174C139.081 731.428 139.426 731.571 139.786 731.571H147.929C148.289 731.571 148.634 731.428 148.888 731.174C149.143 730.919 149.286 730.574 149.286 730.214C149.286 729.854 149.143 729.509 148.888 729.255C148.634 729 148.289 728.857 147.929 728.857H139.786Z" fill="black"/>
<path id="path453703_3" fill-rule="evenodd" clip-rule="evenodd" d="M138.429 699C138.176 699 137.929 699.071 137.715 699.204C137.5 699.337 137.327 699.527 137.215 699.753L133.143 707.943C133.057 708.122 133.011 708.317 133.008 708.516C133.005 708.526 133.003 708.537 133 708.548V735.643C133 736.003 133.143 736.348 133.398 736.602C133.652 736.857 133.997 737 134.357 737H169.643C170.003 737 170.348 736.857 170.602 736.602C170.857 736.348 171 736.003 171 735.643V708.548V708.545C170.999 708.336 170.95 708.13 170.857 707.943L166.785 699.753C166.673 699.527 166.5 699.337 166.286 699.204C166.071 699.071 165.824 699 165.572 699H138.429ZM139.266 701.714H147.693L146.805 707.191H136.547L139.266 701.714ZM150.439 701.714H156.278L157.193 707.191H149.554L150.439 701.714ZM159.03 701.714H164.731L167.454 707.191H159.944L159.03 701.714ZM135.714 709.905H146.572V723.429C146.572 723.697 146.651 723.959 146.801 724.182C146.95 724.405 147.162 724.579 147.409 724.682C147.657 724.785 147.93 724.812 148.193 724.759C148.457 724.707 148.698 724.578 148.888 724.388L153.357 719.919L157.826 724.388C158.016 724.578 158.258 724.707 158.521 724.759C158.784 724.812 159.057 724.785 159.305 724.682C159.553 724.579 159.765 724.405 159.914 724.182C160.063 723.959 160.143 723.697 160.143 723.429V709.905H168.286V734.286H135.714V709.905ZM149.286 709.905H157.429V720.152L154.317 717.04C154.062 716.786 153.717 716.643 153.357 716.643C152.997 716.643 152.652 716.786 152.398 717.04L149.286 720.152V709.905Z" fill="black"/>
<text id="3" fill="black" style="white-space: pre" xml:space="preserve" font-family="Arial" font-size="12" font-weight="900" letter-spacing="0.04em"><tspan x="160" y="732.246">3</tspan></text>
</g>
<text id="D3_2" transform="translate(168 675)" fill="black" style="white-space: pre" xml:space="preserve" font-family="Arial" font-size="12" font-weight="900" letter-spacing="0.04em"><tspan x="0" y="13.2461">D3</tspan></text>
</g>
</g>
<text id="Target" fill="black" style="white-space: pre" xml:space="preserve" font-family="Arial" font-size="40" font-weight="900" letter-spacing="0.04em"><tspan x="1081" y="707.82">Target</tspan></text>
<g id="B-Rover">
<g id="00-Item">
<path id="path453757_4" fill-rule="evenodd" clip-rule="evenodd" d="M897.707 599.71C897.457 599.71 897.218 599.809 897.041 599.986C896.865 600.162 896.766 600.402 896.766 600.652C896.766 600.901 896.865 601.141 897.041 601.317C897.218 601.494 897.457 601.593 897.707 601.593H903.355C903.605 601.593 903.844 601.494 904.021 601.317C904.197 601.141 904.297 600.901 904.297 600.652C904.297 600.402 904.197 600.162 904.021 599.986C903.844 599.809 903.605 599.71 903.355 599.71H897.707Z" fill="black"/>
<path id="path453703_4" fill-rule="evenodd" clip-rule="evenodd" d="M896.766 579C896.591 579 896.419 579.049 896.27 579.141C896.122 579.234 896.001 579.365 895.924 579.522L893.099 585.203C893.039 585.327 893.007 585.463 893.006 585.601C893.004 585.608 893.002 585.615 893 585.623V604.417C893 604.667 893.099 604.906 893.276 605.083C893.452 605.259 893.692 605.358 893.941 605.358H918.417C918.667 605.358 918.906 605.259 919.083 605.083C919.259 604.906 919.358 604.667 919.358 604.417V585.623V585.621C919.358 585.476 919.324 585.333 919.259 585.203L916.435 579.522C916.357 579.365 916.237 579.234 916.088 579.141C915.94 579.049 915.768 579 915.593 579H896.766ZM897.347 580.883H903.192L902.576 584.681H895.46L897.347 580.883ZM905.096 580.883H909.147L909.781 584.681H904.482L905.096 580.883ZM911.055 580.883H915.01L916.898 584.681H911.69L911.055 580.883ZM894.883 586.564H902.414V595.945C902.414 596.131 902.469 596.313 902.573 596.468C902.676 596.622 902.823 596.743 902.995 596.814C903.167 596.885 903.356 596.904 903.539 596.868C903.721 596.831 903.889 596.742 904.021 596.61L907.121 593.51L910.221 596.61C910.352 596.742 910.52 596.831 910.703 596.868C910.885 596.904 911.074 596.885 911.246 596.814C911.418 596.743 911.565 596.622 911.669 596.468C911.772 596.313 911.827 596.131 911.828 595.945V586.564H917.476V603.476H894.883V586.564ZM904.297 586.564H909.945V593.672L907.786 591.514C907.61 591.337 907.37 591.238 907.121 591.238C906.871 591.238 906.632 591.337 906.455 591.514L904.297 593.672V586.564Z" fill="black"/>
<text id="0" fill="black" style="white-space: pre" xml:space="preserve" font-family="Arial" font-size="7" font-weight="900" letter-spacing="0.04em"><tspan x="911.959" y="602.279">0</tspan></text>
</g>
<g id="10-Item">
<path id="path453757_5" fill-rule="evenodd" clip-rule="evenodd" d="M928.921 599.71C928.671 599.71 928.432 599.809 928.255 599.986C928.079 600.162 927.979 600.402 927.979 600.652C927.979 600.901 928.079 601.141 928.255 601.317C928.432 601.494 928.671 601.593 928.921 601.593H934.569C934.819 601.593 935.058 601.494 935.235 601.317C935.411 601.141 935.51 600.901 935.51 600.652C935.51 600.402 935.411 600.162 935.235 599.986C935.058 599.809 934.819 599.71 934.569 599.71H928.921Z" fill="black"/>
<path id="path453703_5" fill-rule="evenodd" clip-rule="evenodd" d="M927.979 579C927.804 579 927.633 579.049 927.484 579.141C927.335 579.234 927.215 579.365 927.137 579.522L924.313 585.203C924.253 585.327 924.221 585.463 924.219 585.601C924.218 585.608 924.216 585.615 924.214 585.623V604.417C924.214 604.667 924.313 604.906 924.49 605.083C924.666 605.259 924.906 605.358 925.155 605.358H949.631C949.881 605.358 950.12 605.259 950.296 605.083C950.473 604.906 950.572 604.667 950.572 604.417V585.623V585.621C950.572 585.476 950.538 585.333 950.473 585.203L947.649 579.522C947.571 579.365 947.451 579.234 947.302 579.141C947.153 579.049 946.982 579 946.807 579H927.979ZM928.56 580.883H934.405L933.789 584.681H926.674L928.56 580.883ZM936.31 580.883H940.361L940.995 584.681H935.696L936.31 580.883ZM942.269 580.883H946.224L948.112 584.681H942.904L942.269 580.883ZM926.097 586.564H933.628V595.945C933.628 596.131 933.683 596.313 933.786 596.468C933.89 596.622 934.037 596.743 934.209 596.814C934.381 596.885 934.57 596.904 934.753 596.868C934.935 596.831 935.103 596.742 935.235 596.61L938.335 593.51L941.434 596.61C941.566 596.742 941.734 596.831 941.916 596.868C942.099 596.904 942.288 596.885 942.46 596.814C942.632 596.743 942.779 596.622 942.883 596.468C942.986 596.313 943.041 596.131 943.041 595.945V586.564H948.69V603.476H926.097V586.564ZM935.51 586.564H941.159V593.672L939 591.514C938.824 591.337 938.584 591.238 938.335 591.238C938.085 591.238 937.846 591.337 937.669 591.514L935.51 593.672V586.564Z" fill="black"/>
<text id="1" fill="black" style="white-space: pre" xml:space="preserve" font-family="Arial" font-size="7" font-weight="900" letter-spacing="0.04em"><tspan x="942.942" y="602.274">1</tspan></text>
</g>
<g id="11-Item">
<path id="path453757_6" fill-rule="evenodd" clip-rule="evenodd" d="M928.921 569.71C928.671 569.71 928.432 569.809 928.255 569.986C928.079 570.162 927.979 570.402 927.979 570.652C927.979 570.901 928.079 571.141 928.255 571.317C928.432 571.494 928.671 571.593 928.921 571.593H934.569C934.819 571.593 935.058 571.494 935.235 571.317C935.411 571.141 935.51 570.901 935.51 570.652C935.51 570.402 935.411 570.162 935.235 569.986C935.058 569.809 934.819 569.71 934.569 569.71H928.921Z" fill="black"/>
<path id="path453703_6" fill-rule="evenodd" clip-rule="evenodd" d="M927.979 549C927.804 549 927.633 549.049 927.484 549.141C927.335 549.234 927.215 549.365 927.137 549.522L924.313 555.203C924.253 555.327 924.221 555.463 924.219 555.601C924.218 555.608 924.216 555.615 924.214 555.623V574.417C924.214 574.667 924.313 574.906 924.49 575.083C924.666 575.259 924.906 575.358 925.155 575.358H949.631C949.881 575.358 950.12 575.259 950.296 575.083C950.473 574.906 950.572 574.667 950.572 574.417V555.623V555.621C950.572 555.476 950.538 555.333 950.473 555.203L947.649 549.522C947.571 549.365 947.451 549.234 947.302 549.141C947.153 549.049 946.982 549 946.807 549H927.979ZM928.56 550.883H934.405L933.789 554.681H926.674L928.56 550.883ZM936.31 550.883H940.361L940.995 554.681H935.696L936.31 550.883ZM942.269 550.883H946.224L948.112 554.681H942.904L942.269 550.883ZM926.097 556.564H933.628V565.945C933.628 566.131 933.683 566.313 933.786 566.468C933.89 566.622 934.037 566.743 934.209 566.814C934.381 566.885 934.57 566.904 934.753 566.868C934.935 566.831 935.103 566.742 935.235 566.61L938.335 563.51L941.434 566.61C941.566 566.742 941.734 566.831 941.916 566.868C942.099 566.904 942.288 566.885 942.46 566.814C942.632 566.743 942.779 566.622 942.883 566.468C942.986 566.313 943.041 566.131 943.041 565.945V556.564H948.69V573.476H926.097V556.564ZM935.51 556.564H941.159V563.672L939 561.514C938.824 561.337 938.584 561.238 938.335 561.238C938.085 561.238 937.846 561.337 937.669 561.514L935.51 563.672V556.564Z" fill="black"/>
<text id="1_2" fill="black" style="white-space: pre" xml:space="preserve" font-family="Arial" font-size="7" font-weight="900" letter-spacing="0.04em"><tspan x="942.942" y="572.274">1</tspan></text>
</g>
<g id="30-Item">
<path id="path453757_7" fill-rule="evenodd" clip-rule="evenodd" d="M991.349 599.71C991.099 599.71 990.86 599.809 990.683 599.986C990.506 600.162 990.407 600.402 990.407 600.652C990.407 600.901 990.506 601.141 990.683 601.317C990.86 601.494 991.099 601.593 991.349 601.593H996.997C997.246 601.593 997.486 601.494 997.662 601.317C997.839 601.141 997.938 600.901 997.938 600.652C997.938 600.402 997.839 600.162 997.662 599.986C997.486 599.809 997.246 599.71 996.997 599.71H991.349Z" fill="black"/>
<path id="path453703_7" fill-rule="evenodd" clip-rule="evenodd" d="M990.407 579C990.232 579 990.061 579.049 989.912 579.141C989.763 579.234 989.643 579.365 989.565 579.522L986.741 585.203C986.681 585.327 986.649 585.463 986.647 585.601C986.645 585.608 986.643 585.615 986.642 585.623V604.417C986.642 604.667 986.741 604.906 986.917 605.083C987.094 605.259 987.333 605.358 987.583 605.358H1012.06C1012.31 605.358 1012.55 605.259 1012.72 605.083C1012.9 604.906 1013 604.667 1013 604.417V585.623V585.621C1013 585.476 1012.97 585.333 1012.9 585.203L1010.08 579.522C1010 579.365 1009.88 579.234 1009.73 579.141C1009.58 579.049 1009.41 579 1009.23 579H990.407ZM990.988 580.883H996.833L996.217 584.681H989.102L990.988 580.883ZM998.738 580.883H1002.79L1003.42 584.681H998.124L998.738 580.883ZM1004.7 580.883H1008.65L1010.54 584.681H1005.33L1004.7 580.883ZM988.524 586.564H996.055V595.945C996.056 596.131 996.111 596.313 996.214 596.468C996.318 596.622 996.465 596.743 996.637 596.814C996.809 596.885 996.998 596.904 997.18 596.868C997.363 596.831 997.531 596.742 997.662 596.61L1000.76 593.51L1003.86 596.61C1003.99 596.742 1004.16 596.831 1004.34 596.868C1004.53 596.904 1004.72 596.885 1004.89 596.814C1005.06 596.743 1005.21 596.622 1005.31 596.468C1005.41 596.313 1005.47 596.131 1005.47 595.945V586.564H1011.12V603.476H988.524V586.564ZM997.938 586.564H1003.59V593.672L1001.43 591.514C1001.25 591.337 1001.01 591.238 1000.76 591.238C1000.51 591.238 1000.27 591.337 1000.1 591.514L997.938 593.672V586.564Z" fill="black"/>
<text id="3_2" fill="black" style="white-space: pre" xml:space="preserve" font-family="Arial" font-size="7" font-weight="900" letter-spacing="0.04em"><tspan x="1005.37" y="602.274">3</tspan></text>
</g>
<g id="BR-Frame">
<path id="BR-Body" d="M885 610.5H1032C1033.93 610.5 1035.5 612.067 1035.5 614V627C1035.5 628.933 1033.93 630.5 1032 630.5H885C883.067 630.5 881.5 628.933 881.5 627V614C881.5 612.067 883.067 610.5 885 610.5Z" fill="#07BEB8" stroke="black" stroke-width="3"/>
<path id="BR-Head" d="M1033 589.5H1041C1042.93 589.5 1044.5 591.067 1044.5 593V611C1044.5 615.142 1041.14 618.5 1037 618.5H1033C1031.07 618.5 1029.5 616.933 1029.5 615V593C1029.5 591.067 1031.07 589.5 1033 589.5Z" fill="#07BEB8" stroke="black" stroke-width="3"/>
</g>
<g id="BR-Wheels">
<rect id="BR-Wheel" x="888.5" y="627.5" width="15" height="15" rx="7.5" fill="#39393A" stroke="black" stroke-width="3"/>
<rect id="BR-Wheel_2" x="983.5" y="627.5" width="15" height="15" rx="7.5" fill="#39393A" stroke="black" stroke-width="3"/>
<rect id="BR-Wheel_3" x="916.5" y="627.5" width="15" height="15" rx="7.5" fill="#39393A" stroke="black" stroke-width="3"/>
<rect id="BR-Wheel_4" x="1011.5" y="627.5" width="15" height="15" rx="7.5" fill="#39393A" stroke="black" stroke-width="3"/>
</g>
</g>
</g>
<g id="M1">
<path id="M1-Frame" d="M461 250.5H523C524.933 250.5 526.5 252.067 526.5 254V317.5H457.5V254C457.5 252.067 459.067 250.5 461 250.5Z" fill="#E8871E" stroke="black" stroke-width="3"/>
<g id="M1-Support">
<g id="Rectangle 2_3">
<mask id="path-80-inside-5_57_2" fill="white">
<rect x="456" y="316" width="13.948" height="14" rx="2"/>
</mask>
<rect x="456" y="316" width="13.948" height="14" rx="2" fill="#39393A" stroke="black" stroke-width="6" mask="url(#path-80-inside-5_57_2)"/>
</g>
<g id="Rectangle 3_3">
<mask id="path-81-inside-6_57_2" fill="white">
<rect x="514.052" y="316" width="13.948" height="14" rx="2"/>
</mask>
<rect x="514.052" y="316" width="13.948" height="14" rx="2" fill="#39393A" stroke="black" stroke-width="6" mask="url(#path-81-inside-6_57_2)"/>
</g>
</g>
<text id="M1_2" fill="black" style="white-space: pre" xml:space="preserve" font-family="Arial" font-size="12" font-weight="900" letter-spacing="0.04em"><tspan x="463" y="264.246">M1</tspan></text>
<g id="M1-Item">
<path id="path453757_8" fill-rule="evenodd" clip-rule="evenodd" d="M486.786 300.857C486.426 300.857 486.081 301 485.826 301.255C485.572 301.509 485.429 301.854 485.429 302.214C485.429 302.574 485.572 302.919 485.826 303.174C486.081 303.428 486.426 303.571 486.786 303.571H494.929C495.289 303.571 495.634 303.428 495.888 303.174C496.143 302.919 496.286 302.574 496.286 302.214C496.286 301.854 496.143 301.509 495.888 301.255C495.634 301 495.289 300.857 494.929 300.857H486.786Z" fill="black"/>
<path id="path453703_8" fill-rule="evenodd" clip-rule="evenodd" d="M485.429 271C485.176 271 484.929 271.071 484.715 271.204C484.5 271.337 484.327 271.527 484.215 271.753L480.143 279.943C480.057 280.122 480.011 280.317 480.008 280.516C480.005 280.526 480.003 280.537 480 280.548V307.643C480 308.003 480.143 308.348 480.398 308.602C480.652 308.857 480.997 309 481.357 309H516.643C517.003 309 517.348 308.857 517.602 308.602C517.857 308.348 518 308.003 518 307.643V280.548V280.545C517.999 280.336 517.95 280.13 517.857 279.943L513.785 271.753C513.673 271.527 513.5 271.337 513.286 271.204C513.071 271.071 512.824 271 512.572 271H485.429ZM486.266 273.714H494.693L493.805 279.191H483.547L486.266 273.714ZM497.439 273.714H503.278L504.193 279.191H496.554L497.439 273.714ZM506.03 273.714H511.731L514.454 279.191H506.944L506.03 273.714ZM482.714 281.905H493.572V295.429C493.572 295.697 493.651 295.959 493.801 296.182C493.95 296.405 494.162 296.579 494.409 296.682C494.657 296.785 494.93 296.812 495.193 296.759C495.457 296.707 495.698 296.578 495.888 296.388L500.357 291.919L504.826 296.388C505.016 296.578 505.258 296.707 505.521 296.759C505.784 296.812 506.057 296.785 506.305 296.682C506.553 296.579 506.765 296.405 506.914 296.182C507.063 295.959 507.143 295.697 507.143 295.429V281.905H515.286V306.286H482.714V281.905ZM496.286 281.905H504.429V292.152L501.317 289.04C501.062 288.786 500.717 288.643 500.357 288.643C499.997 288.643 499.652 288.786 499.398 289.04L496.286 292.152V281.905Z" fill="black"/>
<text id="0_2" fill="black" style="white-space: pre" xml:space="preserve" font-family="Arial" font-size="12" font-weight="900" letter-spacing="0.04em"><tspan x="507" y="304.246">0</tspan></text>
</g>
</g>
<g id="D1">
<path id="D1-Frame" d="M590.012 251.324C590.948 250.899 592.024 250.907 592.954 251.346L639.494 273.32C640.719 273.898 641.5 275.131 641.5 276.485V325C641.5 326.933 639.933 328.5 638 328.5H543C541.067 328.5 539.5 326.933 539.5 325V276.536C539.5 275.164 540.302 273.918 541.552 273.35L590.012 251.324Z" fill="#D9D7DD" stroke="black" stroke-width="3"/>
<g id="D1-Item-1">
<path id="path453757_9" fill-rule="evenodd" clip-rule="evenodd" d="M553.786 313.857C553.426 313.857 553.081 314 552.826 314.255C552.572 314.509 552.429 314.854 552.429 315.214C552.429 315.574 552.572 315.919 552.826 316.174C553.081 316.428 553.426 316.571 553.786 316.571H561.929C562.289 316.571 562.634 316.428 562.888 316.174C563.143 315.919 563.286 315.574 563.286 315.214C563.286 314.854 563.143 314.509 562.888 314.255C562.634 314 562.289 313.857 561.929 313.857H553.786Z" fill="black"/>
<path id="path453703_9" fill-rule="evenodd" clip-rule="evenodd" d="M552.429 284C552.176 284 551.929 284.071 551.715 284.204C551.5 284.337 551.327 284.527 551.215 284.753L547.143 292.943C547.057 293.122 547.011 293.317 547.008 293.516C547.005 293.526 547.003 293.537 547 293.548V320.643C547 321.003 547.143 321.348 547.398 321.602C547.652 321.857 547.997 322 548.357 322H583.643C584.003 322 584.348 321.857 584.602 321.602C584.857 321.348 585 321.003 585 320.643V293.548V293.545C584.999 293.336 584.95 293.13 584.857 292.943L580.785 284.753C580.673 284.527 580.5 284.337 580.286 284.204C580.071 284.071 579.824 284 579.572 284H552.429ZM553.266 286.714H561.693L560.805 292.191H550.547L553.266 286.714ZM564.439 286.714H570.278L571.193 292.191H563.554L564.439 286.714ZM573.03 286.714H578.731L581.454 292.191H573.944L573.03 286.714ZM549.714 294.905H560.572V308.429C560.572 308.697 560.651 308.959 560.801 309.182C560.95 309.405 561.162 309.579 561.409 309.682C561.657 309.785 561.93 309.812 562.193 309.759C562.457 309.707 562.698 309.578 562.888 309.388L567.357 304.919L571.826 309.388C572.016 309.578 572.258 309.707 572.521 309.759C572.784 309.812 573.057 309.785 573.305 309.682C573.553 309.579 573.765 309.405 573.914 309.182C574.063 308.959 574.143 308.697 574.143 308.429V294.905H582.286V319.286H549.714V294.905ZM563.286 294.905H571.429V305.152L568.317 302.04C568.062 301.786 567.717 301.643 567.357 301.643C566.997 301.643 566.652 301.786 566.398 302.04L563.286 305.152V294.905Z" fill="black"/>
<text id="1_3" fill="black" style="white-space: pre" xml:space="preserve" font-family="Arial" font-size="12" font-weight="900" letter-spacing="0.04em"><tspan x="574" y="317.246">1</tspan></text>
</g>
<text id="D1_2" transform="translate(582 260)" fill="black" style="white-space: pre" xml:space="preserve" font-family="Arial" font-size="12" font-weight="900" letter-spacing="0.04em"><tspan x="0" y="13.2461">D1</tspan></text>
</g>
<text id="Source" fill="black" style="white-space: pre" xml:space="preserve" font-family="Arial" font-size="40" font-weight="900" letter-spacing="0.04em"><tspan x="46" y="82.8203">Source</tspan></text>
</g>
<g id="Frame 20">
<g id="Frame 20_2">
<rect x="1306.5" y="31.5" width="297" height="560" rx="3.5" stroke="black" stroke-width="3"/>
<text id="Blue Rover" fill="black" style="white-space: pre" xml:space="preserve" font-family="Arial" font-size="12" font-weight="bold" letter-spacing="0.04em"><tspan x="1413" y="56.1602">BLUE ROVER</tspan></text>
<line id="Line 17" x1="1307.49" y1="73.5" x2="1602.49" y2="72.5" stroke="black" stroke-width="3"/>
<text id="Energy" fill="black" style="white-space: pre" xml:space="preserve" font-family="Arial" font-size="12" font-weight="bold" letter-spacing="0.04em"><tspan x="1428" y="101.16">ENERGY</tspan></text>
<g id="BR-Battery">
<rect id="Rectangle 38" x="1354" y="120.5" width="191" height="57" rx="3.5" fill="#D9D9D9" stroke="black" stroke-width="3"/>
<rect id="BR-L1" x="1358.5" y="125" width="19" height="48" rx="3" fill="#07BEB8" stroke="black" stroke-width="2"/>
<rect id="BR-L2" x="1381.5" y="125" width="19" height="48" rx="3" fill="#07BEB8" stroke="black" stroke-width="2"/>
<rect id="BR-L3" x="1405.5" y="125" width="18" height="48" rx="3" fill="#07BEB8" stroke="black" stroke-width="2"/>
<rect id="BR-L4" x="1428.5" y="125" width="19" height="48" rx="3" fill="#07BEB8" stroke="black" stroke-width="2"/>
<rect id="BR-L5" x="1451.5" y="125" width="19" height="48" rx="3" fill="#07BEB8" stroke="black" stroke-width="2"/>
<rect id="BR-L6" x="1475.5" y="125" width="18" height="48" rx="3" fill="#07BEB8" stroke="black" stroke-width="2"/>
<rect id="BR-L7" x="1498.5" y="125" width="19" height="48" rx="3" fill="#07BEB8" stroke="black" stroke-width="2"/>
<rect id="BR-L8" x="1521.5" y="125" width="19" height="48" rx="3" fill="#07BEB8" stroke="black" stroke-width="2"/>
<path id="Rectangle 39" d="M1552.5 135.5C1554.43 135.5 1556 137.067 1556 139V159C1556 160.933 1554.43 162.5 1552.5 162.5H1545V135.5H1552.5Z" fill="#D9D9D9" stroke="black" stroke-width="3"/>
</g>
<line id="Line 18" x1="1307.49" y1="193.5" x2="1602.49" y2="192.5" stroke="black" stroke-width="3"/>
<text id="Position" fill="black" style="white-space: pre" xml:space="preserve" font-family="Arial" font-size="12" font-weight="bold" letter-spacing="0.04em"><tspan x="1424.5" y="221.16">POSITION</tspan></text>
<g id="Frame 20_3">
<g id="Group 20">
<g id="X:">
<text fill="black" style="white-space: pre" xml:space="preserve" font-family="Arial" font-size="12" font-weight="bold" letter-spacing="0.04em"><tspan x="1411" y="250.16">X</tspan></text>
<text fill="black" style="white-space: pre" xml:space="preserve" font-family="Arial" font-size="12" letter-spacing="0.04em"><tspan x="1419.48" y="250.16">:</tspan></text>
</g>
<text id="BR-X-Pos" fill="black" style="white-space: pre" xml:space="preserve" font-family="Arial" font-size="12" letter-spacing="0.04em"><tspan x="1433" y="250.16">5</tspan></text>
</g>
<g id="Group 21">
<g id="Y:">
<text fill="black" style="white-space: pre" xml:space="preserve" font-family="Arial" font-size="12" letter-spacing="0.04em"><tspan x="1478.48" y="250.16">:</tspan></text>
<text fill="black" style="white-space: pre" xml:space="preserve" font-family="Arial" font-size="12" font-weight="bold" letter-spacing="0.04em"><tspan x="1470" y="250.16">Y</tspan></text>
</g>
<text id="BR-Y-Pos" fill="black" style="white-space: pre" xml:space="preserve" font-family="Arial" font-size="12" letter-spacing="0.04em"><tspan x="1492" y="250.16">2</tspan></text>
</g>
</g>
<line id="Line 19" x1="1307.49" y1="267.5" x2="1602.49" y2="266.5" stroke="black" stroke-width="3"/>
<text id="Content" fill="black" style="white-space: pre" xml:space="preserve" font-family="Arial" font-size="12" font-weight="bold" letter-spacing="0.04em"><tspan x="1424.5" y="295.16">CONTENT</tspan></text>
<g id="Frame 22">
<g id="Frame 22_2">
<g id="00-Item_2">
<path id="path453757_10" fill-rule="evenodd" clip-rule="evenodd" d="M1362.71 333.71C1362.46 333.71 1362.22 333.809 1362.04 333.986C1361.86 334.162 1361.77 334.402 1361.77 334.652C1361.77 334.901 1361.86 335.141 1362.04 335.317C1362.22 335.494 1362.46 335.593 1362.71 335.593H1368.36C1368.6 335.593 1368.84 335.494 1369.02 335.317C1369.2 335.141 1369.3 334.901 1369.3 334.652C1369.3 334.402 1369.2 334.162 1369.02 333.986C1368.84 333.809 1368.6 333.71 1368.36 333.71H1362.71Z" fill="black"/>
<path id="path453703_10" fill-rule="evenodd" clip-rule="evenodd" d="M1361.77 313C1361.59 313 1361.42 313.049 1361.27 313.141C1361.12 313.234 1361 313.365 1360.92 313.522L1358.1 319.203C1358.04 319.327 1358.01 319.463 1358.01 319.601C1358 319.608 1358 319.615 1358 319.623V338.417C1358 338.667 1358.1 338.906 1358.28 339.083C1358.45 339.259 1358.69 339.358 1358.94 339.358H1383.42C1383.67 339.358 1383.91 339.259 1384.08 339.083C1384.26 338.906 1384.36 338.667 1384.36 338.417V319.623V319.621C1384.36 319.476 1384.32 319.333 1384.26 319.203L1381.43 313.522C1381.36 313.365 1381.24 313.234 1381.09 313.141C1380.94 313.049 1380.77 313 1380.59 313H1361.77ZM1362.35 314.883H1368.19L1367.58 318.681H1360.46L1362.35 314.883ZM1370.1 314.883H1374.15L1374.78 318.681H1369.48L1370.1 314.883ZM1376.06 314.883H1380.01L1381.9 318.681H1376.69L1376.06 314.883ZM1359.88 320.564H1367.41V329.945C1367.41 330.131 1367.47 330.313 1367.57 330.468C1367.68 330.622 1367.82 330.743 1368 330.814C1368.17 330.885 1368.36 330.904 1368.54 330.868C1368.72 330.831 1368.89 330.742 1369.02 330.61L1372.12 327.51L1375.22 330.61C1375.35 330.742 1375.52 330.831 1375.7 330.868C1375.89 330.904 1376.07 330.885 1376.25 330.814C1376.42 330.743 1376.57 330.622 1376.67 330.468C1376.77 330.313 1376.83 330.131 1376.83 329.945V320.564H1382.48V337.476H1359.88V320.564ZM1369.3 320.564H1374.94V327.672L1372.79 325.514C1372.61 325.337 1372.37 325.238 1372.12 325.238C1371.87 325.238 1371.63 325.337 1371.46 325.514L1369.3 327.672V320.564Z" fill="black"/>
<text id="0_3" fill="black" style="white-space: pre" xml:space="preserve" font-family="Arial" font-size="7" font-weight="900" letter-spacing="0.04em"><tspan x="1376.96" y="336.279">0</tspan></text>
</g>
<text id="=" fill="black" style="white-space: pre" xml:space="preserve" font-family="Arial" font-size="12" letter-spacing="0.04em"><tspan x="1392.36" y="331.158">=</tspan></text>
<text id="BR-0-Label" fill="black" style="white-space: pre" xml:space="preserve" font-family="Arial" font-size="12" letter-spacing="0.04em"><tspan x="1408" y="331.16">0</tspan></text>
</g>
<g id="Frame 23">
<text id="=_2" fill="black" style="white-space: pre" xml:space="preserve" font-family="Arial" font-size="12" letter-spacing="0.04em"><tspan x="1494.36" y="331.158">=</tspan></text>
<g id="20-Item">
<path id="path453757_11" fill-rule="evenodd" clip-rule="evenodd" d="M1464.71 333.702C1464.46 333.702 1464.22 333.801 1464.04 333.977C1463.86 334.154 1463.77 334.393 1463.77 334.643C1463.77 334.893 1463.86 335.132 1464.04 335.309C1464.22 335.485 1464.46 335.584 1464.71 335.584H1470.36C1470.6 335.584 1470.84 335.485 1471.02 335.309C1471.2 335.132 1471.3 334.893 1471.3 334.643C1471.3 334.393 1471.2 334.154 1471.02 333.977C1470.84 333.801 1470.6 333.702 1470.36 333.702H1464.71Z" fill="black"/>
<path id="path453703_11" fill-rule="evenodd" clip-rule="evenodd" d="M1463.77 312.992C1463.59 312.992 1463.42 313.041 1463.27 313.133C1463.12 313.225 1463 313.357 1462.92 313.514L1460.1 319.195C1460.04 319.319 1460.01 319.455 1460.01 319.592C1460 319.599 1460 319.607 1460 319.614V338.409C1460 338.658 1460.1 338.898 1460.28 339.074C1460.45 339.251 1460.69 339.35 1460.94 339.35H1485.42C1485.67 339.35 1485.91 339.251 1486.08 339.074C1486.26 338.898 1486.36 338.658 1486.36 338.409V319.614V319.612C1486.36 319.467 1486.32 319.325 1486.26 319.195L1483.43 313.514C1483.36 313.357 1483.24 313.225 1483.09 313.133C1482.94 313.041 1482.77 312.992 1482.59 312.992H1463.77ZM1464.35 314.874H1470.19L1469.58 318.673H1462.46L1464.35 314.874ZM1472.1 314.874H1476.15L1476.78 318.673H1471.48L1472.1 314.874ZM1478.06 314.874H1482.01L1483.9 318.673H1478.69L1478.06 314.874ZM1461.88 320.556H1469.41V329.936C1469.41 330.122 1469.47 330.304 1469.57 330.459C1469.68 330.614 1469.82 330.734 1470 330.806C1470.17 330.877 1470.36 330.896 1470.54 330.859C1470.72 330.823 1470.89 330.733 1471.02 330.602L1474.12 327.502L1477.22 330.602C1477.35 330.733 1477.52 330.823 1477.7 330.859C1477.89 330.896 1478.07 330.877 1478.25 330.806C1478.42 330.734 1478.57 330.614 1478.67 330.459C1478.77 330.304 1478.83 330.122 1478.83 329.936V320.556H1484.48V337.467H1461.88V320.556ZM1471.3 320.556H1476.94V327.664L1474.79 325.505C1474.61 325.329 1474.37 325.23 1474.12 325.23C1473.87 325.23 1473.63 325.329 1473.46 325.505L1471.3 327.664V320.556Z" fill="black"/>
<text id="2_3" fill="black" style="white-space: pre" xml:space="preserve" font-family="Arial" font-size="7" font-weight="900" letter-spacing="0.04em"><tspan x="1478.73" y="336.266">2</tspan></text>
</g>
<text id="BR-2-Label" fill="black" style="white-space: pre" xml:space="preserve" font-family="Arial" font-size="12" letter-spacing="0.04em"><tspan x="1508" y="331.16">0</tspan></text>
</g>
<g id="Frame 24">
<text id="=_3" fill="black" style="white-space: pre" xml:space="preserve" font-family="Arial" font-size="12" letter-spacing="0.04em"><tspan x="1392.36" y="369.154">=</tspan></text>
<g id="10-Item_2">
<path id="path453757_12" fill-rule="evenodd" clip-rule="evenodd" d="M1362.71 371.71C1362.46 371.71 1362.22 371.809 1362.04 371.986C1361.86 372.162 1361.77 372.402 1361.77 372.652C1361.77 372.901 1361.86 373.141 1362.04 373.317C1362.22 373.494 1362.46 373.593 1362.71 373.593H1368.36C1368.6 373.593 1368.84 373.494 1369.02 373.317C1369.2 373.141 1369.3 372.901 1369.3 372.652C1369.3 372.402 1369.2 372.162 1369.02 371.986C1368.84 371.809 1368.6 371.71 1368.36 371.71H1362.71Z" fill="black"/>
<path id="path453703_12" fill-rule="evenodd" clip-rule="evenodd" d="M1361.77 351C1361.59 351 1361.42 351.049 1361.27 351.141C1361.12 351.234 1361 351.365 1360.92 351.522L1358.1 357.203C1358.04 357.327 1358.01 357.463 1358.01 357.601C1358 357.608 1358 357.615 1358 357.623V376.417C1358 376.667 1358.1 376.906 1358.28 377.083C1358.45 377.259 1358.69 377.358 1358.94 377.358H1383.42C1383.67 377.358 1383.91 377.259 1384.08 377.083C1384.26 376.906 1384.36 376.667 1384.36 376.417V357.623V357.621C1384.36 357.476 1384.32 357.333 1384.26 357.203L1381.43 351.522C1381.36 351.365 1381.24 351.234 1381.09 351.141C1380.94 351.049 1380.77 351 1380.59 351H1361.77ZM1362.35 352.883H1368.19L1367.58 356.681H1360.46L1362.35 352.883ZM1370.1 352.883H1374.15L1374.78 356.681H1369.48L1370.1 352.883ZM1376.06 352.883H1380.01L1381.9 356.681H1376.69L1376.06 352.883ZM1359.88 358.564H1367.41V367.945C1367.41 368.131 1367.47 368.313 1367.57 368.468C1367.68 368.622 1367.82 368.743 1368 368.814C1368.17 368.885 1368.36 368.904 1368.54 368.868C1368.72 368.831 1368.89 368.742 1369.02 368.61L1372.12 365.51L1375.22 368.61C1375.35 368.742 1375.52 368.831 1375.7 368.868C1375.89 368.904 1376.07 368.885 1376.25 368.814C1376.42 368.743 1376.57 368.622 1376.67 368.468C1376.77 368.313 1376.83 368.131 1376.83 367.945V358.564H1382.48V375.476H1359.88V358.564ZM1369.3 358.564H1374.94V365.672L1372.79 363.514C1372.61 363.337 1372.37 363.238 1372.12 363.238C1371.87 363.238 1371.63 363.337 1371.46 363.514L1369.3 365.672V358.564Z" fill="black"/>
<text id="1_4" fill="black" style="white-space: pre" xml:space="preserve" font-family="Arial" font-size="7" font-weight="900" letter-spacing="0.04em"><tspan x="1376.73" y="374.274">1</tspan></text>
</g>
<text id="BR-1-Label" fill="black" style="white-space: pre" xml:space="preserve" font-family="Arial" font-size="12" letter-spacing="0.04em"><tspan x="1408" y="369.16">0</tspan></text>
</g>
<g id="Frame 25">
<text id="=_4" fill="black" style="white-space: pre" xml:space="preserve" font-family="Arial" font-size="12" letter-spacing="0.04em"><tspan x="1494.36" y="369.154">=</tspan></text>
<g id="30-Item_2">
<path id="path453757_13" fill-rule="evenodd" clip-rule="evenodd" d="M1466.71 371.71C1466.46 371.71 1466.22 371.809 1466.04 371.986C1465.86 372.162 1465.77 372.402 1465.77 372.652C1465.77 372.901 1465.86 373.141 1466.04 373.317C1466.22 373.494 1466.46 373.593 1466.71 373.593H1472.36C1472.6 373.593 1472.84 373.494 1473.02 373.317C1473.2 373.141 1473.3 372.901 1473.3 372.652C1473.3 372.402 1473.2 372.162 1473.02 371.986C1472.84 371.809 1472.6 371.71 1472.36 371.71H1466.71Z" fill="black"/>
<path id="path453703_13" fill-rule="evenodd" clip-rule="evenodd" d="M1465.77 351C1465.59 351 1465.42 351.049 1465.27 351.141C1465.12 351.234 1465 351.365 1464.92 351.522L1462.1 357.203C1462.04 357.327 1462.01 357.463 1462.01 357.601C1462 357.608 1462 357.615 1462 357.623V376.417C1462 376.667 1462.1 376.906 1462.28 377.083C1462.45 377.259 1462.69 377.358 1462.94 377.358H1487.42C1487.67 377.358 1487.91 377.259 1488.08 377.083C1488.26 376.906 1488.36 376.667 1488.36 376.417V357.623V357.621C1488.36 357.476 1488.32 357.333 1488.26 357.203L1485.43 351.522C1485.36 351.365 1485.24 351.234 1485.09 351.141C1484.94 351.049 1484.77 351 1484.59 351H1465.77ZM1466.35 352.883H1472.19L1471.58 356.681H1464.46L1466.35 352.883ZM1474.1 352.883H1478.15L1478.78 356.681H1473.48L1474.1 352.883ZM1480.06 352.883H1484.01L1485.9 356.681H1480.69L1480.06 352.883ZM1463.88 358.564H1471.41V367.945C1471.41 368.131 1471.47 368.313 1471.57 368.468C1471.68 368.622 1471.82 368.743 1472 368.814C1472.17 368.885 1472.36 368.904 1472.54 368.868C1472.72 368.831 1472.89 368.742 1473.02 368.61L1476.12 365.51L1479.22 368.61C1479.35 368.742 1479.52 368.831 1479.7 368.868C1479.89 368.904 1480.07 368.885 1480.25 368.814C1480.42 368.743 1480.57 368.622 1480.67 368.468C1480.77 368.313 1480.83 368.131 1480.83 367.945V358.564H1486.48V375.476H1463.88V358.564ZM1473.3 358.564H1478.94V365.672L1476.79 363.514C1476.61 363.337 1476.37 363.238 1476.12 363.238C1475.87 363.238 1475.63 363.337 1475.46 363.514L1473.3 365.672V358.564Z" fill="black"/>
<text id="3_3" fill="black" style="white-space: pre" xml:space="preserve" font-family="Arial" font-size="7" font-weight="900" letter-spacing="0.04em"><tspan x="1480.73" y="374.274">3</tspan></text>
</g>
<text id="BR-3-Label" fill="black" style="white-space: pre" xml:space="preserve" font-family="Arial" font-size="12" letter-spacing="0.04em"><tspan x="1508" y="369.16">0</tspan></text>
</g>
</g>
</g>
<g id="Frame 21">
<g id="Frame 20_4">
<rect x="1306.5" y="624.5" width="297" height="235" rx="3.5" stroke="black" stroke-width="3"/>
<text id="Orange Rover" fill="black" style="white-space: pre" xml:space="preserve" font-family="Arial" font-size="12" font-weight="bold" letter-spacing="0.04em"><tspan x="1402.5" y="649.16">ORANGE ROVER</tspan></text>
<line id="Line 17_2" x1="1307.49" y1="666.5" x2="1602.49" y2="665.5" stroke="black" stroke-width="3"/>
<text id="Energy_2" fill="black" style="white-space: pre" xml:space="preserve" font-family="Arial" font-size="12" font-weight="bold" letter-spacing="0.04em"><tspan x="1428" y="694.16">ENERGY</tspan></text>
<g id="OR-Battery">
<rect id="Rectangle 38_2" x="1354" y="713.5" width="191" height="57" rx="3.5" fill="#D9D9D9" stroke="black" stroke-width="3"/>
<rect id="OR-L1" x="1358.5" y="718" width="19" height="48" rx="3" fill="#E8871E" stroke="black" stroke-width="2"/>
<rect id="OR-L2" x="1381.5" y="718" width="19" height="48" rx="3" fill="#E8871E" stroke="black" stroke-width="2"/>
<rect id="OR-L3" x="1405.5" y="718" width="18" height="48" rx="3" fill="#E8871E" stroke="black" stroke-width="2"/>
<rect id="OR-L4" x="1428.5" y="718" width="19" height="48" rx="3" fill="#E8871E" stroke="black" stroke-width="2"/>
<rect id="OR-L5" x="1451.5" y="718" width="19" height="48" rx="3" fill="#E8871E" stroke="black" stroke-width="2"/>
<rect id="OR-L6" x="1475.5" y="718" width="18" height="48" rx="3" fill="#E8871E" stroke="black" stroke-width="2"/>
<rect id="OR-L7" x="1498.5" y="718" width="19" height="48" rx="3" fill="#E8871E" stroke="black" stroke-width="2"/>
<rect id="OR-L8" x="1521.5" y="718" width="19" height="48" rx="3" fill="#E8871E" stroke="black" stroke-width="2"/>
<path id="Rectangle 39_2" d="M1552.5 728.5C1554.43 728.5 1556 730.067 1556 732V752C1556 753.933 1554.43 755.5 1552.5 755.5H1545V728.5H1552.5Z" fill="#D9D9D9" stroke="black" stroke-width="3"/>
</g>
<line id="Line 18_2" x1="1307.49" y1="786.5" x2="1602.49" y2="785.5" stroke="black" stroke-width="3"/>
<text id="Position_2" fill="black" style="white-space: pre" xml:space="preserve" font-family="Arial" font-size="12" font-weight="bold" letter-spacing="0.04em"><tspan x="1424.5" y="814.16">POSITION</tspan></text>
<g id="Frame 20_5">
<g id="Group 20_2">
<g id="X:_2">
<text fill="black" style="white-space: pre" xml:space="preserve" font-family="Arial" font-size="12" font-weight="bold" letter-spacing="0.04em"><tspan x="1411" y="843.16">X</tspan></text>
<text fill="black" style="white-space: pre" xml:space="preserve" font-family="Arial" font-size="12" letter-spacing="0.04em"><tspan x="1419.48" y="843.16">:</tspan></text>
</g>
<text id="OR-X-Pos" fill="black" style="white-space: pre" xml:space="preserve" font-family="Arial" font-size="12" letter-spacing="0.04em"><tspan x="1433" y="843.16">3</tspan></text>
</g>
<g id="Group 21_2">
<g id="Y:_2">
<text fill="black" style="white-space: pre" xml:space="preserve" font-family="Arial" font-size="12" letter-spacing="0.04em"><tspan x="1478.48" y="843.16">:</tspan></text>
<text fill="black" style="white-space: pre" xml:space="preserve" font-family="Arial" font-size="12" font-weight="bold" letter-spacing="0.04em"><tspan x="1470" y="843.16">Y</tspan></text>
</g>
<text id="OR-Y-Pos" fill="black" style="white-space: pre" xml:space="preserve" font-family="Arial" font-size="12" letter-spacing="0.04em"><tspan x="1492" y="843.16">2</tspan></text>
</g>
</g>
</g>
</g>
</g>
</g>
</svg>
