<svg width="621" height="367" viewBox="0 0 621 367" fill="none" xmlns="http://www.w3.org/2000/svg">
<rect x="1.51025" y="1.5" width="292" height="364" rx="3.5" stroke="black" stroke-width="3"/>
<path d="M106.389 17.4102H109.823C110.502 17.4102 111.008 17.4395 111.34 17.498C111.676 17.5527 111.975 17.6699 112.237 17.8496C112.502 18.0293 112.723 18.2695 112.899 18.5703C113.075 18.8672 113.163 19.2012 113.163 19.5723C113.163 19.9746 113.053 20.3438 112.834 20.6797C112.62 21.0156 112.327 21.2676 111.956 21.4355C112.479 21.5879 112.881 21.8477 113.163 22.2148C113.444 22.582 113.584 23.0137 113.584 23.5098C113.584 23.9004 113.493 24.2812 113.309 24.6523C113.129 25.0195 112.881 25.3145 112.565 25.5371C112.252 25.7559 111.866 25.8906 111.405 25.9414C111.116 25.9727 110.418 25.9922 109.313 26H106.389V17.4102ZM108.124 18.8398V20.8262H109.26C109.936 20.8262 110.356 20.8164 110.52 20.7969C110.817 20.7617 111.049 20.6602 111.217 20.4922C111.389 20.3203 111.475 20.0957 111.475 19.8184C111.475 19.5527 111.401 19.3379 111.252 19.1738C111.108 19.0059 110.891 18.9043 110.602 18.8691C110.43 18.8496 109.936 18.8398 109.12 18.8398H108.124ZM108.124 22.2559V24.5527H109.729C110.354 24.5527 110.75 24.5352 110.918 24.5C111.176 24.4531 111.385 24.3398 111.545 24.1602C111.709 23.9766 111.792 23.7324 111.792 23.4277C111.792 23.1699 111.729 22.9512 111.604 22.7715C111.479 22.5918 111.297 22.4609 111.059 22.3789C110.825 22.2969 110.313 22.2559 109.524 22.2559H108.124ZM115.582 26V17.4805H117.316V24.5527H121.629V26H115.582ZM123.339 17.4102H125.074V22.0625C125.074 22.8008 125.095 23.2793 125.138 23.498C125.212 23.8496 125.388 24.1328 125.666 24.3477C125.947 24.5586 126.33 24.6641 126.814 24.6641C127.306 24.6641 127.677 24.5645 127.927 24.3652C128.177 24.1621 128.328 23.9141 128.378 23.6211C128.429 23.3281 128.455 22.8418 128.455 22.1621V17.4102H130.189V21.9219C130.189 22.9531 130.142 23.6816 130.048 24.1074C129.955 24.5332 129.781 24.8926 129.527 25.1855C129.277 25.4785 128.941 25.7129 128.519 25.8887C128.097 26.0605 127.546 26.1465 126.867 26.1465C126.046 26.1465 125.423 26.0527 124.998 25.8652C124.576 25.6738 124.242 25.4277 123.996 25.127C123.75 24.8223 123.587 24.5039 123.509 24.1719C123.396 23.6797 123.339 22.9531 123.339 21.9922V17.4102ZM132.503 26V17.4102H138.872V18.8633H134.237V20.7676H138.55V22.2148H134.237V24.5527H139.036V26H132.503ZM144.813 26V17.4102H148.463C149.381 17.4102 150.047 17.4883 150.461 17.6445C150.879 17.7969 151.213 18.0703 151.463 18.4648C151.713 18.8594 151.838 19.3105 151.838 19.8184C151.838 20.4629 151.649 20.9961 151.27 21.418C150.891 21.8359 150.324 22.0996 149.57 22.209C149.945 22.4277 150.254 22.668 150.496 22.9297C150.742 23.1914 151.072 23.6562 151.486 24.3242L152.535 26H150.461L149.207 24.1309C148.762 23.4629 148.457 23.043 148.293 22.8711C148.129 22.6953 147.955 22.5762 147.772 22.5137C147.588 22.4473 147.297 22.4141 146.899 22.4141H146.547V26H144.813ZM146.547 21.043H147.83C148.662 21.043 149.182 21.0078 149.389 20.9375C149.596 20.8672 149.758 20.7461 149.875 20.5742C149.992 20.4023 150.051 20.1875 150.051 19.9297C150.051 19.6406 149.973 19.4082 149.817 19.2324C149.664 19.0527 149.447 18.9395 149.166 18.8926C149.025 18.873 148.604 18.8633 147.9 18.8633H146.547V21.043ZM153.607 21.7578C153.607 20.8828 153.738 20.1484 154 19.5547C154.195 19.1172 154.461 18.7246 154.797 18.377C155.136 18.0293 155.507 17.7715 155.91 17.6035C156.445 17.377 157.062 17.2637 157.761 17.2637C159.027 17.2637 160.039 17.6562 160.797 18.4414C161.558 19.2266 161.939 20.3184 161.939 21.7168C161.939 23.1035 161.562 24.1895 160.808 24.9746C160.054 25.7559 159.047 26.1465 157.785 26.1465C156.507 26.1465 155.492 25.7578 154.738 24.9805C153.984 24.1992 153.607 23.125 153.607 21.7578ZM155.394 21.6992C155.394 22.6719 155.619 23.4102 156.068 23.9141C156.517 24.4141 157.088 24.6641 157.779 24.6641C158.47 24.6641 159.037 24.416 159.478 23.9199C159.923 23.4199 160.146 22.6719 160.146 21.6758C160.146 20.6914 159.929 19.957 159.496 19.4727C159.066 18.9883 158.494 18.7461 157.779 18.7461C157.064 18.7461 156.488 18.9922 156.05 19.4844C155.613 19.9727 155.394 20.7109 155.394 21.6992ZM165.97 26L162.9 17.4102H164.78L166.954 23.7676L169.058 17.4102H170.898L167.821 26H165.97ZM172.262 26V17.4102H178.632V18.8633H173.997V20.7676H178.309V22.2148H173.997V24.5527H178.796V26H172.262ZM180.752 26V17.4102H184.403C185.32 17.4102 185.987 17.4883 186.401 17.6445C186.819 17.7969 187.153 18.0703 187.403 18.4648C187.653 18.8594 187.778 19.3105 187.778 19.8184C187.778 20.4629 187.588 20.9961 187.209 21.418C186.83 21.8359 186.264 22.0996 185.51 22.209C185.885 22.4277 186.194 22.668 186.436 22.9297C186.682 23.1914 187.012 23.6562 187.426 24.3242L188.475 26H186.401L185.147 24.1309C184.701 23.4629 184.397 23.043 184.233 22.8711C184.069 22.6953 183.895 22.5762 183.711 22.5137C183.528 22.4473 183.237 22.4141 182.838 22.4141H182.487V26H180.752ZM182.487 21.043H183.77C184.602 21.043 185.121 21.0078 185.328 20.9375C185.535 20.8672 185.697 20.7461 185.815 20.5742C185.932 20.4023 185.99 20.1875 185.99 19.9297C185.99 19.6406 185.912 19.4082 185.756 19.2324C185.604 19.0527 185.387 18.9395 185.106 18.8926C184.965 18.873 184.543 18.8633 183.84 18.8633H182.487V21.043Z" fill="black"/>
<line x1="0.00516919" y1="43.5" x2="295.005" y2="42.5" stroke="black" stroke-width="3"/>
<path d="M121.383 71V62.4102H127.752V63.8633H123.118V65.7676H127.43V67.2148H123.118V69.5527H127.917V71H121.383ZM129.885 71V62.4102H131.572L135.088 68.1465V62.4102H136.699V71H134.959L131.496 65.3984V71H129.885ZM139.019 71V62.4102H145.388V63.8633H140.753V65.7676H145.066V67.2148H140.753V69.5527H145.552V71H139.019ZM147.509 71V62.4102H151.159C152.077 62.4102 152.743 62.4883 153.157 62.6445C153.575 62.7969 153.909 63.0703 154.159 63.4648C154.409 63.8594 154.534 64.3105 154.534 64.8184C154.534 65.4629 154.345 65.9961 153.966 66.418C153.587 66.8359 153.021 67.0996 152.267 67.209C152.642 67.4277 152.95 67.668 153.192 67.9297C153.439 68.1914 153.769 68.6562 154.183 69.3242L155.232 71H153.157L151.903 69.1309C151.458 68.4629 151.153 68.043 150.989 67.8711C150.825 67.6953 150.651 67.5762 150.468 67.5137C150.284 67.4473 149.993 67.4141 149.595 67.4141H149.243V71H147.509ZM149.243 66.043H150.526C151.358 66.043 151.878 66.0078 152.085 65.9375C152.292 65.8672 152.454 65.7461 152.571 65.5742C152.689 65.4023 152.747 65.1875 152.747 64.9297C152.747 64.6406 152.669 64.4082 152.513 64.2324C152.36 64.0527 152.144 63.9395 151.862 63.8926C151.722 63.873 151.3 63.8633 150.597 63.8633H149.243V66.043ZM160.651 67.8418V66.3945H164.389V69.8164C164.026 70.168 163.499 70.4785 162.807 70.748C162.12 71.0137 161.422 71.1465 160.715 71.1465C159.817 71.1465 159.034 70.959 158.366 70.584C157.698 70.2051 157.196 69.666 156.86 68.9668C156.524 68.2637 156.356 67.5 156.356 66.6758C156.356 65.7812 156.544 64.9863 156.919 64.291C157.294 63.5957 157.842 63.0625 158.565 62.6914C159.116 62.4062 159.801 62.2637 160.622 62.2637C161.688 62.2637 162.52 62.4883 163.118 62.9375C163.719 63.3828 164.106 64 164.278 64.7891L162.555 65.1113C162.434 64.6895 162.206 64.3574 161.87 64.1152C161.538 63.8691 161.122 63.7461 160.622 63.7461C159.864 63.7461 159.26 63.9863 158.811 64.4668C158.366 64.9473 158.143 65.6602 158.143 66.6055C158.143 67.625 158.37 68.3906 158.823 68.9023C159.276 69.4102 159.87 69.6641 160.604 69.6641C160.967 69.6641 161.331 69.5938 161.694 69.4531C162.061 69.3086 162.376 69.1348 162.637 68.9316V67.8418H160.651ZM168.731 71V67.3848L165.584 62.4102H167.617L169.639 65.8086L171.619 62.4102H173.617L170.459 67.3965V71H168.731Z" fill="black"/>
<rect x="46.5103" y="90.5" width="191" height="57" rx="3.5" fill="#D9D9D9" stroke="black" stroke-width="3"/>
<rect x="51.0103" y="95" width="19" height="48" rx="3" fill="#07BEB8" stroke="black" stroke-width="2"/>
<rect x="74.0103" y="95" width="19" height="48" rx="3" fill="#07BEB8" stroke="black" stroke-width="2"/>
<rect x="98.0103" y="95" width="18" height="48" rx="3" fill="#07BEB8" stroke="black" stroke-width="2"/>
<rect x="121.01" y="95" width="19" height="48" rx="3" fill="#07BEB8" stroke="black" stroke-width="2"/>
<rect x="144.01" y="95" width="19" height="48" rx="3" fill="#07BEB8" stroke="black" stroke-width="2"/>
<rect x="168.01" y="95" width="18" height="48" rx="3" fill="#07BEB8" stroke="black" stroke-width="2"/>
<rect x="191.01" y="95" width="19" height="48" rx="3" fill="#07BEB8" stroke="black" stroke-width="2"/>
<rect x="214.01" y="95" width="19" height="48" rx="3" fill="#07BEB8" stroke="black" stroke-width="2"/>
<path d="M245.01 105.5C246.943 105.5 248.51 107.067 248.51 109V129C248.51 130.933 246.943 132.5 245.01 132.5H237.51V105.5H245.01Z" fill="#D9D9D9" stroke="black" stroke-width="3"/>
<line x1="0.00516919" y1="163.5" x2="295.005" y2="162.5" stroke="black" stroke-width="3"/>
<path d="M117.883 191V182.41H120.667C121.721 182.41 122.409 182.453 122.729 182.539C123.221 182.668 123.633 182.949 123.965 183.383C124.297 183.812 124.463 184.369 124.463 185.053C124.463 185.58 124.368 186.023 124.176 186.383C123.985 186.742 123.741 187.025 123.444 187.232C123.151 187.436 122.852 187.57 122.547 187.637C122.133 187.719 121.534 187.76 120.749 187.76H119.618V191H117.883ZM119.618 183.863V186.301H120.567C121.25 186.301 121.708 186.256 121.938 186.166C122.168 186.076 122.348 185.936 122.477 185.744C122.61 185.553 122.676 185.33 122.676 185.076C122.676 184.764 122.584 184.506 122.401 184.303C122.217 184.1 121.985 183.973 121.704 183.922C121.497 183.883 121.081 183.863 120.456 183.863H119.618ZM126.016 186.758C126.016 185.883 126.147 185.148 126.408 184.555C126.604 184.117 126.869 183.725 127.205 183.377C127.545 183.029 127.916 182.771 128.318 182.604C128.854 182.377 129.471 182.264 130.17 182.264C131.436 182.264 132.447 182.656 133.205 183.441C133.967 184.227 134.348 185.318 134.348 186.717C134.348 188.104 133.971 189.189 133.217 189.975C132.463 190.756 131.455 191.146 130.193 191.146C128.916 191.146 127.9 190.758 127.147 189.98C126.393 189.199 126.016 188.125 126.016 186.758ZM127.803 186.699C127.803 187.672 128.027 188.41 128.477 188.914C128.926 189.414 129.496 189.664 130.188 189.664C130.879 189.664 131.445 189.416 131.887 188.92C132.332 188.42 132.555 187.672 132.555 186.676C132.555 185.691 132.338 184.957 131.904 184.473C131.475 183.988 130.902 183.746 130.188 183.746C129.473 183.746 128.897 183.992 128.459 184.484C128.022 184.973 127.803 185.711 127.803 186.699ZM135.748 188.205L137.435 188.041C137.537 188.607 137.742 189.023 138.05 189.289C138.363 189.555 138.783 189.688 139.31 189.688C139.869 189.688 140.289 189.57 140.57 189.336C140.855 189.098 140.998 188.82 140.998 188.504C140.998 188.301 140.937 188.129 140.816 187.988C140.699 187.844 140.492 187.719 140.195 187.613C139.992 187.543 139.529 187.418 138.806 187.238C137.877 187.008 137.224 186.725 136.849 186.389C136.322 185.916 136.058 185.34 136.058 184.66C136.058 184.223 136.181 183.814 136.427 183.436C136.677 183.053 137.035 182.762 137.5 182.562C137.968 182.363 138.533 182.264 139.193 182.264C140.271 182.264 141.082 182.5 141.625 182.973C142.171 183.445 142.459 184.076 142.486 184.865L140.752 184.941C140.677 184.5 140.517 184.184 140.271 183.992C140.029 183.797 139.664 183.699 139.175 183.699C138.671 183.699 138.277 183.803 137.992 184.01C137.808 184.143 137.716 184.32 137.716 184.543C137.716 184.746 137.802 184.92 137.974 185.064C138.193 185.248 138.724 185.439 139.568 185.639C140.412 185.838 141.035 186.045 141.437 186.26C141.843 186.471 142.16 186.762 142.386 187.133C142.617 187.5 142.732 187.955 142.732 188.498C142.732 188.99 142.595 189.451 142.322 189.881C142.048 190.311 141.662 190.631 141.162 190.842C140.662 191.049 140.039 191.152 139.293 191.152C138.207 191.152 137.373 190.902 136.791 190.402C136.209 189.898 135.861 189.166 135.748 188.205ZM144.618 191V182.41H146.353V191H144.618ZM150.424 191V183.863H147.876V182.41H154.702V183.863H152.159V191H150.424ZM156.254 191V182.41H157.988V191H156.254ZM159.775 186.758C159.775 185.883 159.906 185.148 160.168 184.555C160.363 184.117 160.629 183.725 160.964 183.377C161.304 183.029 161.675 182.771 162.078 182.604C162.613 182.377 163.23 182.264 163.929 182.264C165.195 182.264 166.207 182.656 166.964 183.441C167.726 184.227 168.107 185.318 168.107 186.717C168.107 188.104 167.73 189.189 166.976 189.975C166.222 190.756 165.214 191.146 163.953 191.146C162.675 191.146 161.66 190.758 160.906 189.98C160.152 189.199 159.775 188.125 159.775 186.758ZM161.562 186.699C161.562 187.672 161.787 188.41 162.236 188.914C162.685 189.414 163.255 189.664 163.947 189.664C164.638 189.664 165.205 189.416 165.646 188.92C166.091 188.42 166.314 187.672 166.314 186.676C166.314 185.691 166.097 184.957 165.664 184.473C165.234 183.988 164.662 183.746 163.947 183.746C163.232 183.746 162.656 183.992 162.218 184.484C161.781 184.973 161.562 185.711 161.562 186.699ZM169.964 191V182.41H171.652L175.167 188.146V182.41H176.778V191H175.038L171.575 185.398V191H169.964Z" fill="black"/>
<path d="M103.51 220L106.446 215.518L103.786 211.41H105.813L107.536 214.17L109.223 211.41H111.233L108.561 215.582L111.497 220H109.405L107.5 217.029L105.59 220H103.51ZM113.078 214.979V213.777H114.279V214.979H113.078ZM113.078 220V218.799H114.279V220H113.078Z" fill="black"/>
<path d="M126.008 217.75L127.116 217.656C127.198 218.195 127.387 218.602 127.684 218.875C127.985 219.145 128.346 219.279 128.768 219.279C129.276 219.279 129.706 219.088 130.057 218.705C130.409 218.322 130.584 217.814 130.584 217.182C130.584 216.58 130.415 216.105 130.075 215.758C129.739 215.41 129.297 215.236 128.75 215.236C128.411 215.236 128.104 215.314 127.831 215.471C127.557 215.623 127.342 215.822 127.186 216.068L126.196 215.939L127.028 211.527H131.299V212.535H127.872L127.409 214.844C127.924 214.484 128.465 214.305 129.032 214.305C129.782 214.305 130.415 214.564 130.93 215.084C131.446 215.604 131.704 216.271 131.704 217.088C131.704 217.865 131.477 218.537 131.024 219.104C130.473 219.799 129.721 220.146 128.768 220.146C127.987 220.146 127.348 219.928 126.852 219.49C126.36 219.053 126.079 218.473 126.008 217.75Z" fill="black"/>
<path d="M165.639 220V216.385L162.493 211.41H164.526L166.547 214.809L168.528 211.41H170.526L167.368 216.396V220H165.639ZM172.078 214.979V213.777H173.279V214.979H172.078ZM172.078 220V218.799H173.279V220H172.078Z" fill="black"/>
<path d="M190.551 218.986V220H184.874C184.866 219.746 184.907 219.502 184.997 219.268C185.141 218.881 185.372 218.5 185.688 218.125C186.008 217.75 186.469 217.316 187.071 216.824C188.004 216.059 188.635 215.453 188.963 215.008C189.292 214.559 189.456 214.135 189.456 213.736C189.456 213.318 189.305 212.967 189.004 212.682C188.708 212.393 188.319 212.248 187.838 212.248C187.331 212.248 186.924 212.4 186.62 212.705C186.315 213.01 186.161 213.432 186.157 213.971L185.073 213.859C185.147 213.051 185.426 212.436 185.911 212.014C186.395 211.588 187.045 211.375 187.862 211.375C188.686 211.375 189.338 211.604 189.819 212.061C190.299 212.518 190.54 213.084 190.54 213.76C190.54 214.104 190.469 214.441 190.329 214.773C190.188 215.105 189.954 215.455 189.625 215.822C189.301 216.189 188.76 216.693 188.002 217.334C187.37 217.865 186.963 218.227 186.784 218.418C186.604 218.605 186.456 218.795 186.338 218.986H190.551Z" fill="black"/>
<line x1="0.00516919" y1="237.5" x2="295.005" y2="236.5" stroke="black" stroke-width="3"/>
<path d="M123.379 261.842L125.061 262.375C124.803 263.312 124.374 264.01 123.772 264.467C123.174 264.92 122.415 265.146 121.493 265.146C120.352 265.146 119.415 264.758 118.68 263.98C117.946 263.199 117.579 262.133 117.579 260.781C117.579 259.352 117.948 258.242 118.686 257.453C119.424 256.66 120.395 256.264 121.598 256.264C122.649 256.264 123.502 256.574 124.159 257.195C124.549 257.562 124.842 258.09 125.038 258.777L123.321 259.188C123.219 258.742 123.006 258.391 122.682 258.133C122.362 257.875 121.971 257.746 121.51 257.746C120.874 257.746 120.356 257.975 119.958 258.432C119.563 258.889 119.366 259.629 119.366 260.652C119.366 261.738 119.561 262.512 119.952 262.973C120.342 263.434 120.85 263.664 121.475 263.664C121.936 263.664 122.333 263.518 122.665 263.225C122.997 262.932 123.235 262.471 123.379 261.842ZM126.684 260.758C126.684 259.883 126.814 259.148 127.076 258.555C127.272 258.117 127.537 257.725 127.873 257.377C128.213 257.029 128.584 256.771 128.986 256.604C129.522 256.377 130.139 256.264 130.838 256.264C132.104 256.264 133.115 256.656 133.873 257.441C134.635 258.227 135.016 259.318 135.016 260.717C135.016 262.104 134.639 263.189 133.885 263.975C133.131 264.756 132.123 265.146 130.861 265.146C129.584 265.146 128.568 264.758 127.814 263.98C127.061 263.199 126.684 262.125 126.684 260.758ZM128.471 260.699C128.471 261.672 128.695 262.41 129.145 262.914C129.594 263.414 130.164 263.664 130.855 263.664C131.547 263.664 132.113 263.416 132.555 262.92C133 262.42 133.223 261.672 133.223 260.676C133.223 259.691 133.006 258.957 132.572 258.473C132.143 257.988 131.57 257.746 130.855 257.746C130.141 257.746 129.564 257.992 129.127 258.484C128.689 258.973 128.471 259.711 128.471 260.699ZM136.873 265V256.41H138.56L142.076 262.146V256.41H143.687V265H141.947L138.484 259.398V265H136.873ZM147.94 265V257.863H145.392V256.41H152.218V257.863H149.675V265H147.94ZM153.823 265V256.41H160.192V257.863H155.557V259.768H159.87V261.215H155.557V263.553H160.356V265H153.823ZM162.324 265V256.41H164.012L167.527 262.146V256.41H169.139V265H167.399L163.936 259.398V265H162.324ZM173.392 265V257.863H170.843V256.41H177.67V257.863H175.127V265H173.392Z" fill="black"/>
<path fill-rule="evenodd" clip-rule="evenodd" d="M55.2173 303.71C54.9676 303.71 54.7282 303.809 54.5516 303.986C54.3751 304.162 54.2759 304.402 54.2759 304.652C54.2759 304.901 54.3751 305.141 54.5516 305.317C54.7282 305.494 54.9676 305.593 55.2173 305.593H60.8655C61.1151 305.593 61.3546 305.494 61.5311 305.317C61.7077 305.141 61.8068 304.901 61.8068 304.652C61.8068 304.402 61.7077 304.162 61.5311 303.986C61.3546 303.809 61.1151 303.71 60.8655 303.71H55.2173Z" fill="black"/>
<path fill-rule="evenodd" clip-rule="evenodd" d="M54.2759 283C54.1008 283 53.9293 283.049 53.7805 283.141C53.6318 283.234 53.5117 283.365 53.4338 283.522L50.6097 289.203C50.5497 289.327 50.5177 289.463 50.5159 289.601C50.5139 289.608 50.512 289.615 50.5103 289.623V308.417C50.5103 308.667 50.6095 308.906 50.786 309.083C50.9625 309.259 51.202 309.358 51.4516 309.358H75.9273C76.1769 309.358 76.4163 309.259 76.5929 309.083C76.7694 308.906 76.8686 308.667 76.8686 308.417V289.623V289.621C76.8681 289.476 76.8341 289.333 76.7694 289.203L73.9452 283.522C73.8673 283.365 73.7472 283.234 73.5985 283.141C73.4498 283.049 73.2783 283 73.1033 283H54.2759ZM54.8569 284.883H60.7018L60.0859 288.681H52.9704L54.8569 284.883ZM62.6066 284.883H66.6571L67.2914 288.681H61.9925L62.6066 284.883ZM68.5656 284.883H72.5204L74.4087 288.681H69.1999L68.5656 284.883ZM52.3931 290.564H59.9241V299.945C59.9242 300.131 59.9794 300.313 60.0829 300.468C60.1863 300.622 60.3333 300.743 60.5053 300.814C60.6773 300.885 60.8665 300.904 61.0491 300.868C61.2316 300.831 61.3994 300.742 61.531 300.61L64.6309 297.51L67.7308 300.61C67.8625 300.742 68.0302 300.831 68.2128 300.868C68.3954 300.904 68.5846 300.885 68.7566 300.814C68.9286 300.743 69.0756 300.622 69.179 300.468C69.2825 300.313 69.3377 300.131 69.3378 299.945V290.564H74.986V307.476H52.3931V290.564ZM61.8068 290.564H67.455V297.672L65.2965 295.514C65.12 295.337 64.8806 295.238 64.6309 295.238C64.3813 295.238 64.1419 295.337 63.9654 295.514L61.8068 297.672V290.564Z" fill="black"/>
<path d="M69.7566 303.984C69.7566 303.032 69.9275 302.365 70.2693 301.985C70.6134 301.604 71.1363 301.414 71.8381 301.414C72.1754 301.414 72.4522 301.456 72.6687 301.541C72.8852 301.623 73.0618 301.731 73.1985 301.865C73.3352 301.997 73.4423 302.138 73.5198 302.286C73.5995 302.431 73.6633 302.602 73.7112 302.798C73.8046 303.172 73.8513 303.562 73.8513 303.967C73.8513 304.876 73.6975 305.542 73.3899 305.963C73.0823 306.385 72.5525 306.596 71.8005 306.596C71.379 306.596 71.0383 306.528 70.7786 306.394C70.5188 306.26 70.3057 306.062 70.1394 305.803C70.0186 305.618 69.9241 305.366 69.8557 305.047C69.7896 304.726 69.7566 304.372 69.7566 303.984ZM71.1375 303.988C71.1375 304.626 71.1933 305.062 71.3049 305.297C71.4189 305.529 71.5829 305.646 71.7971 305.646C71.9384 305.646 72.0603 305.597 72.1628 305.499C72.2677 305.398 72.344 305.241 72.3918 305.027C72.442 304.813 72.467 304.479 72.467 304.025C72.467 303.36 72.4101 302.913 72.2961 302.686C72.1845 302.455 72.0159 302.34 71.7903 302.34C71.5601 302.34 71.3938 302.458 71.2913 302.692C71.1887 302.925 71.1375 303.357 71.1375 303.988Z" fill="black"/>
<path d="M91.2085 295.947H85.5366V294.963H91.2085V295.947ZM91.2085 298.555H85.5366V297.57H91.2085V298.555Z" fill="black"/>
<path d="M101.008 296.764C101.008 295.748 101.112 294.932 101.319 294.314C101.53 293.693 101.84 293.215 102.25 292.879C102.665 292.543 103.184 292.375 103.809 292.375C104.27 292.375 104.674 292.469 105.022 292.656C105.37 292.84 105.657 293.107 105.883 293.459C106.11 293.807 106.288 294.232 106.417 294.736C106.545 295.236 106.61 295.912 106.61 296.764C106.61 297.771 106.506 298.586 106.299 299.207C106.092 299.824 105.782 300.303 105.368 300.643C104.958 300.979 104.438 301.146 103.809 301.146C102.981 301.146 102.331 300.85 101.858 300.256C101.292 299.541 101.008 298.377 101.008 296.764ZM102.092 296.764C102.092 298.174 102.256 299.113 102.584 299.582C102.917 300.047 103.325 300.279 103.809 300.279C104.293 300.279 104.7 300.045 105.028 299.576C105.36 299.107 105.526 298.17 105.526 296.764C105.526 295.35 105.36 294.41 105.028 293.945C104.7 293.48 104.29 293.248 103.797 293.248C103.313 293.248 102.926 293.453 102.637 293.863C102.274 294.387 102.092 295.354 102.092 296.764Z" fill="black"/>
<path d="M193.208 295.947H187.537V294.963H193.208V295.947ZM193.208 298.555H187.537V297.57H193.208V298.555Z" fill="black"/>
<path fill-rule="evenodd" clip-rule="evenodd" d="M157.217 303.702C156.968 303.702 156.728 303.801 156.552 303.977C156.375 304.154 156.276 304.393 156.276 304.643C156.276 304.893 156.375 305.132 156.552 305.309C156.728 305.485 156.968 305.585 157.217 305.585H162.865C163.115 305.585 163.355 305.485 163.531 305.309C163.708 305.132 163.807 304.893 163.807 304.643C163.807 304.393 163.708 304.154 163.531 303.977C163.355 303.801 163.115 303.702 162.865 303.702H157.217Z" fill="black"/>
<path fill-rule="evenodd" clip-rule="evenodd" d="M156.276 282.992C156.101 282.992 155.929 283.041 155.781 283.133C155.632 283.225 155.512 283.357 155.434 283.514L152.61 289.195C152.55 289.319 152.518 289.455 152.516 289.592C152.514 289.6 152.512 289.607 152.51 289.614V308.409C152.51 308.658 152.609 308.898 152.786 309.074C152.963 309.251 153.202 309.35 153.452 309.35H177.927C178.177 309.35 178.416 309.251 178.593 309.074C178.769 308.898 178.869 308.658 178.869 308.409V289.614V289.612C178.868 289.467 178.834 289.325 178.769 289.195L175.945 283.514C175.867 283.357 175.747 283.225 175.598 283.133C175.45 283.041 175.278 282.992 175.103 282.992H156.276ZM156.857 284.874H162.702L162.086 288.673H154.97L156.857 284.874ZM164.607 284.874H168.657L169.291 288.673H163.993L164.607 284.874ZM170.566 284.874H174.52L176.409 288.673H171.2L170.566 284.874ZM154.393 290.556H161.924V299.936C161.924 300.122 161.979 300.304 162.083 300.459C162.186 300.614 162.333 300.734 162.505 300.806C162.677 300.877 162.866 300.896 163.049 300.859C163.232 300.823 163.399 300.733 163.531 300.602L166.631 297.502L169.731 300.602C169.863 300.733 170.03 300.823 170.213 300.859C170.395 300.896 170.585 300.877 170.757 300.806C170.929 300.734 171.076 300.614 171.179 300.459C171.282 300.304 171.338 300.122 171.338 299.936V290.556H176.986V307.467H154.393V290.556ZM163.807 290.556H169.455V297.664L167.297 295.505C167.12 295.329 166.881 295.23 166.631 295.23C166.381 295.23 166.142 295.329 165.965 295.505L163.807 297.664V290.556Z" fill="black"/>
<path d="M175.6 306.497H171.423C171.471 306.085 171.616 305.697 171.857 305.335C172.101 304.97 172.557 304.541 173.225 304.046C173.632 303.743 173.893 303.513 174.007 303.356C174.121 303.199 174.178 303.049 174.178 302.908C174.178 302.756 174.121 302.626 174.007 302.519C173.896 302.409 173.754 302.354 173.583 302.354C173.406 302.354 173.26 302.41 173.146 302.522C173.034 302.634 172.959 302.831 172.92 303.113L171.526 303C171.581 302.609 171.681 302.303 171.827 302.084C171.972 301.863 172.178 301.695 172.442 301.579C172.708 301.46 173.076 301.401 173.546 301.401C174.036 301.401 174.416 301.457 174.688 301.568C174.961 301.68 175.175 301.852 175.33 302.084C175.487 302.315 175.566 302.573 175.566 302.86C175.566 303.166 175.476 303.457 175.296 303.735C175.118 304.013 174.793 304.319 174.322 304.651C174.042 304.845 173.854 304.981 173.758 305.058C173.664 305.136 173.554 305.237 173.426 305.362H175.6V306.497Z" fill="black"/>
<path d="M201.008 296.764C201.008 295.748 201.112 294.932 201.319 294.314C201.53 293.693 201.84 293.215 202.25 292.879C202.665 292.543 203.184 292.375 203.809 292.375C204.27 292.375 204.674 292.469 205.022 292.656C205.37 292.84 205.657 293.107 205.883 293.459C206.11 293.807 206.288 294.232 206.417 294.736C206.545 295.236 206.61 295.912 206.61 296.764C206.61 297.771 206.506 298.586 206.299 299.207C206.092 299.824 205.782 300.303 205.368 300.643C204.958 300.979 204.438 301.146 203.809 301.146C202.981 301.146 202.331 300.85 201.858 300.256C201.292 299.541 201.008 298.377 201.008 296.764ZM202.092 296.764C202.092 298.174 202.256 299.113 202.584 299.582C202.917 300.047 203.325 300.279 203.809 300.279C204.293 300.279 204.7 300.045 205.028 299.576C205.36 299.107 205.526 298.17 205.526 296.764C205.526 295.35 205.36 294.41 205.028 293.945C204.7 293.48 204.29 293.248 203.797 293.248C203.313 293.248 202.926 293.453 202.637 293.863C202.274 294.387 202.092 295.354 202.092 296.764Z" fill="black"/>
<path d="M91.2085 333.943H85.5366V332.958H91.2085V333.943ZM91.2085 336.55H85.5366V335.566H91.2085V336.55Z" fill="black"/>
<path fill-rule="evenodd" clip-rule="evenodd" d="M55.2173 341.71C54.9676 341.71 54.7282 341.809 54.5516 341.986C54.3751 342.162 54.2759 342.402 54.2759 342.652C54.2759 342.901 54.3751 343.141 54.5516 343.317C54.7282 343.494 54.9676 343.593 55.2173 343.593H60.8655C61.1151 343.593 61.3546 343.494 61.5311 343.317C61.7077 343.141 61.8068 342.901 61.8068 342.652C61.8068 342.402 61.7077 342.162 61.5311 341.986C61.3546 341.809 61.1151 341.71 60.8655 341.71H55.2173Z" fill="black"/>
<path fill-rule="evenodd" clip-rule="evenodd" d="M54.2759 321C54.1008 321 53.9293 321.049 53.7805 321.141C53.6318 321.234 53.5117 321.365 53.4338 321.522L50.6097 327.203C50.5497 327.327 50.5177 327.463 50.5159 327.601C50.5139 327.608 50.512 327.615 50.5103 327.623V346.417C50.5103 346.667 50.6095 346.906 50.786 347.083C50.9625 347.259 51.202 347.358 51.4516 347.358H75.9273C76.1769 347.358 76.4163 347.259 76.5929 347.083C76.7694 346.906 76.8686 346.667 76.8686 346.417V327.623V327.621C76.8681 327.476 76.8341 327.333 76.7694 327.203L73.9452 321.522C73.8673 321.365 73.7472 321.234 73.5985 321.141C73.4498 321.049 73.2783 321 73.1033 321H54.2759ZM54.8569 322.883H60.7018L60.0859 326.681H52.9704L54.8569 322.883ZM62.6066 322.883H66.6571L67.2914 326.681H61.9925L62.6066 322.883ZM68.5656 322.883H72.5204L74.4087 326.681H69.1999L68.5656 322.883ZM52.3931 328.564H59.9241V337.945C59.9242 338.131 59.9794 338.313 60.0829 338.468C60.1863 338.622 60.3333 338.743 60.5053 338.814C60.6773 338.885 60.8665 338.904 61.0491 338.868C61.2316 338.831 61.3994 338.742 61.531 338.61L64.6309 335.51L67.7308 338.61C67.8625 338.742 68.0302 338.831 68.2128 338.868C68.3954 338.904 68.5846 338.885 68.7566 338.814C68.9286 338.743 69.0756 338.622 69.179 338.468C69.2825 338.313 69.3377 338.131 69.3378 337.945V328.564H74.986V345.476H52.3931V328.564ZM61.8068 328.564H67.455V335.672L65.2965 333.514C65.12 333.337 64.8806 333.238 64.6309 333.238C64.3813 333.238 64.1419 333.337 63.9654 333.514L61.8068 335.672V328.564Z" fill="black"/>
<path d="M72.6804 339.409V344.505H71.2722V341.166C71.0444 341.339 70.8233 341.479 70.6091 341.587C70.3972 341.694 70.1306 341.796 69.8093 341.894V340.753C70.2833 340.6 70.6513 340.416 70.9133 340.202C71.1754 339.988 71.3805 339.724 71.5286 339.409H72.6804Z" fill="black"/>
<path d="M101.008 334.764C101.008 333.748 101.112 332.932 101.319 332.314C101.53 331.693 101.84 331.215 102.25 330.879C102.665 330.543 103.184 330.375 103.809 330.375C104.27 330.375 104.674 330.469 105.022 330.656C105.37 330.84 105.657 331.107 105.883 331.459C106.11 331.807 106.288 332.232 106.417 332.736C106.545 333.236 106.61 333.912 106.61 334.764C106.61 335.771 106.506 336.586 106.299 337.207C106.092 337.824 105.782 338.303 105.368 338.643C104.958 338.979 104.438 339.146 103.809 339.146C102.981 339.146 102.331 338.85 101.858 338.256C101.292 337.541 101.008 336.377 101.008 334.764ZM102.092 334.764C102.092 336.174 102.256 337.113 102.584 337.582C102.917 338.047 103.325 338.279 103.809 338.279C104.293 338.279 104.7 338.045 105.028 337.576C105.36 337.107 105.526 336.17 105.526 334.764C105.526 333.35 105.36 332.41 105.028 331.945C104.7 331.48 104.29 331.248 103.797 331.248C103.313 331.248 102.926 331.453 102.637 331.863C102.274 332.387 102.092 333.354 102.092 334.764Z" fill="black"/>
<path d="M193.208 333.943H187.537V332.958H193.208V333.943ZM193.208 336.55H187.537V335.566H193.208V336.55Z" fill="black"/>
<path fill-rule="evenodd" clip-rule="evenodd" d="M159.217 341.71C158.968 341.71 158.728 341.809 158.552 341.986C158.375 342.162 158.276 342.402 158.276 342.652C158.276 342.901 158.375 343.141 158.552 343.317C158.728 343.494 158.968 343.593 159.217 343.593H164.865C165.115 343.593 165.355 343.494 165.531 343.317C165.708 343.141 165.807 342.901 165.807 342.652C165.807 342.402 165.708 342.162 165.531 341.986C165.355 341.809 165.115 341.71 164.865 341.71H159.217Z" fill="black"/>
<path fill-rule="evenodd" clip-rule="evenodd" d="M158.276 321C158.101 321 157.929 321.049 157.781 321.141C157.632 321.234 157.512 321.365 157.434 321.522L154.61 327.203C154.55 327.327 154.518 327.463 154.516 327.601C154.514 327.608 154.512 327.615 154.51 327.623V346.417C154.51 346.667 154.609 346.906 154.786 347.083C154.963 347.259 155.202 347.358 155.452 347.358H179.927C180.177 347.358 180.416 347.259 180.593 347.083C180.769 346.906 180.869 346.667 180.869 346.417V327.623V327.621C180.868 327.476 180.834 327.333 180.769 327.203L177.945 321.522C177.867 321.365 177.747 321.234 177.598 321.141C177.45 321.049 177.278 321 177.103 321H158.276ZM158.857 322.883H164.702L164.086 326.681H156.97L158.857 322.883ZM166.607 322.883H170.657L171.291 326.681H165.993L166.607 322.883ZM172.566 322.883H176.52L178.409 326.681H173.2L172.566 322.883ZM156.393 328.564H163.924V337.945C163.924 338.131 163.979 338.313 164.083 338.468C164.186 338.622 164.333 338.743 164.505 338.814C164.677 338.885 164.866 338.904 165.049 338.868C165.232 338.831 165.399 338.742 165.531 338.61L168.631 335.51L171.731 338.61C171.863 338.742 172.03 338.831 172.213 338.868C172.395 338.904 172.585 338.885 172.757 338.814C172.929 338.743 173.076 338.622 173.179 338.468C173.282 338.313 173.338 338.131 173.338 337.945V328.564H178.986V345.476H156.393V328.564ZM165.807 328.564H171.455V335.672L169.297 333.514C169.12 333.337 168.881 333.238 168.631 333.238C168.381 333.238 168.142 333.337 167.965 333.514L165.807 335.672V328.564Z" fill="black"/>
<path d="M174.876 340.944L173.56 340.708C173.669 340.289 173.879 339.968 174.189 339.744C174.501 339.521 174.942 339.409 175.511 339.409C176.165 339.409 176.638 339.531 176.93 339.775C177.222 340.019 177.367 340.325 177.367 340.694C177.367 340.911 177.308 341.107 177.19 341.282C177.071 341.458 176.892 341.612 176.653 341.744C176.847 341.792 176.995 341.847 177.097 341.911C177.264 342.014 177.392 342.149 177.484 342.318C177.577 342.484 177.624 342.684 177.624 342.916C177.624 343.208 177.547 343.488 177.395 343.757C177.242 344.024 177.022 344.23 176.735 344.376C176.448 344.519 176.071 344.591 175.604 344.591C175.148 344.591 174.788 344.537 174.524 344.43C174.262 344.323 174.045 344.167 173.874 343.962C173.706 343.755 173.576 343.495 173.485 343.183L174.876 342.998C174.93 343.278 175.015 343.473 175.129 343.583C175.245 343.69 175.392 343.743 175.57 343.743C175.756 343.743 175.911 343.675 176.034 343.538C176.16 343.401 176.222 343.219 176.222 342.991C176.222 342.759 176.162 342.579 176.041 342.451C175.923 342.324 175.761 342.26 175.556 342.26C175.447 342.26 175.296 342.287 175.105 342.342L175.177 341.347C175.254 341.359 175.314 341.364 175.358 341.364C175.54 341.364 175.691 341.306 175.812 341.19C175.935 341.074 175.997 340.936 175.997 340.776C175.997 340.624 175.951 340.502 175.86 340.411C175.769 340.32 175.644 340.274 175.484 340.274C175.32 340.274 175.187 340.324 175.084 340.424C174.982 340.522 174.912 340.696 174.876 340.944Z" fill="black"/>
<path d="M201.008 334.764C201.008 333.748 201.112 332.932 201.319 332.314C201.53 331.693 201.84 331.215 202.25 330.879C202.665 330.543 203.184 330.375 203.809 330.375C204.27 330.375 204.674 330.469 205.022 330.656C205.37 330.84 205.657 331.107 205.883 331.459C206.11 331.807 206.288 332.232 206.417 332.736C206.545 333.236 206.61 333.912 206.61 334.764C206.61 335.771 206.506 336.586 206.299 337.207C206.092 337.824 205.782 338.303 205.368 338.643C204.958 338.979 204.438 339.146 203.809 339.146C202.981 339.146 202.331 338.85 201.858 338.256C201.292 337.541 201.008 336.377 201.008 334.764ZM202.092 334.764C202.092 336.174 202.256 337.113 202.584 337.582C202.917 338.047 203.325 338.279 203.809 338.279C204.293 338.279 204.7 338.045 205.028 337.576C205.36 337.107 205.526 336.17 205.526 334.764C205.526 333.35 205.36 332.41 205.028 331.945C204.7 331.48 204.29 331.248 203.797 331.248C203.313 331.248 202.926 331.453 202.637 331.863C202.274 332.387 202.092 333.354 202.092 334.764Z" fill="black"/>
<rect x="326.51" y="1.5" width="292" height="235" rx="3.5" stroke="black" stroke-width="3"/>
<path d="M420.532 21.7578C420.532 20.8828 420.663 20.1484 420.924 19.5547C421.12 19.1172 421.385 18.7246 421.721 18.377C422.061 18.0293 422.432 17.7715 422.834 17.6035C423.37 17.377 423.987 17.2637 424.686 17.2637C425.952 17.2637 426.963 17.6562 427.721 18.4414C428.483 19.2266 428.864 20.3184 428.864 21.7168C428.864 23.1035 428.487 24.1895 427.733 24.9746C426.979 25.7559 425.971 26.1465 424.709 26.1465C423.432 26.1465 422.417 25.7578 421.663 24.9805C420.909 24.1992 420.532 23.125 420.532 21.7578ZM422.319 21.6992C422.319 22.6719 422.543 23.4102 422.993 23.9141C423.442 24.4141 424.012 24.6641 424.704 24.6641C425.395 24.6641 425.961 24.416 426.403 23.9199C426.848 23.4199 427.071 22.6719 427.071 21.6758C427.071 20.6914 426.854 19.957 426.42 19.4727C425.991 18.9883 425.418 18.7461 424.704 18.7461C423.989 18.7461 423.413 18.9922 422.975 19.4844C422.538 19.9727 422.319 20.7109 422.319 21.6992ZM430.709 26V17.4102H434.359C435.277 17.4102 435.943 17.4883 436.357 17.6445C436.775 17.7969 437.109 18.0703 437.359 18.4648C437.609 18.8594 437.734 19.3105 437.734 19.8184C437.734 20.4629 437.545 20.9961 437.166 21.418C436.787 21.8359 436.221 22.0996 435.467 22.209C435.842 22.4277 436.15 22.668 436.393 22.9297C436.639 23.1914 436.969 23.6562 437.383 24.3242L438.432 26H436.357L435.104 24.1309C434.658 23.4629 434.354 23.043 434.189 22.8711C434.025 22.6953 433.852 22.5762 433.668 22.5137C433.484 22.4473 433.193 22.4141 432.795 22.4141H432.443V26H430.709ZM432.443 21.043H433.727C434.559 21.043 435.078 21.0078 435.285 20.9375C435.492 20.8672 435.654 20.7461 435.772 20.5742C435.889 20.4023 435.947 20.1875 435.947 19.9297C435.947 19.6406 435.869 19.4082 435.713 19.2324C435.561 19.0527 435.344 18.9395 435.063 18.8926C434.922 18.873 434.5 18.8633 433.797 18.8633H432.443V21.043ZM447.601 26H445.714L444.964 24.0488H441.531L440.822 26H438.982L442.328 17.4102H444.162L447.601 26ZM444.408 22.6016L443.224 19.4141L442.064 22.6016H444.408ZM449.024 26V17.4102H450.712L454.228 23.1465V17.4102H455.839V26H454.099L450.636 20.3984V26H449.024ZM462.155 22.8418V21.3945H465.893V24.8164C465.53 25.168 465.003 25.4785 464.311 25.748C463.624 26.0137 462.926 26.1465 462.219 26.1465C461.321 26.1465 460.538 25.959 459.87 25.584C459.202 25.2051 458.7 24.666 458.364 23.9668C458.028 23.2637 457.86 22.5 457.86 21.6758C457.86 20.7812 458.047 19.9863 458.422 19.291C458.797 18.5957 459.346 18.0625 460.069 17.6914C460.62 17.4062 461.305 17.2637 462.126 17.2637C463.192 17.2637 464.024 17.4883 464.622 17.9375C465.223 18.3828 465.61 19 465.782 19.7891L464.059 20.1113C463.938 19.6895 463.71 19.3574 463.374 19.1152C463.042 18.8691 462.626 18.7461 462.126 18.7461C461.368 18.7461 460.764 18.9863 460.315 19.4668C459.87 19.9473 459.647 20.6602 459.647 21.6055C459.647 22.625 459.874 23.3906 460.327 23.9023C460.78 24.4102 461.374 24.6641 462.108 24.6641C462.471 24.6641 462.835 24.5938 463.198 24.4531C463.565 24.3086 463.879 24.1348 464.141 23.9316V22.8418H462.155ZM467.979 26V17.4102H474.348V18.8633H469.713V20.7676H474.025V22.2148H469.713V24.5527H474.512V26H467.979ZM480.288 26V17.4102H483.939C484.857 17.4102 485.523 17.4883 485.937 17.6445C486.355 17.7969 486.689 18.0703 486.939 18.4648C487.189 18.8594 487.314 19.3105 487.314 19.8184C487.314 20.4629 487.124 20.9961 486.745 21.418C486.366 21.8359 485.8 22.0996 485.046 22.209C485.421 22.4277 485.73 22.668 485.972 22.9297C486.218 23.1914 486.548 23.6562 486.962 24.3242L488.011 26H485.937L484.683 24.1309C484.237 23.4629 483.933 23.043 483.769 22.8711C483.605 22.6953 483.431 22.5762 483.247 22.5137C483.064 22.4473 482.773 22.4141 482.374 22.4141H482.023V26H480.288ZM482.023 21.043H483.306C484.138 21.043 484.657 21.0078 484.864 20.9375C485.071 20.8672 485.234 20.7461 485.351 20.5742C485.468 20.4023 485.527 20.1875 485.527 19.9297C485.527 19.6406 485.448 19.4082 485.292 19.2324C485.14 19.0527 484.923 18.9395 484.642 18.8926C484.501 18.873 484.079 18.8633 483.376 18.8633H482.023V21.043ZM489.083 21.7578C489.083 20.8828 489.214 20.1484 489.475 19.5547C489.671 19.1172 489.936 18.7246 490.272 18.377C490.612 18.0293 490.983 17.7715 491.385 17.6035C491.921 17.377 492.538 17.2637 493.237 17.2637C494.503 17.2637 495.514 17.6562 496.272 18.4414C497.034 19.2266 497.415 20.3184 497.415 21.7168C497.415 23.1035 497.038 24.1895 496.284 24.9746C495.53 25.7559 494.522 26.1465 493.26 26.1465C491.983 26.1465 490.967 25.7578 490.214 24.9805C489.46 24.1992 489.083 23.125 489.083 21.7578ZM490.87 21.6992C490.87 22.6719 491.094 23.4102 491.544 23.9141C491.993 24.4141 492.563 24.6641 493.255 24.6641C493.946 24.6641 494.512 24.416 494.954 23.9199C495.399 23.4199 495.622 22.6719 495.622 21.6758C495.622 20.6914 495.405 19.957 494.971 19.4727C494.542 18.9883 493.969 18.7461 493.255 18.7461C492.54 18.7461 491.964 18.9922 491.526 19.4844C491.089 19.9727 490.87 20.7109 490.87 21.6992ZM501.445 26L498.375 17.4102H500.256L502.43 23.7676L504.533 17.4102H506.373L503.297 26H501.445ZM507.738 26V17.4102H514.107V18.8633H509.472V20.7676H513.785V22.2148H509.472V24.5527H514.271V26H507.738ZM516.228 26V17.4102H519.878C520.796 17.4102 521.462 17.4883 521.876 17.6445C522.294 17.7969 522.628 18.0703 522.878 18.4648C523.128 18.8594 523.253 19.3105 523.253 19.8184C523.253 20.4629 523.064 20.9961 522.685 21.418C522.306 21.8359 521.739 22.0996 520.986 22.209C521.361 22.4277 521.669 22.668 521.911 22.9297C522.157 23.1914 522.488 23.6562 522.902 24.3242L523.95 26H521.876L520.622 24.1309C520.177 23.4629 519.872 23.043 519.708 22.8711C519.544 22.6953 519.37 22.5762 519.187 22.5137C519.003 22.4473 518.712 22.4141 518.314 22.4141H517.962V26H516.228ZM517.962 21.043H519.245C520.077 21.043 520.597 21.0078 520.804 20.9375C521.011 20.8672 521.173 20.7461 521.29 20.5742C521.407 20.4023 521.466 20.1875 521.466 19.9297C521.466 19.6406 521.388 19.4082 521.232 19.2324C521.079 19.0527 520.863 18.9395 520.581 18.8926C520.441 18.873 520.019 18.8633 519.316 18.8633H517.962V21.043Z" fill="black"/>
<line x1="325.005" y1="43.5" x2="620.005" y2="42.5" stroke="black" stroke-width="3"/>
<path d="M446.383 71V62.4102H452.752V63.8633H448.118V65.7676H452.43V67.2148H448.118V69.5527H452.917V71H446.383ZM454.885 71V62.4102H456.572L460.088 68.1465V62.4102H461.699V71H459.959L456.496 65.3984V71H454.885ZM464.019 71V62.4102H470.388V63.8633H465.753V65.7676H470.066V67.2148H465.753V69.5527H470.552V71H464.019ZM472.509 71V62.4102H476.159C477.077 62.4102 477.743 62.4883 478.157 62.6445C478.575 62.7969 478.909 63.0703 479.159 63.4648C479.409 63.8594 479.534 64.3105 479.534 64.8184C479.534 65.4629 479.345 65.9961 478.966 66.418C478.587 66.8359 478.021 67.0996 477.267 67.209C477.642 67.4277 477.95 67.668 478.192 67.9297C478.439 68.1914 478.769 68.6562 479.183 69.3242L480.232 71H478.157L476.903 69.1309C476.458 68.4629 476.153 68.043 475.989 67.8711C475.825 67.6953 475.651 67.5762 475.468 67.5137C475.284 67.4473 474.993 67.4141 474.595 67.4141H474.243V71H472.509ZM474.243 66.043H475.526C476.358 66.043 476.878 66.0078 477.085 65.9375C477.292 65.8672 477.454 65.7461 477.571 65.5742C477.689 65.4023 477.747 65.1875 477.747 64.9297C477.747 64.6406 477.669 64.4082 477.513 64.2324C477.36 64.0527 477.144 63.9395 476.862 63.8926C476.722 63.873 476.3 63.8633 475.597 63.8633H474.243V66.043ZM485.651 67.8418V66.3945H489.389V69.8164C489.026 70.168 488.499 70.4785 487.807 70.748C487.12 71.0137 486.422 71.1465 485.715 71.1465C484.817 71.1465 484.034 70.959 483.366 70.584C482.698 70.2051 482.196 69.666 481.86 68.9668C481.524 68.2637 481.356 67.5 481.356 66.6758C481.356 65.7812 481.544 64.9863 481.919 64.291C482.294 63.5957 482.842 63.0625 483.565 62.6914C484.116 62.4062 484.801 62.2637 485.622 62.2637C486.688 62.2637 487.52 62.4883 488.118 62.9375C488.719 63.3828 489.106 64 489.278 64.7891L487.555 65.1113C487.434 64.6895 487.206 64.3574 486.87 64.1152C486.538 63.8691 486.122 63.7461 485.622 63.7461C484.864 63.7461 484.26 63.9863 483.811 64.4668C483.366 64.9473 483.143 65.6602 483.143 66.6055C483.143 67.625 483.37 68.3906 483.823 68.9023C484.276 69.4102 484.87 69.6641 485.604 69.6641C485.967 69.6641 486.331 69.5938 486.694 69.4531C487.061 69.3086 487.376 69.1348 487.637 68.9316V67.8418H485.651ZM493.731 71V67.3848L490.584 62.4102H492.617L494.639 65.8086L496.619 62.4102H498.617L495.459 67.3965V71H493.731Z" fill="black"/>
<rect x="371.51" y="90.5" width="191" height="57" rx="3.5" fill="#D9D9D9" stroke="black" stroke-width="3"/>
<rect x="376.01" y="95" width="19" height="48" rx="3" fill="#E8871E" stroke="black" stroke-width="2"/>
<rect x="399.01" y="95" width="19" height="48" rx="3" fill="#E8871E" stroke="black" stroke-width="2"/>
<rect x="423.01" y="95" width="18" height="48" rx="3" fill="#E8871E" stroke="black" stroke-width="2"/>
<rect x="446.01" y="95" width="19" height="48" rx="3" fill="#E8871E" stroke="black" stroke-width="2"/>
<rect x="469.01" y="95" width="19" height="48" rx="3" fill="#E8871E" stroke="black" stroke-width="2"/>
<rect x="493.01" y="95" width="18" height="48" rx="3" fill="#E8871E" stroke="black" stroke-width="2"/>
<rect x="516.01" y="95" width="19" height="48" rx="3" fill="#E8871E" stroke="black" stroke-width="2"/>
<rect x="539.01" y="95" width="19" height="48" rx="3" fill="#E8871E" stroke="black" stroke-width="2"/>
<path d="M570.01 105.5C571.943 105.5 573.51 107.067 573.51 109V129C573.51 130.933 571.943 132.5 570.01 132.5H562.51V105.5H570.01Z" fill="#D9D9D9" stroke="black" stroke-width="3"/>
<line x1="325.005" y1="163.5" x2="620.005" y2="162.5" stroke="black" stroke-width="3"/>
<path d="M442.883 191V182.41H445.667C446.721 182.41 447.409 182.453 447.729 182.539C448.221 182.668 448.633 182.949 448.965 183.383C449.297 183.812 449.463 184.369 449.463 185.053C449.463 185.58 449.368 186.023 449.176 186.383C448.985 186.742 448.741 187.025 448.444 187.232C448.151 187.436 447.852 187.57 447.547 187.637C447.133 187.719 446.534 187.76 445.749 187.76H444.618V191H442.883ZM444.618 183.863V186.301H445.567C446.25 186.301 446.708 186.256 446.938 186.166C447.168 186.076 447.348 185.936 447.477 185.744C447.61 185.553 447.676 185.33 447.676 185.076C447.676 184.764 447.584 184.506 447.401 184.303C447.217 184.1 446.985 183.973 446.704 183.922C446.497 183.883 446.081 183.863 445.456 183.863H444.618ZM451.016 186.758C451.016 185.883 451.147 185.148 451.408 184.555C451.604 184.117 451.869 183.725 452.205 183.377C452.545 183.029 452.916 182.771 453.318 182.604C453.854 182.377 454.471 182.264 455.17 182.264C456.436 182.264 457.447 182.656 458.205 183.441C458.967 184.227 459.348 185.318 459.348 186.717C459.348 188.104 458.971 189.189 458.217 189.975C457.463 190.756 456.455 191.146 455.193 191.146C453.916 191.146 452.9 190.758 452.147 189.98C451.393 189.199 451.016 188.125 451.016 186.758ZM452.803 186.699C452.803 187.672 453.027 188.41 453.477 188.914C453.926 189.414 454.496 189.664 455.188 189.664C455.879 189.664 456.445 189.416 456.887 188.92C457.332 188.42 457.555 187.672 457.555 186.676C457.555 185.691 457.338 184.957 456.904 184.473C456.475 183.988 455.902 183.746 455.188 183.746C454.473 183.746 453.897 183.992 453.459 184.484C453.022 184.973 452.803 185.711 452.803 186.699ZM460.748 188.205L462.435 188.041C462.537 188.607 462.742 189.023 463.05 189.289C463.363 189.555 463.783 189.688 464.31 189.688C464.869 189.688 465.289 189.57 465.57 189.336C465.855 189.098 465.998 188.82 465.998 188.504C465.998 188.301 465.937 188.129 465.816 187.988C465.699 187.844 465.492 187.719 465.195 187.613C464.992 187.543 464.529 187.418 463.806 187.238C462.877 187.008 462.224 186.725 461.849 186.389C461.322 185.916 461.058 185.34 461.058 184.66C461.058 184.223 461.181 183.814 461.427 183.436C461.677 183.053 462.035 182.762 462.5 182.562C462.968 182.363 463.533 182.264 464.193 182.264C465.271 182.264 466.082 182.5 466.625 182.973C467.171 183.445 467.459 184.076 467.486 184.865L465.752 184.941C465.677 184.5 465.517 184.184 465.271 183.992C465.029 183.797 464.664 183.699 464.175 183.699C463.671 183.699 463.277 183.803 462.992 184.01C462.808 184.143 462.716 184.32 462.716 184.543C462.716 184.746 462.802 184.92 462.974 185.064C463.193 185.248 463.724 185.439 464.568 185.639C465.412 185.838 466.035 186.045 466.437 186.26C466.843 186.471 467.16 186.762 467.386 187.133C467.617 187.5 467.732 187.955 467.732 188.498C467.732 188.99 467.595 189.451 467.322 189.881C467.048 190.311 466.662 190.631 466.162 190.842C465.662 191.049 465.039 191.152 464.293 191.152C463.207 191.152 462.373 190.902 461.791 190.402C461.209 189.898 460.861 189.166 460.748 188.205ZM469.618 191V182.41H471.353V191H469.618ZM475.424 191V183.863H472.876V182.41H479.702V183.863H477.159V191H475.424ZM481.254 191V182.41H482.988V191H481.254ZM484.775 186.758C484.775 185.883 484.906 185.148 485.168 184.555C485.363 184.117 485.629 183.725 485.964 183.377C486.304 183.029 486.675 182.771 487.078 182.604C487.613 182.377 488.23 182.264 488.929 182.264C490.195 182.264 491.207 182.656 491.964 183.441C492.726 184.227 493.107 185.318 493.107 186.717C493.107 188.104 492.73 189.189 491.976 189.975C491.222 190.756 490.214 191.146 488.953 191.146C487.675 191.146 486.66 190.758 485.906 189.98C485.152 189.199 484.775 188.125 484.775 186.758ZM486.562 186.699C486.562 187.672 486.787 188.41 487.236 188.914C487.685 189.414 488.255 189.664 488.947 189.664C489.638 189.664 490.205 189.416 490.646 188.92C491.091 188.42 491.314 187.672 491.314 186.676C491.314 185.691 491.097 184.957 490.664 184.473C490.234 183.988 489.662 183.746 488.947 183.746C488.232 183.746 487.656 183.992 487.218 184.484C486.781 184.973 486.562 185.711 486.562 186.699ZM494.964 191V182.41H496.652L500.167 188.146V182.41H501.778V191H500.038L496.575 185.398V191H494.964Z" fill="black"/>
<path d="M428.51 220L431.446 215.518L428.786 211.41H430.813L432.536 214.17L434.223 211.41H436.233L433.561 215.582L436.497 220H434.405L432.5 217.029L430.59 220H428.51ZM438.078 214.979V213.777H439.279V214.979H438.078ZM438.078 220V218.799H439.279V220H438.078Z" fill="black"/>
<path d="M451.014 217.732L452.069 217.592C452.19 218.189 452.395 218.621 452.684 218.887C452.977 219.148 453.333 219.279 453.75 219.279C454.247 219.279 454.665 219.107 455.004 218.764C455.348 218.42 455.52 217.994 455.52 217.486C455.52 217.002 455.362 216.604 455.045 216.291C454.729 215.975 454.327 215.816 453.838 215.816C453.639 215.816 453.391 215.855 453.094 215.934L453.211 215.008C453.282 215.016 453.338 215.02 453.381 215.02C453.831 215.02 454.235 214.902 454.594 214.668C454.954 214.434 455.133 214.072 455.133 213.584C455.133 213.197 455.002 212.877 454.741 212.623C454.479 212.369 454.141 212.242 453.727 212.242C453.317 212.242 452.975 212.371 452.702 212.629C452.428 212.887 452.252 213.273 452.174 213.789L451.12 213.602C451.249 212.895 451.542 212.348 451.999 211.961C452.456 211.57 453.024 211.375 453.704 211.375C454.172 211.375 454.604 211.477 454.999 211.68C455.393 211.879 455.694 212.152 455.901 212.5C456.112 212.848 456.217 213.217 456.217 213.607C456.217 213.979 456.118 214.316 455.918 214.621C455.719 214.926 455.424 215.168 455.034 215.348C455.542 215.465 455.936 215.709 456.217 216.08C456.499 216.447 456.639 216.908 456.639 217.463C456.639 218.213 456.366 218.85 455.819 219.373C455.272 219.893 454.581 220.152 453.745 220.152C452.991 220.152 452.364 219.928 451.864 219.479C451.368 219.029 451.084 218.447 451.014 217.732Z" fill="black"/>
<path d="M490.639 220V216.385L487.493 211.41H489.526L491.547 214.809L493.528 211.41H495.526L492.368 216.396V220H490.639ZM497.078 214.979V213.777H498.279V214.979H497.078ZM497.078 220V218.799H498.279V220H497.078Z" fill="black"/>
<path d="M515.551 218.986V220H509.874C509.866 219.746 509.907 219.502 509.997 219.268C510.141 218.881 510.372 218.5 510.688 218.125C511.008 217.75 511.469 217.316 512.071 216.824C513.004 216.059 513.635 215.453 513.963 215.008C514.292 214.559 514.456 214.135 514.456 213.736C514.456 213.318 514.305 212.967 514.004 212.682C513.708 212.393 513.319 212.248 512.838 212.248C512.331 212.248 511.924 212.4 511.62 212.705C511.315 213.01 511.161 213.432 511.157 213.971L510.073 213.859C510.147 213.051 510.426 212.436 510.911 212.014C511.395 211.588 512.045 211.375 512.862 211.375C513.686 211.375 514.338 211.604 514.819 212.061C515.299 212.518 515.54 213.084 515.54 213.76C515.54 214.104 515.469 214.441 515.329 214.773C515.188 215.105 514.954 215.455 514.625 215.822C514.301 216.189 513.76 216.693 513.002 217.334C512.37 217.865 511.963 218.227 511.784 218.418C511.604 218.605 511.456 218.795 511.338 218.986H515.551Z" fill="black"/>
</svg>
