<svg width="1635" height="891" viewBox="0 0 1635 891" fill="none" xmlns="http://www.w3.org/2000/svg">
<g id="plant">
<rect width="1635" height="891" fill="white"/>
<g id="Group 19">
<g id="Grid">
<rect id="Rectangle 14" x="31.5" y="31.5" width="207" height="207" fill="#FFF4E9" stroke="black" stroke-width="3"/>
<rect id="Rectangle 20" x="31.5" y="238.5" width="207" height="207" fill="#FFF4E9" stroke="black" stroke-width="3"/>
<rect id="Rectangle 26" x="31.5" y="445.5" width="207" height="207" fill="#FFF4E9" stroke="black" stroke-width="3"/>
<rect id="Rectangle 32" x="31.5" y="652.5" width="207" height="207" fill="#FFF4E9" stroke="black" stroke-width="3"/>
<rect id="Rectangle 15" x="238.5" y="31.5" width="207" height="207" fill="#FFF4E9" stroke="black" stroke-width="3"/>
<rect id="Rectangle 21" x="238.5" y="238.5" width="207" height="207" fill="#FFF4E9" stroke="black" stroke-width="3"/>
<rect id="Rectangle 27" x="238.5" y="445.5" width="207" height="207" fill="#FFF4E9" stroke="black" stroke-width="3"/>
<rect id="Rectangle 33" x="238.5" y="652.5" width="207" height="207" fill="#FFF4E9" stroke="black" stroke-width="3"/>
<rect id="Rectangle 16" x="445.5" y="31.5" width="207" height="207" fill="#FFF4E9" stroke="black" stroke-width="3"/>
<rect id="Rectangle 22" x="445.5" y="238.5" width="207" height="207" fill="#FFF4E9" stroke="black" stroke-width="3"/>
<rect id="Rectangle 28" x="445.5" y="445.5" width="207" height="207" fill="#FFF4E9" stroke="black" stroke-width="3"/>
<g id="O-Rover">
<g id="OR-Frame">
<path id="OR-Body" d="M5 43.5H73C74.933 43.5 76.5 45.067 76.5 47V60C76.5 61.933 74.933 63.5 73 63.5H5C3.067 63.5 1.5 61.933 1.5 60V47C1.5 45.1273 2.97083 43.5984 4.82031 43.5049L5 43.5Z" fill="#E8871E" stroke="black" stroke-width="3"/>
<path id="OR-Head" d="M74 23.5H82C83.933 23.5 85.5 25.067 85.5 27V45C85.5 49.1421 82.1421 52.5 78 52.5H74C72.067 52.5 70.5 50.933 70.5 49V27C70.5 25.067 72.067 23.5 74 23.5Z" fill="#E8871E" stroke="black" stroke-width="3"/>
</g>
<g id="OR-Wheels">
<rect id="OR-Wheel" x="10.5" y="60.5" width="15" height="15" rx="7.5" fill="#39393A" stroke="black" stroke-width="3"/>
<rect id="OR-Wheel_2" x="51.5" y="60.5" width="15" height="15" rx="7.5" fill="#39393A" stroke="black" stroke-width="3"/>
</g>
<g id="Repair-Kit">
<path id="Vector" d="M23.0063 2.08864C24.8116 1.42049 26.8593 1.8491 28.2451 3.23417C30.184 5.1724 30.184 8.31581 28.2451 10.2541C26.3057 12.1929 23.1617 12.1929 21.2223 10.2541C19.8309 8.86324 19.4049 6.80494 20.0848 4.99532C20.2563 4.53863 20.0251 4.02941 19.5683 3.85789C19.1114 3.68637 18.602 3.91754 18.4305 4.37422C17.5091 6.82689 18.0867 9.61782 19.9728 11.5033C22.6022 14.1319 26.8651 14.1319 29.4946 11.5033C32.1237 8.87506 32.1237 4.61315 29.4946 1.98496C27.6161 0.107577 24.8396 -0.473577 22.3927 0.431989C21.9351 0.601354 21.7015 1.10949 21.8709 1.56696C22.0403 2.02442 22.5487 2.258 23.0063 2.08864Z" fill="black"/>
<path id="Vector_2" d="M21.8721 2.00137L24.1534 4.28152C24.3402 4.46844 24.3402 4.77236 24.1534 4.9592L22.9486 6.16351C22.7614 6.35073 22.458 6.35073 22.2707 6.16351L20.0017 3.89565C19.6566 3.55075 19.0971 3.5508 18.7521 3.89578C18.4071 4.24076 18.4072 4.80001 18.7523 5.14491L21.0213 7.41268C21.8986 8.28974 23.3208 8.28974 24.1982 7.41264L25.4029 6.20832C26.2798 5.3317 26.2798 3.90971 25.4032 3.03261L23.1215 0.75211C22.7764 0.407212 22.217 0.407256 21.872 0.75224C21.527 1.09722 21.527 1.65647 21.8721 2.00137ZM50.9937 35.9241C49.1884 36.5923 47.1407 36.1637 45.7549 34.7786C43.816 32.8404 43.816 29.6969 45.7549 27.7586C47.6943 25.8199 50.8383 25.8199 52.7777 27.7586C54.1691 29.1495 54.5951 31.2078 53.9153 33.0174C53.7437 33.4741 53.9749 33.9833 54.4318 34.1549C54.8886 34.3264 55.398 34.0952 55.5695 33.6385C56.4909 31.1859 55.9133 28.3949 54.0272 26.5095C51.3978 23.8809 47.1349 23.8809 44.5054 26.5095C41.8764 29.1377 41.8764 33.3996 44.5054 36.0278C46.3839 37.9052 49.1604 38.4863 51.6073 37.5808C52.0649 37.4114 52.2985 36.9033 52.1291 36.4458C51.9597 35.9883 51.4514 35.7547 50.9938 35.9241H50.9937Z" fill="black"/>
<path id="Vector_3" d="M52.1279 36.0114L49.847 33.7312C49.6598 33.5441 49.6598 33.2406 49.8468 33.0538L51.0514 31.8491C51.2386 31.6619 51.5419 31.6619 51.7292 31.8492L53.9983 34.1171C54.3434 34.462 54.9028 34.4619 55.2478 34.1169C55.5928 33.7719 55.5928 33.2127 55.2477 32.8678L52.9787 30.6C52.1013 29.723 50.6791 29.723 49.8017 30.6001L48.5973 31.8045C47.72 32.6808 47.72 34.1032 48.5974 34.9804L50.8783 37.2606C51.2234 37.6055 51.7828 37.6055 52.1279 37.2606C52.4729 36.9156 52.4729 36.3564 52.1279 36.0114L52.1279 36.0114ZM44.0066 28.7454L27.1267 11.871C26.7817 11.5261 26.2223 11.5261 25.8772 11.871C25.5321 12.216 25.5321 12.7752 25.8772 13.1201L42.7571 29.9946C43.1022 30.3395 43.6616 30.3395 44.0066 29.9946C44.3517 29.6496 44.3517 29.0904 44.0066 28.7454ZM29.7394 8.95261L47.0125 26.2201C47.3576 26.565 47.917 26.565 48.262 26.2201C48.6071 25.8751 48.6071 25.3159 48.262 24.971L30.9889 7.70348C30.6439 7.35854 30.0844 7.35854 29.7394 7.70348C29.3943 8.04842 29.3943 8.60767 29.7394 8.95261ZM40.7803 13.8054L48.4049 6.18325C48.75 5.83831 48.75 5.27906 48.4049 4.93412C48.0599 4.58918 47.5004 4.58918 47.1554 4.93412L39.5307 12.5563C39.1857 12.9012 39.1857 13.4605 39.5307 13.8054C39.8758 14.1504 40.4352 14.1504 40.7803 13.8054ZM50.0297 7.33986L42.1542 15.1365C41.8074 15.4797 41.8047 16.039 42.1481 16.3856C42.4914 16.7322 43.0509 16.7349 43.3976 16.3917L51.2732 8.59507C51.6199 8.25181 51.6226 7.69257 51.2793 7.34595C50.9359 6.99932 50.3765 6.99661 50.0297 7.33986Z" fill="black"/>
<path id="Vector_4" d="M55.7093 2.55872C55.8265 2.6759 55.9084 2.82369 55.9455 2.98519C55.9827 3.14669 55.9737 3.31539 55.9195 3.472L54.7028 6.9883C54.6591 7.11471 54.5872 7.22954 54.4926 7.32412C54.398 7.4187 54.2831 7.49057 54.1567 7.53431L50.6388 8.751C50.4821 8.8052 50.3134 8.81422 50.1518 8.77705C49.9902 8.73988 49.8423 8.65801 49.7251 8.5408L47.4247 6.24076C47.3075 6.12357 47.2257 5.97579 47.1885 5.8143C47.1513 5.65281 47.1604 5.48412 47.2146 5.32752L48.4312 1.81122C48.475 1.68482 48.5468 1.57 48.6414 1.47542C48.736 1.38085 48.8509 1.30898 48.9773 1.26526L52.4948 0.0485609C52.6514 -0.00563995 52.8202 -0.0146744 52.9818 0.0224908C53.1434 0.0596559 53.2912 0.141521 53.4084 0.258725L55.7092 2.55876L55.7093 2.55872ZM52.55 1.89877L49.961 2.79433L49.0654 5.38263L50.5838 6.9008L53.1732 6.00519L54.0688 3.41697L52.5501 1.89877H52.55ZM34.3799 25.3852L23.9151 35.8466C23.5917 36.17 23.2032 36.2117 23.0637 36.0725L19.8478 32.8576C19.7088 32.7185 19.7506 32.3304 20.0743 32.0066L30.5186 21.5661C30.8636 21.2212 30.8636 20.6619 30.5186 20.317C30.1736 19.9721 29.6141 19.9721 29.2691 20.317L18.8245 30.7576C17.8633 31.7192 17.7027 33.2107 18.5981 34.1065L21.8145 37.3218C22.7109 38.2172 24.2035 38.0566 25.1647 37.0957L35.6295 26.6343C35.9746 26.2893 35.9746 25.7301 35.6295 25.3851C35.2845 25.0402 34.725 25.0402 34.38 25.3851L34.3799 25.3852Z" fill="black"/>
</g>
</g>
<rect id="Rectangle 34" x="445.5" y="652.5" width="207" height="207" fill="#FFF4E9" stroke="black" stroke-width="3"/>
<rect id="Rectangle 17" x="652.5" y="31.5" width="207" height="207" fill="#FFF4E9" stroke="black" stroke-width="3"/>
<rect id="Rectangle 23" x="652.5" y="238.5" width="207" height="207" fill="#FFF4E9" stroke="black" stroke-width="3"/>
<rect id="Rectangle 29" x="652.5" y="445.5" width="207" height="207" fill="#FFF4E9" stroke="black" stroke-width="3"/>
<rect id="Rectangle 35" x="652.5" y="652.5" width="207" height="207" fill="#FFF4E9" stroke="black" stroke-width="3"/>
<rect id="Rectangle 18" x="859.5" y="31.5" width="207" height="207" fill="#FFF4E9" stroke="black" stroke-width="3"/>
<rect id="Rectangle 24" x="859.5" y="238.5" width="207" height="207" fill="#FFF4E9" stroke="black" stroke-width="3"/>
<rect id="Rectangle 30" x="859.5" y="445.5" width="207" height="207" fill="#FFF4E9" stroke="black" stroke-width="3"/>
<rect id="Rectangle 36" x="859.5" y="652.5" width="207" height="207" fill="#FFF4E9" stroke="black" stroke-width="3"/>
<rect id="Rectangle 19" x="1066.5" y="31.5" width="207" height="207" fill="#FFF4E9" stroke="black" stroke-width="3"/>
<rect id="Rectangle 25" x="1066.5" y="238.5" width="207" height="207" fill="#FFF4E9" stroke="black" stroke-width="3"/>
<rect id="Rectangle 31" x="1066.5" y="445.5" width="207" height="207" fill="#FFF4E9" stroke="black" stroke-width="3"/>
<rect id="Rectangle 37" x="1066.5" y="652.5" width="207" height="207" fill="#FFF4E9" stroke="black" stroke-width="3"/>
<g id="Charging-Station">
<path id="CS-Base" d="M736.5 665.5H775.5C777.433 665.5 779 667.067 779 669V743.5H733V669C733 667.067 734.567 665.5 736.5 665.5Z" fill="#747474" stroke="black" stroke-width="3"/>
<g id="CS-Body">
<path id="Rect" d="M723 729.5H788C789.933 729.5 791.5 731.067 791.5 733V743.5H719.5V733C719.5 731.067 721.067 729.5 723 729.5Z" fill="#39393A" stroke="black" stroke-width="3"/>
<path id="Vector_5" d="M755.523 680.005C755.583 680.026 755.812 680.204 755.812 680.637V693.091H764.688C764.694 693.091 764.719 693.092 764.76 693.122C764.803 693.154 764.865 693.218 764.917 693.331C765.028 693.572 765.027 693.889 764.915 694.128L755.728 713.765C755.661 713.907 755.583 713.967 755.543 713.987C755.51 714.004 755.494 714.001 755.477 713.995C755.417 713.975 755.188 713.797 755.188 713.363V700.909H746.312C746.306 700.909 746.282 700.908 746.24 700.878C746.197 700.846 746.134 700.782 746.082 700.669C745.971 700.428 745.972 700.111 746.084 699.872L755.271 680.236C755.338 680.094 755.417 680.033 755.457 680.013C755.49 679.996 755.506 679.999 755.523 680.005Z" fill="#07BEB8" stroke="black" stroke-width="2"/>
</g>
</g>
<g id="Charging-Station_2">
<path id="CS-Base_2" d="M529.5 48.5H568.5C570.433 48.5 572 50.067 572 52V126.5H526V52C526 50.067 527.567 48.5 529.5 48.5Z" fill="#747474" stroke="black" stroke-width="3"/>
<g id="CS-Body_2">
<path id="Rect_2" d="M516 112.5H581C582.933 112.5 584.5 114.067 584.5 116V126.5H512.5V116C512.5 114.067 514.067 112.5 516 112.5Z" fill="#39393A" stroke="black" stroke-width="3"/>
<path id="Vector_6" d="M548.523 63.0049C548.583 63.0256 548.812 63.2035 548.812 63.6367V76.0908H557.688C557.694 76.0908 557.719 76.0923 557.76 76.1221C557.803 76.1535 557.865 76.218 557.917 76.3311C558.028 76.572 558.027 76.8888 557.915 77.1279L548.728 96.7646C548.661 96.9067 548.583 96.967 548.543 96.9873C548.51 97.004 548.494 97.0011 548.477 96.9951C548.417 96.9747 548.188 96.7969 548.188 96.3633V83.9092H539.312C539.306 83.9092 539.282 83.9079 539.24 83.8779C539.197 83.8465 539.134 83.7821 539.082 83.6689C538.971 83.428 538.972 83.111 539.084 82.8721L548.271 63.2363C548.338 63.0937 548.417 63.033 548.457 63.0127C548.49 62.996 548.506 62.9989 548.523 63.0049Z" fill="#07BEB8" stroke="black" stroke-width="2"/>
</g>
</g>
<g id="Group 18">
<g id="M2">
<path id="M2-Frame" d="M875 455.5H937C938.933 455.5 940.5 457.067 940.5 459V522.5H871.5V459C871.5 457.067 873.067 455.5 875 455.5Z" fill="#07BEB8" stroke="black" stroke-width="3"/>
<g id="M2-Support">
<g id="Rectangle 2">
<mask id="path-40-inside-1_9_572" fill="white">
<rect x="870" y="521" width="13.948" height="14" rx="2"/>
</mask>
<rect x="870" y="521" width="13.948" height="14" rx="2" fill="#39393A" stroke="black" stroke-width="6" mask="url(#path-40-inside-1_9_572)"/>
</g>
<g id="Rectangle 3">
<mask id="path-41-inside-2_9_572" fill="white">
<rect x="928.052" y="521" width="13.948" height="14" rx="2"/>
</mask>
<rect x="928.052" y="521" width="13.948" height="14" rx="2" fill="#39393A" stroke="black" stroke-width="6" mask="url(#path-41-inside-2_9_572)"/>
</g>
</g>
<text id="M2_2" fill="black" style="white-space: pre" xml:space="preserve" font-family="Arial" font-size="12" font-weight="900" letter-spacing="0.04em"><tspan x="877" y="469.246">M2</tspan></text>
<g id="M2-Item">
<path id="path453757" fill-rule="evenodd" clip-rule="evenodd" d="M900.786 505.857C900.426 505.857 900.081 506 899.826 506.255C899.572 506.509 899.429 506.854 899.429 507.214C899.429 507.574 899.572 507.919 899.826 508.174C900.081 508.428 900.426 508.571 900.786 508.571H908.929C909.289 508.571 909.634 508.428 909.888 508.174C910.143 507.919 910.286 507.574 910.286 507.214C910.286 506.854 910.143 506.509 909.888 506.255C909.634 506 909.289 505.857 908.929 505.857H900.786Z" fill="black"/>
<path id="path453703" fill-rule="evenodd" clip-rule="evenodd" d="M899.429 476C899.176 476 898.929 476.071 898.715 476.204C898.5 476.337 898.327 476.527 898.215 476.753L894.143 484.943C894.057 485.122 894.011 485.317 894.008 485.516C894.005 485.526 894.003 485.537 894 485.548V512.643C894 513.003 894.143 513.348 894.398 513.602C894.652 513.857 894.997 514 895.357 514H930.643C931.003 514 931.348 513.857 931.602 513.602C931.857 513.348 932 513.003 932 512.643V485.548V485.545C931.999 485.336 931.95 485.13 931.857 484.943L927.785 476.753C927.673 476.527 927.5 476.337 927.286 476.204C927.071 476.071 926.824 476 926.572 476H899.429ZM900.266 478.714H908.693L907.805 484.191H897.547L900.266 478.714ZM911.439 478.714H917.278L918.193 484.191H910.554L911.439 478.714ZM920.03 478.714H925.731L928.454 484.191H920.944L920.03 478.714ZM896.714 486.905H907.572V500.429C907.572 500.697 907.651 500.959 907.801 501.182C907.95 501.405 908.162 501.579 908.409 501.682C908.657 501.785 908.93 501.812 909.193 501.759C909.457 501.707 909.698 501.578 909.888 501.388L914.357 496.919L918.826 501.388C919.016 501.578 919.258 501.707 919.521 501.759C919.784 501.812 920.057 501.785 920.305 501.682C920.553 501.579 920.765 501.405 920.914 501.182C921.063 500.959 921.143 500.697 921.143 500.429V486.905H929.286V511.286H896.714V486.905ZM910.286 486.905H918.429V497.152L915.317 494.04C915.062 493.786 914.717 493.643 914.357 493.643C913.997 493.643 913.652 493.786 913.398 494.04L910.286 497.152V486.905Z" fill="black"/>
<text id="1" fill="black" style="white-space: pre" xml:space="preserve" font-family="Arial" font-size="12" font-weight="900" letter-spacing="0.04em"><tspan x="921" y="509.246">1</tspan></text>
</g>
</g>
<g id="D2">
<path id="D2-Frame" d="M1004.01 456.324C1004.95 455.899 1006.02 455.907 1006.95 456.346L1053.49 478.32C1054.72 478.898 1055.5 480.131 1055.5 481.485V530C1055.5 531.933 1053.93 533.5 1052 533.5H957C955.067 533.5 953.5 531.933 953.5 530V481.536C953.5 480.164 954.302 478.918 955.552 478.35L1004.01 456.324Z" fill="#D9D7DD" stroke="black" stroke-width="3"/>
<g id="D2-Item-2">
<path id="path453757_2" fill-rule="evenodd" clip-rule="evenodd" d="M1017.79 518.857C1017.43 518.857 1017.08 519 1016.83 519.255C1016.57 519.509 1016.43 519.854 1016.43 520.214C1016.43 520.574 1016.57 520.919 1016.83 521.174C1017.08 521.428 1017.43 521.571 1017.79 521.571H1025.93C1026.29 521.571 1026.63 521.428 1026.89 521.174C1027.14 520.919 1027.29 520.574 1027.29 520.214C1027.29 519.854 1027.14 519.509 1026.89 519.255C1026.63 519 1026.29 518.857 1025.93 518.857H1017.79Z" fill="black"/>
<path id="path453703_2" fill-rule="evenodd" clip-rule="evenodd" d="M1016.43 489C1016.18 489 1015.93 489.071 1015.71 489.204C1015.5 489.337 1015.33 489.527 1015.21 489.753L1011.14 497.943C1011.06 498.122 1011.01 498.317 1011.01 498.516C1011.01 498.526 1011 498.537 1011 498.548V525.643C1011 526.003 1011.14 526.348 1011.4 526.602C1011.65 526.857 1012 527 1012.36 527H1047.64C1048 527 1048.35 526.857 1048.6 526.602C1048.86 526.348 1049 526.003 1049 525.643V498.548V498.545C1049 498.336 1048.95 498.13 1048.86 497.943L1044.79 489.753C1044.67 489.527 1044.5 489.337 1044.29 489.204C1044.07 489.071 1043.82 489 1043.57 489H1016.43ZM1017.27 491.714H1025.69L1024.8 497.191H1014.55L1017.27 491.714ZM1028.44 491.714H1034.28L1035.19 497.191H1027.55L1028.44 491.714ZM1037.03 491.714H1042.73L1045.45 497.191H1037.94L1037.03 491.714ZM1013.71 499.905H1024.57V513.429C1024.57 513.697 1024.65 513.959 1024.8 514.182C1024.95 514.405 1025.16 514.579 1025.41 514.682C1025.66 514.785 1025.93 514.812 1026.19 514.759C1026.46 514.707 1026.7 514.578 1026.89 514.388L1031.36 509.919L1035.83 514.388C1036.02 514.578 1036.26 514.707 1036.52 514.759C1036.78 514.812 1037.06 514.785 1037.31 514.682C1037.55 514.579 1037.76 514.405 1037.91 514.182C1038.06 513.959 1038.14 513.697 1038.14 513.429V499.905H1046.29V524.286H1013.71V499.905ZM1027.29 499.905H1035.43V510.152L1032.32 507.04C1032.06 506.786 1031.72 506.643 1031.36 506.643C1031 506.643 1030.65 506.786 1030.4 507.04L1027.29 510.152V499.905Z" fill="black"/>
<text id="2" fill="black" style="white-space: pre" xml:space="preserve" font-family="Arial" font-size="12" font-weight="900" letter-spacing="0.04em"><tspan x="1038" y="522.246">2</tspan></text>
</g>
<g id="D2-Item-1">
<path id="path453757_3" fill-rule="evenodd" clip-rule="evenodd" d="M967.786 519.857C967.426 519.857 967.081 520 966.826 520.255C966.572 520.509 966.429 520.854 966.429 521.214C966.429 521.574 966.572 521.919 966.826 522.174C967.081 522.428 967.426 522.571 967.786 522.571H975.929C976.289 522.571 976.634 522.428 976.888 522.174C977.143 521.919 977.286 521.574 977.286 521.214C977.286 520.854 977.143 520.509 976.888 520.255C976.634 520 976.289 519.857 975.929 519.857H967.786Z" fill="black"/>
<path id="path453703_3" fill-rule="evenodd" clip-rule="evenodd" d="M966.429 490C966.176 490 965.929 490.071 965.715 490.204C965.5 490.337 965.327 490.527 965.215 490.753L961.143 498.943C961.057 499.122 961.011 499.317 961.008 499.516C961.005 499.526 961.003 499.537 961 499.548V526.643C961 527.003 961.143 527.348 961.398 527.602C961.652 527.857 961.997 528 962.357 528H997.643C998.003 528 998.348 527.857 998.602 527.602C998.857 527.348 999 527.003 999 526.643V499.548V499.545C998.999 499.336 998.95 499.13 998.857 498.943L994.785 490.753C994.673 490.527 994.5 490.337 994.286 490.204C994.071 490.071 993.824 490 993.572 490H966.429ZM967.266 492.714H975.693L974.805 498.191H964.547L967.266 492.714ZM978.439 492.714H984.278L985.193 498.191H977.554L978.439 492.714ZM987.03 492.714H992.731L995.454 498.191H987.944L987.03 492.714ZM963.714 500.905H974.572V514.429C974.572 514.697 974.651 514.959 974.801 515.182C974.95 515.405 975.162 515.579 975.409 515.682C975.657 515.785 975.93 515.812 976.193 515.759C976.457 515.707 976.698 515.578 976.888 515.388L981.357 510.919L985.826 515.388C986.016 515.578 986.258 515.707 986.521 515.759C986.784 515.812 987.057 515.785 987.305 515.682C987.553 515.579 987.765 515.405 987.914 515.182C988.063 514.959 988.143 514.697 988.143 514.429V500.905H996.286V525.286H963.714V500.905ZM977.286 500.905H985.429V511.152L982.317 508.04C982.062 507.786 981.717 507.643 981.357 507.643C980.997 507.643 980.652 507.786 980.398 508.04L977.286 511.152V500.905Z" fill="black"/>
<text id="2_2" fill="black" style="white-space: pre" xml:space="preserve" font-family="Arial" font-size="12" font-weight="900" letter-spacing="0.04em"><tspan x="988" y="523.246">2</tspan></text>
</g>
<text id="D2_2" transform="translate(996 465)" fill="black" style="white-space: pre" xml:space="preserve" font-family="Arial" font-size="12" font-weight="900" letter-spacing="0.04em"><tspan x="0" y="13.2461">D2</tspan></text>
</g>
</g>
<g id="Group 17">
<g id="M3">
<path id="M3-Frame" d="M47 665.5H109C110.933 665.5 112.5 667.067 112.5 669V732.5H43.5V669C43.5 667.067 45.067 665.5 47 665.5Z" fill="#07BEB8" stroke="black" stroke-width="3"/>
<g id="M3-Support">
<g id="Rectangle 2_2">
<mask id="path-55-inside-3_9_572" fill="white">
<rect x="42" y="731" width="13.948" height="14" rx="2"/>
</mask>
<rect x="42" y="731" width="13.948" height="14" rx="2" fill="#39393A" stroke="black" stroke-width="6" mask="url(#path-55-inside-3_9_572)"/>
</g>
<g id="Rectangle 3_2">
<mask id="path-56-inside-4_9_572" fill="white">
<rect x="100.052" y="731" width="13.948" height="14" rx="2"/>
</mask>
<rect x="100.052" y="731" width="13.948" height="14" rx="2" fill="#39393A" stroke="black" stroke-width="6" mask="url(#path-56-inside-4_9_572)"/>
</g>
</g>
<text id="M3_2" fill="black" style="white-space: pre" xml:space="preserve" font-family="Arial" font-size="12" font-weight="900" letter-spacing="0.04em"><tspan x="49" y="679.246">M3</tspan></text>
<g id="M3-Item">
<path id="path453757_4" fill-rule="evenodd" clip-rule="evenodd" d="M72.7859 715.857C72.4259 715.857 72.0807 716 71.8262 716.255C71.5717 716.509 71.4287 716.854 71.4287 717.214C71.4287 717.574 71.5717 717.919 71.8262 718.174C72.0807 718.428 72.4259 718.571 72.7859 718.571H80.9287C81.2886 718.571 81.6338 718.428 81.8883 718.174C82.1429 717.919 82.2859 717.574 82.2859 717.214C82.2859 716.854 82.1429 716.509 81.8883 716.255C81.6338 716 81.2886 715.857 80.9287 715.857H72.7859Z" fill="black"/>
<path id="path453703_4" fill-rule="evenodd" clip-rule="evenodd" d="M71.4287 686C71.1764 686 70.9291 686.071 70.7147 686.204C70.5002 686.337 70.3271 686.527 70.2147 686.753L66.1433 694.943C66.0569 695.122 66.0108 695.317 66.0081 695.516C66.0053 695.526 66.0026 695.537 66 695.548V722.643C66 723.003 66.143 723.348 66.3975 723.602C66.652 723.857 66.9972 724 67.3571 724H102.643C103.003 724 103.348 723.857 103.602 723.602C103.857 723.348 104 723.003 104 722.643V695.548V695.545C103.999 695.336 103.95 695.13 103.857 694.943L99.7854 686.753C99.673 686.527 99.4999 686.337 99.2855 686.204C99.0711 686.071 98.8239 686 98.5716 686H71.4287ZM72.2663 688.714H80.6928L79.8049 694.191H69.5468L72.2663 688.714ZM83.4389 688.714H89.2783L90.1928 694.191H82.5536L83.4389 688.714ZM92.0297 688.714H97.7313L100.454 694.191H92.9442L92.0297 688.714ZM68.7145 696.905H79.5716V710.429C79.5717 710.697 79.6514 710.959 79.8005 711.182C79.9496 711.405 80.1616 711.579 80.4095 711.682C80.6574 711.785 80.9302 711.812 81.1934 711.759C81.4566 711.707 81.6985 711.578 81.8883 711.388L86.3573 706.919L90.8263 711.388C91.0162 711.578 91.258 711.707 91.5212 711.759C91.7844 711.812 92.0572 711.785 92.3051 711.682C92.5531 711.579 92.765 711.405 92.9141 711.182C93.0632 710.959 93.1429 710.697 93.143 710.429V696.905H101.286V721.286H68.7145V696.905ZM82.2859 696.905H90.4287V707.152L87.3169 704.04C87.0623 703.786 86.7172 703.643 86.3573 703.643C85.9974 703.643 85.6523 703.786 85.3978 704.04L82.2859 707.152V696.905Z" fill="black"/>
<text id="2_3" fill="black" style="white-space: pre" xml:space="preserve" font-family="Arial" font-size="12" font-weight="900" letter-spacing="0.04em"><tspan x="93" y="719.246">2</tspan></text>
</g>
</g>
<g id="D3">
<path id="D3-Frame" d="M176.012 666.324C176.948 665.899 178.024 665.907 178.954 666.346L225.494 688.32C226.719 688.898 227.5 690.131 227.5 691.485V740C227.5 741.933 225.933 743.5 224 743.5H129C127.067 743.5 125.5 741.933 125.5 740V691.536C125.5 690.164 126.302 688.918 127.552 688.35L176.012 666.324Z" fill="#D9D7DD" stroke="black" stroke-width="3"/>
<g id="D3-Item-2">
<path id="path453757_5" fill-rule="evenodd" clip-rule="evenodd" d="M189.786 728.857C189.426 728.857 189.081 729 188.826 729.255C188.572 729.509 188.429 729.854 188.429 730.214C188.429 730.574 188.572 730.919 188.826 731.174C189.081 731.428 189.426 731.571 189.786 731.571H197.929C198.289 731.571 198.634 731.428 198.888 731.174C199.143 730.919 199.286 730.574 199.286 730.214C199.286 729.854 199.143 729.509 198.888 729.255C198.634 729 198.289 728.857 197.929 728.857H189.786Z" fill="black"/>
<path id="path453703_5" fill-rule="evenodd" clip-rule="evenodd" d="M188.429 699C188.176 699 187.929 699.071 187.715 699.204C187.5 699.337 187.327 699.527 187.215 699.753L183.143 707.943C183.057 708.122 183.011 708.317 183.008 708.516C183.005 708.526 183.003 708.537 183 708.548V735.643C183 736.003 183.143 736.348 183.398 736.602C183.652 736.857 183.997 737 184.357 737H219.643C220.003 737 220.348 736.857 220.602 736.602C220.857 736.348 221 736.003 221 735.643V708.548V708.545C220.999 708.336 220.95 708.13 220.857 707.943L216.785 699.753C216.673 699.527 216.5 699.337 216.286 699.204C216.071 699.071 215.824 699 215.572 699H188.429ZM189.266 701.714H197.693L196.805 707.191H186.547L189.266 701.714ZM200.439 701.714H206.278L207.193 707.191H199.554L200.439 701.714ZM209.03 701.714H214.731L217.454 707.191H209.944L209.03 701.714ZM185.714 709.905H196.572V723.429C196.572 723.697 196.651 723.959 196.801 724.182C196.95 724.405 197.162 724.579 197.409 724.682C197.657 724.785 197.93 724.812 198.193 724.759C198.457 724.707 198.698 724.578 198.888 724.388L203.357 719.919L207.826 724.388C208.016 724.578 208.258 724.707 208.521 724.759C208.784 724.812 209.057 724.785 209.305 724.682C209.553 724.579 209.765 724.405 209.914 724.182C210.063 723.959 210.143 723.697 210.143 723.429V709.905H218.286V734.286H185.714V709.905ZM199.286 709.905H207.429V720.152L204.317 717.04C204.062 716.786 203.717 716.643 203.357 716.643C202.997 716.643 202.652 716.786 202.398 717.04L199.286 720.152V709.905Z" fill="black"/>
<text id="3" fill="black" style="white-space: pre" xml:space="preserve" font-family="Arial" font-size="12" font-weight="900" letter-spacing="0.04em"><tspan x="210" y="732.246">3</tspan></text>
</g>
<g id="D3-Item-1">
<path id="path453757_6" fill-rule="evenodd" clip-rule="evenodd" d="M139.786 728.857C139.426 728.857 139.081 729 138.826 729.255C138.572 729.509 138.429 729.854 138.429 730.214C138.429 730.574 138.572 730.919 138.826 731.174C139.081 731.428 139.426 731.571 139.786 731.571H147.929C148.289 731.571 148.634 731.428 148.888 731.174C149.143 730.919 149.286 730.574 149.286 730.214C149.286 729.854 149.143 729.509 148.888 729.255C148.634 729 148.289 728.857 147.929 728.857H139.786Z" fill="black"/>
<path id="path453703_6" fill-rule="evenodd" clip-rule="evenodd" d="M138.429 699C138.176 699 137.929 699.071 137.715 699.204C137.5 699.337 137.327 699.527 137.215 699.753L133.143 707.943C133.057 708.122 133.011 708.317 133.008 708.516C133.005 708.526 133.003 708.537 133 708.548V735.643C133 736.003 133.143 736.348 133.398 736.602C133.652 736.857 133.997 737 134.357 737H169.643C170.003 737 170.348 736.857 170.602 736.602C170.857 736.348 171 736.003 171 735.643V708.548V708.545C170.999 708.336 170.95 708.13 170.857 707.943L166.785 699.753C166.673 699.527 166.5 699.337 166.286 699.204C166.071 699.071 165.824 699 165.572 699H138.429ZM139.266 701.714H147.693L146.805 707.191H136.547L139.266 701.714ZM150.439 701.714H156.278L157.193 707.191H149.554L150.439 701.714ZM159.03 701.714H164.731L167.454 707.191H159.944L159.03 701.714ZM135.714 709.905H146.572V723.429C146.572 723.697 146.651 723.959 146.801 724.182C146.95 724.405 147.162 724.579 147.409 724.682C147.657 724.785 147.93 724.812 148.193 724.759C148.457 724.707 148.698 724.578 148.888 724.388L153.357 719.919L157.826 724.388C158.016 724.578 158.258 724.707 158.521 724.759C158.784 724.812 159.057 724.785 159.305 724.682C159.553 724.579 159.765 724.405 159.914 724.182C160.063 723.959 160.143 723.697 160.143 723.429V709.905H168.286V734.286H135.714V709.905ZM149.286 709.905H157.429V720.152L154.317 717.04C154.062 716.786 153.717 716.643 153.357 716.643C152.997 716.643 152.652 716.786 152.398 717.04L149.286 720.152V709.905Z" fill="black"/>
<text id="3_2" fill="black" style="white-space: pre" xml:space="preserve" font-family="Arial" font-size="12" font-weight="900" letter-spacing="0.04em"><tspan x="160" y="732.246">3</tspan></text>
</g>
<text id="D3_2" transform="translate(168 675)" fill="black" style="white-space: pre" xml:space="preserve" font-family="Arial" font-size="12" font-weight="900" letter-spacing="0.04em"><tspan x="0" y="13.2461">D3</tspan></text>
</g>
</g>
<text id="Target" fill="black" style="white-space: pre" xml:space="preserve" font-family="Arial" font-size="40" font-weight="900" letter-spacing="0.04em"><tspan x="1081" y="707.82">Target</tspan></text>
<g id="B-Rover">
<g id="Item-00">
<path id="path453757_7" fill-rule="evenodd" clip-rule="evenodd" d="M17.7069 50.7101C17.4572 50.7101 17.2178 50.8093 17.0412 50.9859C16.8647 51.1624 16.7655 51.4018 16.7655 51.6515C16.7655 51.9012 16.8647 52.1406 17.0412 52.3172C17.2178 52.4937 17.4572 52.5929 17.7069 52.5929H23.3551C23.6048 52.5929 23.8442 52.4937 24.0207 52.3172C24.1973 52.1406 24.2965 51.9012 24.2965 51.6515C24.2965 51.4018 24.1973 51.1624 24.0207 50.9859C23.8442 50.8093 23.6048 50.7101 23.3551 50.7101H17.7069Z" fill="black"/>
<path id="path453703_7" fill-rule="evenodd" clip-rule="evenodd" d="M16.7656 30C16.5906 30.0002 16.419 30.0491 16.2703 30.1413C16.1215 30.2336 16.0015 30.3655 15.9235 30.5222L13.0994 36.2035C13.0395 36.3274 13.0075 36.463 13.0056 36.6006C13.0037 36.6079 13.0018 36.6153 13 36.6227V55.417C13 55.6666 13.0992 55.9061 13.2757 56.0826C13.4523 56.2591 13.6917 56.3583 13.9414 56.3583H38.417C38.6667 56.3583 38.9061 56.2591 39.0826 56.0826C39.2592 55.9061 39.3584 55.6666 39.3584 55.417V36.6227V36.6208C39.3579 36.4759 39.3239 36.333 39.2591 36.2034L36.435 30.5221C36.357 30.3654 36.237 30.2336 36.0882 30.1413C35.9395 30.0491 35.768 30.0002 35.593 30H16.7656ZM17.3466 31.8827H23.1916L22.5756 35.6813H15.4602L17.3466 31.8827ZM25.0964 31.8827H29.1468L29.7812 35.6813H24.4823L25.0964 31.8827ZM31.0553 31.8827H35.0102L36.8984 35.6813H31.6896L31.0553 31.8827ZM14.8829 37.5641H22.4138V46.9447C22.4139 47.1308 22.4692 47.3128 22.5726 47.4675C22.6761 47.6223 22.8231 47.7429 22.995 47.8141C23.167 47.8853 23.3562 47.904 23.5388 47.8677C23.7214 47.8314 23.8891 47.7418 24.0208 47.6103L27.1207 44.5104L30.2206 47.6103C30.3523 47.7418 30.52 47.8314 30.7026 47.8677C30.8851 47.904 31.0744 47.8853 31.2463 47.8141C31.4183 47.7429 31.5653 47.6223 31.6688 47.4675C31.7722 47.3128 31.8275 47.1308 31.8275 46.9447V37.5641H37.4758V54.4756H14.8829V37.5641ZM24.2966 37.5641H29.9448V44.6722L27.7863 42.5136C27.6097 42.3371 27.3703 42.238 27.1207 42.238C26.8711 42.238 26.6316 42.3371 26.4551 42.5136L24.2966 44.6722V37.5641Z" fill="black"/>
<text id="0" fill="black" style="white-space: pre" xml:space="preserve" font-family="Arial" font-size="7" font-weight="900" letter-spacing="0.04em"><tspan x="31.9592" y="53.2787">0</tspan></text>
</g>
<g id="Item-01">
<path id="path453757_8" fill-rule="evenodd" clip-rule="evenodd" d="M17.7069 20.7101C17.4572 20.7101 17.2178 20.8093 17.0412 20.9859C16.8647 21.1624 16.7655 21.4018 16.7655 21.6515C16.7655 21.9012 16.8647 22.1406 17.0412 22.3172C17.2178 22.4937 17.4572 22.5929 17.7069 22.5929H23.3551C23.6048 22.5929 23.8442 22.4937 24.0207 22.3172C24.1973 22.1406 24.2965 21.9012 24.2965 21.6515C24.2965 21.4018 24.1973 21.1624 24.0207 20.9859C23.8442 20.8093 23.6048 20.7101 23.3551 20.7101H17.7069Z" fill="black"/>
<path id="path453703_8" fill-rule="evenodd" clip-rule="evenodd" d="M16.7656 0C16.5906 0.000159015 16.419 0.0491054 16.2703 0.141344C16.1215 0.233582 16.0015 0.365457 15.9235 0.522167L13.0994 6.20349C13.0395 6.32742 13.0075 6.46299 13.0056 6.60063C13.0037 6.60795 13.0018 6.6153 13 6.62266V25.417C13 25.6666 13.0992 25.9061 13.2757 26.0826C13.4523 26.2591 13.6917 26.3583 13.9414 26.3583H38.417C38.6667 26.3583 38.9061 26.2591 39.0826 26.0826C39.2592 25.9061 39.3584 25.6666 39.3584 25.417V6.62266V6.62077C39.3579 6.47586 39.3239 6.33303 39.2591 6.2034L36.435 0.522081C36.357 0.365405 36.237 0.233565 36.0882 0.141344C35.9395 0.0491222 35.768 0.000173908 35.593 0H16.7656ZM17.3466 1.88274H23.1916L22.5756 5.68132H15.4602L17.3466 1.88274ZM25.0964 1.88274H29.1468L29.7812 5.68132H24.4823L25.0964 1.88274ZM31.0553 1.88274H35.0102L36.8984 5.68132H31.6896L31.0553 1.88274ZM14.8829 7.56406H22.4138V16.9447C22.4139 17.1308 22.4692 17.3128 22.5726 17.4675C22.6761 17.6223 22.8231 17.7429 22.995 17.8141C23.167 17.8853 23.3562 17.904 23.5388 17.8677C23.7214 17.8314 23.8891 17.7418 24.0208 17.6103L27.1207 14.5104L30.2206 17.6103C30.3523 17.7418 30.52 17.8314 30.7026 17.8677C30.8851 17.904 31.0744 17.8853 31.2463 17.8141C31.4183 17.7429 31.5653 17.6223 31.6688 17.4675C31.7722 17.3128 31.8275 17.1308 31.8275 16.9447V7.56406H37.4758V24.4756H14.8829V7.56406ZM24.2966 7.56406H29.9448V14.6722L27.7863 12.5136C27.6097 12.3371 27.3703 12.238 27.1207 12.238C26.8711 12.238 26.6316 12.3371 26.4551 12.5136L24.2966 14.6722V7.56406Z" fill="black"/>
<text id="0_2" fill="black" style="white-space: pre" xml:space="preserve" font-family="Arial" font-size="7" font-weight="900" letter-spacing="0.04em"><tspan x="31.9592" y="23.2787">0</tspan></text>
</g>
<g id="Item-10">
<path id="path453757_9" fill-rule="evenodd" clip-rule="evenodd" d="M48.9209 50.7101C48.6712 50.7101 48.4318 50.8093 48.2552 50.9859C48.0787 51.1624 47.9795 51.4018 47.9795 51.6515C47.9795 51.9012 48.0787 52.1406 48.2552 52.3172C48.4318 52.4937 48.6712 52.5929 48.9209 52.5929H54.5691C54.8188 52.5929 55.0582 52.4937 55.2347 52.3172C55.4113 52.1406 55.5105 51.9012 55.5105 51.6515C55.5105 51.4018 55.4113 51.1624 55.2347 50.9859C55.0582 50.8093 54.8188 50.7101 54.5691 50.7101H48.9209Z" fill="black"/>
<path id="path453703_9" fill-rule="evenodd" clip-rule="evenodd" d="M47.9796 30C47.8046 30.0002 47.633 30.0491 47.4843 30.1413C47.3355 30.2336 47.2155 30.3655 47.1375 30.5222L44.3134 36.2035C44.2535 36.3274 44.2215 36.463 44.2196 36.6006C44.2176 36.6079 44.2158 36.6153 44.214 36.6227V55.417C44.214 55.6666 44.3132 55.9061 44.4897 56.0826C44.6663 56.2591 44.9057 56.3583 45.1554 56.3583H69.631C69.8807 56.3583 70.1201 56.2591 70.2966 56.0826C70.4732 55.9061 70.5724 55.6666 70.5724 55.417V36.6227V36.6208C70.5718 36.4759 70.5379 36.333 70.4731 36.2034L67.649 30.5221C67.571 30.3654 67.451 30.2336 67.3022 30.1413C67.1535 30.0491 66.982 30.0002 66.807 30H47.9796ZM48.5606 31.8827H54.4055L53.7896 35.6813H46.6742L48.5606 31.8827ZM56.3104 31.8827H60.3608L60.9951 35.6813H55.6963L56.3104 31.8827ZM62.2693 31.8827H66.2242L68.1124 35.6813H62.9036L62.2693 31.8827ZM46.0968 37.5641H53.6278V46.9447C53.6279 47.1308 53.6831 47.3128 53.7866 47.4675C53.89 47.6223 54.037 47.7429 54.209 47.8141C54.381 47.8853 54.5702 47.904 54.7528 47.8677C54.9354 47.8314 55.1031 47.7418 55.2348 47.6103L58.3347 44.5104L61.4346 47.6103C61.5662 47.7418 61.734 47.8314 61.9166 47.8677C62.0991 47.904 62.2883 47.8853 62.4603 47.8141C62.6323 47.7429 62.7793 47.6223 62.8827 47.4675C62.9862 47.3128 63.0415 47.1308 63.0415 46.9447V37.5641H68.6898V54.4756H46.0968V37.5641ZM55.5106 37.5641H61.1588V44.6722L59.0002 42.5136C58.8237 42.3371 58.5843 42.238 58.3347 42.238C58.085 42.238 57.8456 42.3371 57.6691 42.5136L55.5106 44.6722V37.5641Z" fill="black"/>
<text id="1_2" fill="black" style="white-space: pre" xml:space="preserve" font-family="Arial" font-size="7" font-weight="900" letter-spacing="0.04em"><tspan x="62.9423" y="53.274">1</tspan></text>
</g>
<g id="Item-11">
<path id="path453757_10" fill-rule="evenodd" clip-rule="evenodd" d="M48.9209 20.7101C48.6712 20.7101 48.4318 20.8093 48.2552 20.9859C48.0787 21.1624 47.9795 21.4018 47.9795 21.6515C47.9795 21.9012 48.0787 22.1406 48.2552 22.3172C48.4318 22.4937 48.6712 22.5929 48.9209 22.5929H54.5691C54.8188 22.5929 55.0582 22.4937 55.2347 22.3172C55.4113 22.1406 55.5105 21.9012 55.5105 21.6515C55.5105 21.4018 55.4113 21.1624 55.2347 20.9859C55.0582 20.8093 54.8188 20.7101 54.5691 20.7101H48.9209Z" fill="black"/>
<path id="path453703_10" fill-rule="evenodd" clip-rule="evenodd" d="M47.9796 0C47.8046 0.000159015 47.633 0.0491054 47.4843 0.141344C47.3355 0.233582 47.2155 0.365457 47.1375 0.522167L44.3134 6.20349C44.2535 6.32742 44.2215 6.46299 44.2196 6.60063C44.2176 6.60795 44.2158 6.6153 44.214 6.62266V25.417C44.214 25.6666 44.3132 25.9061 44.4897 26.0826C44.6663 26.2591 44.9057 26.3583 45.1554 26.3583H69.631C69.8807 26.3583 70.1201 26.2591 70.2966 26.0826C70.4732 25.9061 70.5724 25.6666 70.5724 25.417V6.62266V6.62077C70.5718 6.47586 70.5379 6.33303 70.4731 6.2034L67.649 0.522081C67.571 0.365405 67.451 0.233565 67.3022 0.141344C67.1535 0.0491222 66.982 0.000173908 66.807 0H47.9796ZM48.5606 1.88274H54.4055L53.7896 5.68132H46.6742L48.5606 1.88274ZM56.3104 1.88274H60.3608L60.9951 5.68132H55.6963L56.3104 1.88274ZM62.2693 1.88274H66.2242L68.1124 5.68132H62.9036L62.2693 1.88274ZM46.0968 7.56406H53.6278V16.9447C53.6279 17.1308 53.6831 17.3128 53.7866 17.4675C53.89 17.6223 54.037 17.7429 54.209 17.8141C54.381 17.8853 54.5702 17.904 54.7528 17.8677C54.9354 17.8314 55.1031 17.7418 55.2348 17.6103L58.3347 14.5104L61.4346 17.6103C61.5662 17.7418 61.734 17.8314 61.9166 17.8677C62.0991 17.904 62.2883 17.8853 62.4603 17.8141C62.6323 17.7429 62.7793 17.6223 62.8827 17.4675C62.9862 17.3128 63.0415 17.1308 63.0415 16.9447V7.56406H68.6898V24.4756H46.0968V7.56406ZM55.5106 7.56406H61.1588V14.6722L59.0002 12.5136C58.8237 12.3371 58.5843 12.238 58.3347 12.238C58.085 12.238 57.8456 12.3371 57.6691 12.5136L55.5106 14.6722V7.56406Z" fill="black"/>
<text id="1_3" fill="black" style="white-space: pre" xml:space="preserve" font-family="Arial" font-size="7" font-weight="900" letter-spacing="0.04em"><tspan x="62.9423" y="23.274">1</tspan></text>
</g>
<g id="Item-20">
<path id="path453757_11" fill-rule="evenodd" clip-rule="evenodd" d="M80.1347 50.7101C79.8851 50.7101 79.6456 50.8093 79.4691 50.9859C79.2926 51.1624 79.1934 51.4018 79.1934 51.6515C79.1934 51.9012 79.2926 52.1406 79.4691 52.3172C79.6456 52.4937 79.8851 52.5929 80.1347 52.5929H85.783C86.0326 52.5929 86.2721 52.4937 86.4486 52.3172C86.6251 52.1406 86.7243 51.9012 86.7243 51.6515C86.7243 51.4018 86.6251 51.1624 86.4486 50.9859C86.2721 50.8093 86.0326 50.7101 85.783 50.7101H80.1347Z" fill="black"/>
<path id="path453703_11" fill-rule="evenodd" clip-rule="evenodd" d="M79.1933 30C79.0183 30.0002 78.8468 30.0491 78.698 30.1413C78.5493 30.2336 78.4292 30.3655 78.3512 30.5222L75.5271 36.2035C75.4672 36.3274 75.4352 36.463 75.4334 36.6006C75.4314 36.6079 75.4295 36.6153 75.4277 36.6227V55.417C75.4278 55.6666 75.5269 55.9061 75.7035 56.0826C75.88 56.2591 76.1194 56.3583 76.3691 56.3583H100.845C101.094 56.3583 101.334 56.2591 101.51 56.0826C101.687 55.9061 101.786 55.6666 101.786 55.417V36.6227V36.6208C101.786 36.4759 101.752 36.333 101.687 36.2034L98.8627 30.5221C98.7848 30.3654 98.6647 30.2336 98.516 30.1413C98.3672 30.0491 98.1958 30.0002 98.0208 30H79.1933ZM79.7743 31.8827H85.6193L85.0034 35.6813H77.8879L79.7743 31.8827ZM87.5241 31.8827H91.5746L92.2089 35.6813H86.91L87.5241 31.8827ZM93.4831 31.8827H97.4379L99.3262 35.6813H94.1174L93.4831 31.8827ZM77.3106 37.5641H84.8416V46.9447C84.8416 47.1308 84.8969 47.3128 85.0003 47.4675C85.1038 47.6223 85.2508 47.7429 85.4228 47.8141C85.5947 47.8853 85.784 47.904 85.9665 47.8677C86.1491 47.8314 86.3168 47.7418 86.4485 47.6103L89.5484 44.5104L92.6483 47.6103C92.78 47.7418 92.9477 47.8314 93.1303 47.8677C93.3129 47.904 93.5021 47.8853 93.6741 47.8141C93.846 47.7429 93.993 47.6223 94.0965 47.4675C94.1999 47.3128 94.2552 47.1308 94.2553 46.9447V37.5641H99.9035V54.4756H77.3106V37.5641ZM86.7243 37.5641H92.3725V44.6722L90.214 42.5136C90.0374 42.3371 89.798 42.238 89.5484 42.238C89.2988 42.238 89.0594 42.3371 88.8828 42.5136L86.7243 44.6722V37.5641Z" fill="black"/>
<text id="2_4" fill="black" style="white-space: pre" xml:space="preserve" font-family="Arial" font-size="7" font-weight="900" letter-spacing="0.04em"><tspan x="94.1561" y="53.274">2</tspan></text>
</g>
<g id="Item-21">
<path id="path453757_12" fill-rule="evenodd" clip-rule="evenodd" d="M80.1347 20.7101C79.8851 20.7101 79.6456 20.8093 79.4691 20.9859C79.2926 21.1624 79.1934 21.4018 79.1934 21.6515C79.1934 21.9012 79.2926 22.1406 79.4691 22.3172C79.6456 22.4937 79.8851 22.5929 80.1347 22.5929H85.783C86.0326 22.5929 86.2721 22.4937 86.4486 22.3172C86.6251 22.1406 86.7243 21.9012 86.7243 21.6515C86.7243 21.4018 86.6251 21.1624 86.4486 20.9859C86.2721 20.8093 86.0326 20.7101 85.783 20.7101H80.1347Z" fill="black"/>
<path id="path453703_12" fill-rule="evenodd" clip-rule="evenodd" d="M79.1933 0C79.0183 0.000159015 78.8468 0.0491054 78.698 0.141344C78.5493 0.233582 78.4292 0.365457 78.3512 0.522167L75.5271 6.20349C75.4672 6.32742 75.4352 6.46299 75.4334 6.60063C75.4314 6.60795 75.4295 6.6153 75.4277 6.62266V25.417C75.4278 25.6666 75.5269 25.9061 75.7035 26.0826C75.88 26.2591 76.1194 26.3583 76.3691 26.3583H100.845C101.094 26.3583 101.334 26.2591 101.51 26.0826C101.687 25.9061 101.786 25.6666 101.786 25.417V6.62266V6.62077C101.786 6.47586 101.752 6.33303 101.687 6.2034L98.8627 0.522081C98.7848 0.365405 98.6647 0.233565 98.516 0.141344C98.3672 0.0491222 98.1958 0.000173908 98.0208 0H79.1933ZM79.7743 1.88274H85.6193L85.0034 5.68132H77.8879L79.7743 1.88274ZM87.5241 1.88274H91.5746L92.2089 5.68132H86.91L87.5241 1.88274ZM93.4831 1.88274H97.4379L99.3262 5.68132H94.1174L93.4831 1.88274ZM77.3106 7.56406H84.8416V16.9447C84.8416 17.1308 84.8969 17.3128 85.0003 17.4675C85.1038 17.6223 85.2508 17.7429 85.4228 17.8141C85.5947 17.8853 85.784 17.904 85.9665 17.8677C86.1491 17.8314 86.3168 17.7418 86.4485 17.6103L89.5484 14.5104L92.6483 17.6103C92.78 17.7418 92.9477 17.8314 93.1303 17.8677C93.3129 17.904 93.5021 17.8853 93.6741 17.8141C93.846 17.7429 93.993 17.6223 94.0965 17.4675C94.1999 17.3128 94.2552 17.1308 94.2553 16.9447V7.56406H99.9035V24.4756H77.3106V7.56406ZM86.7243 7.56406H92.3725V14.6722L90.214 12.5136C90.0374 12.3371 89.798 12.238 89.5484 12.238C89.2988 12.238 89.0594 12.3371 88.8828 12.5136L86.7243 14.6722V7.56406Z" fill="black"/>
<text id="2_5" fill="black" style="white-space: pre" xml:space="preserve" font-family="Arial" font-size="7" font-weight="900" letter-spacing="0.04em"><tspan x="94.1561" y="23.274">2</tspan></text>
</g>
<g id="Item-30">
<path id="path453757_13" fill-rule="evenodd" clip-rule="evenodd" d="M111.348 50.7101C111.099 50.7101 110.859 50.8093 110.683 50.9859C110.506 51.1624 110.407 51.4018 110.407 51.6515C110.407 51.9012 110.506 52.1406 110.683 52.3172C110.859 52.4937 111.099 52.5929 111.348 52.5929H116.997C117.246 52.5929 117.486 52.4937 117.662 52.3172C117.839 52.1406 117.938 51.9012 117.938 51.6515C117.938 51.4018 117.839 51.1624 117.662 50.9859C117.486 50.8093 117.246 50.7101 116.997 50.7101H111.348Z" fill="black"/>
<path id="path453703_13" fill-rule="evenodd" clip-rule="evenodd" d="M110.407 30C110.232 30.0002 110.061 30.0491 109.912 30.1413C109.763 30.2336 109.643 30.3655 109.565 30.5222L106.741 36.2035C106.681 36.3274 106.649 36.463 106.647 36.6006C106.645 36.6079 106.643 36.6153 106.642 36.6227V55.417C106.642 55.6666 106.741 55.9061 106.917 56.0826C107.094 56.2591 107.333 56.3583 107.583 56.3583H132.059C132.308 56.3583 132.548 56.2591 132.724 56.0826C132.901 55.9061 133 55.6666 133 55.417V36.6227V36.6208C132.999 36.4759 132.965 36.333 132.901 36.2034L130.077 30.5221C129.999 30.3654 129.879 30.2336 129.73 30.1413C129.581 30.0491 129.41 30.0002 129.235 30H110.407ZM110.988 31.8827H116.833L116.217 35.6813H109.102L110.988 31.8827ZM118.738 31.8827H122.788L123.423 35.6813H118.124L118.738 31.8827ZM124.697 31.8827H128.652L130.54 35.6813H125.331L124.697 31.8827ZM108.524 37.5641H116.055V46.9447C116.056 47.1308 116.111 47.3128 116.214 47.4675C116.318 47.6223 116.465 47.7429 116.637 47.8141C116.809 47.8853 116.998 47.904 117.18 47.8677C117.363 47.8314 117.531 47.7418 117.662 47.6103L120.762 44.5104L123.862 47.6103C123.994 47.7418 124.162 47.8314 124.344 47.8677C124.527 47.904 124.716 47.8853 124.888 47.8141C125.06 47.7429 125.207 47.6223 125.31 47.4675C125.414 47.3128 125.469 47.1308 125.469 46.9447V37.5641H131.117V54.4756H108.524V37.5641ZM117.938 37.5641H123.586V44.6722L121.428 42.5136C121.251 42.3371 121.012 42.238 120.762 42.238C120.513 42.238 120.273 42.3371 120.097 42.5136L117.938 44.6722V37.5641Z" fill="black"/>
<text id="3_3" fill="black" style="white-space: pre" xml:space="preserve" font-family="Arial" font-size="7" font-weight="900" letter-spacing="0.04em"><tspan x="125.37" y="53.274">3</tspan></text>
</g>
<g id="Item-31">
<path id="path453757_14" fill-rule="evenodd" clip-rule="evenodd" d="M111.348 20.7101C111.099 20.7101 110.859 20.8093 110.683 20.9859C110.506 21.1624 110.407 21.4018 110.407 21.6515C110.407 21.9012 110.506 22.1406 110.683 22.3172C110.859 22.4937 111.099 22.5929 111.348 22.5929H116.997C117.246 22.5929 117.486 22.4937 117.662 22.3172C117.839 22.1406 117.938 21.9012 117.938 21.6515C117.938 21.4018 117.839 21.1624 117.662 20.9859C117.486 20.8093 117.246 20.7101 116.997 20.7101H111.348Z" fill="black"/>
<path id="path453703_14" fill-rule="evenodd" clip-rule="evenodd" d="M110.407 0C110.232 0.000159015 110.061 0.0491054 109.912 0.141344C109.763 0.233582 109.643 0.365457 109.565 0.522167L106.741 6.20349C106.681 6.32742 106.649 6.46299 106.647 6.60063C106.645 6.60795 106.643 6.6153 106.642 6.62266V25.417C106.642 25.6666 106.741 25.9061 106.917 26.0826C107.094 26.2591 107.333 26.3583 107.583 26.3583H132.059C132.308 26.3583 132.548 26.2591 132.724 26.0826C132.901 25.9061 133 25.6666 133 25.417V6.62266V6.62077C132.999 6.47586 132.965 6.33303 132.901 6.2034L130.077 0.522081C129.999 0.365405 129.879 0.233565 129.73 0.141344C129.581 0.0491222 129.41 0.000173908 129.235 0H110.407ZM110.988 1.88274H116.833L116.217 5.68132H109.102L110.988 1.88274ZM118.738 1.88274H122.788L123.423 5.68132H118.124L118.738 1.88274ZM124.697 1.88274H128.652L130.54 5.68132H125.331L124.697 1.88274ZM108.524 7.56406H116.055V16.9447C116.056 17.1308 116.111 17.3128 116.214 17.4675C116.318 17.6223 116.465 17.7429 116.637 17.8141C116.809 17.8853 116.998 17.904 117.18 17.8677C117.363 17.8314 117.531 17.7418 117.662 17.6103L120.762 14.5104L123.862 17.6103C123.994 17.7418 124.162 17.8314 124.344 17.8677C124.527 17.904 124.716 17.8853 124.888 17.8141C125.06 17.7429 125.207 17.6223 125.31 17.4675C125.414 17.3128 125.469 17.1308 125.469 16.9447V7.56406H131.117V24.4756H108.524V7.56406ZM117.938 7.56406H123.586V14.6722L121.428 12.5136C121.251 12.3371 121.012 12.238 120.762 12.238C120.513 12.238 120.273 12.3371 120.097 12.5136L117.938 14.6722V7.56406Z" fill="black"/>
<text id="3_4" fill="black" style="white-space: pre" xml:space="preserve" font-family="Arial" font-size="7" font-weight="900" letter-spacing="0.04em"><tspan x="125.37" y="23.274">3</tspan></text>
</g>
<g id="BR-Frame">
<path id="BR-Body" d="M5 61.5H152C153.933 61.5 155.5 63.067 155.5 65V78C155.5 79.933 153.933 81.5 152 81.5H5C3.067 81.5 1.5 79.933 1.5 78V65C1.5 63.067 3.067 61.5 5 61.5Z" fill="#07BEB8" stroke="black" stroke-width="3"/>
<path id="BR-Head" d="M153 40.5H161C162.933 40.5 164.5 42.067 164.5 44V62C164.5 66.1421 161.142 69.5 157 69.5H153C151.067 69.5 149.5 67.933 149.5 66V44C149.5 42.067 151.067 40.5 153 40.5Z" fill="#07BEB8" stroke="black" stroke-width="3"/>
</g>
<g id="BR-Wheels">
<rect id="BR-Wheel" x="8.5" y="78.5" width="15" height="15" rx="7.5" fill="#39393A" stroke="black" stroke-width="3"/>
<rect id="BR-Wheel_2" x="103.5" y="78.5" width="15" height="15" rx="7.5" fill="#39393A" stroke="black" stroke-width="3"/>
<rect id="BR-Wheel_3" x="36.5" y="78.5" width="15" height="15" rx="7.5" fill="#39393A" stroke="black" stroke-width="3"/>
<rect id="BR-Wheel_4" x="131.5" y="78.5" width="15" height="15" rx="7.5" fill="#39393A" stroke="black" stroke-width="3"/>
</g>
</g>
</g>
<g id="M1">
<path id="M1-Frame" d="M461 250.5H523C524.933 250.5 526.5 252.067 526.5 254V317.5H457.5V254C457.5 252.067 459.067 250.5 461 250.5Z" fill="#07BEB8" stroke="black" stroke-width="3"/>
<g id="M1-Support">
<g id="Rectangle 2_3">
<mask id="path-101-inside-5_9_572" fill="white">
<rect x="456" y="316" width="13.948" height="14" rx="2"/>
</mask>
<rect x="456" y="316" width="13.948" height="14" rx="2" fill="#39393A" stroke="black" stroke-width="6" mask="url(#path-101-inside-5_9_572)"/>
</g>
<g id="Rectangle 3_3">
<mask id="path-102-inside-6_9_572" fill="white">
<rect x="514.052" y="316" width="13.948" height="14" rx="2"/>
</mask>
<rect x="514.052" y="316" width="13.948" height="14" rx="2" fill="#39393A" stroke="black" stroke-width="6" mask="url(#path-102-inside-6_9_572)"/>
</g>
</g>
<text id="M1_2" fill="black" style="white-space: pre" xml:space="preserve" font-family="Arial" font-size="12" font-weight="900" letter-spacing="0.04em"><tspan x="463" y="264.246">M1</tspan></text>
<g id="M1-Item">
<path id="path453757_15" fill-rule="evenodd" clip-rule="evenodd" d="M486.786 300.857C486.426 300.857 486.081 301 485.826 301.255C485.572 301.509 485.429 301.854 485.429 302.214C485.429 302.574 485.572 302.919 485.826 303.174C486.081 303.428 486.426 303.571 486.786 303.571H494.929C495.289 303.571 495.634 303.428 495.888 303.174C496.143 302.919 496.286 302.574 496.286 302.214C496.286 301.854 496.143 301.509 495.888 301.255C495.634 301 495.289 300.857 494.929 300.857H486.786Z" fill="black"/>
<path id="path453703_15" fill-rule="evenodd" clip-rule="evenodd" d="M485.429 271C485.176 271 484.929 271.071 484.715 271.204C484.5 271.337 484.327 271.527 484.215 271.753L480.143 279.943C480.057 280.122 480.011 280.317 480.008 280.516C480.005 280.526 480.003 280.537 480 280.548V307.643C480 308.003 480.143 308.348 480.398 308.602C480.652 308.857 480.997 309 481.357 309H516.643C517.003 309 517.348 308.857 517.602 308.602C517.857 308.348 518 308.003 518 307.643V280.548V280.545C517.999 280.336 517.95 280.13 517.857 279.943L513.785 271.753C513.673 271.527 513.5 271.337 513.286 271.204C513.071 271.071 512.824 271 512.572 271H485.429ZM486.266 273.714H494.693L493.805 279.191H483.547L486.266 273.714ZM497.439 273.714H503.278L504.193 279.191H496.554L497.439 273.714ZM506.03 273.714H511.731L514.454 279.191H506.944L506.03 273.714ZM482.714 281.905H493.572V295.429C493.572 295.697 493.651 295.959 493.801 296.182C493.95 296.405 494.162 296.579 494.409 296.682C494.657 296.785 494.93 296.812 495.193 296.759C495.457 296.707 495.698 296.578 495.888 296.388L500.357 291.919L504.826 296.388C505.016 296.578 505.258 296.707 505.521 296.759C505.784 296.812 506.057 296.785 506.305 296.682C506.553 296.579 506.765 296.405 506.914 296.182C507.063 295.959 507.143 295.697 507.143 295.429V281.905H515.286V306.286H482.714V281.905ZM496.286 281.905H504.429V292.152L501.317 289.04C501.062 288.786 500.717 288.643 500.357 288.643C499.997 288.643 499.652 288.786 499.398 289.04L496.286 292.152V281.905Z" fill="black"/>
<text id="0_3" fill="black" style="white-space: pre" xml:space="preserve" font-family="Arial" font-size="12" font-weight="900" letter-spacing="0.04em"><tspan x="507" y="304.246">0</tspan></text>
</g>
</g>
<g id="D1">
<path id="D1-Frame" d="M590.012 251.324C590.948 250.899 592.024 250.907 592.954 251.346L639.494 273.32C640.719 273.898 641.5 275.131 641.5 276.485V325C641.5 326.933 639.933 328.5 638 328.5H543C541.067 328.5 539.5 326.933 539.5 325V276.536C539.5 275.164 540.302 273.918 541.552 273.35L590.012 251.324Z" fill="#D9D7DD" stroke="black" stroke-width="3"/>
<g id="D1-Item-2">
<path id="path453757_16" fill-rule="evenodd" clip-rule="evenodd" d="M603.786 313.857C603.426 313.857 603.081 314 602.826 314.255C602.572 314.509 602.429 314.854 602.429 315.214C602.429 315.574 602.572 315.919 602.826 316.174C603.081 316.428 603.426 316.571 603.786 316.571H611.929C612.289 316.571 612.634 316.428 612.888 316.174C613.143 315.919 613.286 315.574 613.286 315.214C613.286 314.854 613.143 314.509 612.888 314.255C612.634 314 612.289 313.857 611.929 313.857H603.786Z" fill="black"/>
<path id="path453703_16" fill-rule="evenodd" clip-rule="evenodd" d="M602.429 284C602.176 284 601.929 284.071 601.715 284.204C601.5 284.337 601.327 284.527 601.215 284.753L597.143 292.943C597.057 293.122 597.011 293.317 597.008 293.516C597.005 293.526 597.003 293.537 597 293.548V320.643C597 321.003 597.143 321.348 597.398 321.602C597.652 321.857 597.997 322 598.357 322H633.643C634.003 322 634.348 321.857 634.602 321.602C634.857 321.348 635 321.003 635 320.643V293.548V293.545C634.999 293.336 634.95 293.13 634.857 292.943L630.785 284.753C630.673 284.527 630.5 284.337 630.286 284.204C630.071 284.071 629.824 284 629.572 284H602.429ZM603.266 286.714H611.693L610.805 292.191H600.547L603.266 286.714ZM614.439 286.714H620.278L621.193 292.191H613.554L614.439 286.714ZM623.03 286.714H628.731L631.454 292.191H623.944L623.03 286.714ZM599.714 294.905H610.572V308.429C610.572 308.697 610.651 308.959 610.801 309.182C610.95 309.405 611.162 309.579 611.409 309.682C611.657 309.785 611.93 309.812 612.193 309.759C612.457 309.707 612.698 309.578 612.888 309.388L617.357 304.919L621.826 309.388C622.016 309.578 622.258 309.707 622.521 309.759C622.784 309.812 623.057 309.785 623.305 309.682C623.553 309.579 623.765 309.405 623.914 309.182C624.063 308.959 624.143 308.697 624.143 308.429V294.905H632.286V319.286H599.714V294.905ZM613.286 294.905H621.429V305.152L618.317 302.04C618.062 301.786 617.717 301.643 617.357 301.643C616.997 301.643 616.652 301.786 616.398 302.04L613.286 305.152V294.905Z" fill="black"/>
<text id="1_4" fill="black" style="white-space: pre" xml:space="preserve" font-family="Arial" font-size="12" font-weight="900" letter-spacing="0.04em"><tspan x="624" y="317.246">1</tspan></text>
</g>
<g id="D1-Item-1">
<path id="path453757_17" fill-rule="evenodd" clip-rule="evenodd" d="M553.786 313.857C553.426 313.857 553.081 314 552.826 314.255C552.572 314.509 552.429 314.854 552.429 315.214C552.429 315.574 552.572 315.919 552.826 316.174C553.081 316.428 553.426 316.571 553.786 316.571H561.929C562.289 316.571 562.634 316.428 562.888 316.174C563.143 315.919 563.286 315.574 563.286 315.214C563.286 314.854 563.143 314.509 562.888 314.255C562.634 314 562.289 313.857 561.929 313.857H553.786Z" fill="black"/>
<path id="path453703_17" fill-rule="evenodd" clip-rule="evenodd" d="M552.429 284C552.176 284 551.929 284.071 551.715 284.204C551.5 284.337 551.327 284.527 551.215 284.753L547.143 292.943C547.057 293.122 547.011 293.317 547.008 293.516C547.005 293.526 547.003 293.537 547 293.548V320.643C547 321.003 547.143 321.348 547.398 321.602C547.652 321.857 547.997 322 548.357 322H583.643C584.003 322 584.348 321.857 584.602 321.602C584.857 321.348 585 321.003 585 320.643V293.548V293.545C584.999 293.336 584.95 293.13 584.857 292.943L580.785 284.753C580.673 284.527 580.5 284.337 580.286 284.204C580.071 284.071 579.824 284 579.572 284H552.429ZM553.266 286.714H561.693L560.805 292.191H550.547L553.266 286.714ZM564.439 286.714H570.278L571.193 292.191H563.554L564.439 286.714ZM573.03 286.714H578.731L581.454 292.191H573.944L573.03 286.714ZM549.714 294.905H560.572V308.429C560.572 308.697 560.651 308.959 560.801 309.182C560.95 309.405 561.162 309.579 561.409 309.682C561.657 309.785 561.93 309.812 562.193 309.759C562.457 309.707 562.698 309.578 562.888 309.388L567.357 304.919L571.826 309.388C572.016 309.578 572.258 309.707 572.521 309.759C572.784 309.812 573.057 309.785 573.305 309.682C573.553 309.579 573.765 309.405 573.914 309.182C574.063 308.959 574.143 308.697 574.143 308.429V294.905H582.286V319.286H549.714V294.905ZM563.286 294.905H571.429V305.152L568.317 302.04C568.062 301.786 567.717 301.643 567.357 301.643C566.997 301.643 566.652 301.786 566.398 302.04L563.286 305.152V294.905Z" fill="black"/>
<text id="1_5" fill="black" style="white-space: pre" xml:space="preserve" font-family="Arial" font-size="12" font-weight="900" letter-spacing="0.04em"><tspan x="574" y="317.246">1</tspan></text>
</g>
<text id="D1_2" transform="translate(582 260)" fill="black" style="white-space: pre" xml:space="preserve" font-family="Arial" font-size="12" font-weight="900" letter-spacing="0.04em"><tspan x="0" y="13.2461">D1</tspan></text>
</g>
<text id="Source" fill="black" style="white-space: pre" xml:space="preserve" font-family="Arial" font-size="40" font-weight="900" letter-spacing="0.04em"><tspan x="46" y="82.8203">Source</tspan></text>
</g>
<g id="Frame 20">
<g id="Frame 20_2">
<rect x="1306.5" y="31.5" width="297" height="560" rx="3.5" stroke="black" stroke-width="3"/>
<text id="Blue Rover" fill="black" style="white-space: pre" xml:space="preserve" font-family="Arial" font-size="12" font-weight="bold" letter-spacing="0.04em"><tspan x="1413" y="56.1602">BLUE ROVER</tspan></text>
<line id="Line 17" x1="1307.49" y1="73.5" x2="1602.49" y2="72.5" stroke="black" stroke-width="3"/>
<text id="Energy" fill="black" style="white-space: pre" xml:space="preserve" font-family="Arial" font-size="12" font-weight="bold" letter-spacing="0.04em"><tspan x="1428" y="101.16">ENERGY</tspan></text>
<g id="BR-Battery">
<rect id="Rectangle 38" x="1354" y="120.5" width="191" height="57" rx="3.5" fill="#D9D9D9" stroke="black" stroke-width="3"/>
<rect id="BR-L1" x="1358.5" y="125" width="19" height="48" rx="3" fill="#07BEB8" stroke="black" stroke-width="2"/>
<rect id="BR-L2" x="1381.5" y="125" width="19" height="48" rx="3" fill="#07BEB8" stroke="black" stroke-width="2"/>
<rect id="BR-L3" x="1405.5" y="125" width="18" height="48" rx="3" fill="#07BEB8" stroke="black" stroke-width="2"/>
<rect id="BR-L4" x="1428.5" y="125" width="19" height="48" rx="3" fill="#07BEB8" stroke="black" stroke-width="2"/>
<rect id="BR-L5" x="1451.5" y="125" width="19" height="48" rx="3" fill="#07BEB8" stroke="black" stroke-width="2"/>
<rect id="BR-L6" x="1475.5" y="125" width="18" height="48" rx="3" fill="#07BEB8" stroke="black" stroke-width="2"/>
<rect id="BR-L7" x="1498.5" y="125" width="19" height="48" rx="3" fill="#07BEB8" stroke="black" stroke-width="2"/>
<rect id="BR-L8" x="1521.5" y="125" width="19" height="48" rx="3" fill="#07BEB8" stroke="black" stroke-width="2"/>
<path id="Rectangle 39" d="M1552.5 135.5C1554.43 135.5 1556 137.067 1556 139V159C1556 160.933 1554.43 162.5 1552.5 162.5H1545V135.5H1552.5Z" fill="#D9D9D9" stroke="black" stroke-width="3"/>
</g>
<line id="Line 18" x1="1307.49" y1="193.5" x2="1602.49" y2="192.5" stroke="black" stroke-width="3"/>
<text id="Position" fill="black" style="white-space: pre" xml:space="preserve" font-family="Arial" font-size="12" font-weight="bold" letter-spacing="0.04em"><tspan x="1424.5" y="221.16">POSITION</tspan></text>
<g id="Frame 20_3">
<g id="Group 20">
<g id="X:">
<text fill="black" style="white-space: pre" xml:space="preserve" font-family="Arial" font-size="12" font-weight="bold" letter-spacing="0.04em"><tspan x="1411" y="250.16">X</tspan></text>
<text fill="black" style="white-space: pre" xml:space="preserve" font-family="Arial" font-size="12" letter-spacing="0.04em"><tspan x="1419.48" y="250.16">:</tspan></text>
</g>
<text id="BR-X-Pos" fill="black" style="white-space: pre" xml:space="preserve" font-family="Arial" font-size="12" letter-spacing="0.04em"><tspan x="1433" y="250.16">5</tspan></text>
</g>
<g id="Group 21">
<g id="Y:">
<text fill="black" style="white-space: pre" xml:space="preserve" font-family="Arial" font-size="12" letter-spacing="0.04em"><tspan x="1478.48" y="250.16">:</tspan></text>
<text fill="black" style="white-space: pre" xml:space="preserve" font-family="Arial" font-size="12" font-weight="bold" letter-spacing="0.04em"><tspan x="1470" y="250.16">Y</tspan></text>
</g>
<text id="BR-Y-Pos" fill="black" style="white-space: pre" xml:space="preserve" font-family="Arial" font-size="12" letter-spacing="0.04em"><tspan x="1492" y="250.16">2</tspan></text>
</g>
</g>
<line id="Line 19" x1="1307.49" y1="267.5" x2="1602.49" y2="266.5" stroke="black" stroke-width="3"/>
<text id="Content" fill="black" style="white-space: pre" xml:space="preserve" font-family="Arial" font-size="12" font-weight="bold" letter-spacing="0.04em"><tspan x="1424.5" y="295.16">CONTENT</tspan></text>
<g id="Frame 22">
<g id="Frame 22_2">
<g id="00-Item_2">
<path id="path453757_18" fill-rule="evenodd" clip-rule="evenodd" d="M1362.71 333.71C1362.46 333.71 1362.22 333.809 1362.04 333.986C1361.86 334.162 1361.77 334.402 1361.77 334.652C1361.77 334.901 1361.86 335.141 1362.04 335.317C1362.22 335.494 1362.46 335.593 1362.71 335.593H1368.36C1368.6 335.593 1368.84 335.494 1369.02 335.317C1369.2 335.141 1369.3 334.901 1369.3 334.652C1369.3 334.402 1369.2 334.162 1369.02 333.986C1368.84 333.809 1368.6 333.71 1368.36 333.71H1362.71Z" fill="black"/>
<path id="path453703_18" fill-rule="evenodd" clip-rule="evenodd" d="M1361.77 313C1361.59 313 1361.42 313.049 1361.27 313.141C1361.12 313.234 1361 313.365 1360.92 313.522L1358.1 319.203C1358.04 319.327 1358.01 319.463 1358.01 319.601C1358 319.608 1358 319.615 1358 319.623V338.417C1358 338.667 1358.1 338.906 1358.28 339.083C1358.45 339.259 1358.69 339.358 1358.94 339.358H1383.42C1383.67 339.358 1383.91 339.259 1384.08 339.083C1384.26 338.906 1384.36 338.667 1384.36 338.417V319.623V319.621C1384.36 319.476 1384.32 319.333 1384.26 319.203L1381.43 313.522C1381.36 313.365 1381.24 313.234 1381.09 313.141C1380.94 313.049 1380.77 313 1380.59 313H1361.77ZM1362.35 314.883H1368.19L1367.58 318.681H1360.46L1362.35 314.883ZM1370.1 314.883H1374.15L1374.78 318.681H1369.48L1370.1 314.883ZM1376.06 314.883H1380.01L1381.9 318.681H1376.69L1376.06 314.883ZM1359.88 320.564H1367.41V329.945C1367.41 330.131 1367.47 330.313 1367.57 330.468C1367.68 330.622 1367.82 330.743 1368 330.814C1368.17 330.885 1368.36 330.904 1368.54 330.868C1368.72 330.831 1368.89 330.742 1369.02 330.61L1372.12 327.51L1375.22 330.61C1375.35 330.742 1375.52 330.831 1375.7 330.868C1375.89 330.904 1376.07 330.885 1376.25 330.814C1376.42 330.743 1376.57 330.622 1376.67 330.468C1376.77 330.313 1376.83 330.131 1376.83 329.945V320.564H1382.48V337.476H1359.88V320.564ZM1369.3 320.564H1374.94V327.672L1372.79 325.514C1372.61 325.337 1372.37 325.238 1372.12 325.238C1371.87 325.238 1371.63 325.337 1371.46 325.514L1369.3 327.672V320.564Z" fill="black"/>
<text id="0_4" fill="black" style="white-space: pre" xml:space="preserve" font-family="Arial" font-size="7" font-weight="900" letter-spacing="0.04em"><tspan x="1376.96" y="336.279">0</tspan></text>
</g>
<text id="=" fill="black" style="white-space: pre" xml:space="preserve" font-family="Arial" font-size="12" letter-spacing="0.04em"><tspan x="1392.36" y="331.158">=</tspan></text>
<text id="BR-0-Label" fill="black" style="white-space: pre" xml:space="preserve" font-family="Arial" font-size="12" letter-spacing="0.04em"><tspan x="1408" y="331.16">0</tspan></text>
</g>
<g id="Frame 23">
<text id="=_2" fill="black" style="white-space: pre" xml:space="preserve" font-family="Arial" font-size="12" letter-spacing="0.04em"><tspan x="1494.36" y="331.158">=</tspan></text>
<g id="20-Item_2">
<path id="path453757_19" fill-rule="evenodd" clip-rule="evenodd" d="M1464.71 333.702C1464.46 333.702 1464.22 333.801 1464.04 333.977C1463.86 334.154 1463.77 334.393 1463.77 334.643C1463.77 334.893 1463.86 335.132 1464.04 335.309C1464.22 335.485 1464.46 335.584 1464.71 335.584H1470.36C1470.6 335.584 1470.84 335.485 1471.02 335.309C1471.2 335.132 1471.3 334.893 1471.3 334.643C1471.3 334.393 1471.2 334.154 1471.02 333.977C1470.84 333.801 1470.6 333.702 1470.36 333.702H1464.71Z" fill="black"/>
<path id="path453703_19" fill-rule="evenodd" clip-rule="evenodd" d="M1463.77 312.992C1463.59 312.992 1463.42 313.041 1463.27 313.133C1463.12 313.225 1463 313.357 1462.92 313.514L1460.1 319.195C1460.04 319.319 1460.01 319.455 1460.01 319.592C1460 319.599 1460 319.607 1460 319.614V338.409C1460 338.658 1460.1 338.898 1460.28 339.074C1460.45 339.251 1460.69 339.35 1460.94 339.35H1485.42C1485.67 339.35 1485.91 339.251 1486.08 339.074C1486.26 338.898 1486.36 338.658 1486.36 338.409V319.614V319.612C1486.36 319.467 1486.32 319.325 1486.26 319.195L1483.43 313.514C1483.36 313.357 1483.24 313.225 1483.09 313.133C1482.94 313.041 1482.77 312.992 1482.59 312.992H1463.77ZM1464.35 314.874H1470.19L1469.58 318.673H1462.46L1464.35 314.874ZM1472.1 314.874H1476.15L1476.78 318.673H1471.48L1472.1 314.874ZM1478.06 314.874H1482.01L1483.9 318.673H1478.69L1478.06 314.874ZM1461.88 320.556H1469.41V329.936C1469.41 330.122 1469.47 330.304 1469.57 330.459C1469.68 330.614 1469.82 330.734 1470 330.806C1470.17 330.877 1470.36 330.896 1470.54 330.859C1470.72 330.823 1470.89 330.733 1471.02 330.602L1474.12 327.502L1477.22 330.602C1477.35 330.733 1477.52 330.823 1477.7 330.859C1477.89 330.896 1478.07 330.877 1478.25 330.806C1478.42 330.734 1478.57 330.614 1478.67 330.459C1478.77 330.304 1478.83 330.122 1478.83 329.936V320.556H1484.48V337.467H1461.88V320.556ZM1471.3 320.556H1476.94V327.664L1474.79 325.505C1474.61 325.329 1474.37 325.23 1474.12 325.23C1473.87 325.23 1473.63 325.329 1473.46 325.505L1471.3 327.664V320.556Z" fill="black"/>
<text id="2_6" fill="black" style="white-space: pre" xml:space="preserve" font-family="Arial" font-size="7" font-weight="900" letter-spacing="0.04em"><tspan x="1478.73" y="336.266">2</tspan></text>
</g>
<text id="BR-2-Label" fill="black" style="white-space: pre" xml:space="preserve" font-family="Arial" font-size="12" letter-spacing="0.04em"><tspan x="1508" y="331.16">0</tspan></text>
</g>
<g id="Frame 24">
<text id="=_3" fill="black" style="white-space: pre" xml:space="preserve" font-family="Arial" font-size="12" letter-spacing="0.04em"><tspan x="1392.36" y="369.154">=</tspan></text>
<g id="10-Item_2">
<path id="path453757_20" fill-rule="evenodd" clip-rule="evenodd" d="M1362.71 371.71C1362.46 371.71 1362.22 371.809 1362.04 371.986C1361.86 372.162 1361.77 372.402 1361.77 372.652C1361.77 372.901 1361.86 373.141 1362.04 373.317C1362.22 373.494 1362.46 373.593 1362.71 373.593H1368.36C1368.6 373.593 1368.84 373.494 1369.02 373.317C1369.2 373.141 1369.3 372.901 1369.3 372.652C1369.3 372.402 1369.2 372.162 1369.02 371.986C1368.84 371.809 1368.6 371.71 1368.36 371.71H1362.71Z" fill="black"/>
<path id="path453703_20" fill-rule="evenodd" clip-rule="evenodd" d="M1361.77 351C1361.59 351 1361.42 351.049 1361.27 351.141C1361.12 351.234 1361 351.365 1360.92 351.522L1358.1 357.203C1358.04 357.327 1358.01 357.463 1358.01 357.601C1358 357.608 1358 357.615 1358 357.623V376.417C1358 376.667 1358.1 376.906 1358.28 377.083C1358.45 377.259 1358.69 377.358 1358.94 377.358H1383.42C1383.67 377.358 1383.91 377.259 1384.08 377.083C1384.26 376.906 1384.36 376.667 1384.36 376.417V357.623V357.621C1384.36 357.476 1384.32 357.333 1384.26 357.203L1381.43 351.522C1381.36 351.365 1381.24 351.234 1381.09 351.141C1380.94 351.049 1380.77 351 1380.59 351H1361.77ZM1362.35 352.883H1368.19L1367.58 356.681H1360.46L1362.35 352.883ZM1370.1 352.883H1374.15L1374.78 356.681H1369.48L1370.1 352.883ZM1376.06 352.883H1380.01L1381.9 356.681H1376.69L1376.06 352.883ZM1359.88 358.564H1367.41V367.945C1367.41 368.131 1367.47 368.313 1367.57 368.468C1367.68 368.622 1367.82 368.743 1368 368.814C1368.17 368.885 1368.36 368.904 1368.54 368.868C1368.72 368.831 1368.89 368.742 1369.02 368.61L1372.12 365.51L1375.22 368.61C1375.35 368.742 1375.52 368.831 1375.7 368.868C1375.89 368.904 1376.07 368.885 1376.25 368.814C1376.42 368.743 1376.57 368.622 1376.67 368.468C1376.77 368.313 1376.83 368.131 1376.83 367.945V358.564H1382.48V375.476H1359.88V358.564ZM1369.3 358.564H1374.94V365.672L1372.79 363.514C1372.61 363.337 1372.37 363.238 1372.12 363.238C1371.87 363.238 1371.63 363.337 1371.46 363.514L1369.3 365.672V358.564Z" fill="black"/>
<text id="1_6" fill="black" style="white-space: pre" xml:space="preserve" font-family="Arial" font-size="7" font-weight="900" letter-spacing="0.04em"><tspan x="1376.73" y="374.274">1</tspan></text>
</g>
<text id="BR-1-Label" fill="black" style="white-space: pre" xml:space="preserve" font-family="Arial" font-size="12" letter-spacing="0.04em"><tspan x="1408" y="369.16">0</tspan></text>
</g>
<g id="Frame 25">
<text id="=_4" fill="black" style="white-space: pre" xml:space="preserve" font-family="Arial" font-size="12" letter-spacing="0.04em"><tspan x="1494.36" y="369.154">=</tspan></text>
<g id="30-Item_2">
<path id="path453757_21" fill-rule="evenodd" clip-rule="evenodd" d="M1466.71 371.71C1466.46 371.71 1466.22 371.809 1466.04 371.986C1465.86 372.162 1465.77 372.402 1465.77 372.652C1465.77 372.901 1465.86 373.141 1466.04 373.317C1466.22 373.494 1466.46 373.593 1466.71 373.593H1472.36C1472.6 373.593 1472.84 373.494 1473.02 373.317C1473.2 373.141 1473.3 372.901 1473.3 372.652C1473.3 372.402 1473.2 372.162 1473.02 371.986C1472.84 371.809 1472.6 371.71 1472.36 371.71H1466.71Z" fill="black"/>
<path id="path453703_21" fill-rule="evenodd" clip-rule="evenodd" d="M1465.77 351C1465.59 351 1465.42 351.049 1465.27 351.141C1465.12 351.234 1465 351.365 1464.92 351.522L1462.1 357.203C1462.04 357.327 1462.01 357.463 1462.01 357.601C1462 357.608 1462 357.615 1462 357.623V376.417C1462 376.667 1462.1 376.906 1462.28 377.083C1462.45 377.259 1462.69 377.358 1462.94 377.358H1487.42C1487.67 377.358 1487.91 377.259 1488.08 377.083C1488.26 376.906 1488.36 376.667 1488.36 376.417V357.623V357.621C1488.36 357.476 1488.32 357.333 1488.26 357.203L1485.43 351.522C1485.36 351.365 1485.24 351.234 1485.09 351.141C1484.94 351.049 1484.77 351 1484.59 351H1465.77ZM1466.35 352.883H1472.19L1471.58 356.681H1464.46L1466.35 352.883ZM1474.1 352.883H1478.15L1478.78 356.681H1473.48L1474.1 352.883ZM1480.06 352.883H1484.01L1485.9 356.681H1480.69L1480.06 352.883ZM1463.88 358.564H1471.41V367.945C1471.41 368.131 1471.47 368.313 1471.57 368.468C1471.68 368.622 1471.82 368.743 1472 368.814C1472.17 368.885 1472.36 368.904 1472.54 368.868C1472.72 368.831 1472.89 368.742 1473.02 368.61L1476.12 365.51L1479.22 368.61C1479.35 368.742 1479.52 368.831 1479.7 368.868C1479.89 368.904 1480.07 368.885 1480.25 368.814C1480.42 368.743 1480.57 368.622 1480.67 368.468C1480.77 368.313 1480.83 368.131 1480.83 367.945V358.564H1486.48V375.476H1463.88V358.564ZM1473.3 358.564H1478.94V365.672L1476.79 363.514C1476.61 363.337 1476.37 363.238 1476.12 363.238C1475.87 363.238 1475.63 363.337 1475.46 363.514L1473.3 365.672V358.564Z" fill="black"/>
<text id="3_5" fill="black" style="white-space: pre" xml:space="preserve" font-family="Arial" font-size="7" font-weight="900" letter-spacing="0.04em"><tspan x="1480.73" y="374.274">3</tspan></text>
</g>
<text id="BR-3-Label" fill="black" style="white-space: pre" xml:space="preserve" font-family="Arial" font-size="12" letter-spacing="0.04em"><tspan x="1508" y="369.16">0</tspan></text>
</g>
</g>
</g>
<g id="Frame 21">
<g id="Frame 20_4">
<rect x="1306.5" y="624.5" width="297" height="235" rx="3.5" stroke="black" stroke-width="3"/>
<text id="Orange Rover" fill="black" style="white-space: pre" xml:space="preserve" font-family="Arial" font-size="12" font-weight="bold" letter-spacing="0.04em"><tspan x="1402.5" y="649.16">ORANGE ROVER</tspan></text>
<line id="Line 17_2" x1="1307.49" y1="666.5" x2="1602.49" y2="665.5" stroke="black" stroke-width="3"/>
<text id="Energy_2" fill="black" style="white-space: pre" xml:space="preserve" font-family="Arial" font-size="12" font-weight="bold" letter-spacing="0.04em"><tspan x="1428" y="694.16">ENERGY</tspan></text>
<g id="OR-Battery">
<rect id="Rectangle 38_2" x="1354" y="713.5" width="191" height="57" rx="3.5" fill="#D9D9D9" stroke="black" stroke-width="3"/>
<rect id="OR-L1" x="1358.5" y="718" width="19" height="48" rx="3" fill="#E8871E" stroke="black" stroke-width="2"/>
<rect id="OR-L2" x="1381.5" y="718" width="19" height="48" rx="3" fill="#E8871E" stroke="black" stroke-width="2"/>
<rect id="OR-L3" x="1405.5" y="718" width="18" height="48" rx="3" fill="#E8871E" stroke="black" stroke-width="2"/>
<rect id="OR-L4" x="1428.5" y="718" width="19" height="48" rx="3" fill="#E8871E" stroke="black" stroke-width="2"/>
<rect id="OR-L5" x="1451.5" y="718" width="19" height="48" rx="3" fill="#E8871E" stroke="black" stroke-width="2"/>
<rect id="OR-L6" x="1475.5" y="718" width="18" height="48" rx="3" fill="#E8871E" stroke="black" stroke-width="2"/>
<rect id="OR-L7" x="1498.5" y="718" width="19" height="48" rx="3" fill="#E8871E" stroke="black" stroke-width="2"/>
<rect id="OR-L8" x="1521.5" y="718" width="19" height="48" rx="3" fill="#E8871E" stroke="black" stroke-width="2"/>
<path id="Rectangle 39_2" d="M1552.5 728.5C1554.43 728.5 1556 730.067 1556 732V752C1556 753.933 1554.43 755.5 1552.5 755.5H1545V728.5H1552.5Z" fill="#D9D9D9" stroke="black" stroke-width="3"/>
</g>
<line id="Line 18_2" x1="1307.49" y1="786.5" x2="1602.49" y2="785.5" stroke="black" stroke-width="3"/>
<text id="Position_2" fill="black" style="white-space: pre" xml:space="preserve" font-family="Arial" font-size="12" font-weight="bold" letter-spacing="0.04em"><tspan x="1424.5" y="814.16">POSITION</tspan></text>
<g id="Frame 20_5">
<g id="Group 20_2">
<g id="X:_2">
<text fill="black" style="white-space: pre" xml:space="preserve" font-family="Arial" font-size="12" font-weight="bold" letter-spacing="0.04em"><tspan x="1411" y="843.16">X</tspan></text>
<text fill="black" style="white-space: pre" xml:space="preserve" font-family="Arial" font-size="12" letter-spacing="0.04em"><tspan x="1419.48" y="843.16">:</tspan></text>
</g>
<text id="OR-X-Pos" fill="black" style="white-space: pre" xml:space="preserve" font-family="Arial" font-size="12" letter-spacing="0.04em"><tspan x="1433" y="843.16">3</tspan></text>
</g>
<g id="Group 21_2">
<g id="Y:_2">
<text fill="black" style="white-space: pre" xml:space="preserve" font-family="Arial" font-size="12" letter-spacing="0.04em"><tspan x="1478.48" y="843.16">:</tspan></text>
<text fill="black" style="white-space: pre" xml:space="preserve" font-family="Arial" font-size="12" font-weight="bold" letter-spacing="0.04em"><tspan x="1470" y="843.16">Y</tspan></text>
</g>
<text id="OR-Y-Pos" fill="black" style="white-space: pre" xml:space="preserve" font-family="Arial" font-size="12" letter-spacing="0.04em"><tspan x="1492" y="843.16">2</tspan></text>
</g>
</g>
</g>
</g>
</g>
</g>
</svg>
