<svg width="810" height="441" viewBox="0 0 810 441" fill="none" xmlns="http://www.w3.org/2000/svg">
<g id="A4 - 2" clip-path="url(#clip0_5_357)">
<rect width="441" height="809.376" transform="matrix(0 -1 1 0 0 441)" fill="white"/>
<g id="Frame 17">
<g id="Machine-3">
<rect id="Rectangle 1" x="31.5" y="307.5" width="116" height="84" fill="#07BEB8" stroke="black" stroke-width="3"/>
<g id="Group 1">
<path id="Rectangle 2" d="M59.5 391.5V409.5H44.5V391.5H59.5Z" fill="#39393A" stroke="black" stroke-width="3"/>
<path id="Rectangle 3" d="M134.5 391.5V409.5H119.5V391.5H134.5Z" fill="#39393A" stroke="black" stroke-width="3"/>
</g>
<path id="MACHINE 3" d="M55.596 299C55.412 299 55.252 298.932 55.116 298.796C54.98 298.66 54.912 298.5 54.912 298.316V290.924C54.912 290.74 54.98 290.58 55.116 290.444C55.252 290.308 55.412 290.24 55.596 290.24H56.28C56.488 290.24 56.676 290.296 56.844 290.408C57.012 290.52 57.136 290.672 57.216 290.864L59.076 295.388C59.076 295.396 59.08 295.4 59.088 295.4C59.096 295.4 59.1 295.396 59.1 295.388L60.96 290.864C61.04 290.672 61.164 290.52 61.332 290.408C61.5 290.296 61.688 290.24 61.896 290.24H62.628C62.812 290.24 62.972 290.308 63.108 290.444C63.244 290.58 63.312 290.74 63.312 290.924V298.316C63.312 298.5 63.244 298.66 63.108 298.796C62.972 298.932 62.812 299 62.628 299H62.052C61.868 299 61.708 298.932 61.572 298.796C61.444 298.66 61.38 298.5 61.38 298.316V293.648C61.38 293.64 61.376 293.636 61.368 293.636C61.352 293.636 61.344 293.64 61.344 293.648L60.192 296.372C60.112 296.564 59.984 296.716 59.808 296.828C59.64 296.94 59.452 296.996 59.244 296.996H58.932C58.724 296.996 58.532 296.94 58.356 296.828C58.188 296.716 58.064 296.564 57.984 296.372L56.832 293.648C56.832 293.64 56.824 293.636 56.808 293.636C56.8 293.636 56.796 293.64 56.796 293.648V298.316C56.796 298.5 56.728 298.66 56.592 298.796C56.464 298.932 56.308 299 56.124 299H55.596ZM68.7307 292.016L67.8547 295.46C67.8467 295.484 67.8507 295.508 67.8667 295.532C67.8907 295.548 67.9147 295.556 67.9387 295.556H69.5467C69.5707 295.556 69.5907 295.548 69.6067 295.532C69.6307 295.508 69.6387 295.484 69.6307 295.46L68.7547 292.016C68.7547 292.008 68.7507 292.004 68.7427 292.004C68.7347 292.004 68.7307 292.008 68.7307 292.016ZM65.5267 299C65.3587 299 65.2227 298.932 65.1187 298.796C65.0227 298.66 65.0027 298.512 65.0587 298.352L67.4827 290.888C67.5467 290.696 67.6587 290.54 67.8187 290.42C67.9867 290.3 68.1707 290.24 68.3707 290.24H69.1627C69.3707 290.24 69.5587 290.3 69.7267 290.42C69.8947 290.54 70.0067 290.696 70.0627 290.888L72.4747 298.352C72.5307 298.512 72.5067 298.66 72.4027 298.796C72.3068 298.932 72.1748 299 72.0067 299H71.2028C71.0027 299 70.8227 298.94 70.6627 298.82C70.5027 298.692 70.3987 298.532 70.3507 298.34L70.0627 297.2C70.0547 297.136 70.0147 297.104 69.9427 297.104H67.5427C67.4787 297.104 67.4387 297.136 67.4227 297.2L67.1347 298.34C67.0867 298.532 66.9827 298.692 66.8227 298.82C66.6627 298.94 66.4827 299 66.2827 299H65.5267ZM77.3802 299.12C76.0682 299.12 75.0362 298.732 74.2842 297.956C73.5322 297.18 73.1562 296.068 73.1562 294.62C73.1562 293.196 73.5202 292.092 74.2482 291.308C74.9762 290.516 75.9922 290.12 77.2962 290.12C77.9202 290.12 78.4642 290.164 78.9282 290.252C79.1202 290.284 79.2762 290.38 79.3962 290.54C79.5162 290.7 79.5762 290.88 79.5762 291.08V291.464C79.5762 291.632 79.5082 291.764 79.3722 291.86C79.2362 291.956 79.0882 291.984 78.9282 291.944C78.4722 291.824 78.0082 291.764 77.5362 291.764C76.8162 291.764 76.2522 292.008 75.8442 292.496C75.4442 292.984 75.2442 293.692 75.2442 294.62C75.2442 295.532 75.4602 296.24 75.8922 296.744C76.3242 297.248 76.9002 297.5 77.6202 297.5C78.1002 297.5 78.5682 297.44 79.0242 297.32C79.1842 297.28 79.3322 297.308 79.4682 297.404C79.6122 297.5 79.6842 297.632 79.6842 297.8V298.16C79.6842 298.36 79.6202 298.54 79.4922 298.7C79.3722 298.86 79.2162 298.956 79.0242 298.988C78.5522 299.076 78.0042 299.12 77.3802 299.12ZM82.618 299C82.434 299 82.274 298.932 82.138 298.796C82.002 298.66 81.934 298.5 81.934 298.316V290.924C81.934 290.74 82.002 290.58 82.138 290.444C82.274 290.308 82.434 290.24 82.618 290.24H83.302C83.486 290.24 83.642 290.308 83.77 290.444C83.906 290.58 83.974 290.74 83.974 290.924V293.564C83.974 293.636 84.01 293.672 84.082 293.672H86.554C86.626 293.672 86.662 293.636 86.662 293.564V290.924C86.662 290.74 86.726 290.58 86.854 290.444C86.99 290.308 87.15 290.24 87.334 290.24H88.018C88.202 290.24 88.362 290.308 88.498 290.444C88.634 290.58 88.702 290.74 88.702 290.924V298.316C88.702 298.5 88.634 298.66 88.498 298.796C88.362 298.932 88.202 299 88.018 299H87.334C87.15 299 86.99 298.932 86.854 298.796C86.726 298.66 86.662 298.5 86.662 298.316V295.316C86.662 295.252 86.626 295.22 86.554 295.22H84.082C84.01 295.22 83.974 295.252 83.974 295.316V298.316C83.974 298.5 83.906 298.66 83.77 298.796C83.642 298.932 83.486 299 83.302 299H82.618ZM91.8559 299C91.6719 299 91.5119 298.932 91.3759 298.796C91.2479 298.66 91.1839 298.5 91.1839 298.316V290.924C91.1839 290.74 91.2479 290.58 91.3759 290.444C91.5119 290.308 91.6719 290.24 91.8559 290.24H92.7439C92.9279 290.24 93.0839 290.308 93.2119 290.444C93.3479 290.58 93.4159 290.74 93.4159 290.924V298.316C93.4159 298.5 93.3479 298.66 93.2119 298.796C93.0839 298.932 92.9279 299 92.7439 299H91.8559ZM96.5858 299C96.4018 299 96.2418 298.932 96.1058 298.796C95.9698 298.66 95.9018 298.5 95.9018 298.316V290.924C95.9018 290.74 95.9698 290.58 96.1058 290.444C96.2418 290.308 96.4018 290.24 96.5858 290.24H97.1738C97.6298 290.24 97.9618 290.44 98.1698 290.84L100.69 295.604C100.69 295.612 100.694 295.616 100.702 295.616C100.71 295.616 100.714 295.612 100.714 295.604V290.924C100.714 290.74 100.782 290.58 100.918 290.444C101.054 290.308 101.214 290.24 101.398 290.24H101.986C102.17 290.24 102.33 290.308 102.466 290.444C102.602 290.58 102.67 290.74 102.67 290.924V298.316C102.67 298.5 102.602 298.66 102.466 298.796C102.33 298.932 102.17 299 101.986 299H101.398C100.942 299 100.61 298.8 100.402 298.4L97.8818 293.636C97.8818 293.628 97.8778 293.624 97.8698 293.624C97.8618 293.624 97.8578 293.628 97.8578 293.636V298.316C97.8578 298.5 97.7898 298.66 97.6538 298.796C97.5178 298.932 97.3578 299 97.1738 299H96.5858ZM105.644 299C105.46 299 105.3 298.932 105.164 298.796C105.036 298.66 104.972 298.5 104.972 298.316V290.924C104.972 290.74 105.036 290.58 105.164 290.444C105.3 290.308 105.46 290.24 105.644 290.24H109.892C110.076 290.24 110.232 290.308 110.36 290.444C110.496 290.58 110.564 290.74 110.564 290.924V291.2C110.564 291.384 110.496 291.544 110.36 291.68C110.232 291.816 110.076 291.884 109.892 291.884H107.108C107.044 291.884 107.012 291.916 107.012 291.98V293.564C107.012 293.636 107.044 293.672 107.108 293.672H109.652C109.836 293.672 109.992 293.74 110.12 293.876C110.256 294.012 110.324 294.172 110.324 294.356V294.536C110.324 294.72 110.256 294.88 110.12 295.016C109.992 295.152 109.836 295.22 109.652 295.22H107.108C107.044 295.22 107.012 295.252 107.012 295.316V297.26C107.012 297.324 107.044 297.356 107.108 297.356H109.892C110.076 297.356 110.232 297.424 110.36 297.56C110.496 297.696 110.564 297.856 110.564 298.04V298.316C110.564 298.5 110.496 298.66 110.36 298.796C110.232 298.932 110.076 299 109.892 299H105.644ZM117.397 291.884C117.213 291.884 117.053 291.816 116.917 291.68C116.781 291.544 116.713 291.384 116.713 291.2V290.924C116.713 290.74 116.781 290.58 116.917 290.444C117.053 290.308 117.213 290.24 117.397 290.24H121.873C122.057 290.24 122.217 290.308 122.353 290.444C122.489 290.58 122.557 290.74 122.557 290.924V291.2C122.557 291.656 122.381 292.028 122.029 292.316L120.217 293.816V293.828C120.217 293.836 120.221 293.84 120.229 293.84H120.373C121.069 293.84 121.625 294.056 122.041 294.488C122.465 294.92 122.677 295.504 122.677 296.24C122.677 297.168 122.393 297.88 121.825 298.376C121.257 298.872 120.441 299.12 119.377 299.12C118.737 299.12 118.089 299.044 117.433 298.892C117.241 298.844 117.081 298.74 116.953 298.58C116.833 298.412 116.773 298.224 116.773 298.016V297.608C116.773 297.448 116.837 297.324 116.965 297.236C117.101 297.14 117.249 297.116 117.409 297.164C118.097 297.388 118.697 297.5 119.209 297.5C119.673 297.5 120.033 297.392 120.289 297.176C120.545 296.96 120.673 296.66 120.673 296.276C120.673 295.884 120.525 295.608 120.229 295.448C119.933 295.288 119.381 295.204 118.573 295.196C118.389 295.196 118.229 295.132 118.093 295.004C117.957 294.868 117.889 294.708 117.889 294.524V294.5C117.889 294.052 118.061 293.68 118.405 293.384L120.109 291.908V291.896C120.109 291.888 120.105 291.884 120.097 291.884H117.397Z" fill="black"/>
</g>
<g id="Machine-2">
<g id="Group 3">
<rect id="Rectangle 1_2" x="31.5" y="181.5" width="116" height="84" fill="#E8871E" stroke="black" stroke-width="3"/>
<g id="Group 1_2">
<path id="Rectangle 2_2" d="M59.5 265.5V283.5H44.5V265.5H59.5Z" fill="#39393A" stroke="black" stroke-width="3"/>
<path id="Rectangle 3_2" d="M134.5 265.5V283.5H119.5V265.5H134.5Z" fill="#39393A" stroke="black" stroke-width="3"/>
</g>
<path id="MACHINE 2" d="M55.596 173C55.412 173 55.252 172.932 55.116 172.796C54.98 172.66 54.912 172.5 54.912 172.316V164.924C54.912 164.74 54.98 164.58 55.116 164.444C55.252 164.308 55.412 164.24 55.596 164.24H56.28C56.488 164.24 56.676 164.296 56.844 164.408C57.012 164.52 57.136 164.672 57.216 164.864L59.076 169.388C59.076 169.396 59.08 169.4 59.088 169.4C59.096 169.4 59.1 169.396 59.1 169.388L60.96 164.864C61.04 164.672 61.164 164.52 61.332 164.408C61.5 164.296 61.688 164.24 61.896 164.24H62.628C62.812 164.24 62.972 164.308 63.108 164.444C63.244 164.58 63.312 164.74 63.312 164.924V172.316C63.312 172.5 63.244 172.66 63.108 172.796C62.972 172.932 62.812 173 62.628 173H62.052C61.868 173 61.708 172.932 61.572 172.796C61.444 172.66 61.38 172.5 61.38 172.316V167.648C61.38 167.64 61.376 167.636 61.368 167.636C61.352 167.636 61.344 167.64 61.344 167.648L60.192 170.372C60.112 170.564 59.984 170.716 59.808 170.828C59.64 170.94 59.452 170.996 59.244 170.996H58.932C58.724 170.996 58.532 170.94 58.356 170.828C58.188 170.716 58.064 170.564 57.984 170.372L56.832 167.648C56.832 167.64 56.824 167.636 56.808 167.636C56.8 167.636 56.796 167.64 56.796 167.648V172.316C56.796 172.5 56.728 172.66 56.592 172.796C56.464 172.932 56.308 173 56.124 173H55.596ZM68.7307 166.016L67.8547 169.46C67.8467 169.484 67.8507 169.508 67.8667 169.532C67.8907 169.548 67.9147 169.556 67.9387 169.556H69.5467C69.5707 169.556 69.5907 169.548 69.6067 169.532C69.6307 169.508 69.6387 169.484 69.6307 169.46L68.7547 166.016C68.7547 166.008 68.7507 166.004 68.7427 166.004C68.7347 166.004 68.7307 166.008 68.7307 166.016ZM65.5267 173C65.3587 173 65.2227 172.932 65.1187 172.796C65.0227 172.66 65.0027 172.512 65.0587 172.352L67.4827 164.888C67.5467 164.696 67.6587 164.54 67.8187 164.42C67.9867 164.3 68.1707 164.24 68.3707 164.24H69.1627C69.3707 164.24 69.5587 164.3 69.7267 164.42C69.8947 164.54 70.0067 164.696 70.0627 164.888L72.4747 172.352C72.5307 172.512 72.5067 172.66 72.4027 172.796C72.3068 172.932 72.1748 173 72.0067 173H71.2028C71.0027 173 70.8227 172.94 70.6627 172.82C70.5027 172.692 70.3987 172.532 70.3507 172.34L70.0627 171.2C70.0547 171.136 70.0147 171.104 69.9427 171.104H67.5427C67.4787 171.104 67.4387 171.136 67.4227 171.2L67.1347 172.34C67.0867 172.532 66.9827 172.692 66.8227 172.82C66.6627 172.94 66.4827 173 66.2827 173H65.5267ZM77.3802 173.12C76.0682 173.12 75.0362 172.732 74.2842 171.956C73.5322 171.18 73.1562 170.068 73.1562 168.62C73.1562 167.196 73.5202 166.092 74.2482 165.308C74.9762 164.516 75.9922 164.12 77.2962 164.12C77.9202 164.12 78.4642 164.164 78.9282 164.252C79.1202 164.284 79.2762 164.38 79.3962 164.54C79.5162 164.7 79.5762 164.88 79.5762 165.08V165.464C79.5762 165.632 79.5082 165.764 79.3722 165.86C79.2362 165.956 79.0882 165.984 78.9282 165.944C78.4722 165.824 78.0082 165.764 77.5362 165.764C76.8162 165.764 76.2522 166.008 75.8442 166.496C75.4442 166.984 75.2442 167.692 75.2442 168.62C75.2442 169.532 75.4602 170.24 75.8922 170.744C76.3242 171.248 76.9002 171.5 77.6202 171.5C78.1002 171.5 78.5682 171.44 79.0242 171.32C79.1842 171.28 79.3322 171.308 79.4682 171.404C79.6122 171.5 79.6842 171.632 79.6842 171.8V172.16C79.6842 172.36 79.6202 172.54 79.4922 172.7C79.3722 172.86 79.2162 172.956 79.0242 172.988C78.5522 173.076 78.0042 173.12 77.3802 173.12ZM82.618 173C82.434 173 82.274 172.932 82.138 172.796C82.002 172.66 81.934 172.5 81.934 172.316V164.924C81.934 164.74 82.002 164.58 82.138 164.444C82.274 164.308 82.434 164.24 82.618 164.24H83.302C83.486 164.24 83.642 164.308 83.77 164.444C83.906 164.58 83.974 164.74 83.974 164.924V167.564C83.974 167.636 84.01 167.672 84.082 167.672H86.554C86.626 167.672 86.662 167.636 86.662 167.564V164.924C86.662 164.74 86.726 164.58 86.854 164.444C86.99 164.308 87.15 164.24 87.334 164.24H88.018C88.202 164.24 88.362 164.308 88.498 164.444C88.634 164.58 88.702 164.74 88.702 164.924V172.316C88.702 172.5 88.634 172.66 88.498 172.796C88.362 172.932 88.202 173 88.018 173H87.334C87.15 173 86.99 172.932 86.854 172.796C86.726 172.66 86.662 172.5 86.662 172.316V169.316C86.662 169.252 86.626 169.22 86.554 169.22H84.082C84.01 169.22 83.974 169.252 83.974 169.316V172.316C83.974 172.5 83.906 172.66 83.77 172.796C83.642 172.932 83.486 173 83.302 173H82.618ZM91.8559 173C91.6719 173 91.5119 172.932 91.3759 172.796C91.2479 172.66 91.1839 172.5 91.1839 172.316V164.924C91.1839 164.74 91.2479 164.58 91.3759 164.444C91.5119 164.308 91.6719 164.24 91.8559 164.24H92.7439C92.9279 164.24 93.0839 164.308 93.2119 164.444C93.3479 164.58 93.4159 164.74 93.4159 164.924V172.316C93.4159 172.5 93.3479 172.66 93.2119 172.796C93.0839 172.932 92.9279 173 92.7439 173H91.8559ZM96.5858 173C96.4018 173 96.2418 172.932 96.1058 172.796C95.9698 172.66 95.9018 172.5 95.9018 172.316V164.924C95.9018 164.74 95.9698 164.58 96.1058 164.444C96.2418 164.308 96.4018 164.24 96.5858 164.24H97.1738C97.6298 164.24 97.9618 164.44 98.1698 164.84L100.69 169.604C100.69 169.612 100.694 169.616 100.702 169.616C100.71 169.616 100.714 169.612 100.714 169.604V164.924C100.714 164.74 100.782 164.58 100.918 164.444C101.054 164.308 101.214 164.24 101.398 164.24H101.986C102.17 164.24 102.33 164.308 102.466 164.444C102.602 164.58 102.67 164.74 102.67 164.924V172.316C102.67 172.5 102.602 172.66 102.466 172.796C102.33 172.932 102.17 173 101.986 173H101.398C100.942 173 100.61 172.8 100.402 172.4L97.8818 167.636C97.8818 167.628 97.8778 167.624 97.8698 167.624C97.8618 167.624 97.8578 167.628 97.8578 167.636V172.316C97.8578 172.5 97.7898 172.66 97.6538 172.796C97.5178 172.932 97.3578 173 97.1738 173H96.5858ZM105.644 173C105.46 173 105.3 172.932 105.164 172.796C105.036 172.66 104.972 172.5 104.972 172.316V164.924C104.972 164.74 105.036 164.58 105.164 164.444C105.3 164.308 105.46 164.24 105.644 164.24H109.892C110.076 164.24 110.232 164.308 110.36 164.444C110.496 164.58 110.564 164.74 110.564 164.924V165.2C110.564 165.384 110.496 165.544 110.36 165.68C110.232 165.816 110.076 165.884 109.892 165.884H107.108C107.044 165.884 107.012 165.916 107.012 165.98V167.564C107.012 167.636 107.044 167.672 107.108 167.672H109.652C109.836 167.672 109.992 167.74 110.12 167.876C110.256 168.012 110.324 168.172 110.324 168.356V168.536C110.324 168.72 110.256 168.88 110.12 169.016C109.992 169.152 109.836 169.22 109.652 169.22H107.108C107.044 169.22 107.012 169.252 107.012 169.316V171.26C107.012 171.324 107.044 171.356 107.108 171.356H109.892C110.076 171.356 110.232 171.424 110.36 171.56C110.496 171.696 110.564 171.856 110.564 172.04V172.316C110.564 172.5 110.496 172.66 110.36 172.796C110.232 172.932 110.076 173 109.892 173H105.644ZM117.433 173C117.249 173 117.089 172.932 116.953 172.796C116.817 172.66 116.749 172.5 116.749 172.316V172.04C116.749 171.592 116.929 171.228 117.289 170.948C118.633 169.892 119.521 169.088 119.953 168.536C120.393 167.984 120.613 167.444 120.613 166.916C120.613 166.18 120.205 165.812 119.389 165.812C118.893 165.812 118.285 165.948 117.565 166.22C117.413 166.276 117.269 166.26 117.133 166.172C116.997 166.084 116.929 165.96 116.929 165.8V165.296C116.929 165.088 116.989 164.904 117.109 164.744C117.229 164.576 117.389 164.464 117.589 164.408C118.317 164.216 119.017 164.12 119.689 164.12C120.657 164.12 121.401 164.352 121.921 164.816C122.449 165.272 122.713 165.908 122.713 166.724C122.713 167.428 122.489 168.1 122.041 168.74C121.601 169.372 120.737 170.232 119.449 171.32C119.441 171.328 119.437 171.336 119.437 171.344C119.437 171.352 119.441 171.356 119.449 171.356H122.077C122.261 171.356 122.417 171.424 122.545 171.56C122.681 171.696 122.749 171.856 122.749 172.04V172.316C122.749 172.5 122.681 172.66 122.545 172.796C122.417 172.932 122.261 173 122.077 173H117.433Z" fill="black"/>
</g>
<g id="Group 8">
<path id="Rectangle 2_3" d="M134.5 211.5V236.5H44.5V211.5H134.5Z" fill="#E8871E" stroke="black" stroke-width="3"/>
<g id="Mask group">
<mask id="mask0_5_357" style="mask-type:alpha" maskUnits="userSpaceOnUse" x="43" y="210" width="93" height="28">
<path id="Rectangle 3_3" d="M134.5 211.5V236.5H44.5V211.5H134.5Z" fill="#E8871E" stroke="black" stroke-width="3"/>
</mask>
<g mask="url(#mask0_5_357)">
<g id="Group 4">
<line id="Line 3" y1="-1" x2="46.776" y2="-1" transform="matrix(0.762509 -0.646977 0.762509 0.646977 20 240.263)" stroke="black" stroke-width="2"/>
<line id="Line 5" y1="-1" x2="46.776" y2="-1" transform="matrix(0.762509 -0.646977 0.762509 0.646977 40 240.263)" stroke="black" stroke-width="2"/>
<line id="Line 7" y1="-1" x2="46.776" y2="-1" transform="matrix(0.762509 -0.646977 0.762509 0.646977 60 240.263)" stroke="black" stroke-width="2"/>
<line id="Line 9" y1="-1" x2="46.776" y2="-1" transform="matrix(0.762509 -0.646977 0.762509 0.646977 80 240.263)" stroke="black" stroke-width="2"/>
<line id="Line 11" y1="-1" x2="46.776" y2="-1" transform="matrix(0.762509 -0.646977 0.762509 0.646977 100 240.263)" stroke="black" stroke-width="2"/>
<line id="Line 13" y1="-1" x2="46.776" y2="-1" transform="matrix(0.762509 -0.646977 0.762509 0.646977 120 240.263)" stroke="black" stroke-width="2"/>
<line id="Line 2" y1="-1" x2="46.776" y2="-1" transform="matrix(0.762509 -0.646977 0.762509 0.646977 10 240.263)" stroke="black" stroke-width="2"/>
<line id="Line 4" y1="-1" x2="46.776" y2="-1" transform="matrix(0.762509 -0.646977 0.762509 0.646977 30 240.263)" stroke="black" stroke-width="2"/>
<line id="Line 6" y1="-1" x2="46.776" y2="-1" transform="matrix(0.762509 -0.646977 0.762509 0.646977 50 240.263)" stroke="black" stroke-width="2"/>
<line id="Line 8" y1="-1" x2="46.776" y2="-1" transform="matrix(0.762509 -0.646977 0.762509 0.646977 70 240.263)" stroke="black" stroke-width="2"/>
<line id="Line 10" y1="-1" x2="46.776" y2="-1" transform="matrix(0.762509 -0.646977 0.762509 0.646977 90 240.263)" stroke="black" stroke-width="2"/>
<line id="Line 12" y1="-1" x2="46.776" y2="-1" transform="matrix(0.762509 -0.646977 0.762509 0.646977 110 240.263)" stroke="black" stroke-width="2"/>
<line id="Line 14" y1="-1" x2="46.776" y2="-1" transform="matrix(0.762509 -0.646977 0.762509 0.646977 130 240.263)" stroke="black" stroke-width="2"/>
</g>
</g>
</g>
</g>
</g>
<g>
<rect id="Machine-1" x="31.5" y="55.5" width="116" height="84" fill="#07BEB8" stroke="black" stroke-width="3"/>
<g id="Group 1_3">
<path id="Rectangle 2_4" d="M59.5 139.5V157.5H44.5V139.5H59.5Z" fill="#39393A" stroke="black" stroke-width="3"/>
<path id="Rectangle 3_4" d="M134.5 139.5V157.5H119.5V139.5H134.5Z" fill="#39393A" stroke="black" stroke-width="3"/>
</g>
<path id="MACHINE 1" d="M55.596 47C55.412 47 55.252 46.932 55.116 46.796C54.98 46.66 54.912 46.5 54.912 46.316V38.924C54.912 38.74 54.98 38.58 55.116 38.444C55.252 38.308 55.412 38.24 55.596 38.24H56.28C56.488 38.24 56.676 38.296 56.844 38.408C57.012 38.52 57.136 38.672 57.216 38.864L59.076 43.388C59.076 43.396 59.08 43.4 59.088 43.4C59.096 43.4 59.1 43.396 59.1 43.388L60.96 38.864C61.04 38.672 61.164 38.52 61.332 38.408C61.5 38.296 61.688 38.24 61.896 38.24H62.628C62.812 38.24 62.972 38.308 63.108 38.444C63.244 38.58 63.312 38.74 63.312 38.924V46.316C63.312 46.5 63.244 46.66 63.108 46.796C62.972 46.932 62.812 47 62.628 47H62.052C61.868 47 61.708 46.932 61.572 46.796C61.444 46.66 61.38 46.5 61.38 46.316V41.648C61.38 41.64 61.376 41.636 61.368 41.636C61.352 41.636 61.344 41.64 61.344 41.648L60.192 44.372C60.112 44.564 59.984 44.716 59.808 44.828C59.64 44.94 59.452 44.996 59.244 44.996H58.932C58.724 44.996 58.532 44.94 58.356 44.828C58.188 44.716 58.064 44.564 57.984 44.372L56.832 41.648C56.832 41.64 56.824 41.636 56.808 41.636C56.8 41.636 56.796 41.64 56.796 41.648V46.316C56.796 46.5 56.728 46.66 56.592 46.796C56.464 46.932 56.308 47 56.124 47H55.596ZM68.7307 40.016L67.8547 43.46C67.8467 43.484 67.8507 43.508 67.8667 43.532C67.8907 43.548 67.9147 43.556 67.9387 43.556H69.5467C69.5707 43.556 69.5907 43.548 69.6067 43.532C69.6307 43.508 69.6387 43.484 69.6307 43.46L68.7547 40.016C68.7547 40.008 68.7507 40.004 68.7427 40.004C68.7347 40.004 68.7307 40.008 68.7307 40.016ZM65.5267 47C65.3587 47 65.2227 46.932 65.1187 46.796C65.0227 46.66 65.0027 46.512 65.0587 46.352L67.4827 38.888C67.5467 38.696 67.6587 38.54 67.8187 38.42C67.9867 38.3 68.1707 38.24 68.3707 38.24H69.1627C69.3707 38.24 69.5587 38.3 69.7267 38.42C69.8947 38.54 70.0067 38.696 70.0627 38.888L72.4747 46.352C72.5307 46.512 72.5067 46.66 72.4027 46.796C72.3068 46.932 72.1748 47 72.0067 47H71.2028C71.0027 47 70.8227 46.94 70.6627 46.82C70.5027 46.692 70.3987 46.532 70.3507 46.34L70.0627 45.2C70.0547 45.136 70.0147 45.104 69.9427 45.104H67.5427C67.4787 45.104 67.4387 45.136 67.4227 45.2L67.1347 46.34C67.0867 46.532 66.9827 46.692 66.8227 46.82C66.6627 46.94 66.4827 47 66.2827 47H65.5267ZM77.3802 47.12C76.0682 47.12 75.0362 46.732 74.2842 45.956C73.5322 45.18 73.1562 44.068 73.1562 42.62C73.1562 41.196 73.5202 40.092 74.2482 39.308C74.9762 38.516 75.9922 38.12 77.2962 38.12C77.9202 38.12 78.4642 38.164 78.9282 38.252C79.1202 38.284 79.2762 38.38 79.3962 38.54C79.5162 38.7 79.5762 38.88 79.5762 39.08V39.464C79.5762 39.632 79.5082 39.764 79.3722 39.86C79.2362 39.956 79.0882 39.984 78.9282 39.944C78.4722 39.824 78.0082 39.764 77.5362 39.764C76.8162 39.764 76.2522 40.008 75.8442 40.496C75.4442 40.984 75.2442 41.692 75.2442 42.62C75.2442 43.532 75.4602 44.24 75.8922 44.744C76.3242 45.248 76.9002 45.5 77.6202 45.5C78.1002 45.5 78.5682 45.44 79.0242 45.32C79.1842 45.28 79.3322 45.308 79.4682 45.404C79.6122 45.5 79.6842 45.632 79.6842 45.8V46.16C79.6842 46.36 79.6202 46.54 79.4922 46.7C79.3722 46.86 79.2162 46.956 79.0242 46.988C78.5522 47.076 78.0042 47.12 77.3802 47.12ZM82.618 47C82.434 47 82.274 46.932 82.138 46.796C82.002 46.66 81.934 46.5 81.934 46.316V38.924C81.934 38.74 82.002 38.58 82.138 38.444C82.274 38.308 82.434 38.24 82.618 38.24H83.302C83.486 38.24 83.642 38.308 83.77 38.444C83.906 38.58 83.974 38.74 83.974 38.924V41.564C83.974 41.636 84.01 41.672 84.082 41.672H86.554C86.626 41.672 86.662 41.636 86.662 41.564V38.924C86.662 38.74 86.726 38.58 86.854 38.444C86.99 38.308 87.15 38.24 87.334 38.24H88.018C88.202 38.24 88.362 38.308 88.498 38.444C88.634 38.58 88.702 38.74 88.702 38.924V46.316C88.702 46.5 88.634 46.66 88.498 46.796C88.362 46.932 88.202 47 88.018 47H87.334C87.15 47 86.99 46.932 86.854 46.796C86.726 46.66 86.662 46.5 86.662 46.316V43.316C86.662 43.252 86.626 43.22 86.554 43.22H84.082C84.01 43.22 83.974 43.252 83.974 43.316V46.316C83.974 46.5 83.906 46.66 83.77 46.796C83.642 46.932 83.486 47 83.302 47H82.618ZM91.8559 47C91.6719 47 91.5119 46.932 91.3759 46.796C91.2479 46.66 91.1839 46.5 91.1839 46.316V38.924C91.1839 38.74 91.2479 38.58 91.3759 38.444C91.5119 38.308 91.6719 38.24 91.8559 38.24H92.7439C92.9279 38.24 93.0839 38.308 93.2119 38.444C93.3479 38.58 93.4159 38.74 93.4159 38.924V46.316C93.4159 46.5 93.3479 46.66 93.2119 46.796C93.0839 46.932 92.9279 47 92.7439 47H91.8559ZM96.5858 47C96.4018 47 96.2418 46.932 96.1058 46.796C95.9698 46.66 95.9018 46.5 95.9018 46.316V38.924C95.9018 38.74 95.9698 38.58 96.1058 38.444C96.2418 38.308 96.4018 38.24 96.5858 38.24H97.1738C97.6298 38.24 97.9618 38.44 98.1698 38.84L100.69 43.604C100.69 43.612 100.694 43.616 100.702 43.616C100.71 43.616 100.714 43.612 100.714 43.604V38.924C100.714 38.74 100.782 38.58 100.918 38.444C101.054 38.308 101.214 38.24 101.398 38.24H101.986C102.17 38.24 102.33 38.308 102.466 38.444C102.602 38.58 102.67 38.74 102.67 38.924V46.316C102.67 46.5 102.602 46.66 102.466 46.796C102.33 46.932 102.17 47 101.986 47H101.398C100.942 47 100.61 46.8 100.402 46.4L97.8818 41.636C97.8818 41.628 97.8778 41.624 97.8698 41.624C97.8618 41.624 97.8578 41.628 97.8578 41.636V46.316C97.8578 46.5 97.7898 46.66 97.6538 46.796C97.5178 46.932 97.3578 47 97.1738 47H96.5858ZM105.644 47C105.46 47 105.3 46.932 105.164 46.796C105.036 46.66 104.972 46.5 104.972 46.316V38.924C104.972 38.74 105.036 38.58 105.164 38.444C105.3 38.308 105.46 38.24 105.644 38.24H109.892C110.076 38.24 110.232 38.308 110.36 38.444C110.496 38.58 110.564 38.74 110.564 38.924V39.2C110.564 39.384 110.496 39.544 110.36 39.68C110.232 39.816 110.076 39.884 109.892 39.884H107.108C107.044 39.884 107.012 39.916 107.012 39.98V41.564C107.012 41.636 107.044 41.672 107.108 41.672H109.652C109.836 41.672 109.992 41.74 110.12 41.876C110.256 42.012 110.324 42.172 110.324 42.356V42.536C110.324 42.72 110.256 42.88 110.12 43.016C109.992 43.152 109.836 43.22 109.652 43.22H107.108C107.044 43.22 107.012 43.252 107.012 43.316V45.26C107.012 45.324 107.044 45.356 107.108 45.356H109.892C110.076 45.356 110.232 45.424 110.36 45.56C110.496 45.696 110.564 45.856 110.564 46.04V46.316C110.564 46.5 110.496 46.66 110.36 46.796C110.232 46.932 110.076 47 109.892 47H105.644ZM117.517 41.756C117.405 41.844 117.285 41.856 117.157 41.792C117.037 41.728 116.977 41.624 116.977 41.48V40.604C116.977 40.148 117.161 39.788 117.529 39.524L118.741 38.636C119.101 38.372 119.513 38.24 119.977 38.24H120.733C120.917 38.24 121.077 38.308 121.213 38.444C121.349 38.58 121.417 38.74 121.417 38.924V46.316C121.417 46.5 121.349 46.66 121.213 46.796C121.077 46.932 120.917 47 120.733 47H119.977C119.793 47 119.633 46.932 119.497 46.796C119.361 46.66 119.293 46.5 119.293 46.316V40.484H119.281H119.269L117.517 41.756Z" fill="black"/>
</g>
</g>
<g id="Factory">
<rect id="Rectangle 8" x="180.5" y="110.5" width="74.9355" height="74.9355" fill="#FFF4E9" stroke="black" stroke-width="3"/>
<rect id="Rectangle 14" x="180.5" y="185.188" width="74.9355" height="74.9355" fill="#FFF4E9" stroke="black" stroke-width="3"/>
<rect id="Rectangle 20" x="180.5" y="259.876" width="74.9355" height="74.9355" fill="#FFF4E9" stroke="black" stroke-width="3"/>
<rect id="Rectangle 26" x="180.5" y="334.565" width="74.9355" height="74.9355" fill="#FFF4E9" stroke="black" stroke-width="3"/>
<rect id="Rectangle 11" x="404.564" y="110.5" width="74.9355" height="74.9355" fill="#FFF4E9" stroke="black" stroke-width="3"/>
<rect id="Rectangle 15" x="404.564" y="185.188" width="74.9355" height="74.9355" fill="#FFF4E9" stroke="black" stroke-width="3"/>
<rect id="Rectangle 21" x="404.564" y="259.876" width="74.9355" height="74.9355" fill="#FFF4E9" stroke="black" stroke-width="3"/>
<rect id="Rectangle 27" x="404.564" y="334.565" width="74.9355" height="74.9355" fill="#FFF4E9" stroke="black" stroke-width="3"/>
<rect id="Rectangle 10" x="329.876" y="110.5" width="74.9355" height="74.9355" fill="#FFF4E9" stroke="black" stroke-width="3"/>
<rect id="Rectangle 16" x="329.876" y="185.188" width="74.9355" height="74.9355" fill="#FFF4E9" stroke="black" stroke-width="3"/>
<rect id="Rectangle 22" x="329.876" y="259.876" width="74.9355" height="74.9355" fill="#FFF4E9" stroke="black" stroke-width="3"/>
<rect id="Rectangle 28" x="329.876" y="334.565" width="74.9355" height="74.9355" fill="#FFF4E9" stroke="black" stroke-width="3"/>
<rect id="Rectangle 12" x="553.941" y="110.5" width="74.9355" height="74.9355" fill="#FFF4E9" stroke="black" stroke-width="3"/>
<rect id="Rectangle 17" x="553.941" y="185.188" width="74.9355" height="74.9355" fill="#FFF4E9" stroke="black" stroke-width="3"/>
<rect id="Rectangle 23" x="553.941" y="259.876" width="74.9355" height="74.9355" fill="#FFF4E9" stroke="black" stroke-width="3"/>
<rect id="Rectangle 29" x="553.941" y="334.565" width="74.9355" height="74.9355" fill="#FFF4E9" stroke="black" stroke-width="3"/>
<rect id="Rectangle 9" x="255.188" y="110.5" width="74.9355" height="74.9355" fill="#FFF4E9" stroke="black" stroke-width="3"/>
<rect id="Rectangle 18" x="255.188" y="185.188" width="74.9355" height="74.9355" fill="#FFF4E9" stroke="black" stroke-width="3"/>
<rect id="Rectangle 24" x="255.188" y="259.876" width="74.9355" height="74.9355" fill="#FFF4E9" stroke="black" stroke-width="3"/>
<rect id="Rectangle 30" x="255.188" y="334.565" width="74.9355" height="74.9355" fill="#FFF4E9" stroke="black" stroke-width="3"/>
<rect id="Rectangle 13" x="479.253" y="110.5" width="74.9355" height="74.9355" fill="#FFF4E9" stroke="black" stroke-width="3"/>
<rect id="Rectangle 19" x="479.253" y="185.188" width="74.9355" height="74.9355" fill="#FFF4E9" stroke="black" stroke-width="3"/>
<rect id="Rectangle 25" x="479.253" y="259.876" width="74.9355" height="74.9355" fill="#FFF4E9" stroke="black" stroke-width="3"/>
<rect id="Rectangle 31" x="479.253" y="334.565" width="74.9355" height="74.9355" fill="#FFF4E9" stroke="black" stroke-width="3"/>
</g>
<g id="Group 16">
<g id="Depot-1">
<path id="Rectangle 7" d="M777.876 84.1152V155.5H661.876V84.124L720.371 32.0156L777.876 84.1152Z" fill="#D9D7DD" stroke="black" stroke-width="3"/>
<g id="Group 5">
<path id="Rectangle 2_5" d="M764.876 90.5V115.5H674.876V90.5H764.876Z" fill="#D9D7DD" stroke="black" stroke-width="3"/>
<g id="Mask group_2">
<mask id="mask1_5_357" style="mask-type:alpha" maskUnits="userSpaceOnUse" x="673" y="89" width="94" height="28">
<path id="Rectangle 3_5" d="M764.876 90.5V115.5H674.876V90.5H764.876Z" fill="#E8871E" stroke="black" stroke-width="3"/>
</mask>
<g mask="url(#mask1_5_357)">
<g id="Group 4_2">
<line id="Line 3_2" y1="-1" x2="46.776" y2="-1" transform="matrix(0.762509 -0.646977 0.762509 0.646977 650.376 119.263)" stroke="black" stroke-width="2"/>
<line id="Line 5_2" y1="-1" x2="46.776" y2="-1" transform="matrix(0.762509 -0.646977 0.762509 0.646977 670.376 119.263)" stroke="black" stroke-width="2"/>
<line id="Line 7_2" y1="-1" x2="46.776" y2="-1" transform="matrix(0.762509 -0.646977 0.762509 0.646977 690.376 119.263)" stroke="black" stroke-width="2"/>
<line id="Line 9_2" y1="-1" x2="46.776" y2="-1" transform="matrix(0.762509 -0.646977 0.762509 0.646977 710.376 119.263)" stroke="black" stroke-width="2"/>
<line id="Line 11_2" y1="-1" x2="46.776" y2="-1" transform="matrix(0.762509 -0.646977 0.762509 0.646977 730.376 119.263)" stroke="black" stroke-width="2"/>
<line id="Line 13_2" y1="-1" x2="46.776" y2="-1" transform="matrix(0.762509 -0.646977 0.762509 0.646977 750.376 119.263)" stroke="black" stroke-width="2"/>
<line id="Line 2_2" y1="-1" x2="46.776" y2="-1" transform="matrix(0.762509 -0.646977 0.762509 0.646977 640.376 119.263)" stroke="black" stroke-width="2"/>
<line id="Line 4_2" y1="-1" x2="46.776" y2="-1" transform="matrix(0.762509 -0.646977 0.762509 0.646977 660.376 119.263)" stroke="black" stroke-width="2"/>
<line id="Line 6_2" y1="-1" x2="46.776" y2="-1" transform="matrix(0.762509 -0.646977 0.762509 0.646977 680.376 119.263)" stroke="black" stroke-width="2"/>
<line id="Line 8_2" y1="-1" x2="46.776" y2="-1" transform="matrix(0.762509 -0.646977 0.762509 0.646977 700.376 119.263)" stroke="black" stroke-width="2"/>
<line id="Line 10_2" y1="-1" x2="46.776" y2="-1" transform="matrix(0.762509 -0.646977 0.762509 0.646977 720.376 119.263)" stroke="black" stroke-width="2"/>
<line id="Line 12_2" y1="-1" x2="46.776" y2="-1" transform="matrix(0.762509 -0.646977 0.762509 0.646977 740.376 119.263)" stroke="black" stroke-width="2"/>
<line id="Line 14_2" y1="-1" x2="46.776" y2="-1" transform="matrix(0.762509 -0.646977 0.762509 0.646977 760.376 119.263)" stroke="black" stroke-width="2"/>
</g>
</g>
</g>
</g>
<g id="Group 8_2">
<path id="Rectangle 2_6" d="M764.876 123.5V148.5H674.876V123.5H764.876Z" fill="#D9D7DD" stroke="black" stroke-width="3"/>
<g id="Mask group_3">
<mask id="mask2_5_357" style="mask-type:alpha" maskUnits="userSpaceOnUse" x="673" y="122" width="94" height="28">
<path id="Rectangle 3_6" d="M764.876 123.5V148.5H674.876V123.5H764.876Z" fill="#E8871E" stroke="black" stroke-width="3"/>
</mask>
<g mask="url(#mask2_5_357)">
<g id="Group 4_3">
<line id="Line 3_3" y1="-1" x2="46.776" y2="-1" transform="matrix(0.762509 -0.646977 0.762509 0.646977 650.376 152.263)" stroke="black" stroke-width="2"/>
<line id="Line 5_3" y1="-1" x2="46.776" y2="-1" transform="matrix(0.762509 -0.646977 0.762509 0.646977 670.376 152.263)" stroke="black" stroke-width="2"/>
<line id="Line 7_3" y1="-1" x2="46.776" y2="-1" transform="matrix(0.762509 -0.646977 0.762509 0.646977 690.376 152.263)" stroke="black" stroke-width="2"/>
<line id="Line 9_3" y1="-1" x2="46.776" y2="-1" transform="matrix(0.762509 -0.646977 0.762509 0.646977 710.376 152.263)" stroke="black" stroke-width="2"/>
<line id="Line 11_3" y1="-1" x2="46.776" y2="-1" transform="matrix(0.762509 -0.646977 0.762509 0.646977 730.376 152.263)" stroke="black" stroke-width="2"/>
<line id="Line 13_3" y1="-1" x2="46.776" y2="-1" transform="matrix(0.762509 -0.646977 0.762509 0.646977 750.376 152.263)" stroke="black" stroke-width="2"/>
<line id="Line 2_3" y1="-1" x2="46.776" y2="-1" transform="matrix(0.762509 -0.646977 0.762509 0.646977 640.376 152.263)" stroke="black" stroke-width="2"/>
<line id="Line 4_3" y1="-1" x2="46.776" y2="-1" transform="matrix(0.762509 -0.646977 0.762509 0.646977 660.376 152.263)" stroke="black" stroke-width="2"/>
<line id="Line 6_3" y1="-1" x2="46.776" y2="-1" transform="matrix(0.762509 -0.646977 0.762509 0.646977 680.376 152.263)" stroke="black" stroke-width="2"/>
<line id="Line 8_3" y1="-1" x2="46.776" y2="-1" transform="matrix(0.762509 -0.646977 0.762509 0.646977 700.376 152.263)" stroke="black" stroke-width="2"/>
<line id="Line 10_3" y1="-1" x2="46.776" y2="-1" transform="matrix(0.762509 -0.646977 0.762509 0.646977 720.376 152.263)" stroke="black" stroke-width="2"/>
<line id="Line 12_3" y1="-1" x2="46.776" y2="-1" transform="matrix(0.762509 -0.646977 0.762509 0.646977 740.376 152.263)" stroke="black" stroke-width="2"/>
<line id="Line 14_3" y1="-1" x2="46.776" y2="-1" transform="matrix(0.762509 -0.646977 0.762509 0.646977 760.376 152.263)" stroke="black" stroke-width="2"/>
</g>
</g>
</g>
</g>
<path id="DEPOT 1" d="M695.28 66.896V72.344C695.28 72.416 695.316 72.46 695.388 72.476C695.548 72.508 695.74 72.524 695.964 72.524C696.772 72.524 697.368 72.288 697.752 71.816C698.144 71.344 698.34 70.572 698.34 69.5C698.34 68.54 698.144 67.836 697.752 67.388C697.36 66.94 696.764 66.716 695.964 66.716C695.74 66.716 695.548 66.732 695.388 66.764C695.316 66.78 695.28 66.824 695.28 66.896ZM693.96 74.024C693.768 74.008 693.608 73.928 693.48 73.784C693.352 73.632 693.288 73.456 693.288 73.256V65.984C693.288 65.784 693.352 65.612 693.48 65.468C693.608 65.316 693.768 65.232 693.96 65.216C694.584 65.152 695.2 65.12 695.808 65.12C697.24 65.12 698.344 65.5 699.12 66.26C699.896 67.02 700.284 68.1 700.284 69.5C700.284 71.02 699.896 72.172 699.12 72.956C698.344 73.732 697.24 74.12 695.808 74.12C695.2 74.12 694.584 74.088 693.96 74.024ZM702.725 74C702.541 74 702.381 73.932 702.245 73.796C702.117 73.66 702.053 73.5 702.053 73.316V65.924C702.053 65.74 702.117 65.58 702.245 65.444C702.381 65.308 702.541 65.24 702.725 65.24H706.973C707.157 65.24 707.313 65.308 707.441 65.444C707.577 65.58 707.645 65.74 707.645 65.924V66.2C707.645 66.384 707.577 66.544 707.441 66.68C707.313 66.816 707.157 66.884 706.973 66.884H704.189C704.125 66.884 704.093 66.916 704.093 66.98V68.564C704.093 68.636 704.125 68.672 704.189 68.672H706.733C706.917 68.672 707.073 68.74 707.201 68.876C707.337 69.012 707.405 69.172 707.405 69.356V69.536C707.405 69.72 707.337 69.88 707.201 70.016C707.073 70.152 706.917 70.22 706.733 70.22H704.189C704.125 70.22 704.093 70.252 704.093 70.316V72.26C704.093 72.324 704.125 72.356 704.189 72.356H706.973C707.157 72.356 707.313 72.424 707.441 72.56C707.577 72.696 707.645 72.856 707.645 73.04V73.316C707.645 73.5 707.577 73.66 707.441 73.796C707.313 73.932 707.157 74 706.973 74H702.725ZM711.838 66.848V69.464C711.838 69.52 711.874 69.556 711.946 69.572C712.218 69.604 712.434 69.62 712.594 69.62C713.17 69.62 713.614 69.488 713.926 69.224C714.246 68.952 714.406 68.576 714.406 68.096C714.406 67.144 713.802 66.668 712.594 66.668C712.394 66.668 712.174 66.688 711.934 66.728C711.87 66.744 711.838 66.784 711.838 66.848ZM710.518 74C710.334 74 710.174 73.932 710.038 73.796C709.902 73.66 709.834 73.5 709.834 73.316V65.984C709.834 65.792 709.898 65.62 710.026 65.468C710.154 65.316 710.314 65.232 710.506 65.216C711.186 65.152 711.842 65.12 712.474 65.12C715.034 65.12 716.314 66.072 716.314 67.976C716.314 69.008 716.014 69.792 715.414 70.328C714.822 70.856 713.95 71.12 712.798 71.12C712.494 71.12 712.21 71.108 711.946 71.084C711.874 71.084 711.838 71.116 711.838 71.18V73.316C711.838 73.5 711.77 73.66 711.634 73.796C711.498 73.932 711.338 74 711.154 74H710.518ZM723.593 69.62C723.593 67.74 722.921 66.8 721.577 66.8C720.233 66.8 719.561 67.74 719.561 69.62C719.561 71.5 720.233 72.44 721.577 72.44C722.921 72.44 723.593 71.5 723.593 69.62ZM724.577 72.932C723.841 73.724 722.841 74.12 721.577 74.12C720.313 74.12 719.313 73.724 718.577 72.932C717.841 72.132 717.473 71.028 717.473 69.62C717.473 68.212 717.841 67.112 718.577 66.32C719.313 65.52 720.313 65.12 721.577 65.12C722.841 65.12 723.841 65.52 724.577 66.32C725.313 67.112 725.681 68.212 725.681 69.62C725.681 71.028 725.313 72.132 724.577 72.932ZM727.35 66.932C727.166 66.932 727.006 66.864 726.87 66.728C726.734 66.592 726.666 66.432 726.666 66.248V65.924C726.666 65.74 726.734 65.58 726.87 65.444C727.006 65.308 727.166 65.24 727.35 65.24H732.702C732.886 65.24 733.046 65.308 733.182 65.444C733.318 65.58 733.386 65.74 733.386 65.924V66.248C733.386 66.432 733.318 66.592 733.182 66.728C733.046 66.864 732.886 66.932 732.702 66.932H731.166C731.102 66.932 731.07 66.964 731.07 67.028V73.316C731.07 73.5 731.002 73.66 730.866 73.796C730.73 73.932 730.57 74 730.386 74H729.666C729.482 74 729.322 73.932 729.186 73.796C729.05 73.66 728.982 73.5 728.982 73.316V67.028C728.982 66.964 728.95 66.932 728.886 66.932H727.35ZM740.156 68.756C740.044 68.844 739.924 68.856 739.796 68.792C739.676 68.728 739.616 68.624 739.616 68.48V67.604C739.616 67.148 739.8 66.788 740.168 66.524L741.38 65.636C741.74 65.372 742.152 65.24 742.616 65.24H743.372C743.556 65.24 743.716 65.308 743.852 65.444C743.988 65.58 744.056 65.74 744.056 65.924V73.316C744.056 73.5 743.988 73.66 743.852 73.796C743.716 73.932 743.556 74 743.372 74H742.616C742.432 74 742.272 73.932 742.136 73.796C742 73.66 741.932 73.5 741.932 73.316V67.484H741.92H741.908L740.156 68.756Z" fill="black"/>
</g>
<g id="Depot-2">
<path id="Rectangle 7_2" d="M777.876 211.115V282.5H661.876V211.124L720.371 159.016L777.876 211.115Z" fill="#D9D7DD" stroke="black" stroke-width="3"/>
<g id="Group 8_3">
<path id="Rectangle 2_7" d="M764.876 250.5V275.5H674.876V250.5H764.876Z" fill="#D9D7DD" stroke="black" stroke-width="3"/>
<g id="Mask group_4">
<mask id="mask3_5_357" style="mask-type:alpha" maskUnits="userSpaceOnUse" x="673" y="249" width="94" height="28">
<path id="Rectangle 3_7" d="M764.876 250.5V275.5H674.876V250.5H764.876Z" fill="#E8871E" stroke="black" stroke-width="3"/>
</mask>
<g mask="url(#mask3_5_357)">
<g id="Group 4_4">
<line id="Line 3_4" y1="-1" x2="46.776" y2="-1" transform="matrix(0.762509 -0.646977 0.762509 0.646977 650.376 279.263)" stroke="black" stroke-width="2"/>
<line id="Line 5_4" y1="-1" x2="46.776" y2="-1" transform="matrix(0.762509 -0.646977 0.762509 0.646977 670.376 279.263)" stroke="black" stroke-width="2"/>
<line id="Line 7_4" y1="-1" x2="46.776" y2="-1" transform="matrix(0.762509 -0.646977 0.762509 0.646977 690.376 279.263)" stroke="black" stroke-width="2"/>
<line id="Line 9_4" y1="-1" x2="46.776" y2="-1" transform="matrix(0.762509 -0.646977 0.762509 0.646977 710.376 279.263)" stroke="black" stroke-width="2"/>
<line id="Line 11_4" y1="-1" x2="46.776" y2="-1" transform="matrix(0.762509 -0.646977 0.762509 0.646977 730.376 279.263)" stroke="black" stroke-width="2"/>
<line id="Line 13_4" y1="-1" x2="46.776" y2="-1" transform="matrix(0.762509 -0.646977 0.762509 0.646977 750.376 279.263)" stroke="black" stroke-width="2"/>
<line id="Line 2_4" y1="-1" x2="46.776" y2="-1" transform="matrix(0.762509 -0.646977 0.762509 0.646977 640.376 279.263)" stroke="black" stroke-width="2"/>
<line id="Line 4_4" y1="-1" x2="46.776" y2="-1" transform="matrix(0.762509 -0.646977 0.762509 0.646977 660.376 279.263)" stroke="black" stroke-width="2"/>
<line id="Line 6_4" y1="-1" x2="46.776" y2="-1" transform="matrix(0.762509 -0.646977 0.762509 0.646977 680.376 279.263)" stroke="black" stroke-width="2"/>
<line id="Line 8_4" y1="-1" x2="46.776" y2="-1" transform="matrix(0.762509 -0.646977 0.762509 0.646977 700.376 279.263)" stroke="black" stroke-width="2"/>
<line id="Line 10_4" y1="-1" x2="46.776" y2="-1" transform="matrix(0.762509 -0.646977 0.762509 0.646977 720.376 279.263)" stroke="black" stroke-width="2"/>
<line id="Line 12_4" y1="-1" x2="46.776" y2="-1" transform="matrix(0.762509 -0.646977 0.762509 0.646977 740.376 279.263)" stroke="black" stroke-width="2"/>
<line id="Line 14_4" y1="-1" x2="46.776" y2="-1" transform="matrix(0.762509 -0.646977 0.762509 0.646977 760.376 279.263)" stroke="black" stroke-width="2"/>
</g>
</g>
</g>
</g>
<path id="DEPOT 2" d="M695.28 193.896V199.344C695.28 199.416 695.316 199.46 695.388 199.476C695.548 199.508 695.74 199.524 695.964 199.524C696.772 199.524 697.368 199.288 697.752 198.816C698.144 198.344 698.34 197.572 698.34 196.5C698.34 195.54 698.144 194.836 697.752 194.388C697.36 193.94 696.764 193.716 695.964 193.716C695.74 193.716 695.548 193.732 695.388 193.764C695.316 193.78 695.28 193.824 695.28 193.896ZM693.96 201.024C693.768 201.008 693.608 200.928 693.48 200.784C693.352 200.632 693.288 200.456 693.288 200.256V192.984C693.288 192.784 693.352 192.612 693.48 192.468C693.608 192.316 693.768 192.232 693.96 192.216C694.584 192.152 695.2 192.12 695.808 192.12C697.24 192.12 698.344 192.5 699.12 193.26C699.896 194.02 700.284 195.1 700.284 196.5C700.284 198.02 699.896 199.172 699.12 199.956C698.344 200.732 697.24 201.12 695.808 201.12C695.2 201.12 694.584 201.088 693.96 201.024ZM702.725 201C702.541 201 702.381 200.932 702.245 200.796C702.117 200.66 702.053 200.5 702.053 200.316V192.924C702.053 192.74 702.117 192.58 702.245 192.444C702.381 192.308 702.541 192.24 702.725 192.24H706.973C707.157 192.24 707.313 192.308 707.441 192.444C707.577 192.58 707.645 192.74 707.645 192.924V193.2C707.645 193.384 707.577 193.544 707.441 193.68C707.313 193.816 707.157 193.884 706.973 193.884H704.189C704.125 193.884 704.093 193.916 704.093 193.98V195.564C704.093 195.636 704.125 195.672 704.189 195.672H706.733C706.917 195.672 707.073 195.74 707.201 195.876C707.337 196.012 707.405 196.172 707.405 196.356V196.536C707.405 196.72 707.337 196.88 707.201 197.016C707.073 197.152 706.917 197.22 706.733 197.22H704.189C704.125 197.22 704.093 197.252 704.093 197.316V199.26C704.093 199.324 704.125 199.356 704.189 199.356H706.973C707.157 199.356 707.313 199.424 707.441 199.56C707.577 199.696 707.645 199.856 707.645 200.04V200.316C707.645 200.5 707.577 200.66 707.441 200.796C707.313 200.932 707.157 201 706.973 201H702.725ZM711.838 193.848V196.464C711.838 196.52 711.874 196.556 711.946 196.572C712.218 196.604 712.434 196.62 712.594 196.62C713.17 196.62 713.614 196.488 713.926 196.224C714.246 195.952 714.406 195.576 714.406 195.096C714.406 194.144 713.802 193.668 712.594 193.668C712.394 193.668 712.174 193.688 711.934 193.728C711.87 193.744 711.838 193.784 711.838 193.848ZM710.518 201C710.334 201 710.174 200.932 710.038 200.796C709.902 200.66 709.834 200.5 709.834 200.316V192.984C709.834 192.792 709.898 192.62 710.026 192.468C710.154 192.316 710.314 192.232 710.506 192.216C711.186 192.152 711.842 192.12 712.474 192.12C715.034 192.12 716.314 193.072 716.314 194.976C716.314 196.008 716.014 196.792 715.414 197.328C714.822 197.856 713.95 198.12 712.798 198.12C712.494 198.12 712.21 198.108 711.946 198.084C711.874 198.084 711.838 198.116 711.838 198.18V200.316C711.838 200.5 711.77 200.66 711.634 200.796C711.498 200.932 711.338 201 711.154 201H710.518ZM723.593 196.62C723.593 194.74 722.921 193.8 721.577 193.8C720.233 193.8 719.561 194.74 719.561 196.62C719.561 198.5 720.233 199.44 721.577 199.44C722.921 199.44 723.593 198.5 723.593 196.62ZM724.577 199.932C723.841 200.724 722.841 201.12 721.577 201.12C720.313 201.12 719.313 200.724 718.577 199.932C717.841 199.132 717.473 198.028 717.473 196.62C717.473 195.212 717.841 194.112 718.577 193.32C719.313 192.52 720.313 192.12 721.577 192.12C722.841 192.12 723.841 192.52 724.577 193.32C725.313 194.112 725.681 195.212 725.681 196.62C725.681 198.028 725.313 199.132 724.577 199.932ZM727.35 193.932C727.166 193.932 727.006 193.864 726.87 193.728C726.734 193.592 726.666 193.432 726.666 193.248V192.924C726.666 192.74 726.734 192.58 726.87 192.444C727.006 192.308 727.166 192.24 727.35 192.24H732.702C732.886 192.24 733.046 192.308 733.182 192.444C733.318 192.58 733.386 192.74 733.386 192.924V193.248C733.386 193.432 733.318 193.592 733.182 193.728C733.046 193.864 732.886 193.932 732.702 193.932H731.166C731.102 193.932 731.07 193.964 731.07 194.028V200.316C731.07 200.5 731.002 200.66 730.866 200.796C730.73 200.932 730.57 201 730.386 201H729.666C729.482 201 729.322 200.932 729.186 200.796C729.05 200.66 728.982 200.5 728.982 200.316V194.028C728.982 193.964 728.95 193.932 728.886 193.932H727.35ZM740.072 201C739.888 201 739.728 200.932 739.592 200.796C739.456 200.66 739.388 200.5 739.388 200.316V200.04C739.388 199.592 739.568 199.228 739.928 198.948C741.272 197.892 742.16 197.088 742.592 196.536C743.032 195.984 743.252 195.444 743.252 194.916C743.252 194.18 742.844 193.812 742.028 193.812C741.532 193.812 740.924 193.948 740.204 194.22C740.052 194.276 739.908 194.26 739.772 194.172C739.636 194.084 739.568 193.96 739.568 193.8V193.296C739.568 193.088 739.628 192.904 739.748 192.744C739.868 192.576 740.028 192.464 740.228 192.408C740.956 192.216 741.656 192.12 742.328 192.12C743.296 192.12 744.04 192.352 744.56 192.816C745.088 193.272 745.352 193.908 745.352 194.724C745.352 195.428 745.128 196.1 744.68 196.74C744.24 197.372 743.376 198.232 742.088 199.32C742.08 199.328 742.076 199.336 742.076 199.344C742.076 199.352 742.08 199.356 742.088 199.356H744.716C744.9 199.356 745.056 199.424 745.184 199.56C745.32 199.696 745.388 199.856 745.388 200.04V200.316C745.388 200.5 745.32 200.66 745.184 200.796C745.056 200.932 744.9 201 744.716 201H740.072Z" fill="black"/>
</g>
<g id="Depot-3">
<path id="Rectangle 7_3" d="M777.876 338.115V409.5H661.876V338.124L720.371 286.016L777.876 338.115Z" fill="#D9D7DD" stroke="black" stroke-width="3"/>
<g id="Group 8_4">
<path id="Rectangle 2_8" d="M764.876 377.5V402.5H674.876V377.5H764.876Z" fill="#D9D7DD" stroke="black" stroke-width="3"/>
<g id="Mask group_5">
<mask id="mask4_5_357" style="mask-type:alpha" maskUnits="userSpaceOnUse" x="673" y="376" width="94" height="28">
<path id="Rectangle 3_8" d="M764.876 377.5V402.5H674.876V377.5H764.876Z" fill="#E8871E" stroke="black" stroke-width="3"/>
</mask>
<g mask="url(#mask4_5_357)">
<g id="Group 4_5">
<line id="Line 3_5" y1="-1" x2="46.776" y2="-1" transform="matrix(0.762509 -0.646977 0.762509 0.646977 650.376 406.263)" stroke="black" stroke-width="2"/>
<line id="Line 5_5" y1="-1" x2="46.776" y2="-1" transform="matrix(0.762509 -0.646977 0.762509 0.646977 670.376 406.263)" stroke="black" stroke-width="2"/>
<line id="Line 7_5" y1="-1" x2="46.776" y2="-1" transform="matrix(0.762509 -0.646977 0.762509 0.646977 690.376 406.263)" stroke="black" stroke-width="2"/>
<line id="Line 9_5" y1="-1" x2="46.776" y2="-1" transform="matrix(0.762509 -0.646977 0.762509 0.646977 710.376 406.263)" stroke="black" stroke-width="2"/>
<line id="Line 11_5" y1="-1" x2="46.776" y2="-1" transform="matrix(0.762509 -0.646977 0.762509 0.646977 730.376 406.263)" stroke="black" stroke-width="2"/>
<line id="Line 13_5" y1="-1" x2="46.776" y2="-1" transform="matrix(0.762509 -0.646977 0.762509 0.646977 750.376 406.263)" stroke="black" stroke-width="2"/>
<line id="Line 2_5" y1="-1" x2="46.776" y2="-1" transform="matrix(0.762509 -0.646977 0.762509 0.646977 640.376 406.263)" stroke="black" stroke-width="2"/>
<line id="Line 4_5" y1="-1" x2="46.776" y2="-1" transform="matrix(0.762509 -0.646977 0.762509 0.646977 660.376 406.263)" stroke="black" stroke-width="2"/>
<line id="Line 6_5" y1="-1" x2="46.776" y2="-1" transform="matrix(0.762509 -0.646977 0.762509 0.646977 680.376 406.263)" stroke="black" stroke-width="2"/>
<line id="Line 8_5" y1="-1" x2="46.776" y2="-1" transform="matrix(0.762509 -0.646977 0.762509 0.646977 700.376 406.263)" stroke="black" stroke-width="2"/>
<line id="Line 10_5" y1="-1" x2="46.776" y2="-1" transform="matrix(0.762509 -0.646977 0.762509 0.646977 720.376 406.263)" stroke="black" stroke-width="2"/>
<line id="Line 12_5" y1="-1" x2="46.776" y2="-1" transform="matrix(0.762509 -0.646977 0.762509 0.646977 740.376 406.263)" stroke="black" stroke-width="2"/>
<line id="Line 14_5" y1="-1" x2="46.776" y2="-1" transform="matrix(0.762509 -0.646977 0.762509 0.646977 760.376 406.263)" stroke="black" stroke-width="2"/>
</g>
</g>
</g>
</g>
<path id="DEPOT 3" d="M695.28 320.896V326.344C695.28 326.416 695.316 326.46 695.388 326.476C695.548 326.508 695.74 326.524 695.964 326.524C696.772 326.524 697.368 326.288 697.752 325.816C698.144 325.344 698.34 324.572 698.34 323.5C698.34 322.54 698.144 321.836 697.752 321.388C697.36 320.94 696.764 320.716 695.964 320.716C695.74 320.716 695.548 320.732 695.388 320.764C695.316 320.78 695.28 320.824 695.28 320.896ZM693.96 328.024C693.768 328.008 693.608 327.928 693.48 327.784C693.352 327.632 693.288 327.456 693.288 327.256V319.984C693.288 319.784 693.352 319.612 693.48 319.468C693.608 319.316 693.768 319.232 693.96 319.216C694.584 319.152 695.2 319.12 695.808 319.12C697.24 319.12 698.344 319.5 699.12 320.26C699.896 321.02 700.284 322.1 700.284 323.5C700.284 325.02 699.896 326.172 699.12 326.956C698.344 327.732 697.24 328.12 695.808 328.12C695.2 328.12 694.584 328.088 693.96 328.024ZM702.725 328C702.541 328 702.381 327.932 702.245 327.796C702.117 327.66 702.053 327.5 702.053 327.316V319.924C702.053 319.74 702.117 319.58 702.245 319.444C702.381 319.308 702.541 319.24 702.725 319.24H706.973C707.157 319.24 707.313 319.308 707.441 319.444C707.577 319.58 707.645 319.74 707.645 319.924V320.2C707.645 320.384 707.577 320.544 707.441 320.68C707.313 320.816 707.157 320.884 706.973 320.884H704.189C704.125 320.884 704.093 320.916 704.093 320.98V322.564C704.093 322.636 704.125 322.672 704.189 322.672H706.733C706.917 322.672 707.073 322.74 707.201 322.876C707.337 323.012 707.405 323.172 707.405 323.356V323.536C707.405 323.72 707.337 323.88 707.201 324.016C707.073 324.152 706.917 324.22 706.733 324.22H704.189C704.125 324.22 704.093 324.252 704.093 324.316V326.26C704.093 326.324 704.125 326.356 704.189 326.356H706.973C707.157 326.356 707.313 326.424 707.441 326.56C707.577 326.696 707.645 326.856 707.645 327.04V327.316C707.645 327.5 707.577 327.66 707.441 327.796C707.313 327.932 707.157 328 706.973 328H702.725ZM711.838 320.848V323.464C711.838 323.52 711.874 323.556 711.946 323.572C712.218 323.604 712.434 323.62 712.594 323.62C713.17 323.62 713.614 323.488 713.926 323.224C714.246 322.952 714.406 322.576 714.406 322.096C714.406 321.144 713.802 320.668 712.594 320.668C712.394 320.668 712.174 320.688 711.934 320.728C711.87 320.744 711.838 320.784 711.838 320.848ZM710.518 328C710.334 328 710.174 327.932 710.038 327.796C709.902 327.66 709.834 327.5 709.834 327.316V319.984C709.834 319.792 709.898 319.62 710.026 319.468C710.154 319.316 710.314 319.232 710.506 319.216C711.186 319.152 711.842 319.12 712.474 319.12C715.034 319.12 716.314 320.072 716.314 321.976C716.314 323.008 716.014 323.792 715.414 324.328C714.822 324.856 713.95 325.12 712.798 325.12C712.494 325.12 712.21 325.108 711.946 325.084C711.874 325.084 711.838 325.116 711.838 325.18V327.316C711.838 327.5 711.77 327.66 711.634 327.796C711.498 327.932 711.338 328 711.154 328H710.518ZM723.593 323.62C723.593 321.74 722.921 320.8 721.577 320.8C720.233 320.8 719.561 321.74 719.561 323.62C719.561 325.5 720.233 326.44 721.577 326.44C722.921 326.44 723.593 325.5 723.593 323.62ZM724.577 326.932C723.841 327.724 722.841 328.12 721.577 328.12C720.313 328.12 719.313 327.724 718.577 326.932C717.841 326.132 717.473 325.028 717.473 323.62C717.473 322.212 717.841 321.112 718.577 320.32C719.313 319.52 720.313 319.12 721.577 319.12C722.841 319.12 723.841 319.52 724.577 320.32C725.313 321.112 725.681 322.212 725.681 323.62C725.681 325.028 725.313 326.132 724.577 326.932ZM727.35 320.932C727.166 320.932 727.006 320.864 726.87 320.728C726.734 320.592 726.666 320.432 726.666 320.248V319.924C726.666 319.74 726.734 319.58 726.87 319.444C727.006 319.308 727.166 319.24 727.35 319.24H732.702C732.886 319.24 733.046 319.308 733.182 319.444C733.318 319.58 733.386 319.74 733.386 319.924V320.248C733.386 320.432 733.318 320.592 733.182 320.728C733.046 320.864 732.886 320.932 732.702 320.932H731.166C731.102 320.932 731.07 320.964 731.07 321.028V327.316C731.07 327.5 731.002 327.66 730.866 327.796C730.73 327.932 730.57 328 730.386 328H729.666C729.482 328 729.322 327.932 729.186 327.796C729.05 327.66 728.982 327.5 728.982 327.316V321.028C728.982 320.964 728.95 320.932 728.886 320.932H727.35ZM740.036 320.884C739.852 320.884 739.692 320.816 739.556 320.68C739.42 320.544 739.352 320.384 739.352 320.2V319.924C739.352 319.74 739.42 319.58 739.556 319.444C739.692 319.308 739.852 319.24 740.036 319.24H744.512C744.696 319.24 744.856 319.308 744.992 319.444C745.128 319.58 745.196 319.74 745.196 319.924V320.2C745.196 320.656 745.02 321.028 744.668 321.316L742.856 322.816V322.828C742.856 322.836 742.86 322.84 742.868 322.84H743.012C743.708 322.84 744.264 323.056 744.68 323.488C745.104 323.92 745.316 324.504 745.316 325.24C745.316 326.168 745.032 326.88 744.464 327.376C743.896 327.872 743.08 328.12 742.016 328.12C741.376 328.12 740.728 328.044 740.072 327.892C739.88 327.844 739.72 327.74 739.592 327.58C739.472 327.412 739.412 327.224 739.412 327.016V326.608C739.412 326.448 739.476 326.324 739.604 326.236C739.74 326.14 739.888 326.116 740.048 326.164C740.736 326.388 741.336 326.5 741.848 326.5C742.312 326.5 742.672 326.392 742.928 326.176C743.184 325.96 743.312 325.66 743.312 325.276C743.312 324.884 743.164 324.608 742.868 324.448C742.572 324.288 742.02 324.204 741.212 324.196C741.028 324.196 740.868 324.132 740.732 324.004C740.596 323.868 740.528 323.708 740.528 323.524V323.5C740.528 323.052 740.7 322.68 741.044 322.384L742.748 320.908V320.896C742.748 320.888 742.744 320.884 742.736 320.884H740.036Z" fill="black"/>
</g>
</g>
</g>
<defs>
<clipPath id="clip0_5_357">
<rect width="441" height="809.376" fill="white" transform="matrix(0 -1 1 0 0 441)"/>
</clipPath>
</defs>
</svg>
